
<svg id="Layer_1" enable-background="new 0 0 66 66"  viewBox="0 0 66 66" width="37" height="37" xmlns="http://www.w3.org/2000/svg"><g><path fill="#00A1FF" d="m49.33 24.14c0 .48.39.88.88.88s.88-.39.88-.88c0-6.28-5.11-11.39-11.39-11.39-.48 0-.88.39-.88.88s.39.88.88.88c5.3-.01 9.63 4.31 9.63 9.63z"/><path fill="#00A1FF" d="m56.54 46.63c-1.48.89-3.18 1.41-4.87 1.5h-8.29v-5.25h.13c.48 0 .88-.39.88-.88s-.39-.88-.88-.88h-18c-.48 0-.88.39-.88.88s.39.88.88.88h.13v5.25h-8.24c-2.46-.12-4.81-1.11-6.62-2.78-.36-.33-.91-.31-1.24.05s-.3.91.05 1.24c2.11 1.95 4.85 3.1 7.76 3.24h8.29v4.25h-2.25v-2.13c0-.48-.39-.88-.88-.88h-6c-.48 0-.88.39-.88.88v6c0 .48.39.88.88.88h6c.48 0 .88-.39.88-.88v-2.13h3.13c.48 0 .88-.39.88-.88v-5.13h8.25v10.25h-2.25v-2.11c0-.48-.39-.88-.88-.88h-6c-.48 0-.88.39-.88.88v6c0 .48.39.88.88.88h6c.48 0 .88-.39.88-.88v-2.13h3.13c.48 0 .88-.39.88-.88v-11.12h4.25v11.13c0 .48.39.88.88.88h3.13v2.12c0 .48.39.88.88.88h6c.48 0 .88-.39.88-.88v-6c0-.48-.39-.88-.88-.88h-6c-.48 0-.88.39-.88.88v2.13h-2.25v-10.26h8.33c2.02-.1 4.01-.71 5.73-1.75.41-.25.55-.79.3-1.2-.29-.41-.83-.54-1.24-.29zm-34.91 10.5h-4.25v-4.25h4.25zm10 6h-4.25v-4.25h4.25zm15.75-4.25h4.25v4.25h-4.25zm-20-10.75v-5.25h8.25v5.25zm10 0v-5.25h4.25v5.25z"/><path fill="#00A1FF" d="m54.96 25.97c.08-.64.12-1.24.12-1.83 0-8.49-6.91-15.39-15.39-15.39-5.61 0-10.67 2.98-13.4 7.84-1.03-.39-2.1-.58-3.2-.58-5.06 0-9.17 4.11-9.17 9.17 0 .27.01.54.04.82-4.95 1.68-8.34 6.35-8.34 11.62 0 1.91.43 3.74 1.27 5.43.21.43.74.61 1.17.4s.61-.74.4-1.17c-.72-1.45-1.08-3.02-1.08-4.66 0-4.74 3.2-8.92 7.78-10.16.44-.12.71-.55.63-1-.08-.46-.12-.88-.12-1.29 0-4.09 3.33-7.42 7.42-7.42 1.11 0 2.19.25 3.21.74.43.21.95.03 1.16-.4 2.32-4.69 7-7.6 12.22-7.6 7.52 0 13.64 6.12 13.64 13.64 0 .72-.07 1.48-.21 2.31-.08.45.2.88.64.99 4.63 1.21 7.87 5.4 7.87 10.18 0 2.71-1.03 5.28-2.89 7.24-.33.35-.32.9.03 1.24.17.16.39.24.6.24.23 0 .46-.09.63-.27 2.18-2.29 3.37-5.29 3.37-8.45.02-5.3-3.41-9.98-8.4-11.64z"/><path fill="#00A1FF" d="m27.62 31.38c-.34-.34-.9-.34-1.24 0l-3 3c-.01.01-.02.03-.03.05-.06.07-.12.15-.16.23-.04.1-.06.2-.06.3 0 .01-.01.02-.01.03s.01.02.01.03c0 .1.02.21.06.3s.09.16.16.23c.01.02.02.04.03.05l3 3c.17.17.4.26.62.26s.45-.08.62-.26c.34-.34.34-.9 0-1.24l-1.51-1.51h11.89c.48 0 .88-.39.88-.88s-.39-.88-.88-.88h-11.89l1.51-1.51c.34-.3.34-.86 0-1.2z"/><path fill="#00A1FF" d="m30.13 30c0 .48.39.88.88.88h11.89l-1.51 1.51c-.34.34-.34.9 0 1.24.17.17.4.26.62.26s.45-.08.62-.26l3-3c.01-.01.02-.03.03-.05.06-.07.12-.15.16-.23.04-.1.06-.2.06-.3 0-.01.01-.02.01-.03s-.01-.02-.01-.03c0-.1-.02-.21-.06-.3s-.09-.16-.16-.23c-.01-.02-.02-.04-.03-.05l-3-3c-.34-.34-.9-.34-1.24 0s-.34.9 0 1.24l1.51 1.51h-11.9c-.48-.03-.87.36-.87.84z"/><path fill="#00A1FF" d="m8.98 26.74c.22 0 .45-.08.62-.26.34-.34.34-.9 0-1.24l-2.82-2.82 1.6-2.24c.19-.27.22-.63.06-.92-.27-.52-.5-1.05-.66-1.59-.1-.32-.37-.55-.69-.61l-2.71-.45v-3.25l2.71-.45c.33-.05.6-.29.69-.61.17-.54.39-1.07.66-1.59.16-.29.13-.65-.06-.92l-1.6-2.24 2.29-2.29 2.24 1.6c.27.19.63.22.92.06.51-.27 1.05-.5 1.59-.66.32-.1.55-.37.61-.69l.45-2.71h3.24l.45 2.71c.05.33.29.59.61.69.54.17 1.08.39 1.59.66.29.16.65.13.92-.06l2.24-1.6 2.29 2.29-1.6 2.24c-.19.27-.22.63-.06.92.27.52.5 1.05.66 1.59.14.46.63.72 1.09.58s.72-.63.58-1.09c-.15-.47-.33-.95-.54-1.41l1.72-2.41c.25-.35.21-.83-.09-1.13l-3.34-3.34c-.3-.3-.78-.34-1.13-.09l-2.41 1.74c-.29-.14-.59-.26-.89-.37l-.49-2.92c-.07-.42-.44-.73-.86-.73h-4.73c-.43 0-.79.31-.86.73l-.49 2.92c-.3.11-.6.23-.89.37l-2.4-1.73c-.35-.25-.83-.21-1.13.1l-3.34 3.34c-.3.3-.34.78-.09 1.13l1.72 2.41c-.14.29-.26.59-.37.89l-2.92.49c-.42.07-.73.44-.73.86v4.73c0 .43.31.79.73.86l2.92.49c.11.3.23.59.37.89l-1.72 2.41c-.25.35-.21.83.09 1.13l3.34 3.34c.17.16.39.25.62.25z"/><path fill="#00A1FF" d="m16.5 10.67c2.06 0 3.84 1.47 4.24 3.49.09.47.55.79 1.03.69.47-.09.78-.55.69-1.03-.56-2.84-3.06-4.9-5.96-4.9-3.35 0-6.08 2.73-6.08 6.08 0 1.96.96 3.81 2.57 4.95.15.11.33.16.5.16.27 0 .54-.13.71-.37.28-.39.19-.94-.21-1.22-1.15-.81-1.83-2.13-1.83-3.52.01-2.38 1.96-4.33 4.34-4.33z"/></g></svg>