
<svg id="Layer_5" enable-background="new 0 0 62 62"  viewBox="0 0 62 62" width="37" height="37" xmlns="http://www.w3.org/2000/svg"><g><path fill="#00A1FF" d="m15 44h-5v-4h-2v4h-5c-1.654 0-3 1.346-3 3v8c0 1.654 1.346 3 3 3h2v2h-2v2h12v-2h-2v-2h2c1.654 0 3-1.346 3-3v-8c0-1.654-1.346-3-3-3zm-12 2h12c.551 0 1 .449 1 1v5h-14v-5c0-.551.449-1 1-1zm8 14h-4v-2h4zm4-4h-12c-.551 0-1-.449-1-1v-1h14v1c0 .551-.449 1-1 1z"/><path fill="#00A1FF" d="m37 44h-5v-9h-2v9h-5c-1.654 0-3 1.346-3 3v8c0 1.654 1.346 3 3 3h2v2h-2v2h12v-2h-2v-2h2c1.654 0 3-1.346 3-3v-8c0-1.654-1.346-3-3-3zm-12 2h12c.551 0 1 .449 1 1v5h-14v-5c0-.551.449-1 1-1zm8 14h-4v-2h4zm4-4h-12c-.551 0-1-.449-1-1v-1h14v1c0 .551-.449 1-1 1z"/><path fill="#00A1FF" d="m59 44h-5v-4h-2v4h-5c-1.654 0-3 1.346-3 3v8c0 1.654 1.346 3 3 3h2v2h-2v2h12v-2h-2v-2h2c1.654 0 3-1.346 3-3v-8c0-1.654-1.346-3-3-3zm-12 2h12c.551 0 1 .449 1 1v5h-14v-5c0-.551.449-1 1-1zm8 14h-4v-2h4zm4-4h-12c-.551 0-1-.449-1-1v-1h14v1c0 .551-.449 1-1 1z"/><path fill="#00A1FF" d="m20 27.816v4.184h2v-4.184c1.161-.414 2-1.514 2-2.816 0-1.654-1.346-3-3-3s-3 1.346-3 3c0 1.302.839 2.402 2 2.816zm1-3.816c.551 0 1 .449 1 1s-.449 1-1 1-1-.449-1-1 .449-1 1-1z"/><path fill="#00A1FF" d="m32 24.816c1.161-.414 2-1.514 2-2.816 0-1.654-1.346-3-3-3s-3 1.346-3 3c0 1.302.839 2.402 2 2.816v4.184h2zm-1-3.816c.551 0 1 .449 1 1s-.449 1-1 1-1-.449-1-1 .449-1 1-1z"/><path fill="#00A1FF" d="m30 31h2v2h-2z"/><path fill="#00A1FF" d="m42 27.816c1.161-.414 2-1.514 2-2.816 0-1.654-1.346-3-3-3s-3 1.346-3 3c0 1.302.839 2.402 2 2.816v4.184h2zm-1-3.816c.551 0 1 .449 1 1s-.449 1-1 1-1-.449-1-1 .449-1 1-1z"/><path fill="#00A1FF" d="m40 34h2v2h-2z"/><path fill="#00A1FF" d="m54 38v-4h-10v2h8v2z"/><path fill="#00A1FF" d="m20 34h2v2h-2z"/><path fill="#00A1FF" d="m18 34h-10v4h2v-2h8z"/><path fill="#00A1FF" d="m8 32h10v-2h-10c-3.309 0-6-2.691-6-6 0-3.307 2.689-5.998 6.027-5.998h.004l.991.028.143-.856c.89-5.316 5.446-9.174 10.835-9.174 1.909 0 3.799.506 5.466 1.464l.871.5.497-.873c2.489-4.374 7.151-7.091 12.166-7.091 7.72 0 14 6.28 14 14v.069c-3.94.495-7 3.859-7 7.931h2c0-3.309 2.691-6 6-6s6 2.691 6 6-2.691 6-6 6h-10v2h10c4.411 0 8-3.589 8-8 0-4.072-3.06-7.436-7-7.931v-.069c0-8.822-7.178-16-16-16-5.409 0-10.458 2.765-13.401 7.276-1.747-.837-3.664-1.276-5.599-1.276-6.09 0-11.281 4.168-12.644 10.026-4.111.328-7.356 3.78-7.356 7.974 0 4.411 3.589 8 8 8z"/><path fill="#00A1FF" d="m50 42v-4h-14v-11h-2v13h14v2z"/><path fill="#00A1FF" d="m14 40h14v-13h-2v11h-14v4h2z"/><path fill="#00A1FF" d="m36.272 6.376-.544-1.925c-3.198.904-5.902 3.125-7.419 6.093l1.781.91c1.264-2.473 3.518-4.324 6.182-5.078z"/><path fill="#00A1FF" d="m48.835 14.181 1.967-.361c-1.045-5.691-6.009-9.82-11.802-9.82-.367 0-.731.017-1.09.049l.181 1.992c.299-.027.602-.041.909-.041 4.828 0 8.964 3.44 9.835 8.181z"/><path fill="#00A1FF" d="m20 10c-4.531 0-8.37 3.386-8.93 7.876l1.984.247c.436-3.49 3.422-6.123 6.946-6.123z"/></g></svg>