<svg width="299" height="159" viewBox="0 0 299 159" fill="none" xmlns="http://www.w3.org/2000/svg">
<path fill-rule="evenodd" clip-rule="evenodd" d="M7.4194 -74.4904C6.64632 -71.5903 6.64411 -68.4938 7.44548 -65.5257L5.43942 -39.9695C4.38636 -38.9824 3.48629 -37.8498 2.76901 -36.6105C0.893764 -33.3708 0.251927 -29.4224 1.29619 -25.5544C3.3847 -17.8185 11.4835 -13.1538 19.2442 -15.2176C27.0048 -17.2813 31.6716 -25.3463 29.583 -33.0823C28.1388 -38.4315 23.8199 -42.3024 18.7269 -43.5033L20.7253 -69.059C20.3806 -70.3355 20.745 -71.6455 21.6058 -72.4797L55.0931 -105.089C56.0934 -106.063 57.4039 -106.394 58.6348 -106.064L22.9807 -253.56L69.6901 -241.044C75.6835 -239.438 82.0698 -241.174 86.4354 -245.484L129.336 -287.841C134.351 -286.33 140.037 -287.525 143.966 -291.44C149.643 -297.095 149.63 -306.406 143.941 -312.074C138.252 -317.742 128.907 -317.748 123.231 -312.093C120.392 -309.266 118.971 -305.526 118.976 -301.783C118.977 -300.355 119.19 -298.927 119.607 -297.549L76.7413 -255.229C75.7907 -254.29 74.4816 -253.94 73.2353 -254.274L26.766 -266.726C26.6861 -266.749 26.6058 -266.77 26.5248 -266.79C25.2686 -267.127 24.3061 -268.09 23.9683 -269.341L11.4105 -315.88C11.0726 -317.132 11.42 -318.428 12.3385 -319.343L52.8975 -359.758C55.5817 -362.432 55.576 -366.774 52.8846 -369.452C50.1953 -372.125 45.847 -372.127 43.1659 -369.457L104.968 -249.506C100.594 -245.149 98.88 -238.752 100.489 -232.791L9.16774 -271.441L62.179 -119.295C56.1702 -120.905 49.8166 -119.132 45.4646 -114.894L11.9768 -82.2822C9.72942 -80.0937 8.19069 -77.391 7.4194 -74.4904ZM9.84128 -31.2503C9.95685 -31.607 10.117 -31.9466 10.304 -32.2696C11.0524 -33.5617 12.3145 -34.563 13.9107 -34.9874C17.1031 -35.8363 20.2729 -34.016 21.132 -30.8339C21.991 -27.6517 20.163 -24.4976 16.9707 -23.6487C13.7783 -22.7996 10.6062 -24.6207 9.74709 -27.8028C9.42502 -28.9961 9.47889 -30.185 9.84128 -31.2503ZM36.0799 37.6786C35.8162 38.7822 35.833 39.9333 36.1277 41.0305L53.6089 105.764C54.5998 109.414 58.3694 111.582 62.0332 110.61C65.6977 109.634 67.868 105.886 66.8858 102.232L50.4497 41.3475L130.317 -37.3444C131.275 -38.2882 132.579 -38.6323 133.823 -38.2988L180.542 -25.7805C181.798 -25.4441 182.756 -24.4922 183.094 -23.2408L184.19 -19.167C184.198 -19.137 184.186 -19.1049 184.193 -19.073L195.649 23.3352C195.97 24.575 195.637 25.867 194.728 26.7727L191.52 29.9674L157.366 63.9896L156.027 65.3232C151.013 63.8199 145.333 65.0182 141.408 68.9281C138.57 71.7558 137.159 75.4958 137.163 79.2389C137.167 82.982 138.587 86.7256 141.432 89.5594C147.121 95.227 156.465 95.2438 162.141 89.5885C166.066 85.6792 167.271 80.0201 165.765 75.0267L167.098 73.6965L167.112 73.6883L201.257 39.6638C202.175 38.7488 203.49 38.3961 204.747 38.7327L260.232 53.6001C261.495 53.9383 262.458 54.8996 262.787 56.1304L274.971 101.741C275.312 103.015 274.962 104.314 274.049 105.226C234.43 144.695 274.048 105.228 232.514 146.605C229.835 149.276 229.838 153.608 232.52 156.287C235.207 158.968 239.563 158.976 242.248 156.305C283.782 114.928 244.162 154.395 283.781 114.925C288.159 110.563 289.85 104.184 288.264 98.2409L276.187 53.05C277.981 52.2139 279.874 51.5453 281.315 50.1102L313.601 17.9547C318.613 19.456 324.295 18.2553 328.218 14.3466C333.895 8.69148 333.881 -0.617605 328.192 -6.28523C322.503 -11.9529 313.161 -11.9689 307.484 -6.31368C304.646 -3.48597 303.223 0.263138 303.227 4.00633C303.228 5.44017 303.441 6.87257 303.859 8.25527L271.576 40.4131C270.658 41.328 269.343 41.6806 268.086 41.344L212.6 26.4766C211.344 26.1399 210.379 25.1763 210.041 23.9249L208.938 19.8416C208.928 19.8191 208.948 19.7894 208.938 19.7642L197.493 -22.6484C197.177 -23.8852 197.505 -25.1733 198.412 -26.0765C226.835 -53.3872 254.671 -81.2089 282.627 -108.827C287.639 -107.322 293.317 -108.519 297.243 -112.43C302.92 -118.085 302.916 -127.394 297.227 -133.061C291.538 -138.729 282.184 -138.738 276.507 -133.083C273.669 -130.255 272.258 -126.513 272.262 -122.77C272.263 -121.339 272.477 -119.909 272.893 -118.529C244.98 -90.9537 217.257 -63.2622 189.049 -36.1527C187.462 -37.2306 185.996 -38.5019 184.089 -39.0128L137.367 -51.532C131.372 -53.1385 124.988 -51.4009 120.625 -47.1008L37.9239 34.3922C37.0124 35.2931 36.3746 36.4329 36.0799 37.6786ZM46.2496 -308.011C45.8543 -306.655 45.6563 -305.252 45.6576 -303.848C45.6618 -300.105 47.0848 -296.363 49.9293 -293.529C55.6183 -287.861 64.9602 -287.845 70.6369 -293.501C74.5603 -297.409 75.7616 -303.066 74.2545 -308.059L106.541 -340.227C107.459 -341.142 108.774 -341.492 110.03 -341.156L259.582 -163.141L313.438 -148.711C314.771 -148.353 315.715 -147.359 315.936 -146.404L352.471 -203.867C353.327 -200.18 357.018 -197.877 360.718 -198.718C364.42 -199.559 366.731 -203.228 365.879 -206.918L355.221 -252.947C353.758 -259.27 322.889 -160.361 316.983 -161.944L263.128 -176.374L113.576 -354.389C112.413 -354.697 111.19 -354.696 110.029 -354.387C105.168 -354.646 100.317 -353.422 96.8063 -349.924L64.5171 -317.765C59.5055 -319.269 53.8286 -318.071 49.9032 -314.161C48.1293 -312.394 46.9113 -310.269 46.2496 -308.011ZM90.2265 55.2317C89.9316 56.4369 89.7989 57.573 89.6365 58.6042C89.2038 61.3543 89.1894 63.6621 89.1894 63.6621C89.1841 64.2807 89.265 64.898 89.4264 65.4959C93.6144 81.0082 97.8032 96.524 101.991 112.036C103.6 117.997 108.301 122.675 114.284 124.278L160.994 136.794C166.977 138.397 173.386 136.696 177.761 132.339L216.466 93.7818C221.478 95.2866 227.157 94.0873 231.083 90.1763C236.76 84.5211 236.746 75.2119 231.057 69.5444C225.368 63.8767 216.023 63.87 210.347 69.5252C207.508 72.3529 206.088 76.0903 206.092 79.8334C206.094 81.2654 206.309 82.697 206.728 84.0784L168.028 122.642C167.11 123.557 165.795 123.9 164.539 123.563L117.829 111.047C116.573 110.711 115.608 109.757 115.27 108.506C111.182 93.3621 107.096 78.217 103.008 63.0736C103.025 62.6128 103.024 61.9963 103.22 60.7507C103.478 59.1158 104.586 57.5546 103.643 58.4943L142.339 19.9347C147.351 21.4424 153.028 20.2473 156.954 16.3363C162.631 10.681 162.629 1.36507 156.94 -4.3025C151.251 -9.97013 141.897 -9.97932 136.221 -4.32414C133.382 -1.49647 131.971 2.24579 131.975 5.98902C131.976 7.42154 132.19 8.85402 132.608 10.2355L93.9022 48.7927C92.1075 50.5805 91.148 52.344 90.5833 54.0051C90.4438 54.421 90.3261 54.8302 90.2265 55.2317ZM54.4627 -304.954C54.6782 -306.058 55.2221 -307.116 56.0978 -307.988C58.433 -310.314 62.0881 -310.306 64.4284 -307.975C66.7686 -305.643 66.7794 -302.007 64.4443 -299.68C62.1091 -297.354 58.4498 -297.356 56.1095 -299.687C54.9395 -300.853 54.3555 -302.346 54.3538 -303.84C54.3534 -304.213 54.3908 -304.585 54.4627 -304.954ZM140.78 4.88299C140.999 3.77947 141.549 2.72333 142.424 1.85092C144.759 -0.47529 148.408 -0.468786 150.748 1.8626C153.088 4.19405 153.094 7.83961 150.759 10.1658C148.424 12.4922 144.767 12.4807 142.427 10.1494C141.257 8.98371 140.673 7.49032 140.671 5.99714C140.67 5.62377 140.707 5.25096 140.78 4.88299ZM145.97 78.1335C146.186 77.029 146.73 75.9713 147.605 75.099C149.94 72.7727 153.596 72.781 155.936 75.1125C158.276 77.4439 158.284 81.0901 155.949 83.4164C153.614 85.7425 149.957 85.7336 147.616 83.4022C146.446 82.2365 145.863 80.7408 145.861 79.2476C145.861 78.8742 145.898 78.5017 145.97 78.1335ZM127.786 -302.887C128.002 -303.991 128.545 -305.049 129.421 -305.922C131.756 -308.248 135.416 -308.248 137.756 -305.917C140.096 -303.586 140.103 -299.94 137.767 -297.614C135.432 -295.287 131.772 -295.287 129.432 -297.618C128.262 -298.784 127.679 -300.28 127.677 -301.773C127.676 -302.146 127.714 -302.519 127.786 -302.887ZM226.52 -3.37227C226.125 -2.01647 225.923 -0.614309 225.924 0.789302C225.928 4.53249 227.35 8.27668 230.195 11.1104C235.884 16.7779 245.238 16.7872 250.914 11.1321C254.84 7.22137 256.042 1.56343 254.531 -3.42931L293.233 -41.9845C294.152 -42.8997 295.457 -43.2447 296.713 -42.9081C312.284 -38.7359 327.852 -34.5646 343.423 -30.3923C344.679 -30.0557 345.646 -29.1014 345.984 -27.85L358.549 18.6903C358.887 19.9418 358.537 21.2481 357.619 22.163L317.05 62.5756C314.372 65.249 314.38 69.5831 317.066 72.26C319.753 74.9409 324.106 74.9484 326.791 72.2773L367.353 31.8606C371.727 27.5029 373.438 21.118 371.829 15.1572L359.262 -31.3838C357.652 -37.3447 352.952 -42.0221 346.969 -43.6253C331.398 -47.7976 315.83 -51.9689 300.259 -56.1412C294.276 -57.7444 287.866 -56.0437 283.492 -51.6862L244.793 -13.1251C239.782 -14.6288 234.104 -13.4292 230.179 -9.5188C228.405 -7.75163 227.185 -5.63018 226.52 -3.37227ZM234.731 -0.315891C234.951 -1.41953 235.498 -2.47622 236.374 -3.34866C238.709 -5.67482 242.368 -5.6729 244.708 -3.3415C247.049 -1.01014 247.046 2.63054 244.711 4.95689C242.375 7.28321 238.718 7.28428 236.378 4.95278C235.207 3.78712 234.624 2.29115 234.622 0.798194C234.622 0.424821 234.658 0.0517941 234.731 -0.315891ZM214.9 78.7282C215.119 77.6247 215.666 76.5678 216.542 75.6955C218.877 73.3692 222.537 73.3713 224.877 75.7026C227.217 78.0341 227.223 81.6773 224.888 84.0037C222.553 86.3299 218.893 86.3301 216.553 83.9988C215.383 82.8332 214.792 81.3353 214.791 79.8424C214.79 79.469 214.827 79.0961 214.9 78.7282ZM281.069 -123.873C281.288 -124.976 281.836 -126.033 282.712 -126.906C285.047 -129.232 288.707 -129.232 291.047 -126.901C293.387 -124.569 293.384 -120.926 291.049 -118.6C288.713 -116.274 285.056 -116.273 282.716 -118.604C281.545 -119.77 280.962 -121.266 280.96 -122.759C280.96 -123.132 280.996 -123.505 281.069 -123.873ZM312.028 2.90106C312.248 1.79757 312.797 0.741301 313.673 -0.131062C316.008 -2.45721 319.665 -2.45583 322.005 -0.12442C324.346 2.20692 324.344 5.85058 322.009 8.17689C319.674 10.5032 316.027 10.4943 313.686 8.1629C312.516 6.99724 311.921 5.50833 311.92 4.01523C311.919 3.64186 311.955 3.26902 312.028 2.90106Z" fill="url(#paint0_linear_1577_687)"/>
<defs>
<linearGradient id="paint0_linear_1577_687" x1="242.245" y1="156.308" x2="55.8123" y2="-233.482" gradientUnits="userSpaceOnUse">
<stop stop-color="#00A1FF"/>
<stop offset="1" stop-color="#00FC92"/>
</linearGradient>
</defs>
</svg>
