
<svg width="37" height="37"  viewBox="0 0 480 480"  xmlns="http://www.w3.org/2000/svg">
<g id="_21-research" data-name="21-research">
<path fill="#00A1FF" d="m224 328h32v16h-32z"/>
<path fill="#00A1FF" d="m440 8h-400a32.036 32.036 0 0 0 -32 32v304a32.036 32.036 0 0 0 32 32h144v80h-24v16h160v-16h-24v-80h144a32.036 32.036 0 0 0 32-32v-304a32.036 32.036 0 0 0 -32-32zm-416 32a16.019 16.019 0 0 1 16-16h400a16.019 16.019 0 0 1 16 16v256h-432zm256 416h-80v-80h80zm160-96h-400a16.019 16.019 0 0 1 -16-16v-32h432v32a16.019 16.019 0 0 1 -16 16z"/>
<path fill="#00A1FF" d="m272 56a55.985 55.985 0 0 0 -54.092 70.476l-25.059 10.74a39.937 39.937 0 0 0 -61-5.6l-44.584-29.716a24.04 24.04 0 1 0 -8.885 13.3l44.579 29.722a39.869 39.869 0 0 0 1.452 33.3l-18.821 15.06a40.029 40.029 0 1 0 10 12.49l18.821-15.06a39.894 39.894 0 0 0 50.552.507l48.537 40.444a24 24 0 1 0 33.244-13.116l6.328-50.574a55.992 55.992 0 0 0 -1.072-111.973zm-47.778 85.178a56.223 56.223 0 0 0 32.969 24.822l-6.327 50.561a23.862 23.862 0 0 0 -7.119 2.816l-48.525-40.434a39.991 39.991 0 0 0 3.957-27.031zm-160.222-37.178a8 8 0 1 1 8-8 8.009 8.009 0 0 1 -8 8zm16 144a24 24 0 1 1 24-24 24.028 24.028 0 0 1 -24 24zm80-64a24 24 0 1 1 24-24 24.028 24.028 0 0 1 -24 24zm96 64a8 8 0 1 1 8-8 8.009 8.009 0 0 1 -8 8zm16-96a40 40 0 1 1 40-40 40.045 40.045 0 0 1 -40 40z"/>
<path fill="#00A1FF" d="m352 56h80v16h-80z"/>
<path fill="#00A1FF" d="m352 88h32v16h-32z"/>
<path fill="#00A1FF" d="m352 120h64v16h-64z"/>
<path fill="#00A1FF" d="m352 152h80v16h-80z"/>
<path fill="#00A1FF" d="m352 184h48v16h-48z"/>
<path fill="#00A1FF" d="m352 216h64v16h-64z"/>
<path fill="#00A1FF" d="m352 248h80v16h-80z"/>
</g>
</svg>