<svg width="228" height="269" viewBox="0 0 228 269" fill="none" xmlns="http://www.w3.org/2000/svg">
<mask id="path-1-inside-1_1577_1417" fill="white">
<path fill-rule="evenodd" clip-rule="evenodd" d="M164.989 3.09184e-05C161.998 0.00389037 159.017 0.802074 156.367 2.34223L109.271 29.7046C108.049 28.9439 106.727 28.3684 105.349 27.9969C101.747 27.0254 97.7815 27.4268 94.3278 29.4338C87.4206 33.4478 85.0195 42.4656 89.0075 49.4182C92.9952 56.3707 101.961 58.7877 108.869 54.7736C113.645 51.9979 116.257 46.8314 116.099 41.6084L163.192 14.2387C164.332 13.5764 165.687 13.5892 166.712 14.204L206.735 38.0775C207.93 38.7906 208.587 39.9693 208.587 41.2418V101.632V149.923C208.587 156.119 211.905 161.831 217.18 164.927L269.012 195.361C268.851 200.59 271.468 205.765 276.249 208.544C283.156 212.558 292.115 210.138 296.103 203.186C300.091 196.233 297.688 187.218 290.78 183.204C287.327 181.197 283.361 180.793 279.759 181.765C278.385 182.135 277.066 182.71 275.847 183.467L224.059 153.058C222.91 152.383 222.236 151.211 222.236 149.923V101.88C222.237 101.797 222.237 101.714 222.236 101.631C222.236 100.332 222.914 99.1547 224.032 98.5054L265.587 74.3635C266.704 73.7142 268.042 73.7141 269.159 74.3635L318.519 103.041C321.785 104.939 325.962 103.811 327.846 100.523C329.726 97.238 328.606 93.0431 325.345 91.147L275.995 62.4573C270.672 59.3643 264.074 59.3643 258.751 62.4573L222.236 83.686V41.2409C222.236 35.0286 218.891 29.3582 213.689 26.2556L173.664 2.38216C170.978 0.780019 167.979 -0.00568107 164.989 3.09184e-05ZM102.014 36.2042C102.387 36.2235 102.755 36.2902 103.114 36.3871C104.551 36.775 105.84 37.7337 106.66 39.1637C108.301 42.0236 107.366 45.5517 104.525 47.2028C101.684 48.854 98.1764 47.9059 96.536 45.046C94.8955 42.186 95.8302 38.6556 98.6715 37.0044C99.7369 36.3853 100.895 36.13 102.014 36.2042ZM64.4172 56.6376C63.2869 56.6685 62.1833 56.9822 61.2033 57.55L3.40588 91.1436C0.148021 93.0429 -0.966835 97.2395 0.914216 100.522C2.79791 103.805 6.96542 104.93 10.2292 103.038L64.5918 71.447L160.931 128.148C162.086 128.828 162.754 129.997 162.754 131.283V179.584C162.754 180.882 162.085 182.053 160.967 182.702L157.329 184.812C157.302 184.828 157.268 184.824 157.239 184.839L119.376 206.851C118.265 207.481 116.936 207.494 115.83 206.851L111.927 204.582L70.3726 180.431L68.7438 179.484C68.8976 174.259 66.2792 169.089 61.5037 166.314C58.05 164.307 54.0864 163.913 50.4848 164.884C46.8831 165.856 43.6461 168.193 41.6521 171.669C37.6642 178.622 40.058 187.639 46.9652 191.654C51.74 194.428 57.4978 194.129 61.9156 191.385L63.5397 192.327L63.5512 192.339L105.106 216.481C106.223 217.13 106.902 218.307 106.902 219.606V276.971C106.902 278.275 106.225 279.453 105.125 280.089L64.3679 303.63C63.2295 304.288 61.8883 304.286 60.7757 303.642C12.5681 275.626 60.7731 303.641 10.2355 274.272C6.97423 272.378 2.80498 273.5 0.918136 276.78C-0.969203 280.064 0.146383 284.268 3.40991 286.168C53.9474 315.537 5.74242 287.52 53.95 315.536C59.2774 318.632 65.8537 318.613 71.1644 315.547L111.546 292.218C112.814 293.733 113.945 295.386 115.698 296.405L154.975 319.236C154.822 324.46 157.443 329.63 162.217 332.404C169.124 336.418 178.081 333.999 182.069 327.046C186.057 320.094 183.663 311.078 176.756 307.064C173.302 305.057 169.326 304.653 165.725 305.625C164.345 305.997 163.021 306.572 161.798 307.332L122.52 284.504C121.403 283.855 120.724 282.678 120.724 281.379V224.014C120.724 222.715 121.403 221.536 122.52 220.886L126.166 218.766C126.185 218.751 126.219 218.762 126.24 218.747L164.111 196.745C165.22 196.12 166.544 196.104 167.647 196.745C201.264 217.103 235.222 236.762 269.014 256.591C268.858 261.814 271.475 266.982 276.251 269.758C283.159 273.772 292.118 271.363 296.105 264.41C300.093 257.458 297.69 248.433 290.783 244.419C287.329 242.411 283.363 242.017 279.761 242.989C278.384 243.36 277.063 243.936 275.842 244.694C242.102 224.896 208.299 205.312 174.931 185.109C175.559 183.3 176.405 181.557 176.405 179.586V131.282C176.405 125.083 173.086 119.375 167.822 116.277L68.0559 57.5669C66.9537 56.9205 65.6922 56.5999 64.4172 56.6376ZM266.997 110.003C265.59 109.972 264.189 110.144 262.838 110.508C259.236 111.48 256.002 113.82 254.008 117.296C250.02 124.248 252.414 133.264 259.321 137.278C264.095 140.052 269.849 139.749 274.267 137.004L313.555 159.834C314.673 160.483 315.349 161.66 315.349 162.959V220.324V276.002C315.349 277.381 314.635 278.548 313.773 279.008L272.218 301.176C268.89 302.954 267.625 307.111 269.39 310.462C271.153 313.815 275.281 315.096 278.612 313.321L320.167 291.144C325.875 288.098 329 282.108 329 276.002V220.324V162.959C328.997 161.758 328.681 160.579 328.084 159.539C327.08 154.783 324.65 150.42 320.378 147.937L281.097 125.103C281.252 119.88 278.636 114.714 273.859 111.938C271.701 110.684 269.342 110.058 266.997 110.003ZM61.4867 113.404C60.2507 113.431 59.123 113.597 58.0885 113.707C55.3299 114 53.105 114.583 53.105 114.583C52.5083 114.738 51.935 114.975 51.4011 115.285C37.5505 123.335 23.6968 131.385 9.84624 139.435C4.52398 142.527 1.23413 148.27 1.23413 154.456V202.747C1.23413 208.933 4.52398 214.676 9.84624 217.769L56.9396 245.139C56.7839 250.363 59.4027 255.53 64.1796 258.306C71.0868 262.321 80.0434 259.901 84.0312 252.949C88.0191 245.996 85.6156 236.981 78.7084 232.967C75.2548 230.96 71.2912 230.556 67.6896 231.527C66.3116 231.898 64.9893 232.477 63.7677 233.238L16.6693 205.875C15.5518 205.226 14.883 204.046 14.883 202.747V154.456C14.883 153.158 15.5519 151.98 16.6693 151.331C30.1905 143.473 43.7141 135.618 57.2352 127.76C57.683 127.657 58.2764 127.498 59.5258 127.365C61.1658 127.19 62.9543 127.856 61.8067 127.189L108.9 154.549C108.741 159.773 111.356 164.941 116.133 167.717C123.04 171.731 132.006 169.321 135.994 162.369C139.982 155.416 137.579 146.391 130.671 142.377C127.218 140.37 123.252 139.976 119.65 140.947C118.271 141.319 116.948 141.896 115.726 142.655L68.6323 115.286C66.4486 114.017 64.5039 113.547 62.7594 113.431C62.3231 113.404 61.8989 113.397 61.4867 113.404ZM266.173 118.716C267.292 118.638 268.45 118.889 269.516 119.509C272.357 121.16 273.292 124.688 271.651 127.548C270.011 130.408 266.513 131.358 263.672 129.707C260.83 128.056 259.889 124.526 261.529 121.666C262.349 120.236 263.636 119.286 265.073 118.899C265.432 118.802 265.8 118.742 266.173 118.716ZM122.985 149.155C124.104 149.081 125.262 149.338 126.328 149.957C129.169 151.609 130.104 155.129 128.463 157.989C126.823 160.849 123.315 161.797 120.474 160.146C117.633 158.495 116.701 154.964 118.341 152.104C119.161 150.675 120.448 149.725 121.885 149.338C122.244 149.241 122.612 149.179 122.985 149.155ZM53.8201 173.094C54.9387 173.017 56.0971 173.268 57.1625 173.887C60.0038 175.538 60.9385 179.066 59.298 181.926C57.6576 184.786 54.1503 185.736 51.3089 184.085C48.4678 182.434 47.5331 178.904 49.1735 176.044C49.9938 174.614 51.2829 173.664 52.7197 173.277C53.079 173.18 53.4471 173.12 53.8201 173.094ZM283.094 189.977C284.213 189.901 285.371 190.151 286.437 190.77C289.278 192.422 290.222 195.952 288.582 198.812C286.941 201.672 283.434 202.62 280.593 200.969C277.752 199.318 276.807 195.787 278.448 192.927C279.268 191.497 280.557 190.548 281.994 190.16C282.353 190.063 282.721 190.004 283.094 189.977ZM153.044 229.727C151.637 229.696 150.235 229.863 148.884 230.227C145.283 231.198 142.046 233.538 140.052 237.014C136.064 243.967 138.467 252.992 145.375 257.006C150.151 259.782 155.907 259.479 160.323 256.731L207.414 284.098C208.531 284.747 209.2 285.917 209.2 287.216C209.2 303.314 209.2 319.409 209.2 335.507C209.2 336.806 208.531 337.985 207.414 338.635L165.859 362.784C164.741 363.433 163.394 363.433 162.276 362.784L112.916 334.097C109.653 332.205 105.483 333.332 103.599 336.615C101.712 339.899 102.827 344.101 106.091 346L155.453 374.68C160.775 377.773 167.362 377.773 172.684 374.68L214.239 350.529C219.562 347.436 222.851 341.693 222.851 335.507C222.851 319.409 222.851 303.314 222.851 287.216C222.851 281.03 219.561 275.287 214.239 272.194L167.143 244.832C167.298 239.609 164.679 234.442 159.903 231.667C157.745 230.412 155.388 229.784 153.044 229.727ZM152.22 238.437C153.338 238.363 154.497 238.618 155.562 239.237C158.403 240.888 159.345 244.419 157.705 247.279C156.064 250.138 152.56 251.077 149.718 249.425C146.877 247.774 145.933 244.246 147.573 241.386C148.393 239.957 149.683 239.007 151.119 238.62C151.478 238.523 151.847 238.461 152.22 238.437ZM71.0248 239.737C72.1434 239.663 73.3019 239.918 74.3673 240.537C77.2085 242.188 78.1504 245.719 76.51 248.579C74.8694 251.439 71.3646 252.387 68.5232 250.736C65.6819 249.085 64.7378 245.554 66.3781 242.694C67.1983 241.264 68.4877 240.308 69.9243 239.92C70.2835 239.823 70.6518 239.762 71.0248 239.737ZM283.094 251.199C284.213 251.126 285.371 251.38 286.437 252C289.278 253.651 290.222 257.181 288.582 260.041C286.941 262.901 283.434 263.839 280.593 262.188C277.752 260.537 276.807 257.009 278.448 254.149C279.268 252.719 280.557 251.77 281.994 251.382C282.353 251.285 282.721 251.223 283.094 251.199ZM169.058 313.829C170.177 313.755 171.335 314.012 172.401 314.632C175.242 316.283 176.184 319.811 174.543 322.671C172.903 325.531 169.396 326.471 166.554 324.82C163.713 323.169 162.781 319.648 164.421 316.788C165.242 315.358 166.521 314.399 167.958 314.012C168.317 313.915 168.685 313.854 169.058 313.829Z"/>
</mask>
<path fill-rule="evenodd" clip-rule="evenodd" d="M164.989 3.09184e-05C161.998 0.00389037 159.017 0.802074 156.367 2.34223L109.271 29.7046C108.049 28.9439 106.727 28.3684 105.349 27.9969C101.747 27.0254 97.7815 27.4268 94.3278 29.4338C87.4206 33.4478 85.0195 42.4656 89.0075 49.4182C92.9952 56.3707 101.961 58.7877 108.869 54.7736C113.645 51.9979 116.257 46.8314 116.099 41.6084L163.192 14.2387C164.332 13.5764 165.687 13.5892 166.712 14.204L206.735 38.0775C207.93 38.7906 208.587 39.9693 208.587 41.2418V101.632V149.923C208.587 156.119 211.905 161.831 217.18 164.927L269.012 195.361C268.851 200.59 271.468 205.765 276.249 208.544C283.156 212.558 292.115 210.138 296.103 203.186C300.091 196.233 297.688 187.218 290.78 183.204C287.327 181.197 283.361 180.793 279.759 181.765C278.385 182.135 277.066 182.71 275.847 183.467L224.059 153.058C222.91 152.383 222.236 151.211 222.236 149.923V101.88C222.237 101.797 222.237 101.714 222.236 101.631C222.236 100.332 222.914 99.1547 224.032 98.5054L265.587 74.3635C266.704 73.7142 268.042 73.7141 269.159 74.3635L318.519 103.041C321.785 104.939 325.962 103.811 327.846 100.523C329.726 97.238 328.606 93.0431 325.345 91.147L275.995 62.4573C270.672 59.3643 264.074 59.3643 258.751 62.4573L222.236 83.686V41.2409C222.236 35.0286 218.891 29.3582 213.689 26.2556L173.664 2.38216C170.978 0.780019 167.979 -0.00568107 164.989 3.09184e-05ZM102.014 36.2042C102.387 36.2235 102.755 36.2902 103.114 36.3871C104.551 36.775 105.84 37.7337 106.66 39.1637C108.301 42.0236 107.366 45.5517 104.525 47.2028C101.684 48.854 98.1764 47.9059 96.536 45.046C94.8955 42.186 95.8302 38.6556 98.6715 37.0044C99.7369 36.3853 100.895 36.13 102.014 36.2042ZM64.4172 56.6376C63.2869 56.6685 62.1833 56.9822 61.2033 57.55L3.40588 91.1436C0.148021 93.0429 -0.966835 97.2395 0.914216 100.522C2.79791 103.805 6.96542 104.93 10.2292 103.038L64.5918 71.447L160.931 128.148C162.086 128.828 162.754 129.997 162.754 131.283V179.584C162.754 180.882 162.085 182.053 160.967 182.702L157.329 184.812C157.302 184.828 157.268 184.824 157.239 184.839L119.376 206.851C118.265 207.481 116.936 207.494 115.83 206.851L111.927 204.582L70.3726 180.431L68.7438 179.484C68.8976 174.259 66.2792 169.089 61.5037 166.314C58.05 164.307 54.0864 163.913 50.4848 164.884C46.8831 165.856 43.6461 168.193 41.6521 171.669C37.6642 178.622 40.058 187.639 46.9652 191.654C51.74 194.428 57.4978 194.129 61.9156 191.385L63.5397 192.327L63.5512 192.339L105.106 216.481C106.223 217.13 106.902 218.307 106.902 219.606V276.971C106.902 278.275 106.225 279.453 105.125 280.089L64.3679 303.63C63.2295 304.288 61.8883 304.286 60.7757 303.642C12.5681 275.626 60.7731 303.641 10.2355 274.272C6.97423 272.378 2.80498 273.5 0.918136 276.78C-0.969203 280.064 0.146383 284.268 3.40991 286.168C53.9474 315.537 5.74242 287.52 53.95 315.536C59.2774 318.632 65.8537 318.613 71.1644 315.547L111.546 292.218C112.814 293.733 113.945 295.386 115.698 296.405L154.975 319.236C154.822 324.46 157.443 329.63 162.217 332.404C169.124 336.418 178.081 333.999 182.069 327.046C186.057 320.094 183.663 311.078 176.756 307.064C173.302 305.057 169.326 304.653 165.725 305.625C164.345 305.997 163.021 306.572 161.798 307.332L122.52 284.504C121.403 283.855 120.724 282.678 120.724 281.379V224.014C120.724 222.715 121.403 221.536 122.52 220.886L126.166 218.766C126.185 218.751 126.219 218.762 126.24 218.747L164.111 196.745C165.22 196.12 166.544 196.104 167.647 196.745C201.264 217.103 235.222 236.762 269.014 256.591C268.858 261.814 271.475 266.982 276.251 269.758C283.159 273.772 292.118 271.363 296.105 264.41C300.093 257.458 297.69 248.433 290.783 244.419C287.329 242.411 283.363 242.017 279.761 242.989C278.384 243.36 277.063 243.936 275.842 244.694C242.102 224.896 208.299 205.312 174.931 185.109C175.559 183.3 176.405 181.557 176.405 179.586V131.282C176.405 125.083 173.086 119.375 167.822 116.277L68.0559 57.5669C66.9537 56.9205 65.6922 56.5999 64.4172 56.6376ZM266.997 110.003C265.59 109.972 264.189 110.144 262.838 110.508C259.236 111.48 256.002 113.82 254.008 117.296C250.02 124.248 252.414 133.264 259.321 137.278C264.095 140.052 269.849 139.749 274.267 137.004L313.555 159.834C314.673 160.483 315.349 161.66 315.349 162.959V220.324V276.002C315.349 277.381 314.635 278.548 313.773 279.008L272.218 301.176C268.89 302.954 267.625 307.111 269.39 310.462C271.153 313.815 275.281 315.096 278.612 313.321L320.167 291.144C325.875 288.098 329 282.108 329 276.002V220.324V162.959C328.997 161.758 328.681 160.579 328.084 159.539C327.08 154.783 324.65 150.42 320.378 147.937L281.097 125.103C281.252 119.88 278.636 114.714 273.859 111.938C271.701 110.684 269.342 110.058 266.997 110.003ZM61.4867 113.404C60.2507 113.431 59.123 113.597 58.0885 113.707C55.3299 114 53.105 114.583 53.105 114.583C52.5083 114.738 51.935 114.975 51.4011 115.285C37.5505 123.335 23.6968 131.385 9.84624 139.435C4.52398 142.527 1.23413 148.27 1.23413 154.456V202.747C1.23413 208.933 4.52398 214.676 9.84624 217.769L56.9396 245.139C56.7839 250.363 59.4027 255.53 64.1796 258.306C71.0868 262.321 80.0434 259.901 84.0312 252.949C88.0191 245.996 85.6156 236.981 78.7084 232.967C75.2548 230.96 71.2912 230.556 67.6896 231.527C66.3116 231.898 64.9893 232.477 63.7677 233.238L16.6693 205.875C15.5518 205.226 14.883 204.046 14.883 202.747V154.456C14.883 153.158 15.5519 151.98 16.6693 151.331C30.1905 143.473 43.7141 135.618 57.2352 127.76C57.683 127.657 58.2764 127.498 59.5258 127.365C61.1658 127.19 62.9543 127.856 61.8067 127.189L108.9 154.549C108.741 159.773 111.356 164.941 116.133 167.717C123.04 171.731 132.006 169.321 135.994 162.369C139.982 155.416 137.579 146.391 130.671 142.377C127.218 140.37 123.252 139.976 119.65 140.947C118.271 141.319 116.948 141.896 115.726 142.655L68.6323 115.286C66.4486 114.017 64.5039 113.547 62.7594 113.431C62.3231 113.404 61.8989 113.397 61.4867 113.404ZM266.173 118.716C267.292 118.638 268.45 118.889 269.516 119.509C272.357 121.16 273.292 124.688 271.651 127.548C270.011 130.408 266.513 131.358 263.672 129.707C260.83 128.056 259.889 124.526 261.529 121.666C262.349 120.236 263.636 119.286 265.073 118.899C265.432 118.802 265.8 118.742 266.173 118.716ZM122.985 149.155C124.104 149.081 125.262 149.338 126.328 149.957C129.169 151.609 130.104 155.129 128.463 157.989C126.823 160.849 123.315 161.797 120.474 160.146C117.633 158.495 116.701 154.964 118.341 152.104C119.161 150.675 120.448 149.725 121.885 149.338C122.244 149.241 122.612 149.179 122.985 149.155ZM53.8201 173.094C54.9387 173.017 56.0971 173.268 57.1625 173.887C60.0038 175.538 60.9385 179.066 59.298 181.926C57.6576 184.786 54.1503 185.736 51.3089 184.085C48.4678 182.434 47.5331 178.904 49.1735 176.044C49.9938 174.614 51.2829 173.664 52.7197 173.277C53.079 173.18 53.4471 173.12 53.8201 173.094ZM283.094 189.977C284.213 189.901 285.371 190.151 286.437 190.77C289.278 192.422 290.222 195.952 288.582 198.812C286.941 201.672 283.434 202.62 280.593 200.969C277.752 199.318 276.807 195.787 278.448 192.927C279.268 191.497 280.557 190.548 281.994 190.16C282.353 190.063 282.721 190.004 283.094 189.977ZM153.044 229.727C151.637 229.696 150.235 229.863 148.884 230.227C145.283 231.198 142.046 233.538 140.052 237.014C136.064 243.967 138.467 252.992 145.375 257.006C150.151 259.782 155.907 259.479 160.323 256.731L207.414 284.098C208.531 284.747 209.2 285.917 209.2 287.216C209.2 303.314 209.2 319.409 209.2 335.507C209.2 336.806 208.531 337.985 207.414 338.635L165.859 362.784C164.741 363.433 163.394 363.433 162.276 362.784L112.916 334.097C109.653 332.205 105.483 333.332 103.599 336.615C101.712 339.899 102.827 344.101 106.091 346L155.453 374.68C160.775 377.773 167.362 377.773 172.684 374.68L214.239 350.529C219.562 347.436 222.851 341.693 222.851 335.507C222.851 319.409 222.851 303.314 222.851 287.216C222.851 281.03 219.561 275.287 214.239 272.194L167.143 244.832C167.298 239.609 164.679 234.442 159.903 231.667C157.745 230.412 155.388 229.784 153.044 229.727ZM152.22 238.437C153.338 238.363 154.497 238.618 155.562 239.237C158.403 240.888 159.345 244.419 157.705 247.279C156.064 250.138 152.56 251.077 149.718 249.425C146.877 247.774 145.933 244.246 147.573 241.386C148.393 239.957 149.683 239.007 151.119 238.62C151.478 238.523 151.847 238.461 152.22 238.437ZM71.0248 239.737C72.1434 239.663 73.3019 239.918 74.3673 240.537C77.2085 242.188 78.1504 245.719 76.51 248.579C74.8694 251.439 71.3646 252.387 68.5232 250.736C65.6819 249.085 64.7378 245.554 66.3781 242.694C67.1983 241.264 68.4877 240.308 69.9243 239.92C70.2835 239.823 70.6518 239.762 71.0248 239.737ZM283.094 251.199C284.213 251.126 285.371 251.38 286.437 252C289.278 253.651 290.222 257.181 288.582 260.041C286.941 262.901 283.434 263.839 280.593 262.188C277.752 260.537 276.807 257.009 278.448 254.149C279.268 252.719 280.557 251.77 281.994 251.382C282.353 251.285 282.721 251.223 283.094 251.199ZM169.058 313.829C170.177 313.755 171.335 314.012 172.401 314.632C175.242 316.283 176.184 319.811 174.543 322.671C172.903 325.531 169.396 326.471 166.554 324.82C163.713 323.169 162.781 319.648 164.421 316.788C165.242 315.358 166.521 314.399 167.958 314.012C168.317 313.915 168.685 313.854 169.058 313.829Z" stroke="url(#paint0_linear_1577_1417)" stroke-width="2" mask="url(#path-1-inside-1_1577_1417)"/>
<defs>
<linearGradient id="paint0_linear_1577_1417" x1="3.40593" y1="286.166" x2="331.101" y2="6.291" gradientUnits="userSpaceOnUse">
<stop stop-color="#00A1FF"/>
<stop offset="1" stop-color="#00FC92"/>
</linearGradient>
</defs>
</svg>
