<svg width="210" height="464" viewBox="0 0 210 464" fill="none" xmlns="http://www.w3.org/2000/svg">
<g opacity="0.2">
<path d="M214.471 180.128L213.241 241.093L213.247 241.098L272.588 227.068L272.587 227.062L214.477 180.128L214.471 180.128Z" fill="#41AB8A"/>
<path d="M216.938 58.1901L216.929 58.194L215.699 119.158L215.705 119.164L275.046 105.133L275.048 105.124L216.938 58.1901Z" fill="#41AB8A"/>
<path opacity="0.3" d="M212.007 302.077L212.009 302.068L212.006 302.065L211.998 302.069L210.767 363.033L210.774 363.039L270.115 349.008L270.117 348.999L212.016 302.073L212.007 302.077Z" fill="url(#paint0_linear_1577_1209)"/>
<path d="M215.701 119.163L214.47 180.128L214.477 180.133L273.817 166.103L273.817 166.097L215.706 119.163L215.701 119.163Z" fill="#D7D7D7"/>
<path d="M214.468 180.124L156.358 133.19L156.352 133.191L155.122 194.155L155.128 194.16L214.469 180.13L214.468 180.124Z" fill="#CDCDCD"/>
<path d="M215.698 119.154L157.587 72.2194L157.581 72.22L156.351 133.184L156.358 133.19L214.468 180.124L215.698 119.159L215.698 119.154Z" fill="white"/>
<path d="M215.702 119.156L216.932 58.1917L157.591 72.2219L215.702 119.156Z" fill="#E8E8E8"/>
<path d="M97.0103 147.224L155.121 194.158L156.351 133.194L97.0103 147.224Z" fill="#E8E8E8"/>
<path d="M97.0111 147.221L97.0052 147.222L95.7748 208.186L95.7813 208.192L155.122 194.161L155.121 194.156L97.0111 147.221Z" fill="#CDCDCD"/>
<path d="M153.881 255.142L94.5488 269.169L152.649 316.095L153.881 255.142Z" fill="#5B5B5B"/>
<path d="M218.169 -2.77863L218.163 -2.778L216.933 58.1864L216.931 58.1955L216.94 58.1917L275.05 105.126L276.28 44.1615L276.28 44.1556L218.169 -2.77863Z" fill="#1F1F1F"/>
<path d="M153.88 255.137L152.648 316.09L152.658 316.098L152.664 316.103L210.765 363.03L211.995 302.065L211.997 302.056L153.897 255.13L153.888 255.134L153.89 255.124L153.887 255.122L153.879 255.126L153.88 255.137Z" fill="#E8E8E8"/>
<path opacity="0.3" d="M212.006 302.06L212.009 302.062L213.24 241.098L153.899 255.128L212 302.055L212.006 302.06Z" fill="#1F1F1F"/>
<path d="M330.706 274.014L330.705 274.008L331.936 213.043L272.595 227.074L272.592 227.077L272.595 227.074L272.588 227.068L272.589 227.074L271.583 276.836L271.359 288.039L213.248 241.104L213.242 241.099L214.472 180.135L155.131 194.165L155.125 194.16L155.125 194.165L95.7846 208.196L153.892 255.127L153.895 255.13L153.893 255.139L153.901 255.135L213.242 241.105L212.012 302.069L271.349 288.037L271.351 288.048L271.359 288.044L271.365 288.044L287.935 284.128L330.706 274.014Z" fill="white"/>
<path d="M95.7714 208.199L95.7799 208.195L95.7734 208.189L95.7714 208.199Z" fill="#1F1F1F"/>
<path d="M94.5543 269.169L94.5479 269.164L94.5485 269.17L94.5543 269.169Z" fill="#1F1F1F"/>
<path d="M97.0029 147.217L97.0035 147.223L97.0095 147.222L97.0029 147.217Z" fill="#1F1F1F"/>
<path d="M36.4333 222.232L36.4268 222.227L36.4274 222.232L36.4333 222.232Z" fill="#1F1F1F"/>
<path d="M156.35 133.193L156.356 133.193L156.35 133.188L156.35 133.193Z" fill="#1F1F1F"/>
<path d="M153.882 255.124L153.889 255.129L213.218 241.1L213.22 241.091L213.226 241.09L155.118 194.159L155.113 194.16L153.882 255.124Z" fill="#E8E8E8"/>
<path d="M212.01 302.077L212.017 302.082L271.349 288.056L271.348 288.044L271.354 288.044L213.246 241.112L213.241 241.113L212.01 302.077Z" fill="url(#paint1_linear_1577_1209)"/>
<path opacity="0.4" d="M215.862 119.289L215.869 119.295L275.201 105.268L275.2 105.256L275.211 105.255L217.101 58.321L217.092 58.3249L215.862 119.289Z" fill="url(#paint2_linear_1577_1209)"/>
</g>
<defs>
<linearGradient id="paint0_linear_1577_1209" x1="207.569" y1="332.96" x2="267.729" y2="326.559" gradientUnits="userSpaceOnUse">
<stop stop-color="white"/>
<stop offset="1" stop-color="#1C1C1B"/>
</linearGradient>
<linearGradient id="paint1_linear_1577_1209" x1="242.3" y1="264.577" x2="212.011" y2="302.078" gradientUnits="userSpaceOnUse">
<stop stop-color="#0D2333"/>
<stop offset="0.0244" stop-color="#0F2738"/>
<stop offset="0.1349" stop-color="#183449"/>
<stop offset="0.2718" stop-color="#1E3D54"/>
<stop offset="0.4647" stop-color="#21435B"/>
<stop offset="1" stop-color="#22445D"/>
</linearGradient>
<linearGradient id="paint2_linear_1577_1209" x1="246.153" y1="81.7885" x2="215.865" y2="119.29" gradientUnits="userSpaceOnUse">
<stop stop-color="#0D2333"/>
<stop offset="0.0396" stop-color="#394B58"/>
<stop offset="0.0835" stop-color="#62707B"/>
<stop offset="0.1328" stop-color="#88939B"/>
<stop offset="0.1865" stop-color="#A8B0B6"/>
<stop offset="0.2458" stop-color="#C4C9CD"/>
<stop offset="0.3128" stop-color="#DADDDF"/>
<stop offset="0.3911" stop-color="#EBECEE"/>
<stop offset="0.4878" stop-color="#F6F7F8"/>
<stop offset="0.6234" stop-color="#FDFDFD"/>
<stop offset="1" stop-color="white"/>
</linearGradient>
</defs>
</svg>
