<svg width="317" height="240" viewBox="0 0 317 240" fill="none" xmlns="http://www.w3.org/2000/svg">
<g clip-path="url(#clip0_1632_4868)">
<path fill-rule="evenodd" clip-rule="evenodd" d="M25.4194 -74.4904C24.6463 -71.5903 24.6441 -68.4938 25.4455 -65.5257L23.4394 -39.9695C22.3864 -38.9824 21.4863 -37.8498 20.769 -36.6105C18.8938 -33.3708 18.2519 -29.4224 19.2962 -25.5544C21.3847 -17.8185 29.4835 -13.1538 37.2442 -15.2176C45.0048 -17.2813 49.6716 -25.3463 47.583 -33.0823C46.1388 -38.4315 41.8199 -42.3024 36.7269 -43.5033L38.7253 -69.059C38.3806 -70.3355 38.745 -71.6455 39.6058 -72.4797L73.0931 -105.089C74.0934 -106.063 75.4039 -106.394 76.6348 -106.064L40.9807 -253.56L87.6901 -241.044C93.6835 -239.438 100.07 -241.174 104.435 -245.484L147.336 -287.841C152.351 -286.33 158.037 -287.525 161.966 -291.44C167.643 -297.095 167.63 -306.406 161.941 -312.074C156.252 -317.742 146.907 -317.748 141.231 -312.093C138.392 -309.266 136.971 -305.526 136.976 -301.783C136.977 -300.355 137.19 -298.927 137.607 -297.549L94.7413 -255.229C93.7907 -254.29 92.4816 -253.94 91.2353 -254.274L44.766 -266.726C44.6861 -266.749 44.6058 -266.77 44.5248 -266.79C43.2686 -267.127 42.3061 -268.09 41.9683 -269.341L29.4105 -315.88C29.0726 -317.132 29.42 -318.428 30.3385 -319.343L70.8975 -359.758C73.5817 -362.432 73.576 -366.774 70.8846 -369.452C68.1953 -372.125 63.847 -372.127 61.1659 -369.457L122.968 -249.506C118.594 -245.149 116.88 -238.752 118.489 -232.791L27.1677 -271.441L80.179 -119.295C74.1702 -120.905 67.8166 -119.132 63.4646 -114.894L29.9768 -82.2822C27.7294 -80.0937 26.1907 -77.391 25.4194 -74.4904ZM27.8413 -31.2503C27.9568 -31.607 28.117 -31.9466 28.304 -32.2696C29.0524 -33.5617 30.3145 -34.563 31.9107 -34.9874C35.1031 -35.8363 38.2729 -34.016 39.132 -30.8339C39.991 -27.6517 38.163 -24.4976 34.9707 -23.6487C31.7783 -22.7996 28.6062 -24.6207 27.7471 -27.8028C27.425 -28.9961 27.4789 -30.185 27.8413 -31.2503ZM54.0799 37.6786C53.8162 38.7822 53.833 39.9333 54.1277 41.0305L71.6089 105.764C72.5998 109.414 76.3694 111.582 80.0332 110.61C83.6977 109.634 85.868 105.886 84.8858 102.232L68.4497 41.3475L148.317 -37.3444C149.275 -38.2882 150.579 -38.6323 151.823 -38.2988L198.542 -25.7805C199.798 -25.4441 200.756 -24.4922 201.094 -23.2408L202.19 -19.167C202.198 -19.137 202.186 -19.1049 202.193 -19.073L213.649 23.3352C213.97 24.575 213.637 25.867 212.728 26.7727L209.52 29.9674L175.366 63.9896L174.027 65.3232C169.013 63.8199 163.333 65.0182 159.408 68.9281C156.57 71.7558 155.159 75.4958 155.163 79.2389C155.167 82.982 156.587 86.7256 159.432 89.5594C165.121 95.227 174.465 95.2438 180.141 89.5885C184.066 85.6792 185.271 80.0201 183.765 75.0267L185.098 73.6965L185.112 73.6883L219.257 39.6638C220.175 38.7488 221.49 38.3961 222.747 38.7327L278.232 53.6001C279.495 53.9383 280.458 54.8996 280.787 56.1304L292.971 101.741C293.312 103.015 292.962 104.314 292.049 105.226C252.43 144.695 292.048 105.228 250.514 146.605C247.835 149.276 247.838 153.608 250.52 156.287C253.207 158.968 257.563 158.976 260.248 156.305C301.782 114.928 262.162 154.395 301.781 114.925C306.159 110.563 307.85 104.184 306.264 98.2409L294.187 53.05C295.981 52.2139 297.874 51.5453 299.315 50.1102L331.601 17.9547C336.613 19.456 342.295 18.2553 346.218 14.3466C351.895 8.69148 351.881 -0.617605 346.192 -6.28523C340.503 -11.9529 331.161 -11.9689 325.484 -6.31368C322.646 -3.48597 321.223 0.263138 321.227 4.00633C321.228 5.44017 321.441 6.87257 321.859 8.25527L289.576 40.4131C288.658 41.328 287.343 41.6806 286.086 41.344L230.6 26.4766C229.344 26.1399 228.379 25.1763 228.041 23.9249L226.938 19.8416C226.928 19.8191 226.948 19.7894 226.938 19.7642L215.493 -22.6484C215.177 -23.8852 215.505 -25.1733 216.412 -26.0765C244.835 -53.3872 272.671 -81.2089 300.627 -108.827C305.639 -107.322 311.317 -108.519 315.243 -112.43C320.92 -118.085 320.916 -127.394 315.227 -133.061C309.538 -138.729 300.184 -138.738 294.507 -133.083C291.669 -130.255 290.258 -126.513 290.262 -122.77C290.263 -121.339 290.477 -119.909 290.893 -118.529C262.98 -90.9537 235.257 -63.2622 207.049 -36.1527C205.462 -37.2306 203.996 -38.5019 202.089 -39.0128L155.367 -51.532C149.372 -53.1385 142.988 -51.4009 138.625 -47.1008L55.9239 34.3922C55.0124 35.2931 54.3746 36.4329 54.0799 37.6786ZM64.2496 -308.011C63.8543 -306.655 63.6563 -305.252 63.6576 -303.848C63.6618 -300.105 65.0848 -296.363 67.9293 -293.529C73.6183 -287.861 82.9602 -287.845 88.6369 -293.501C92.5603 -297.409 93.7616 -303.066 92.2545 -308.059L124.541 -340.227C125.459 -341.142 126.774 -341.492 128.03 -341.156L277.582 -163.141L331.438 -148.711C332.771 -148.353 333.715 -147.359 333.936 -146.404L370.471 -203.867C371.327 -200.18 375.018 -197.877 378.718 -198.718C382.42 -199.559 384.731 -203.228 383.879 -206.918L373.221 -252.947C371.758 -259.27 340.889 -160.361 334.983 -161.944L281.128 -176.374L131.576 -354.389C130.413 -354.697 129.19 -354.696 128.029 -354.387C123.168 -354.646 118.317 -353.422 114.806 -349.924L82.5171 -317.765C77.5055 -319.269 71.8286 -318.071 67.9032 -314.161C66.1293 -312.394 64.9113 -310.269 64.2496 -308.011ZM108.227 55.2317C107.932 56.4369 107.799 57.573 107.637 58.6042C107.204 61.3543 107.189 63.6621 107.189 63.6621C107.184 64.2807 107.265 64.898 107.426 65.4959C111.614 81.0082 115.803 96.524 119.991 112.036C121.6 117.997 126.301 122.675 132.284 124.278L178.994 136.794C184.977 138.397 191.386 136.696 195.761 132.339L234.466 93.7818C239.478 95.2866 245.157 94.0873 249.083 90.1763C254.76 84.5211 254.746 75.2119 249.057 69.5444C243.368 63.8767 234.023 63.87 228.347 69.5252C225.508 72.3529 224.088 76.0903 224.092 79.8334C224.094 81.2654 224.309 82.697 224.728 84.0784L186.028 122.642C185.11 123.557 183.795 123.9 182.539 123.563L135.829 111.047C134.573 110.711 133.608 109.757 133.27 108.506C129.182 93.3621 125.096 78.217 121.008 63.0736C121.025 62.6128 121.024 61.9963 121.22 60.7507C121.478 59.1158 122.586 57.5546 121.643 58.4943L160.339 19.9347C165.351 21.4424 171.028 20.2473 174.954 16.3363C180.631 10.681 180.629 1.36507 174.94 -4.3025C169.251 -9.97013 159.897 -9.97932 154.221 -4.32414C151.382 -1.49647 149.971 2.24579 149.975 5.98902C149.976 7.42154 150.19 8.85402 150.608 10.2355L111.902 48.7927C110.108 50.5805 109.148 52.344 108.583 54.0051C108.444 54.421 108.326 54.8302 108.227 55.2317ZM72.4627 -304.954C72.6782 -306.058 73.2221 -307.116 74.0978 -307.988C76.433 -310.314 80.0881 -310.306 82.4284 -307.975C84.7686 -305.643 84.7794 -302.007 82.4443 -299.68C80.1091 -297.354 76.4498 -297.356 74.1095 -299.687C72.9395 -300.853 72.3555 -302.346 72.3538 -303.84C72.3534 -304.213 72.3908 -304.585 72.4627 -304.954ZM158.78 4.88299C158.999 3.77947 159.549 2.72333 160.424 1.85092C162.759 -0.47529 166.408 -0.468786 168.748 1.8626C171.088 4.19405 171.094 7.83961 168.759 10.1658C166.424 12.4922 162.767 12.4807 160.427 10.1494C159.257 8.98371 158.673 7.49032 158.671 5.99714C158.67 5.62377 158.707 5.25096 158.78 4.88299ZM163.97 78.1335C164.186 77.029 164.73 75.9713 165.605 75.099C167.94 72.7727 171.596 72.781 173.936 75.1125C176.276 77.4439 176.284 81.0901 173.949 83.4164C171.614 85.7425 167.957 85.7336 165.616 83.4022C164.446 82.2365 163.863 80.7408 163.861 79.2476C163.861 78.8742 163.898 78.5017 163.97 78.1335ZM145.786 -302.887C146.002 -303.991 146.545 -305.049 147.421 -305.922C149.756 -308.248 153.416 -308.248 155.756 -305.917C158.096 -303.586 158.103 -299.94 155.767 -297.614C153.432 -295.287 149.772 -295.287 147.432 -297.618C146.262 -298.784 145.679 -300.28 145.677 -301.773C145.676 -302.146 145.714 -302.519 145.786 -302.887ZM244.52 -3.37227C244.125 -2.01647 243.923 -0.614309 243.924 0.789302C243.928 4.53249 245.35 8.27668 248.195 11.1104C253.884 16.7779 263.238 16.7872 268.914 11.1321C272.84 7.22137 274.042 1.56343 272.531 -3.42931L311.233 -41.9845C312.152 -42.8997 313.457 -43.2447 314.713 -42.9081C330.284 -38.7359 345.852 -34.5646 361.423 -30.3923C362.679 -30.0557 363.646 -29.1014 363.984 -27.85L376.549 18.6903C376.887 19.9418 376.537 21.2481 375.619 22.163L335.05 62.5756C332.372 65.249 332.38 69.5831 335.066 72.26C337.753 74.9409 342.106 74.9484 344.791 72.2773L385.353 31.8606C389.727 27.5029 391.438 21.118 389.829 15.1572L377.262 -31.3838C375.652 -37.3447 370.952 -42.0221 364.969 -43.6253C349.398 -47.7976 333.83 -51.9689 318.259 -56.1412C312.276 -57.7444 305.866 -56.0437 301.492 -51.6862L262.793 -13.1251C257.782 -14.6288 252.104 -13.4292 248.179 -9.5188C246.405 -7.75163 245.185 -5.63018 244.52 -3.37227ZM252.731 -0.315891C252.951 -1.41953 253.498 -2.47622 254.374 -3.34866C256.709 -5.67482 260.368 -5.6729 262.708 -3.3415C265.049 -1.01014 265.046 2.63054 262.711 4.95689C260.375 7.28321 256.718 7.28428 254.378 4.95278C253.207 3.78712 252.624 2.29115 252.622 0.798194C252.622 0.424821 252.658 0.0517941 252.731 -0.315891ZM232.9 78.7282C233.119 77.6247 233.666 76.5678 234.542 75.6955C236.877 73.3692 240.537 73.3713 242.877 75.7026C245.217 78.0341 245.223 81.6773 242.888 84.0037C240.553 86.3299 236.893 86.3301 234.553 83.9988C233.383 82.8332 232.792 81.3353 232.791 79.8424C232.79 79.469 232.827 79.0961 232.9 78.7282ZM299.069 -123.873C299.288 -124.976 299.836 -126.033 300.712 -126.906C303.047 -129.232 306.707 -129.232 309.047 -126.901C311.387 -124.569 311.384 -120.926 309.049 -118.6C306.713 -116.274 303.056 -116.273 300.716 -118.604C299.545 -119.77 298.962 -121.266 298.96 -122.759C298.96 -123.132 298.996 -123.505 299.069 -123.873ZM330.028 2.90106C330.248 1.79757 330.797 0.741301 331.673 -0.131062C334.008 -2.45721 337.665 -2.45583 340.005 -0.12442C342.346 2.20692 342.344 5.85058 340.009 8.17689C337.674 10.5032 334.027 10.4943 331.686 8.1629C330.516 6.99724 329.921 5.50833 329.92 4.01523C329.919 3.64186 329.955 3.26902 330.028 2.90106Z" fill="url(#paint0_linear_1632_4868)"/>
</g>
<defs>
<linearGradient id="paint0_linear_1632_4868" x1="260.245" y1="156.308" x2="73.8123" y2="-233.482" gradientUnits="userSpaceOnUse">
<stop stop-color="#00A1FF"/>
<stop offset="1" stop-color="#00FC92"/>
</linearGradient>
<clipPath id="clip0_1632_4868">
<rect width="307" height="324" fill="white" transform="translate(0.450195 155.841) rotate(-75)"/>
</clipPath>
</defs>
</svg>
