<svg width="293" height="228" viewBox="0 0 293 228" fill="none" xmlns="http://www.w3.org/2000/svg">
<mask id="path-1-inside-1_105_591" fill="white">
<path fill-rule="evenodd" clip-rule="evenodd" d="M117.29 0C114.094 0.00409491 110.909 0.850974 108.078 2.48509L57.7558 31.5167C56.4505 30.7096 55.0376 30.099 53.5655 29.7047C49.7168 28.674 45.4793 29.0999 41.7891 31.2294C34.4088 35.4883 31.8432 45.0563 36.1043 52.433C40.3652 59.8097 49.9456 62.3741 57.326 58.1151C62.4293 55.1701 65.2201 49.6884 65.0517 44.1467L115.371 15.1074C116.589 14.4046 118.036 14.4183 119.131 15.0705L161.896 40.4005C163.173 41.157 163.875 42.4077 163.875 43.7579V107.832V159.069C163.874 165.643 167.42 171.703 173.056 174.989L228.438 207.28C228.267 212.828 231.063 218.318 236.172 221.267C243.552 225.525 253.125 222.959 257.386 215.582C261.647 208.205 259.078 198.64 251.698 194.381C248.008 192.251 243.77 191.823 239.922 192.854C238.454 193.246 237.044 193.857 235.742 194.66L180.406 162.396C179.179 161.68 178.458 160.436 178.458 159.069V108.096C178.46 108.007 178.46 107.919 178.458 107.831C178.458 106.453 179.183 105.204 180.378 104.515L224.779 78.9002C225.973 78.2113 227.402 78.2111 228.596 78.9002L281.337 109.327C284.827 111.341 289.29 110.145 291.303 106.656C293.311 103.17 292.115 98.7194 288.63 96.7076L235.9 66.2676C230.213 62.986 223.162 62.9859 217.475 66.2676L178.458 88.7915V43.7568C178.458 37.1655 174.884 31.1491 169.326 27.8573L126.559 2.52739C123.689 0.827511 120.486 -0.00606047 117.29 0ZM50.0017 38.4129C50.4004 38.4333 50.7938 38.5042 51.1775 38.607C52.7125 39.0186 54.0901 40.0357 54.9665 41.5529C56.7192 44.5873 55.7206 48.3306 52.6848 50.0825C49.6489 51.8344 45.9013 50.8285 44.1486 47.7941C42.3957 44.7596 43.3944 41.0138 46.4303 39.2619C47.5687 38.605 48.8063 38.3341 50.0017 38.4129ZM9.82964 60.0928C8.62192 60.1256 7.44279 60.4585 6.39558 61.061L-55.3608 96.704C-58.8418 98.7192 -60.0331 103.172 -58.0232 106.655C-56.0104 110.138 -51.5575 111.331 -48.0701 109.324L10.0163 75.8059L112.955 135.966C114.189 136.687 114.902 137.928 114.902 139.292V190.54C114.902 191.918 114.187 193.159 112.993 193.848L109.106 196.087C109.077 196.104 109.041 196.1 109.01 196.116L68.5531 219.471C67.3664 220.139 65.9459 220.153 64.764 219.471L60.5943 217.063L16.193 191.438L14.4527 190.434C14.6169 184.89 11.8192 179.405 6.71658 176.46C3.02634 174.331 -1.20875 173.913 -5.05713 174.944C-8.90551 175.974 -12.3643 178.454 -14.4948 182.142C-18.7558 189.519 -16.1981 199.087 -8.81777 203.346C-3.7159 206.29 2.43629 205.972 7.15675 203.061L8.892 204.061L8.90431 204.073L53.3055 229.688C54.4996 230.377 55.2246 231.626 55.2246 233.004V293.868C55.2246 295.252 54.5015 296.502 53.3263 297.176L9.77701 322.154C8.56055 322.852 7.12754 322.85 5.93866 322.166C-45.571 292.442 5.93594 322.165 -48.0633 291.004C-51.548 288.995 -56.0029 290.186 -58.019 293.665C-60.0356 297.151 -58.8436 301.611 -55.3565 303.626C-1.35727 334.788 -52.8642 305.061 -1.3545 334.786C4.33777 338.071 11.3646 338.051 17.039 334.798L60.1869 310.046C61.5413 311.653 62.7505 313.407 64.6234 314.488L106.59 338.712C106.428 344.254 109.228 349.74 114.329 352.683C121.709 356.942 131.279 354.375 135.54 346.999C139.801 339.622 137.243 330.056 129.863 325.798C126.173 323.668 121.925 323.24 118.076 324.27C116.602 324.665 115.188 325.275 113.881 326.082L71.9126 301.861C70.7186 301.172 69.9935 299.923 69.9935 298.545V237.681C69.9935 236.303 70.7187 235.051 71.9126 234.362L75.8078 232.113C75.8283 232.096 75.8643 232.109 75.8876 232.092L116.352 208.748C117.537 208.085 118.952 208.068 120.131 208.748C156.051 230.347 192.334 251.207 228.441 272.245C228.274 277.787 231.07 283.27 236.174 286.216C243.554 290.474 253.127 287.918 257.388 280.541C261.649 273.165 259.081 263.589 251.701 259.33C248.011 257.2 243.773 256.782 239.924 257.813C238.453 258.207 237.041 258.818 235.736 259.622C199.686 238.617 163.567 217.838 127.914 196.403C128.585 194.482 129.488 192.633 129.488 190.542V139.291C129.488 132.714 125.942 126.658 120.317 123.371L13.7176 61.0789C12.5399 60.3931 11.192 60.0529 9.82964 60.0928ZM226.286 116.714C224.783 116.681 223.285 116.864 221.842 117.25C217.993 118.281 214.537 120.763 212.407 124.452C208.146 131.828 210.704 141.394 218.084 145.653C223.185 148.596 229.333 148.275 234.053 145.363L276.033 169.585C277.227 170.274 277.95 171.523 277.95 172.901V233.765V292.841C277.95 294.304 277.187 295.542 276.266 296.03L231.865 319.55C228.309 321.437 226.957 325.847 228.842 329.403C230.727 332.961 235.137 334.319 238.697 332.436L283.098 308.906C289.197 305.674 292.536 299.319 292.536 292.841V233.765V172.901C292.533 171.626 292.195 170.375 291.557 169.272C290.484 164.226 287.888 159.596 283.324 156.962L241.352 132.735C241.517 127.194 238.722 121.712 233.618 118.767C231.312 117.436 228.791 116.772 226.286 116.714ZM6.69846 120.323C5.37774 120.352 4.17277 120.527 3.06747 120.644C0.119911 120.955 -2.25739 121.573 -2.25739 121.573C-2.89503 121.737 -3.50759 121.99 -4.07804 122.319C-18.8774 130.859 -33.68 139.401 -48.4793 147.941C-54.1661 151.223 -57.6813 157.316 -57.6813 163.879V215.116C-57.6813 221.68 -54.1661 227.773 -48.4793 231.055L1.83982 260.094C1.67349 265.637 4.47171 271.12 9.57584 274.065C16.9561 278.324 26.5263 275.757 30.7871 268.38C35.0483 261.004 32.4801 251.438 25.0998 247.18C21.4096 245.05 17.1745 244.622 13.3262 245.652C11.8538 246.046 10.4409 246.66 9.13562 247.467L-41.1888 218.435C-42.383 217.746 -43.0975 216.495 -43.0975 215.116V163.879C-43.0975 162.502 -42.3828 161.252 -41.1888 160.563C-26.7415 152.226 -12.2916 143.892 2.1557 135.554C2.63418 135.445 3.26819 135.276 4.60324 135.135C6.35553 134.95 8.2665 135.656 7.04034 134.949L57.3597 163.978C57.1901 169.52 59.9838 175.003 65.0879 177.949C72.4682 182.208 82.0486 179.651 86.3095 172.275C90.5706 164.898 88.0024 155.322 80.6222 151.063C76.9319 148.934 72.6943 148.516 68.8458 149.546C67.3729 149.94 65.9587 150.552 64.6529 151.358L14.3335 122.319C12.0002 120.973 9.92226 120.474 8.05826 120.352C7.59207 120.323 7.13883 120.315 6.69846 120.323ZM225.406 125.958C226.601 125.876 227.839 126.143 228.977 126.8C232.013 128.552 233.011 132.295 231.259 135.329C229.506 138.364 225.769 139.372 222.733 137.62C219.697 135.868 218.691 132.122 220.443 129.088C221.32 127.571 222.695 126.564 224.23 126.152C224.614 126.05 225.007 125.986 225.406 125.958ZM72.4096 158.254C73.6049 158.176 74.8425 158.449 75.9811 159.106C79.0169 160.858 80.0155 164.593 78.2628 167.628C76.5099 170.662 72.7623 171.668 69.7264 169.916C66.6905 168.164 65.6945 164.418 67.4473 161.384C68.3237 159.867 69.6987 158.86 71.2338 158.448C71.6177 158.346 72.011 158.281 72.4096 158.254ZM-1.49329 183.654C-0.298054 183.572 0.939617 183.838 2.07806 184.495C5.11395 186.247 6.11266 189.991 4.35975 193.025C2.60702 196.059 -1.14055 197.068 -4.17656 195.316C-7.21228 193.564 -8.21095 189.818 -6.45825 186.784C-5.58176 185.267 -4.2043 184.259 -2.66911 183.848C-2.28522 183.745 -1.89183 183.682 -1.49329 183.654ZM243.486 201.568C244.681 201.486 245.919 201.752 247.057 202.409C250.093 204.161 251.102 207.907 249.349 210.941C247.596 213.975 243.849 214.981 240.813 213.229C237.777 211.477 236.768 207.732 238.521 204.697C239.397 203.18 240.775 202.173 242.31 201.762C242.694 201.659 243.087 201.595 243.486 201.568ZM104.527 243.742C103.024 243.709 101.526 243.886 100.083 244.272C96.2342 245.303 92.7755 247.786 90.645 251.474C86.3841 258.85 88.9521 268.426 96.3324 272.685C101.436 275.63 107.586 275.309 112.304 272.393L162.621 301.43C163.815 302.119 164.53 303.36 164.53 304.738C164.53 321.819 164.53 338.895 164.53 355.975C164.53 357.353 163.815 358.605 162.621 359.294L118.22 384.916C117.026 385.605 115.586 385.606 114.392 384.916L61.651 354.479C58.1637 352.472 53.7083 353.668 51.6955 357.151C49.6789 360.636 50.8708 365.094 54.3579 367.109L107.101 397.539C112.788 400.82 119.826 400.82 125.513 397.539L169.914 371.914C175.601 368.632 179.116 362.539 179.116 355.975C179.116 338.895 179.116 321.819 179.116 304.738C179.116 298.175 175.601 292.082 169.914 288.8L119.592 259.768C119.758 254.227 116.96 248.745 111.856 245.8C109.55 244.469 107.032 243.803 104.527 243.742ZM103.646 252.983C104.842 252.905 106.079 253.175 107.218 253.832C110.254 255.584 111.26 259.33 109.507 262.365C107.755 265.399 104.01 266.394 100.974 264.642C97.9376 262.89 96.9286 259.147 98.6815 256.113C99.5579 254.596 100.936 253.588 102.471 253.177C102.854 253.074 103.248 253.009 103.646 252.983ZM16.8898 254.363C18.0851 254.285 19.3229 254.555 20.4613 255.212C23.4972 256.964 24.5035 260.71 22.7508 263.744C20.9979 266.779 17.2529 267.785 14.2169 266.033C11.181 264.281 10.1722 260.535 11.9249 257.5C12.8012 255.983 14.179 254.968 15.7139 254.557C16.0978 254.454 16.4914 254.389 16.8898 254.363ZM243.486 266.524C244.681 266.446 245.919 266.717 247.057 267.374C250.093 269.125 251.102 272.871 249.349 275.906C247.596 278.94 243.849 279.936 240.813 278.184C237.777 276.432 236.768 272.688 238.521 269.654C239.397 268.137 240.775 267.13 242.31 266.718C242.694 266.616 243.087 266.55 243.486 266.524ZM121.638 332.975C122.834 332.897 124.072 333.169 125.21 333.827C128.246 335.579 129.252 339.322 127.499 342.356C125.747 345.391 121.999 346.389 118.963 344.637C115.927 342.885 114.931 339.149 116.684 336.115C117.56 334.598 118.928 333.58 120.463 333.169C120.847 333.066 121.24 333.001 121.638 332.975Z"/>
</mask>
<path fill-rule="evenodd" clip-rule="evenodd" d="M117.29 0C114.094 0.00409491 110.909 0.850974 108.078 2.48509L57.7558 31.5167C56.4505 30.7096 55.0376 30.099 53.5655 29.7047C49.7168 28.674 45.4793 29.0999 41.7891 31.2294C34.4088 35.4883 31.8432 45.0563 36.1043 52.433C40.3652 59.8097 49.9456 62.3741 57.326 58.1151C62.4293 55.1701 65.2201 49.6884 65.0517 44.1467L115.371 15.1074C116.589 14.4046 118.036 14.4183 119.131 15.0705L161.896 40.4005C163.173 41.157 163.875 42.4077 163.875 43.7579V107.832V159.069C163.874 165.643 167.42 171.703 173.056 174.989L228.438 207.28C228.267 212.828 231.063 218.318 236.172 221.267C243.552 225.525 253.125 222.959 257.386 215.582C261.647 208.205 259.078 198.64 251.698 194.381C248.008 192.251 243.77 191.823 239.922 192.854C238.454 193.246 237.044 193.857 235.742 194.66L180.406 162.396C179.179 161.68 178.458 160.436 178.458 159.069V108.096C178.46 108.007 178.46 107.919 178.458 107.831C178.458 106.453 179.183 105.204 180.378 104.515L224.779 78.9002C225.973 78.2113 227.402 78.2111 228.596 78.9002L281.337 109.327C284.827 111.341 289.29 110.145 291.303 106.656C293.311 103.17 292.115 98.7194 288.63 96.7076L235.9 66.2676C230.213 62.986 223.162 62.9859 217.475 66.2676L178.458 88.7915V43.7568C178.458 37.1655 174.884 31.1491 169.326 27.8573L126.559 2.52739C123.689 0.827511 120.486 -0.00606047 117.29 0ZM50.0017 38.4129C50.4004 38.4333 50.7938 38.5042 51.1775 38.607C52.7125 39.0186 54.0901 40.0357 54.9665 41.5529C56.7192 44.5873 55.7206 48.3306 52.6848 50.0825C49.6489 51.8344 45.9013 50.8285 44.1486 47.7941C42.3957 44.7596 43.3944 41.0138 46.4303 39.2619C47.5687 38.605 48.8063 38.3341 50.0017 38.4129ZM9.82964 60.0928C8.62192 60.1256 7.44279 60.4585 6.39558 61.061L-55.3608 96.704C-58.8418 98.7192 -60.0331 103.172 -58.0232 106.655C-56.0104 110.138 -51.5575 111.331 -48.0701 109.324L10.0163 75.8059L112.955 135.966C114.189 136.687 114.902 137.928 114.902 139.292V190.54C114.902 191.918 114.187 193.159 112.993 193.848L109.106 196.087C109.077 196.104 109.041 196.1 109.01 196.116L68.5531 219.471C67.3664 220.139 65.9459 220.153 64.764 219.471L60.5943 217.063L16.193 191.438L14.4527 190.434C14.6169 184.89 11.8192 179.405 6.71658 176.46C3.02634 174.331 -1.20875 173.913 -5.05713 174.944C-8.90551 175.974 -12.3643 178.454 -14.4948 182.142C-18.7558 189.519 -16.1981 199.087 -8.81777 203.346C-3.7159 206.29 2.43629 205.972 7.15675 203.061L8.892 204.061L8.90431 204.073L53.3055 229.688C54.4996 230.377 55.2246 231.626 55.2246 233.004V293.868C55.2246 295.252 54.5015 296.502 53.3263 297.176L9.77701 322.154C8.56055 322.852 7.12754 322.85 5.93866 322.166C-45.571 292.442 5.93594 322.165 -48.0633 291.004C-51.548 288.995 -56.0029 290.186 -58.019 293.665C-60.0356 297.151 -58.8436 301.611 -55.3565 303.626C-1.35727 334.788 -52.8642 305.061 -1.3545 334.786C4.33777 338.071 11.3646 338.051 17.039 334.798L60.1869 310.046C61.5413 311.653 62.7505 313.407 64.6234 314.488L106.59 338.712C106.428 344.254 109.228 349.74 114.329 352.683C121.709 356.942 131.279 354.375 135.54 346.999C139.801 339.622 137.243 330.056 129.863 325.798C126.173 323.668 121.925 323.24 118.076 324.27C116.602 324.665 115.188 325.275 113.881 326.082L71.9126 301.861C70.7186 301.172 69.9935 299.923 69.9935 298.545V237.681C69.9935 236.303 70.7187 235.051 71.9126 234.362L75.8078 232.113C75.8283 232.096 75.8643 232.109 75.8876 232.092L116.352 208.748C117.537 208.085 118.952 208.068 120.131 208.748C156.051 230.347 192.334 251.207 228.441 272.245C228.274 277.787 231.07 283.27 236.174 286.216C243.554 290.474 253.127 287.918 257.388 280.541C261.649 273.165 259.081 263.589 251.701 259.33C248.011 257.2 243.773 256.782 239.924 257.813C238.453 258.207 237.041 258.818 235.736 259.622C199.686 238.617 163.567 217.838 127.914 196.403C128.585 194.482 129.488 192.633 129.488 190.542V139.291C129.488 132.714 125.942 126.658 120.317 123.371L13.7176 61.0789C12.5399 60.3931 11.192 60.0529 9.82964 60.0928ZM226.286 116.714C224.783 116.681 223.285 116.864 221.842 117.25C217.993 118.281 214.537 120.763 212.407 124.452C208.146 131.828 210.704 141.394 218.084 145.653C223.185 148.596 229.333 148.275 234.053 145.363L276.033 169.585C277.227 170.274 277.95 171.523 277.95 172.901V233.765V292.841C277.95 294.304 277.187 295.542 276.266 296.03L231.865 319.55C228.309 321.437 226.957 325.847 228.842 329.403C230.727 332.961 235.137 334.319 238.697 332.436L283.098 308.906C289.197 305.674 292.536 299.319 292.536 292.841V233.765V172.901C292.533 171.626 292.195 170.375 291.557 169.272C290.484 164.226 287.888 159.596 283.324 156.962L241.352 132.735C241.517 127.194 238.722 121.712 233.618 118.767C231.312 117.436 228.791 116.772 226.286 116.714ZM6.69846 120.323C5.37774 120.352 4.17277 120.527 3.06747 120.644C0.119911 120.955 -2.25739 121.573 -2.25739 121.573C-2.89503 121.737 -3.50759 121.99 -4.07804 122.319C-18.8774 130.859 -33.68 139.401 -48.4793 147.941C-54.1661 151.223 -57.6813 157.316 -57.6813 163.879V215.116C-57.6813 221.68 -54.1661 227.773 -48.4793 231.055L1.83982 260.094C1.67349 265.637 4.47171 271.12 9.57584 274.065C16.9561 278.324 26.5263 275.757 30.7871 268.38C35.0483 261.004 32.4801 251.438 25.0998 247.18C21.4096 245.05 17.1745 244.622 13.3262 245.652C11.8538 246.046 10.4409 246.66 9.13562 247.467L-41.1888 218.435C-42.383 217.746 -43.0975 216.495 -43.0975 215.116V163.879C-43.0975 162.502 -42.3828 161.252 -41.1888 160.563C-26.7415 152.226 -12.2916 143.892 2.1557 135.554C2.63418 135.445 3.26819 135.276 4.60324 135.135C6.35553 134.95 8.2665 135.656 7.04034 134.949L57.3597 163.978C57.1901 169.52 59.9838 175.003 65.0879 177.949C72.4682 182.208 82.0486 179.651 86.3095 172.275C90.5706 164.898 88.0024 155.322 80.6222 151.063C76.9319 148.934 72.6943 148.516 68.8458 149.546C67.3729 149.94 65.9587 150.552 64.6529 151.358L14.3335 122.319C12.0002 120.973 9.92226 120.474 8.05826 120.352C7.59207 120.323 7.13883 120.315 6.69846 120.323ZM225.406 125.958C226.601 125.876 227.839 126.143 228.977 126.8C232.013 128.552 233.011 132.295 231.259 135.329C229.506 138.364 225.769 139.372 222.733 137.62C219.697 135.868 218.691 132.122 220.443 129.088C221.32 127.571 222.695 126.564 224.23 126.152C224.614 126.05 225.007 125.986 225.406 125.958ZM72.4096 158.254C73.6049 158.176 74.8425 158.449 75.9811 159.106C79.0169 160.858 80.0155 164.593 78.2628 167.628C76.5099 170.662 72.7623 171.668 69.7264 169.916C66.6905 168.164 65.6945 164.418 67.4473 161.384C68.3237 159.867 69.6987 158.86 71.2338 158.448C71.6177 158.346 72.011 158.281 72.4096 158.254ZM-1.49329 183.654C-0.298054 183.572 0.939617 183.838 2.07806 184.495C5.11395 186.247 6.11266 189.991 4.35975 193.025C2.60702 196.059 -1.14055 197.068 -4.17656 195.316C-7.21228 193.564 -8.21095 189.818 -6.45825 186.784C-5.58176 185.267 -4.2043 184.259 -2.66911 183.848C-2.28522 183.745 -1.89183 183.682 -1.49329 183.654ZM243.486 201.568C244.681 201.486 245.919 201.752 247.057 202.409C250.093 204.161 251.102 207.907 249.349 210.941C247.596 213.975 243.849 214.981 240.813 213.229C237.777 211.477 236.768 207.732 238.521 204.697C239.397 203.18 240.775 202.173 242.31 201.762C242.694 201.659 243.087 201.595 243.486 201.568ZM104.527 243.742C103.024 243.709 101.526 243.886 100.083 244.272C96.2342 245.303 92.7755 247.786 90.645 251.474C86.3841 258.85 88.9521 268.426 96.3324 272.685C101.436 275.63 107.586 275.309 112.304 272.393L162.621 301.43C163.815 302.119 164.53 303.36 164.53 304.738C164.53 321.819 164.53 338.895 164.53 355.975C164.53 357.353 163.815 358.605 162.621 359.294L118.22 384.916C117.026 385.605 115.586 385.606 114.392 384.916L61.651 354.479C58.1637 352.472 53.7083 353.668 51.6955 357.151C49.6789 360.636 50.8708 365.094 54.3579 367.109L107.101 397.539C112.788 400.82 119.826 400.82 125.513 397.539L169.914 371.914C175.601 368.632 179.116 362.539 179.116 355.975C179.116 338.895 179.116 321.819 179.116 304.738C179.116 298.175 175.601 292.082 169.914 288.8L119.592 259.768C119.758 254.227 116.96 248.745 111.856 245.8C109.55 244.469 107.032 243.803 104.527 243.742ZM103.646 252.983C104.842 252.905 106.079 253.175 107.218 253.832C110.254 255.584 111.26 259.33 109.507 262.365C107.755 265.399 104.01 266.394 100.974 264.642C97.9376 262.89 96.9286 259.147 98.6815 256.113C99.5579 254.596 100.936 253.588 102.471 253.177C102.854 253.074 103.248 253.009 103.646 252.983ZM16.8898 254.363C18.0851 254.285 19.3229 254.555 20.4613 255.212C23.4972 256.964 24.5035 260.71 22.7508 263.744C20.9979 266.779 17.2529 267.785 14.2169 266.033C11.181 264.281 10.1722 260.535 11.9249 257.5C12.8012 255.983 14.179 254.968 15.7139 254.557C16.0978 254.454 16.4914 254.389 16.8898 254.363ZM243.486 266.524C244.681 266.446 245.919 266.717 247.057 267.374C250.093 269.125 251.102 272.871 249.349 275.906C247.596 278.94 243.849 279.936 240.813 278.184C237.777 276.432 236.768 272.688 238.521 269.654C239.397 268.137 240.775 267.13 242.31 266.718C242.694 266.616 243.087 266.55 243.486 266.524ZM121.638 332.975C122.834 332.897 124.072 333.169 125.21 333.827C128.246 335.579 129.252 339.322 127.499 342.356C125.747 345.391 121.999 346.389 118.963 344.637C115.927 342.885 114.931 339.149 116.684 336.115C117.56 334.598 118.928 333.58 120.463 333.169C120.847 333.066 121.24 333.001 121.638 332.975Z" stroke="white" mask="url(#path-1-inside-1_105_591)"/>
</svg>
