<svg width="1004" height="600" viewBox="0 0 1004 600" fill="none" xmlns="http://www.w3.org/2000/svg">
<g opacity="0.25" clip-path="url(#clip0_1577_1517)">
<path d="M985.944 132.028L713.19 82.6515L713.271 82.2079L986.024 131.585L985.944 132.028Z" fill="#E9E9E9"/>
<path d="M1012 159.605L1011.66 159.323L1178.85 -38.0127L1179.19 -37.7331L1012 159.605Z" fill="#E9E9E9"/>
<path d="M588.994 188.037L588.898 188.146L550.99 232.89L570.832 288.228L570.976 288.251L628.679 298.712L666.682 253.858L646.84 198.52L646.697 198.497L588.994 188.037ZM551.566 232.998L589.191 188.587L646.462 198.97L666.108 253.757L628.482 298.162L571.212 287.785L551.566 232.998Z" fill="#E9E9E9"/>
<path d="M759.997 64.5811L759.901 64.6902L721.993 109.435L741.836 164.772L741.979 164.795L799.682 175.255L799.777 175.147L837.686 130.402L817.843 75.0648L817.7 75.0412L759.997 64.5811ZM722.567 109.535L760.192 65.1243L817.464 75.5071L837.11 130.295L799.485 174.706L742.213 164.323L722.567 109.535Z" fill="#E9E9E9"/>
<path d="M712.25 81.5081L711.998 81.8072L673.931 126.736L693.938 182.531L694.322 182.602L752.265 193.103L790.583 147.876L770.576 92.081L770.192 92.0098L712.25 81.5081ZM675.466 127.015L712.777 82.9781L769.568 93.2727L789.05 147.603L751.74 191.639L694.948 181.346L675.466 127.015Z" fill="#FF75F9"/>
<path d="M885.087 113.278L884.992 113.387L847.083 158.131L866.926 213.468L867.069 213.492L924.772 223.953L962.776 179.099L942.933 123.761L942.791 123.738L885.087 113.278ZM847.658 158.231L885.282 113.821L942.554 124.204L962.199 178.991L924.575 223.403L867.303 213.019L847.658 158.231Z" fill="#E9E9E9"/>
<path d="M827.525 102.836L827.43 102.945L789.522 147.689L809.365 203.026L809.507 203.05L867.211 213.51L905.215 168.657L885.372 113.319L885.229 113.296L827.525 102.836ZM790.105 147.794L827.729 103.383L885.002 113.766L904.647 168.554L867.023 212.964L809.75 202.582L790.105 147.794Z" fill="#E9E9E9"/>
<path d="M579.065 160.349L578.813 160.649L540.747 205.577L560.753 261.371L619.08 271.944L657.399 226.717L637.392 170.922L637.007 170.851L579.065 160.349ZM542.282 205.856L579.592 161.82L636.384 172.114L655.865 226.444L618.553 270.474L561.761 260.18L542.282 205.856Z" fill="#00A1FF"/>
<path d="M521.669 150.37L521.574 150.478L483.665 195.223L503.507 250.561L503.651 250.584L561.354 261.044L599.358 216.191L579.516 160.853L579.372 160.83L521.669 150.37ZM484.239 195.324L521.864 150.913L579.136 161.296L598.782 216.083L561.157 260.494L503.885 250.111L484.239 195.324Z" fill="#E9E9E9"/>
<path d="M674.602 126.607L674.506 126.716L636.598 171.46L656.441 226.798L656.584 226.821L714.288 237.282L752.291 192.428L732.448 137.09L732.305 137.067L674.602 126.607ZM637.175 171.567L674.802 127.163L732.071 137.54L751.716 192.327L714.093 236.739L656.82 226.355L637.175 171.567Z" fill="#E9E9E9"/>
<path d="M694.347 181.673L694.251 181.782L656.343 226.526L676.186 281.864L676.329 281.887L734.033 292.347L772.036 247.494L752.193 192.156L752.051 192.133L694.347 181.673ZM656.918 226.626L694.542 182.216L751.814 192.599L771.459 247.386L733.836 291.797L676.563 281.414L656.918 226.626Z" fill="#E9E9E9"/>
<path d="M597.298 61.1105L597.203 61.2205L559.295 105.965L579.137 161.302L579.281 161.326L636.984 171.786L637.079 171.677L674.987 126.933L655.145 71.595L655.002 71.5715L597.298 61.1105ZM559.871 106.072L597.498 61.6673L654.768 72.0442L674.414 126.832L636.789 171.242L579.517 160.86L559.871 106.072Z" fill="#E9E9E9"/>
<path d="M768.295 -62.3431L768.2 -62.2343L730.298 -17.4913L750.141 37.8463L750.285 37.8696L807.988 48.3297L808.083 48.2209L845.991 3.47661L826.148 -51.861L826.006 -51.8846L768.295 -62.3431ZM730.875 -17.3839L768.5 -61.7955L825.772 -51.4119L845.418 3.37574L807.791 47.7797L750.521 37.4037L730.875 -17.3839Z" fill="#E9E9E9"/>
<path d="M835.623 -24.6666L835.528 -24.5578L797.62 20.1864L817.463 75.524L817.605 75.5476L875.308 86.0077L875.404 85.8986L913.312 41.1544L893.47 -14.1832L893.327 -14.2068L835.623 -24.6666ZM798.194 20.287L835.817 -24.1243L893.09 -13.7406L912.736 41.047L875.109 85.4518L817.84 75.0746L798.194 20.287Z" fill="#E9E9E9"/>
<path d="M873.265 -69.78L873.014 -69.4812L834.947 -24.5525L854.954 31.2425L855.338 31.3134L913.281 41.8151L913.533 41.516L951.599 -3.4124L931.592 -59.2074L931.208 -59.2783L873.265 -69.78ZM836.483 -24.2729L873.792 -68.31L930.585 -58.0157L950.066 -3.68555L912.756 40.351L855.964 30.0572L836.483 -24.2729Z" fill="#E9E9E9"/>
<path d="M998.528 -20.6212L998.433 -20.5124L960.525 24.2319L980.368 79.5694L980.51 79.593L1038.21 90.0531L1076.22 45.1998L1056.37 -10.1378L1056.23 -10.1611L998.528 -20.6212ZM961.099 24.3324L998.725 -20.072L1056 -9.69517L1075.64 45.0924L1038.02 89.5031L980.745 79.12L961.099 24.3324Z" fill="#E9E9E9"/>
<path d="M940.965 -31.0662L940.869 -30.9571L902.962 13.788L922.804 69.1256L922.948 69.1489L980.651 79.6089L980.746 79.5001L1018.65 34.7559L998.812 -20.5817L998.669 -20.6053L940.965 -31.0662ZM903.538 13.8954L941.165 -30.5094L998.434 -20.1322L1018.08 34.6553L980.456 79.0657L923.184 68.683L903.538 13.8954Z" fill="#E9E9E9"/>
<path d="M903.155 13.5777L903.059 13.6868L865.151 58.4311L884.994 113.769L885.137 113.792L942.841 124.252L980.844 79.3989L961.001 24.0614L960.859 24.0378L903.155 13.5777ZM865.725 58.5317L903.352 14.1269L960.622 24.504L980.267 79.2916L942.643 123.702L885.371 113.319L865.725 58.5317Z" fill="#E9E9E9"/>
<path d="M423.047 -124.667L422.952 -124.558L385.043 -79.8136L404.885 -24.476L405.029 -24.4527L462.732 -13.9926L462.828 -14.1017L500.736 -58.846L480.893 -114.184L480.75 -114.207L423.047 -124.667ZM385.619 -79.7062L423.244 -124.117L480.516 -113.734L500.162 -58.9465L462.535 -14.5418L405.265 -24.9186L385.619 -79.7062Z" fill="#E9E9E9"/>
<path d="M548.143 -75.9726L548.047 -75.8635L510.139 -31.1192L529.982 24.2183L530.125 24.2416L587.829 34.7017L587.924 34.5929L625.832 -10.1514L605.989 -65.4889L605.847 -65.5125L548.143 -75.9726ZM510.716 -31.0119L548.341 -75.4227L605.613 -65.0398L625.259 -10.2522L587.632 34.1526L530.362 23.7757L510.716 -31.0119Z" fill="#E9E9E9"/>
<path d="M490.583 -86.4105L490.487 -86.3014L452.579 -41.5563L472.422 13.7813L472.565 13.8046L530.268 24.2647L530.363 24.1559L568.272 -20.5884L548.429 -75.926L548.286 -75.9496L490.583 -86.4105ZM453.153 -41.4557L490.777 -85.8673L548.049 -75.4833L567.695 -20.6957L530.069 23.7079L472.799 13.3319L453.153 -41.4557Z" fill="#E9E9E9"/>
<path d="M605.606 -65.8086L605.51 -65.6995L567.602 -20.9552L587.445 34.3824L587.588 34.4057L645.292 44.8658L645.387 44.757L683.295 0.0127358L663.452 -55.3249L663.31 -55.3485L605.606 -65.8086ZM568.176 -20.8546L605.803 -65.2586L663.073 -54.8822L682.718 -0.0946319L645.092 44.3099L587.822 33.933L568.176 -20.8546Z" fill="#E9E9E9"/>
<path d="M710.948 -72.206L710.852 -72.0969L672.944 -27.3526L692.787 27.985L692.93 28.0083L750.633 38.4683L750.729 38.3595L788.637 -6.38474L768.794 -61.7223L768.651 -61.7459L710.948 -72.206ZM673.518 -27.252L711.143 -71.6628L768.415 -61.28L788.061 -6.49241L750.437 37.9192L693.164 27.5355L673.518 -27.252Z" fill="#E9E9E9"/>
<path d="M154.839 -122.227L154.588 -121.927L116.521 -76.9988L136.528 -21.2046L136.912 -21.1328L194.855 -10.6311L195.106 -10.931L233.173 -55.8594L213.166 -111.654L212.781 -111.725L154.839 -122.227ZM118.056 -76.7199L155.366 -120.756L212.157 -110.462L231.639 -56.1314L194.33 -12.0952L137.538 -22.3889L118.056 -76.7199Z" fill="#E9E9E9"/>
<path d="M327.678 -90.4559L327.582 -90.3467L289.674 -45.6017L309.517 9.73593L309.661 9.75923L367.364 20.2193L367.459 20.1105L405.367 -24.6338L385.524 -79.9714L385.382 -79.995L327.678 -90.4559ZM290.256 -45.5035L327.882 -89.9083L385.152 -79.5311L404.797 -24.7435L367.173 19.6669L309.901 9.28407L290.256 -45.5035Z" fill="#E9E9E9"/>
<path d="M270.121 -100.902L270.026 -100.794L232.118 -56.0484L251.96 -0.711684L252.103 -0.688086L309.806 9.77282L309.902 9.66371L347.81 -35.0814L327.968 -90.4181L327.824 -90.4414L270.121 -100.902ZM232.692 -55.9479L270.318 -100.352L327.588 -89.9755L347.236 -35.1819L309.612 9.22961L252.34 -1.15433L232.692 -55.9479Z" fill="#E9E9E9"/>
<path d="M117.029 -77.5832L116.778 -77.2842L78.7085 -32.3626L98.7154 23.4325L99.0997 23.5035L157.042 34.0051L157.294 33.7061L195.36 -11.2223L175.354 -67.0173L174.969 -67.0883L117.029 -77.5832ZM80.2442 -32.0827L117.554 -76.12L174.346 -65.8254L193.827 -11.4954L156.517 32.541L99.7258 22.2473L80.2442 -32.0827Z" fill="#E9E9E9"/>
<path d="M232.312 -56.2594L232.217 -56.1506L194.308 -11.4054L214.151 43.9322L214.294 43.9557L271.997 54.4157L272.093 54.3066L310.001 9.56237L290.159 -45.7752L290.015 -45.7985L232.312 -56.2594ZM194.882 -11.3048L232.509 -55.7094L289.779 -45.3326L309.425 9.45502L271.8 53.8657L214.528 43.4828L194.882 -11.3048Z" fill="#E9E9E9"/>
<path d="M252.054 -1.20136L251.959 -1.09172L214.05 43.6527L233.893 98.9903L234.036 99.0138L291.739 109.474L291.835 109.365L329.744 64.6205L309.901 9.28284L309.757 9.25955L252.054 -1.20136ZM214.627 43.7601L252.253 -0.644576L309.524 9.73227L329.169 64.5199L291.542 108.924L234.273 98.5477L214.627 43.7601Z" fill="#E9E9E9"/>
<path d="M329.36 64.3026L329.265 64.4114L291.357 109.156L311.2 164.493L311.342 164.517L369.046 174.977L369.142 174.868L407.05 130.124L387.207 74.786L387.064 74.7627L329.36 64.3026ZM291.934 109.263L329.56 64.8585L386.83 75.2354L406.475 130.023L368.851 174.434L311.579 164.051L291.934 109.263Z" fill="#E9E9E9"/>
<path d="M422.882 -125.124L422.63 -124.825L384.564 -79.8968L404.571 -24.1017L404.955 -24.0308L462.898 -13.5291L463.15 -13.8282L501.216 -58.7566L481.209 -114.552L480.825 -114.623L422.882 -125.124ZM386.098 -79.6239L423.407 -123.66L480.198 -113.366L499.68 -59.0362L462.371 -14.9991L405.579 -25.2938L386.098 -79.6239Z" fill="#E9E9E9"/>
<path d="M385.235 -80.0263L385.14 -79.9175L347.232 -35.1733L367.075 20.1643L367.217 20.1879L424.921 30.6488L425.017 30.5397L462.925 -14.2054L443.082 -69.543L442.938 -69.5663L385.235 -80.0263ZM347.806 -35.0728L385.43 -79.4832L442.702 -69.1004L462.348 -14.3128L424.723 30.0988L367.452 19.7148L347.806 -35.0728Z" fill="#E9E9E9"/>
<path opacity="0.34" d="M404.815 -25.4242L404.564 -25.1245L366.498 19.8039L386.504 75.5981L386.888 75.6702L444.831 86.1719L445.082 85.8719L483.149 40.9435L463.142 -14.8507L462.758 -14.9227L404.815 -25.4242ZM368.03 20.0762L405.34 -23.9601L462.132 -13.6666L481.614 40.6644L444.303 84.701L387.512 74.4072L368.03 20.0762Z" fill="#FFAB0A"/>
<path d="M386.909 74.7276L386.813 74.8367L348.905 119.581L368.748 174.919L368.891 174.942L426.594 185.402L426.689 185.293L464.598 140.549L444.755 85.2113L444.612 85.1877L386.909 74.7276ZM349.482 119.688L387.108 75.2835L444.378 85.6607L464.023 140.448L426.4 184.859L369.127 174.476L349.482 119.688Z" fill="#FFAB0A"/>
<path d="M424.718 30.086L424.623 30.1948L386.715 74.9399L406.558 130.277L406.701 130.301L464.404 140.761L464.5 140.652L502.408 95.9069L482.565 40.5702L482.422 40.5469L424.718 30.086ZM387.29 75.0404L424.916 30.636L482.186 41.0128L501.831 95.8004L464.207 140.211L406.935 129.828L387.29 75.0404Z" fill="#E9E9E9"/>
<path d="M587.537 33.8865L587.441 33.9956L549.533 78.7407L569.375 134.077L569.519 134.102L627.222 144.562L627.317 144.453L665.225 99.7077L645.383 44.371L645.24 44.3474L587.537 33.8865ZM550.107 78.8412L587.734 34.4364L645.004 44.8133L664.65 99.6009L627.023 144.005L569.753 133.629L550.107 78.8412Z" fill="#E9E9E9"/>
<path d="M529.974 23.443L529.878 23.5521L491.97 68.2972L511.813 123.634L511.956 123.657L569.66 134.118L569.755 134.009L607.663 89.2643L587.82 33.9276L587.677 33.9031L529.974 23.443ZM492.547 68.4037L530.171 23.993L587.443 34.3761L607.088 89.1637L569.465 133.575L512.192 123.191L492.547 68.4037Z" fill="#E9E9E9"/>
<path d="M984.723 128.245C986.695 127.538 988.867 128.563 989.574 130.535C990.281 132.507 989.255 134.679 987.284 135.386C985.312 136.093 983.14 135.068 982.433 133.095C981.726 131.124 982.751 128.952 984.723 128.245Z" fill="#00A1FF"/>
<path d="M582.9 159.806C582.192 157.832 580.023 156.808 578.048 157.515C576.074 158.223 575.051 160.392 575.759 162.366C576.467 164.34 578.635 165.364 580.609 164.656C582.583 163.948 583.605 161.773 582.9 159.806Z" fill="#00A1FF"/>
<path d="M250.874 -4.49248C252.846 -5.19947 255.017 -4.17354 255.724 -2.20192C256.431 -0.230292 255.407 1.94184 253.435 2.64883C251.462 3.35612 249.291 2.33014 248.584 0.358517C247.877 -1.61311 248.902 -3.78519 250.874 -4.49248Z" fill="#00A1FF"/>
</g>
<path d="M729.286 99.383L729.033 99.6839L690.726 144.885L710.862 201.023L711.249 201.094L769.562 211.662L808.121 166.16L787.985 110.023L787.598 109.951L729.286 99.383ZM692.271 145.167L729.817 100.862L786.971 111.222L806.579 165.885L769.033 210.189L711.879 199.83L692.271 145.167Z" fill="white" fill-opacity="0.5"/>
<path d="M903.227 131.355L903.131 131.465L864.983 176.481L884.955 232.158L885.098 232.181L943.17 242.708L981.414 197.582L961.442 141.905L961.299 141.881L903.227 131.355ZM865.561 176.582L903.423 131.902L961.06 142.35L980.834 197.474L942.971 242.155L885.334 231.706L865.561 176.582Z" fill="#E9E9E9"/>
<path d="M595.257 178.7L595.004 179.002L556.697 224.204L576.833 280.34L635.532 290.98L674.093 245.477L653.956 189.341L653.569 189.269L595.257 178.7ZM558.241 224.485L595.788 180.18L652.941 190.539L672.549 245.203L635.002 289.501L577.847 279.142L558.241 224.485Z" fill="#00A1FF"/>
<defs>
<clipPath id="clip0_1577_1517">
<rect width="1298.4" height="728.545" fill="white" transform="matrix(0.941313 -0.337534 -0.337534 -0.941313 335.89 528.523)"/>
</clipPath>
</defs>
</svg>
