<svg width="241" height="288" viewBox="0 0 241 288" fill="none" xmlns="http://www.w3.org/2000/svg">
<g opacity="0.25" clip-path="url(#clip0_1577_1281)">
<path fill-rule="evenodd" clip-rule="evenodd" d="M421.989 547.121C429.339 547.111 436.665 545.162 443.177 541.402L558.919 474.593C561.921 476.45 565.171 477.855 568.557 478.763C577.409 481.135 587.155 480.155 595.643 475.254C612.618 465.454 618.519 443.435 608.718 426.46C598.918 409.484 576.883 403.583 559.908 413.384C548.17 420.161 541.751 432.776 542.138 445.528L426.403 512.355C423.602 513.972 420.272 513.941 417.753 512.44L319.394 454.149C316.456 452.408 314.843 449.53 314.843 446.423L314.843 298.973L314.843 181.064C314.843 165.935 306.689 151.99 293.725 144.428L361.534 70.1196C361.929 57.3531 355.498 44.7177 343.747 37.9332C326.772 28.1325 304.755 34.0397 294.955 51.0152C285.154 67.9907 291.061 90.0025 308.036 99.8034C316.523 104.704 326.27 105.69 335.122 103.318C338.499 102.415 341.74 101.01 344.736 99.1604L276.82 173.409C279.643 175.056 281.3 177.918 281.3 181.064L281.3 298.367C281.296 298.57 281.296 298.772 281.3 298.976C281.3 302.147 279.632 305.021 276.886 306.607L174.762 365.552C172.015 367.138 168.728 367.138 165.981 365.552L44.6755 295.532C36.6497 290.898 26.3836 293.651 21.7536 301.68C17.1345 309.701 19.8862 319.943 27.901 324.573L149.183 394.623C162.262 402.175 178.48 402.175 191.56 394.623L281.3 342.79L281.3 446.426C281.3 461.594 289.52 475.439 302.304 483.014L400.669 541.304C407.27 545.216 414.639 547.135 421.989 547.121ZM576.754 458.723C575.837 458.676 574.932 458.513 574.049 458.277C570.519 457.33 567.35 454.989 565.335 451.497C561.303 444.515 563.6 435.9 570.583 431.869C577.565 427.837 586.185 430.152 590.216 437.135C594.248 444.118 591.951 452.738 584.968 456.77C582.35 458.281 579.503 458.905 576.754 458.723ZM669.151 408.833C671.929 408.757 674.641 407.991 677.049 406.605L819.091 324.582C827.097 319.944 829.837 309.697 825.214 301.682C820.585 293.667 810.343 290.921 802.322 295.54L668.722 372.673L431.961 234.23C429.121 232.57 427.481 229.716 427.481 226.575L427.481 108.643C427.481 105.472 429.125 102.615 431.871 101.029L440.812 95.8766C440.878 95.8389 440.962 95.8484 441.033 95.8107L534.085 42.0657C536.815 40.5284 540.082 40.4962 542.8 42.0657L552.391 47.6062L654.515 106.575L658.518 108.886C658.14 121.644 664.575 134.267 676.311 141.043C684.799 145.943 694.539 146.906 703.391 144.534C712.242 142.162 720.197 136.455 725.098 127.967C734.898 110.992 729.015 88.9738 712.04 79.1729C700.306 72.3975 686.156 73.1297 675.299 79.8277L671.307 77.5282L671.279 77.5L569.155 18.5542C566.409 16.9684 564.741 14.0944 564.741 10.9233L564.741 -129.14C564.741 -132.326 566.404 -135.202 569.107 -136.753L669.272 -194.233C672.07 -195.839 675.366 -195.835 678.1 -194.261C796.574 -125.858 678.106 -194.26 802.306 -122.55C810.321 -117.927 820.568 -120.667 825.205 -128.674C829.843 -136.694 827.101 -146.959 819.081 -151.596C694.881 -223.306 813.349 -154.899 694.875 -223.302C681.782 -230.861 665.62 -230.817 652.569 -223.33L553.328 -166.369C550.213 -170.067 547.431 -174.104 543.124 -176.591L446.599 -232.337C446.973 -245.091 440.532 -257.714 428.799 -264.488C411.825 -274.289 389.813 -268.382 380.013 -251.406C370.212 -234.431 376.096 -212.418 393.07 -202.618C401.558 -197.717 411.328 -196.731 420.18 -199.103C423.571 -200.012 426.824 -201.416 429.83 -203.273L526.358 -147.534C529.104 -145.949 530.772 -143.074 530.772 -139.903L530.772 0.160374C530.772 3.33182 529.104 6.21189 526.358 7.79728L517.399 12.9737C517.352 13.0114 517.269 12.9832 517.215 13.0208L424.146 66.7417C421.42 68.2669 418.166 68.3073 415.455 66.7417C332.838 17.0358 444.576 -30.966 361.529 -79.3799C361.911 -92.1344 355.482 -104.752 343.742 -111.53C326.767 -121.331 304.75 -115.448 294.949 -98.4723C285.149 -81.4967 291.056 -59.4609 308.031 -49.6598C316.518 -44.7594 326.265 -43.7972 335.116 -46.1689C338.5 -47.0754 341.748 -48.4817 344.749 -50.3327C427.667 -1.99344 315.55 45.824 397.554 95.1512C396.011 99.5702 393.932 103.825 393.932 108.638L393.932 226.578C393.932 241.713 402.088 255.651 415.026 263.215L660.208 406.564C662.917 408.142 666.017 408.925 669.151 408.833ZM171.294 278.533C174.752 278.608 178.197 278.189 181.517 277.3C190.368 274.928 198.317 269.215 203.217 260.728C213.018 243.752 207.135 221.74 190.16 211.939C178.428 205.165 164.286 205.905 153.43 212.606L56.8753 156.866C54.1288 155.28 52.4672 152.406 52.4672 149.234L52.4672 9.17095L52.4672 -126.776C52.4672 -130.143 54.2208 -132.992 56.3392 -134.115L158.463 -188.241C166.643 -192.583 169.751 -202.731 165.415 -210.914C161.081 -219.102 150.937 -222.229 142.75 -217.895L40.6249 -163.745C26.5973 -156.309 18.9182 -141.684 18.9182 -126.776L18.9182 9.17095L18.9182 149.234C18.925 152.168 19.7021 155.046 21.1698 157.586C23.6373 169.198 29.6084 179.851 40.1068 185.912L136.643 241.665C136.263 254.417 142.693 267.032 154.431 273.809C159.735 276.872 165.532 278.4 171.294 278.533ZM676.353 270.229C679.39 270.163 682.162 269.759 684.704 269.49C691.483 268.774 696.951 267.351 696.951 267.351C698.418 266.973 699.827 266.393 701.139 265.636C735.178 245.983 769.224 226.326 803.263 206.673C816.343 199.121 824.428 185.099 824.428 169.995L824.428 52.0861C824.428 36.982 816.343 22.9601 803.263 15.4084L687.528 -51.4189C687.91 -64.173 681.474 -76.791 669.735 -83.569C652.76 -93.37 630.748 -87.463 620.948 -70.4871C611.147 -53.5121 617.054 -31.4995 634.029 -21.6988C642.516 -16.7984 652.257 -15.8122 661.109 -18.184C664.495 -19.0905 667.745 -20.5024 670.747 -22.3599L786.495 44.4489C789.241 46.0349 790.885 48.9144 790.885 52.0861L790.885 169.995C790.885 173.166 789.241 176.04 786.495 177.626C753.266 196.812 720.03 215.992 686.801 235.177C685.701 235.429 684.242 235.818 681.172 236.143C677.141 236.569 672.746 234.944 675.566 236.571L559.83 169.768C560.22 157.013 553.795 144.396 542.055 137.617C525.08 127.817 503.045 133.7 493.245 150.676C483.444 167.651 489.351 189.687 506.326 199.488C514.814 204.388 524.56 205.351 533.412 202.979C536.8 202.072 540.052 200.663 543.056 198.809L658.792 265.635C664.158 268.734 668.938 269.881 673.225 270.163C674.297 270.229 675.34 270.248 676.353 270.229ZM173.32 257.26C170.571 257.45 167.724 256.836 165.105 255.324C158.123 251.292 155.826 242.679 159.857 235.696C163.889 228.713 172.484 226.392 179.467 230.424C186.45 234.455 188.764 243.075 184.733 250.058C182.717 253.549 179.555 255.867 176.024 256.814C175.141 257.05 174.236 257.197 173.32 257.26ZM525.215 182.94C522.466 183.12 519.619 182.492 517.001 180.98C510.018 176.948 507.721 168.352 511.753 161.369C515.784 154.386 524.404 152.071 531.386 156.103C538.369 160.134 540.66 168.754 536.628 175.737C534.613 179.229 531.45 181.547 527.919 182.493C527.037 182.729 526.132 182.879 525.215 182.94ZM695.194 124.488C692.445 124.678 689.598 124.064 686.98 122.552C679.997 118.521 677.7 109.907 681.732 102.924C685.763 95.9408 694.383 93.6203 701.365 97.6518C708.348 101.684 710.645 110.304 706.613 117.287C704.597 120.778 701.429 123.096 697.898 124.042C697.015 124.278 696.111 124.425 695.194 124.488ZM326.925 83.2654C324.176 83.4529 321.329 82.8415 318.711 81.3294C311.728 77.2977 309.407 68.6778 313.439 61.6947C317.47 54.7118 326.09 52.397 333.073 56.4285C340.055 60.4601 342.376 69.0803 338.345 76.0635C336.329 79.5547 333.16 81.8725 329.63 82.8187C328.747 83.0553 327.842 83.2013 326.925 83.2654ZM451.344 -13.7875C454.802 -13.7121 458.247 -14.1203 461.566 -15.0083C470.418 -17.3803 478.373 -23.0934 483.273 -31.5809C493.073 -48.5564 487.167 -70.5924 470.192 -80.3933C458.453 -87.1709 444.308 -86.4315 433.456 -79.7215L317.726 -146.542C314.979 -148.128 313.336 -150.984 313.336 -154.156C313.336 -193.462 313.336 -232.758 313.336 -272.064C313.336 -275.236 314.98 -278.116 317.726 -279.701L419.85 -338.665C422.596 -340.25 425.908 -340.251 428.654 -338.665L549.96 -268.621C557.981 -264.002 568.228 -266.754 572.858 -274.769C577.496 -282.789 574.755 -293.048 566.735 -297.686L445.423 -367.711C432.343 -375.263 416.156 -375.263 403.076 -367.711L300.952 -308.742C287.872 -301.19 279.787 -287.168 279.787 -272.064C279.787 -232.758 279.787 -193.462 279.787 -154.156C279.787 -139.052 287.872 -125.03 300.952 -117.478L416.693 -50.6686C416.312 -37.9164 422.749 -25.3015 434.486 -18.5242C439.791 -15.4618 445.582 -13.9276 451.344 -13.7875ZM453.37 -35.0545C450.62 -34.8745 447.774 -35.4964 445.155 -37.0083C438.173 -41.0398 435.858 -49.6598 439.889 -56.643C443.921 -63.6259 452.534 -65.9165 459.517 -61.885C466.5 -57.8534 468.821 -49.2397 464.789 -42.2567C462.773 -38.7653 459.604 -36.4469 456.074 -35.5008C455.191 -35.2643 454.286 -35.1139 453.37 -35.0545ZM652.912 -38.2294C650.163 -38.0494 647.316 -38.6714 644.698 -40.1835C637.715 -44.2148 635.4 -52.8354 639.432 -59.8183C643.464 -66.8012 652.077 -69.1159 659.06 -65.0843C666.043 -61.0524 668.363 -52.4323 664.332 -45.4496C662.316 -41.958 659.147 -39.6224 655.617 -38.6766C654.734 -38.4401 653.829 -38.2897 652.912 -38.2294ZM326.925 -66.216C324.176 -66.036 321.329 -66.6582 318.711 -68.1701C311.728 -72.2017 309.407 -80.8215 313.439 -87.8045C317.47 -94.7873 326.09 -97.0785 333.073 -93.0468C340.055 -89.0151 342.376 -80.401 338.345 -73.4184C336.329 -69.9266 333.16 -67.609 329.63 -66.6626C328.747 -66.4261 327.842 -66.2744 326.925 -66.216ZM411.987 -219.135C409.238 -218.955 406.391 -219.582 403.772 -221.095C396.79 -225.126 394.475 -233.74 398.507 -240.723C402.538 -247.706 411.158 -250.003 418.141 -245.971C425.123 -241.94 427.414 -233.343 423.383 -226.36C421.367 -222.869 418.222 -220.527 414.692 -219.582C413.809 -219.345 412.904 -219.195 411.987 -219.135Z" fill="white" fill-opacity="0.2"/>
</g>
<defs>
<clipPath id="clip0_1577_1281">
<rect width="241" height="524" fill="white" transform="translate(241 288) rotate(-180)"/>
</clipPath>
</defs>
</svg>
