<svg width="176" height="154" viewBox="0 0 176 154" fill="none" xmlns="http://www.w3.org/2000/svg">
<g clip-path="url(#clip0_1577_1715)">
<path fill-rule="evenodd" clip-rule="evenodd" d="M-74.1403 92.7746C-74.1569 94.7484 -73.6503 96.7207 -72.653 98.4795L-69.7378 115.084C-70.2465 115.886 -70.6339 116.755 -70.8874 117.661C-71.5502 120.032 -71.3112 122.652 -70.0116 124.944C-67.4123 129.528 -61.4893 131.17 -56.8854 128.583C-52.2816 125.995 -50.6328 120.093 -53.232 115.509C-55.0294 112.34 -58.4149 110.583 -61.8554 110.654L-64.7753 94.0506C-65.2042 93.2943 -65.1871 92.4002 -64.7758 91.7277L-48.7991 65.4665C-48.3219 64.6821 -47.5415 64.2564 -46.7035 64.2645L-93.6078 -23.8191L-61.8074 -23.5115C-57.727 -23.4719 -53.9446 -25.6252 -51.8716 -29.0867L-31.4993 -63.0995C-28.0572 -62.9602 -24.6327 -64.6542 -22.7723 -67.792C-20.085 -72.3248 -21.6209 -78.2526 -26.1738 -80.9288C-30.7267 -83.6049 -36.6788 -82.0761 -39.3662 -77.5433C-40.71 -75.2769 -41.0013 -72.662 -40.3845 -70.2789C-40.1495 -69.3697 -39.7791 -68.4955 -39.2881 -67.6862L-59.644 -33.7021C-60.0954 -32.9483 -60.8717 -32.5109 -61.7202 -32.5191L-93.3571 -32.8251C-93.4118 -32.8266 -93.4664 -32.8272 -93.5213 -32.8267C-94.3765 -32.835 -95.1475 -33.2903 -95.5679 -34.032L-111.2 -61.6099C-111.621 -62.3516 -111.612 -63.2344 -111.178 -63.9679L-91.9779 -96.3603C-90.7071 -98.5034 -91.423 -101.267 -93.5764 -102.532C-95.7277 -103.793 -98.4973 -103.081 -99.7667 -100.941L-40.7288 -34.6885C-42.7995 -31.1958 -42.8417 -26.8408 -40.8389 -23.3086L-105.338 -32.941L-46.617 55.257C-50.7079 55.2174 -54.4633 57.3888 -56.5396 60.8018L-72.5162 87.0647C-73.5884 88.8271 -74.125 90.8008 -74.1403 92.7746ZM-65.504 119.915C-65.489 119.669 -65.4427 119.426 -65.3766 119.19C-65.112 118.244 -64.4724 117.399 -63.5255 116.867C-61.6317 115.803 -59.3144 116.442 -58.2452 118.328C-57.176 120.213 -57.8228 122.522 -59.7165 123.586C-61.6104 124.651 -63.9293 124.011 -64.9984 122.126C-65.3993 121.419 -65.5601 120.653 -65.504 119.915ZM-37.4856 159.508C-37.4725 160.254 -37.2729 160.984 -36.9052 161.635L-15.1523 199.992C-13.9224 202.154 -11.1659 202.917 -8.99219 201.696C-6.81842 200.474 -6.05123 197.731 -7.27625 195.565L-27.7322 159.487L10.2216 96.2688C10.6767 95.5106 11.4507 95.0775 12.2977 95.0858L44.1045 95.3935C44.9597 95.4017 45.726 95.8507 46.1465 96.5923L47.513 99.0068C47.523 99.0246 47.5202 99.0472 47.5302 99.0662L61.7837 124.195C62.1912 124.931 62.1914 125.809 61.761 126.535L60.2418 129.096L44.0724 156.366L43.4386 157.435C39.9989 157.3 36.5777 158.995 34.7196 162.129C33.3759 164.396 33.0911 167.009 33.7078 169.392C34.3245 171.775 35.843 173.926 38.1195 175.264C42.6724 177.941 48.6259 176.418 51.3134 171.885C53.1712 168.752 53.0105 164.95 51.2323 162.017L51.8628 160.951L51.8705 160.944L68.0337 133.673C68.4685 132.94 69.248 132.5 70.1032 132.508L107.879 132.873C108.738 132.882 109.509 133.336 109.921 134.066L125.163 161.114C125.589 161.869 125.579 162.754 125.148 163.485C106.391 195.121 125.147 163.486 105.484 196.652C104.217 198.792 104.929 201.551 107.076 202.817C109.227 204.083 112.003 203.374 113.275 201.232C132.938 168.067 114.18 199.701 132.937 168.065C135.009 164.569 135.039 160.229 133.054 156.704L117.949 129.906C118.955 129.079 120.051 128.342 120.733 127.192L136.018 101.417C139.457 101.551 142.878 99.8541 144.736 96.7212C147.423 92.1884 145.887 86.2621 141.334 83.586C136.782 80.9098 130.829 82.4323 128.142 86.9651C126.798 89.2316 126.507 91.8527 127.124 94.2359C127.36 95.1488 127.73 96.0262 128.223 96.8382L112.94 122.614C112.505 123.348 111.725 123.788 110.87 123.78L73.0943 123.414C72.2389 123.406 71.4665 122.95 71.046 122.209L69.6732 119.79C69.6632 119.777 69.671 119.755 69.661 119.74L55.4141 94.6072C55.0098 93.8714 55.0074 92.9973 55.4367 92.2733C69.0571 70.2174 82.2202 47.9324 95.4934 25.7575C98.9323 25.8936 102.352 24.1998 104.211 21.065C106.898 16.5321 105.369 10.6043 100.816 7.92816C96.2627 5.25205 90.3042 6.78084 87.6167 11.3137C86.273 13.58 85.9882 16.1949 86.6048 18.5781C86.8405 19.4892 87.2114 20.365 87.7028 21.1756C74.4501 43.3161 61.3378 65.4997 47.821 87.3922C46.6332 86.9662 45.4911 86.397 44.1929 86.3845L12.384 86.0767C8.30216 86.0373 4.52196 88.1911 2.44833 91.6455L-36.8504 157.112C-37.2831 157.836 -37.5022 158.666 -37.4856 159.508ZM-87.722 -62.314C-87.7513 -61.3857 -87.6472 -60.4595 -87.4161 -59.5657C-86.7994 -57.1826 -85.2792 -55.033 -83.0028 -53.695C-78.4498 -51.0189 -72.4979 -52.5413 -69.8104 -57.0741C-67.953 -60.2069 -68.1159 -64.0064 -69.8949 -66.9393L-54.6107 -92.7224C-54.1758 -93.4558 -53.3963 -93.8945 -52.541 -93.8862L71.9067 -5.05235L108.572 -4.69764C109.48 -4.68885 110.244 -4.21053 110.541 -3.63873L124.382 -46.2279C125.531 -44.0201 128.26 -43.1588 130.479 -44.3019C132.698 -45.4443 133.568 -48.1602 132.42 -50.3702L118.081 -77.9359C116.112 -81.7222 112.68 -13.6679 108.659 -13.7068L71.9938 -14.0615L-52.4538 -102.895C-53.245 -102.901 -54.0234 -102.7 -54.7122 -102.313C-57.8504 -101.68 -60.739 -100.105 -62.4011 -97.3011L-77.6885 -71.5229C-81.1269 -71.6584 -84.5458 -69.9646 -86.4042 -66.8302C-87.244 -65.4137 -87.6711 -63.8609 -87.722 -62.314ZM-0.122379 161.803C-0.11248 162.619 -0.010646 163.365 0.0551871 164.048C0.230727 165.87 0.600186 167.342 0.600186 167.342C0.698284 167.737 0.851103 168.117 1.05195 168.471C6.26406 177.663 11.4772 186.858 16.6893 196.05C18.692 199.582 22.4529 201.789 26.5264 201.829L58.3268 202.136C62.4005 202.176 66.2032 200.041 68.2739 196.549L86.5982 165.644C90.037 165.78 93.4568 164.084 95.3154 160.949C98.0028 156.417 96.4669 150.49 91.9139 147.814C87.3611 145.138 81.4089 146.667 78.7215 151.2C77.3778 153.466 77.0865 156.079 77.7032 158.462C77.9389 159.374 78.3113 160.25 78.8045 161.062L60.4852 191.97C60.0503 192.703 59.2694 193.137 58.414 193.129L26.6136 192.821C25.7584 192.813 24.9873 192.364 24.5668 191.622C19.4787 182.649 14.3921 173.674 9.30401 164.701C9.239 164.404 9.1378 164.012 9.05818 163.186C8.95377 162.103 9.4034 160.927 8.95741 161.68L27.275 130.775C30.7139 130.913 34.1337 129.22 35.9923 126.085C38.6797 121.553 37.1502 115.62 32.5973 112.944C28.0444 110.268 22.0859 111.797 19.3985 116.329C18.0547 118.596 17.7698 121.211 18.3866 123.594C18.6223 124.506 18.9938 125.383 19.4862 126.194L1.16212 157.1C0.31248 158.533 -0.00926364 159.813 -0.0964174 160.964C-0.116994 161.251 -0.124829 161.531 -0.122379 161.803ZM-81.99 -61.7145C-82.0339 -62.4532 -81.8611 -63.2161 -81.4465 -63.9154C-80.3409 -65.7799 -78.0118 -66.3743 -76.1389 -65.2735C-74.266 -64.1727 -73.6626 -61.8583 -74.768 -59.9937C-75.8735 -58.1291 -78.2043 -57.5301 -80.0772 -58.6308C-81.0135 -59.1813 -81.6305 -60.0365 -81.8765 -60.9871C-81.938 -61.2249 -81.9753 -61.4682 -81.99 -61.7145ZM23.8125 121.445C23.7711 120.706 23.9478 119.943 24.3624 119.244C25.4679 117.38 27.7923 116.785 29.6652 117.886C31.538 118.987 32.14 121.308 31.0344 123.172C29.929 125.037 27.5982 125.63 25.7253 124.529C24.7889 123.978 24.172 123.123 23.9259 122.172C23.8644 121.935 23.8264 121.691 23.8125 121.445ZM39.1354 167.243C39.0915 166.505 39.2643 165.742 39.6789 165.042C40.7844 163.178 43.1136 162.584 44.9865 163.684C46.8593 164.785 47.4628 167.106 46.3573 168.971C45.2518 170.835 42.921 171.429 41.0481 170.329C40.1117 169.778 39.4948 168.921 39.2488 167.971C39.1873 167.733 39.1501 167.49 39.1354 167.243ZM-34.9549 -72.4277C-34.9983 -73.1664 -34.826 -73.9293 -34.4114 -74.6285C-33.3059 -76.4931 -30.9751 -77.0938 -29.1022 -75.9929C-27.2293 -74.8921 -26.6274 -72.5714 -27.7329 -70.7068C-28.8383 -68.8423 -31.1693 -68.2415 -33.0422 -69.3423C-33.9785 -69.8928 -34.5954 -70.7496 -34.8415 -71.7002C-34.903 -71.938 -34.94 -72.1813 -34.9549 -72.4277ZM77.0624 102.121C77.0331 103.049 77.1342 103.976 77.3651 104.869C77.9819 107.253 79.502 109.404 81.7784 110.742C86.3313 113.418 92.2899 111.889 94.9773 107.356C96.8357 104.222 96.673 100.421 94.8915 97.4895L113.214 66.586C113.649 65.8525 114.423 65.4186 115.279 65.4269C125.88 65.5295 136.478 65.632 147.079 65.7346C147.934 65.7428 148.707 66.1919 149.127 66.9335L164.765 94.5114C165.185 95.253 165.177 96.1423 164.742 96.8757L145.536 129.268C144.269 131.41 144.985 134.169 147.134 135.433C149.285 136.7 152.059 135.99 153.331 133.849L172.532 101.455C174.603 97.9618 174.645 93.6148 172.642 90.0827L157.004 62.5046C155.001 58.9724 151.24 56.7647 147.166 56.7254C136.565 56.6228 125.967 56.5203 115.366 56.4177C111.292 56.3783 107.49 58.5129 105.419 62.0056L87.0994 92.9123C83.6611 92.7768 80.2421 94.4722 78.3837 97.6065C77.544 99.023 77.1152 100.574 77.0624 102.121ZM82.793 102.721C82.7516 101.982 82.9266 101.219 83.3412 100.52C84.4467 98.6552 86.7776 98.056 88.6505 99.1569C90.5233 100.258 91.1187 102.577 90.0133 104.441C88.9078 106.306 86.5786 106.907 84.7057 105.806C83.7693 105.255 83.1523 104.398 82.9063 103.448C82.8448 103.21 82.8066 102.967 82.793 102.721ZM83.1308 156.314C83.0894 155.575 83.2646 154.812 83.6792 154.113C84.7846 152.248 87.1156 151.649 88.9884 152.75C90.8613 153.851 91.4632 156.17 90.3577 158.035C89.2522 159.899 86.9213 160.5 85.0485 159.399C84.112 158.849 83.4903 157.992 83.2444 157.041C83.1829 156.803 83.1447 156.56 83.1308 156.314ZM92.0329 16.4308C91.9915 15.692 92.1667 14.9291 92.5813 14.23C93.6868 12.3654 96.0175 11.7647 97.8904 12.8655C99.7633 13.9663 100.359 16.287 99.2533 18.1516C98.1478 20.0162 95.8185 20.6169 93.9458 19.5161C93.0092 18.9656 92.3924 18.1088 92.1463 17.1582C92.0848 16.9204 92.0463 16.6771 92.0329 16.4308ZM132.548 92.0881C132.506 91.3494 132.683 90.5865 133.098 89.8873C134.203 88.0227 136.532 87.4236 138.405 88.5245C140.278 89.6253 140.875 91.9459 139.77 93.8106C138.664 95.6752 136.34 96.2679 134.467 95.1671C133.53 94.6167 132.907 93.7661 132.661 92.8155C132.6 92.5778 132.561 92.3344 132.548 92.0881Z" fill="url(#paint0_linear_1577_1715)"/>
</g>
<defs>
<linearGradient id="paint0_linear_1577_1715" x1="113.274" y1="201.235" x2="-69.405" y2="-16.4191" gradientUnits="userSpaceOnUse">
<stop stop-color="#00A1FF"/>
<stop offset="1" stop-color="#00FC92"/>
</linearGradient>
<clipPath id="clip0_1577_1715">
<rect width="201.897" height="213.077" fill="white" transform="translate(-40 202) rotate(-89.4457)"/>
</clipPath>
</defs>
</svg>
