<svg width="649" height="1832" viewBox="0 0 649 1832" fill="none" xmlns="http://www.w3.org/2000/svg">
<path opacity="0.1" d="M556.993 -1670.8C724.043 -1587.92 578.831 -1056.93 903.579 -935.609C1586.77 -680.383 -299.501 310.084 60.589 548.429C779.459 1024.25 -98.4823 3636.94 10.2113 3732.96M1125.77 -1384.71C945.187 -1357.96 614.684 -1199.55 737.315 -779.879C890.604 -255.287 1374.99 142.133 1046.27 613.594C717.541 1085.05 -129.115 1469.56 223.23 1870.29M606.305 -1650.86C756.802 -1570.66 602.766 -1057.41 917.889 -921.881C1575.84 -653.829 -197.536 308.399 129.754 557.844C798.738 1033.46 -77.713 3540.05 42.583 3650.57M655.617 -1630.92C789.56 -1553.39 626.701 -1057.89 932.199 -908.152C1564.92 -627.273 -95.5704 306.714 198.918 567.261C818.017 1042.67 -56.9441 3443.15 74.9544 3568.18M704.93 -1610.99C822.319 -1536.13 650.636 -1058.37 946.51 -894.424C1554 -600.718 6.3954 305.029 268.083 576.676C837.297 1051.88 -36.175 3346.25 107.326 3485.8M754.24 -1591.05C855.075 -1518.87 674.57 -1058.84 960.819 -880.696C1543.07 -574.163 108.359 303.344 337.246 586.092C856.574 1061.08 -15.4078 3249.36 139.696 3403.41M803.553 -1571.12C887.834 -1501.61 698.505 -1059.32 975.129 -866.968C1532.15 -547.608 210.325 301.658 406.411 595.507C875.853 1070.29 5.36132 3152.46 172.067 3321.02M852.865 -1551.18C920.593 -1484.34 722.44 -1059.8 989.44 -853.24C1521.23 -521.053 312.291 299.973 475.576 604.922C895.133 1079.5 26.1304 3055.57 204.439 3238.64M902.177 -1531.25C953.351 -1467.08 746.375 -1060.28 1003.75 -839.512C1510.31 -494.497 414.256 298.288 544.741 614.338C914.412 1088.71 46.8994 2958.67 236.81 3156.25M951.49 -1511.31C986.109 -1449.82 770.31 -1060.76 1018.06 -825.784C1499.38 -467.942 516.222 296.602 613.906 623.753C933.691 1097.91 67.6685 2861.77 269.182 3073.87M1000.8 -1491.38C1018.87 -1432.56 794.245 -1061.24 1032.37 -812.056C1488.46 -441.388 618.187 294.917 683.071 633.169C952.971 1107.12 88.4376 2764.88 301.554 2991.48M1050.11 -1471.44C1051.63 -1415.29 818.18 -1061.72 1046.68 -798.327C1477.54 -414.832 720.153 293.232 752.235 642.585C972.25 1116.33 109.207 2667.98 333.925 2909.09M1099.42 -1451.5C1084.38 -1398.03 842.114 -1062.2 1060.99 -784.6C1466.61 -388.278 822.117 291.546 821.399 651.999C991.528 1125.54 129.974 2571.08 366.295 2826.71M1148.74 -1431.57C1117.14 -1380.77 866.049 -1062.68 1075.3 -770.871C1455.69 -361.722 924.082 289.862 890.563 661.416C1010.81 1134.75 150.743 2474.19 398.666 2744.32M1185.48 -1415.2C1137.33 -1367.08 877.41 -1066.73 1077.04 -760.714C1432.19 -338.738 1013.47 284.605 947.154 667.26C1017.51 1140.38 158.938 2373.72 418.464 2658.36M1196.58 -1406.12C1131.88 -1360.66 863.137 -1078.06 1053.14 -757.837C1383.06 -323.034 1077.23 272.069 978.112 665.825C998.584 1138.74 141.5 2265.97 412.628 2565.13M1202.14 -1398.61C1120.88 -1355.83 843.318 -1090.96 1023.7 -756.534C1328.39 -308.904 1135.44 257.959 1003.52 662.815C974.11 1135.52 118.515 2156.65 401.246 2470.32M1194.08 -1394.97C1096.27 -1354.86 809.881 -1107.74 980.635 -759.099C1260.09 -298.642 1180.04 239.98 1015.31 655.937C936.016 1128.44 81.9108 2043.46 376.244 2371.64M1180.61 -1392.86C1066.25 -1355.42 771.036 -1126.04 932.165 -763.201C1186.39 -289.916 1219.22 220.465 1021.7 647.523C892.516 1119.81 39.9001 1928.74 345.836 2271.42M1166.96 -1390.8C1036.04 -1356.04 732.011 -1144.4 883.516 -767.352C1112.5 -281.24 1258.23 200.901 1027.9 639.059C848.835 1111.14 -2.29066 1813.96 315.248 2171.16M1153.26 -1388.77C1005.78 -1356.67 692.926 -1162.78 834.806 -771.521C1038.56 -272.583 1297.17 181.318 1034.05 630.577C805.095 1102.45 -44.5416 1699.17 284.599 2070.87M1139.52 -1386.73C975.492 -1357.32 653.813 -1181.16 786.068 -775.697C964.59 -263.932 1336.09 161.728 1040.17 622.088C761.325 1093.76 -86.8211 1584.37 253.922 1970.58" stroke="white"/>
</svg>
