<svg width="319" height="238" viewBox="0 0 319 238" fill="none" xmlns="http://www.w3.org/2000/svg">
<g clip-path="url(#clip0_1577_517)">
<mask id="path-1-inside-1_1577_517" fill="white">
<path fill-rule="evenodd" clip-rule="evenodd" d="M613.777 410.054C622.45 407.719 630.481 403.101 636.979 396.603L752.471 281.143C756.602 282.385 760.883 283.016 765.166 283.016C776.365 283.016 787.56 278.776 796.029 270.308C812.966 253.371 812.968 225.518 796.031 208.581C779.095 191.645 751.218 191.649 734.28 208.586C722.568 220.298 718.981 237.217 723.471 252.146L607.992 367.625C605.198 370.42 601.257 371.436 597.81 370.461L463.272 332.772C459.254 331.646 456.439 328.76 455.457 325.092L408.825 151.061L371.536 11.8959C366.752 -5.96076 352.716 -19.8413 335.023 -24.6658L391.564 -133.818C387.992 -149.01 376.405 -161.89 360.389 -166.181C337.252 -172.379 313.132 -158.444 306.932 -135.308C300.732 -112.172 314.666 -88.0607 337.802 -81.8618C349.37 -78.762 361.187 -80.6808 370.886 -86.2802C374.586 -88.4148 377.968 -91.098 380.919 -94.2284L324.233 14.8868C328.086 15.9373 330.947 18.7917 331.942 22.505L369.039 160.954C369.099 161.195 369.163 161.434 369.232 161.673C370.235 165.415 369.175 169.336 366.435 172.075L264.531 273.948C261.79 276.688 257.909 277.728 254.166 276.725L88.834 232.449C77.8947 229.517 66.6475 236.014 63.7214 246.955C60.8058 257.883 67.2931 269.102 78.2178 272.031L243.531 316.35C261.359 321.126 280.502 315.997 293.553 302.946L383.088 213.386L415.864 335.704C420.661 353.607 434.743 367.348 452.228 372.246L586.772 409.933C595.801 412.462 605.105 412.396 613.777 410.054ZM768.504 256.771C767.407 257.006 766.287 257.1 765.171 257.1C760.704 257.098 756.223 255.338 752.74 251.854C745.773 244.888 745.76 233.994 752.727 227.027C759.694 220.06 770.601 220.066 777.568 227.033C784.535 234 784.55 244.9 777.582 251.867C774.97 254.479 771.807 256.116 768.504 256.771ZM861.79 168.663C865.045 167.695 868.004 165.933 870.409 163.535L1012.13 21.7994C1020.12 13.7936 1020.11 0.833222 1012.12 -7.16484C1004.12 -15.1609 991.162 -15.1624 983.155 -7.17338L849.848 126.12L526.595 37.6032C522.718 36.5419 519.879 33.6922 518.886 29.9853L481.589 -109.208C480.586 -112.95 481.624 -116.842 484.364 -119.582L493.288 -128.492C493.354 -128.557 493.456 -128.572 493.528 -128.639L586.369 -221.504C589.104 -224.182 592.951 -225.253 596.656 -224.261L609.729 -220.755L748.924 -183.455L754.38 -181.994C757.969 -166.817 769.557 -153.953 785.553 -149.667C797.121 -146.568 808.924 -148.513 818.621 -154.113C828.32 -159.711 835.905 -168.963 839.005 -180.531C845.205 -203.667 831.298 -227.793 808.161 -233.992C792.167 -238.277 775.696 -232.938 764.998 -221.598L759.56 -223.05L759.517 -223.074L620.329 -260.346C616.586 -261.349 613.709 -264.214 612.706 -267.957L568.41 -433.27C567.403 -437.03 568.456 -440.951 571.156 -443.637L671.211 -543.159C674.006 -545.94 677.898 -546.977 681.623 -545.985C843.101 -502.722 681.631 -545.985 850.914 -500.63C861.837 -497.709 873.065 -504.183 876.006 -515.1C878.945 -526.034 872.463 -537.282 861.529 -540.219C692.246 -585.574 853.718 -542.304 692.24 -585.567C674.395 -590.348 655.331 -585.183 642.293 -572.22L543.164 -473.6C538.317 -476.98 533.758 -480.865 527.887 -482.438L396.32 -517.705C392.728 -532.876 381.133 -545.737 365.142 -550.022C342.005 -556.221 317.891 -542.287 311.692 -519.151C305.491 -496.016 319.398 -471.896 342.534 -465.697C354.103 -462.598 365.947 -464.524 375.646 -470.124C379.361 -472.268 382.757 -474.955 385.718 -478.097L517.286 -442.841C521.029 -441.838 523.907 -438.973 524.91 -435.23L569.205 -269.916C570.208 -266.173 569.15 -262.246 566.41 -259.506L557.472 -250.563C557.429 -250.504 557.322 -250.511 557.27 -250.449L464.401 -157.608C461.667 -154.945 457.837 -153.868 454.142 -154.859C340.903 -187.395 457.616 -279.391 344.277 -310.267C340.695 -325.441 329.115 -338.3 313.114 -342.587C289.977 -348.786 265.849 -334.878 259.649 -311.743C253.449 -288.607 267.391 -264.467 290.527 -258.268C302.096 -255.168 313.905 -257.116 323.603 -262.714C327.311 -264.855 330.7 -267.542 333.656 -270.675C446.82 -239.848 329.6 -147.949 441.997 -115.666C441.573 -109.962 440.465 -104.283 441.987 -98.6021L479.287 40.6C484.073 58.4628 498.108 72.3334 515.771 77.1691L850.517 168.813C854.214 169.819 858.121 169.762 861.79 168.663ZM232.917 172.338C237.023 171.333 240.957 169.749 244.594 167.649C254.292 162.05 261.868 152.793 264.968 141.226C271.168 118.09 257.262 93.9704 234.126 87.7715C218.135 83.4871 201.677 88.8336 190.981 100.176L59.3806 64.9257C55.6371 63.9227 52.7668 61.0558 51.7638 57.3127L7.46823 -108.001L-35.5255 -268.455C-36.5903 -272.429 -35.4214 -276.346 -33.2762 -278.342L70.1528 -374.526C78.4346 -382.238 78.8943 -395.199 71.1882 -403.485C63.4833 -411.778 50.5202 -412.26 42.226 -404.556L-61.1958 -308.344C-75.4021 -295.13 -79.8412 -275.44 -75.1264 -257.844L-32.1327 -97.3895L12.1628 67.9237C13.0987 71.3839 14.9263 74.5358 17.462 77.069C24.0469 89.9939 34.4642 100.679 48.7734 104.512L180.356 139.783C183.94 154.954 195.519 167.809 211.518 172.096C218.748 174.033 226.074 174.003 232.917 172.338ZM826.457 2.79422C830.022 1.75559 833.166 0.401871 836.082 -0.719174C843.858 -3.70872 849.862 -7.11708 849.862 -7.11708C851.474 -8.02694 852.953 -9.15733 854.262 -10.4662C888.226 -44.4284 922.198 -78.3976 956.161 -112.36C969.213 -125.41 974.322 -144.517 969.545 -162.344L932.256 -301.508C927.479 -319.335 913.501 -333.328 895.673 -338.104L737.926 -380.373C734.344 -395.548 722.756 -408.405 706.755 -412.692C683.619 -418.891 659.505 -404.957 653.305 -381.821C647.105 -358.686 661.039 -334.573 684.176 -328.375C695.744 -325.275 707.554 -327.192 717.252 -332.791C720.963 -334.932 724.352 -337.626 727.308 -340.768L885.064 -298.525C888.808 -297.521 891.659 -294.643 892.662 -290.899L929.951 -151.734C930.953 -147.992 929.922 -144.079 927.182 -141.339C894.026 -108.185 860.861 -75.0352 827.706 -41.8809C826.486 -41.2359 824.888 -40.3152 821.366 -38.9606C816.743 -37.1832 811.041 -37.7107 814.885 -36.683L657.144 -78.9232C653.571 -94.1002 641.996 -106.96 625.995 -111.248C602.858 -117.446 578.709 -103.533 572.509 -80.3974C566.309 -57.2619 580.251 -33.1218 603.387 -26.923C614.956 -23.8234 626.765 -25.7702 636.463 -31.3696C640.176 -33.5111 643.569 -36.2025 646.528 -39.3415L804.276 2.92688C811.591 4.8867 817.595 4.72871 822.745 3.70537C824.031 3.44409 825.268 3.13683 826.457 2.79422ZM228.581 146.589C225.396 147.682 221.841 147.859 218.272 146.902C208.755 144.352 203.32 134.912 205.87 125.395C208.42 115.878 217.833 110.421 227.35 112.97C236.867 115.52 242.325 124.962 239.775 134.479C238.5 139.237 235.5 142.973 231.632 145.207C230.664 145.765 229.643 146.225 228.581 146.589ZM620.45 -52.4287C617.262 -51.3467 613.704 -51.1871 610.134 -52.1438C600.617 -54.6935 595.187 -64.1133 597.738 -73.6301C600.288 -83.1471 609.731 -88.6054 619.248 -86.0551C628.765 -83.5056 634.195 -74.056 631.645 -64.5391C630.37 -59.7809 627.37 -56.0448 623.501 -53.8112C622.534 -53.2528 621.513 -52.7898 620.45 -52.4287ZM802.606 -175.179C799.421 -174.086 795.867 -173.91 792.298 -174.866C782.781 -177.416 777.345 -186.856 779.896 -196.373C782.446 -205.89 791.887 -211.355 801.404 -208.806C810.921 -206.255 816.358 -196.808 813.808 -187.291C812.533 -182.532 809.526 -178.795 805.657 -176.561C804.69 -176.003 803.668 -175.543 802.606 -175.179ZM354.868 -107.356C351.683 -106.265 348.129 -106.086 344.56 -107.043C335.043 -109.593 329.577 -119.032 332.128 -128.55C334.678 -138.066 344.12 -143.525 353.638 -140.975C363.155 -138.425 368.62 -128.985 366.07 -119.468C364.795 -114.709 361.788 -110.972 357.92 -108.738C356.952 -108.18 355.93 -107.721 354.868 -107.356ZM471.038 -261.257C475.143 -262.261 479.081 -263.833 482.718 -265.931C492.416 -271.53 500 -280.789 503.1 -292.356C509.299 -315.492 495.358 -339.632 472.221 -345.831C456.222 -350.118 439.759 -344.771 429.071 -333.419L271.332 -375.683C267.589 -376.686 264.745 -379.537 263.743 -383.28C251.312 -429.672 238.884 -476.053 226.453 -522.445C225.451 -526.187 226.48 -530.107 229.22 -532.847L331.119 -634.74C333.859 -637.48 337.768 -638.528 341.512 -637.525L506.851 -593.221C517.78 -590.306 529.006 -596.795 531.936 -607.72C534.874 -618.653 528.394 -629.894 517.46 -632.831L352.119 -677.112C334.291 -681.888 315.184 -676.768 302.133 -663.718L200.236 -561.818C187.184 -548.767 182.075 -529.66 186.852 -511.834C199.283 -465.442 211.711 -419.061 224.141 -372.669C228.918 -354.842 242.896 -340.85 260.724 -336.073L418.473 -293.827C422.056 -278.655 433.643 -265.802 449.641 -261.515C456.871 -259.579 464.192 -259.6 471.038 -261.257ZM466.703 -286.998C463.515 -285.916 459.958 -285.75 456.389 -286.706C446.872 -289.256 441.413 -298.698 443.964 -308.215C446.514 -317.732 455.957 -323.16 465.474 -320.61C474.992 -318.06 480.455 -308.628 477.905 -299.11C476.63 -294.352 473.622 -290.614 469.754 -288.38C468.787 -287.822 467.766 -287.358 466.703 -286.998ZM701.237 -353.858C698.049 -352.776 694.492 -352.609 690.923 -353.566C681.406 -356.116 675.948 -365.558 678.498 -375.075C681.048 -384.592 690.484 -390.048 700.001 -387.498C709.519 -384.948 714.984 -375.508 712.433 -365.991C711.158 -361.233 708.157 -357.474 704.288 -355.241C703.321 -354.683 702.3 -354.219 701.237 -353.858ZM307.594 -283.785C304.406 -282.703 300.849 -282.537 297.28 -283.493C287.763 -286.043 282.298 -295.483 284.848 -305C287.398 -314.517 296.848 -319.947 306.366 -317.397C315.883 -314.847 321.346 -305.414 318.796 -295.898C317.521 -291.138 314.514 -287.401 310.645 -285.167C309.678 -284.609 308.658 -284.144 307.594 -283.785ZM359.64 -491.175C356.451 -490.093 352.893 -489.933 349.323 -490.89C339.806 -493.44 334.35 -502.875 336.9 -512.392C339.451 -521.909 348.899 -527.345 358.416 -524.796C367.934 -522.246 373.356 -512.825 370.806 -503.308C369.531 -498.549 366.559 -494.791 362.691 -492.558C361.723 -491.999 360.703 -491.536 359.64 -491.175Z"/>
</mask>
<path fill-rule="evenodd" clip-rule="evenodd" d="M613.777 410.054C622.45 407.719 630.481 403.101 636.979 396.603L752.471 281.143C756.602 282.385 760.883 283.016 765.166 283.016C776.365 283.016 787.56 278.776 796.029 270.308C812.966 253.371 812.968 225.518 796.031 208.581C779.095 191.645 751.218 191.649 734.28 208.586C722.568 220.298 718.981 237.217 723.471 252.146L607.992 367.625C605.198 370.42 601.257 371.436 597.81 370.461L463.272 332.772C459.254 331.646 456.439 328.76 455.457 325.092L408.825 151.061L371.536 11.8959C366.752 -5.96076 352.716 -19.8413 335.023 -24.6658L391.564 -133.818C387.992 -149.01 376.405 -161.89 360.389 -166.181C337.252 -172.379 313.132 -158.444 306.932 -135.308C300.732 -112.172 314.666 -88.0607 337.802 -81.8618C349.37 -78.762 361.187 -80.6808 370.886 -86.2802C374.586 -88.4148 377.968 -91.098 380.919 -94.2284L324.233 14.8868C328.086 15.9373 330.947 18.7917 331.942 22.505L369.039 160.954C369.099 161.195 369.163 161.434 369.232 161.673C370.235 165.415 369.175 169.336 366.435 172.075L264.531 273.948C261.79 276.688 257.909 277.728 254.166 276.725L88.834 232.449C77.8947 229.517 66.6475 236.014 63.7214 246.955C60.8058 257.883 67.2931 269.102 78.2178 272.031L243.531 316.35C261.359 321.126 280.502 315.997 293.553 302.946L383.088 213.386L415.864 335.704C420.661 353.607 434.743 367.348 452.228 372.246L586.772 409.933C595.801 412.462 605.105 412.396 613.777 410.054ZM768.504 256.771C767.407 257.006 766.287 257.1 765.171 257.1C760.704 257.098 756.223 255.338 752.74 251.854C745.773 244.888 745.76 233.994 752.727 227.027C759.694 220.06 770.601 220.066 777.568 227.033C784.535 234 784.55 244.9 777.582 251.867C774.97 254.479 771.807 256.116 768.504 256.771ZM861.79 168.663C865.045 167.695 868.004 165.933 870.409 163.535L1012.13 21.7994C1020.12 13.7936 1020.11 0.833222 1012.12 -7.16484C1004.12 -15.1609 991.162 -15.1624 983.155 -7.17338L849.848 126.12L526.595 37.6032C522.718 36.5419 519.879 33.6922 518.886 29.9853L481.589 -109.208C480.586 -112.95 481.624 -116.842 484.364 -119.582L493.288 -128.492C493.354 -128.557 493.456 -128.572 493.528 -128.639L586.369 -221.504C589.104 -224.182 592.951 -225.253 596.656 -224.261L609.729 -220.755L748.924 -183.455L754.38 -181.994C757.969 -166.817 769.557 -153.953 785.553 -149.667C797.121 -146.568 808.924 -148.513 818.621 -154.113C828.32 -159.711 835.905 -168.963 839.005 -180.531C845.205 -203.667 831.298 -227.793 808.161 -233.992C792.167 -238.277 775.696 -232.938 764.998 -221.598L759.56 -223.05L759.517 -223.074L620.329 -260.346C616.586 -261.349 613.709 -264.214 612.706 -267.957L568.41 -433.27C567.403 -437.03 568.456 -440.951 571.156 -443.637L671.211 -543.159C674.006 -545.94 677.898 -546.977 681.623 -545.985C843.101 -502.722 681.631 -545.985 850.914 -500.63C861.837 -497.709 873.065 -504.183 876.006 -515.1C878.945 -526.034 872.463 -537.282 861.529 -540.219C692.246 -585.574 853.718 -542.304 692.24 -585.567C674.395 -590.348 655.331 -585.183 642.293 -572.22L543.164 -473.6C538.317 -476.98 533.758 -480.865 527.887 -482.438L396.32 -517.705C392.728 -532.876 381.133 -545.737 365.142 -550.022C342.005 -556.221 317.891 -542.287 311.692 -519.151C305.491 -496.016 319.398 -471.896 342.534 -465.697C354.103 -462.598 365.947 -464.524 375.646 -470.124C379.361 -472.268 382.757 -474.955 385.718 -478.097L517.286 -442.841C521.029 -441.838 523.907 -438.973 524.91 -435.23L569.205 -269.916C570.208 -266.173 569.15 -262.246 566.41 -259.506L557.472 -250.563C557.429 -250.504 557.322 -250.511 557.27 -250.449L464.401 -157.608C461.667 -154.945 457.837 -153.868 454.142 -154.859C340.903 -187.395 457.616 -279.391 344.277 -310.267C340.695 -325.441 329.115 -338.3 313.114 -342.587C289.977 -348.786 265.849 -334.878 259.649 -311.743C253.449 -288.607 267.391 -264.467 290.527 -258.268C302.096 -255.168 313.905 -257.116 323.603 -262.714C327.311 -264.855 330.7 -267.542 333.656 -270.675C446.82 -239.848 329.6 -147.949 441.997 -115.666C441.573 -109.962 440.465 -104.283 441.987 -98.6021L479.287 40.6C484.073 58.4628 498.108 72.3334 515.771 77.1691L850.517 168.813C854.214 169.819 858.121 169.762 861.79 168.663ZM232.917 172.338C237.023 171.333 240.957 169.749 244.594 167.649C254.292 162.05 261.868 152.793 264.968 141.226C271.168 118.09 257.262 93.9704 234.126 87.7715C218.135 83.4871 201.677 88.8336 190.981 100.176L59.3806 64.9257C55.6371 63.9227 52.7668 61.0558 51.7638 57.3127L7.46823 -108.001L-35.5255 -268.455C-36.5903 -272.429 -35.4214 -276.346 -33.2762 -278.342L70.1528 -374.526C78.4346 -382.238 78.8943 -395.199 71.1882 -403.485C63.4833 -411.778 50.5202 -412.26 42.226 -404.556L-61.1958 -308.344C-75.4021 -295.13 -79.8412 -275.44 -75.1264 -257.844L-32.1327 -97.3895L12.1628 67.9237C13.0987 71.3839 14.9263 74.5358 17.462 77.069C24.0469 89.9939 34.4642 100.679 48.7734 104.512L180.356 139.783C183.94 154.954 195.519 167.809 211.518 172.096C218.748 174.033 226.074 174.003 232.917 172.338ZM826.457 2.79422C830.022 1.75559 833.166 0.401871 836.082 -0.719174C843.858 -3.70872 849.862 -7.11708 849.862 -7.11708C851.474 -8.02694 852.953 -9.15733 854.262 -10.4662C888.226 -44.4284 922.198 -78.3976 956.161 -112.36C969.213 -125.41 974.322 -144.517 969.545 -162.344L932.256 -301.508C927.479 -319.335 913.501 -333.328 895.673 -338.104L737.926 -380.373C734.344 -395.548 722.756 -408.405 706.755 -412.692C683.619 -418.891 659.505 -404.957 653.305 -381.821C647.105 -358.686 661.039 -334.573 684.176 -328.375C695.744 -325.275 707.554 -327.192 717.252 -332.791C720.963 -334.932 724.352 -337.626 727.308 -340.768L885.064 -298.525C888.808 -297.521 891.659 -294.643 892.662 -290.899L929.951 -151.734C930.953 -147.992 929.922 -144.079 927.182 -141.339C894.026 -108.185 860.861 -75.0352 827.706 -41.8809C826.486 -41.2359 824.888 -40.3152 821.366 -38.9606C816.743 -37.1832 811.041 -37.7107 814.885 -36.683L657.144 -78.9232C653.571 -94.1002 641.996 -106.96 625.995 -111.248C602.858 -117.446 578.709 -103.533 572.509 -80.3974C566.309 -57.2619 580.251 -33.1218 603.387 -26.923C614.956 -23.8234 626.765 -25.7702 636.463 -31.3696C640.176 -33.5111 643.569 -36.2025 646.528 -39.3415L804.276 2.92688C811.591 4.8867 817.595 4.72871 822.745 3.70537C824.031 3.44409 825.268 3.13683 826.457 2.79422ZM228.581 146.589C225.396 147.682 221.841 147.859 218.272 146.902C208.755 144.352 203.32 134.912 205.87 125.395C208.42 115.878 217.833 110.421 227.35 112.97C236.867 115.52 242.325 124.962 239.775 134.479C238.5 139.237 235.5 142.973 231.632 145.207C230.664 145.765 229.643 146.225 228.581 146.589ZM620.45 -52.4287C617.262 -51.3467 613.704 -51.1871 610.134 -52.1438C600.617 -54.6935 595.187 -64.1133 597.738 -73.6301C600.288 -83.1471 609.731 -88.6054 619.248 -86.0551C628.765 -83.5056 634.195 -74.056 631.645 -64.5391C630.37 -59.7809 627.37 -56.0448 623.501 -53.8112C622.534 -53.2528 621.513 -52.7898 620.45 -52.4287ZM802.606 -175.179C799.421 -174.086 795.867 -173.91 792.298 -174.866C782.781 -177.416 777.345 -186.856 779.896 -196.373C782.446 -205.89 791.887 -211.355 801.404 -208.806C810.921 -206.255 816.358 -196.808 813.808 -187.291C812.533 -182.532 809.526 -178.795 805.657 -176.561C804.69 -176.003 803.668 -175.543 802.606 -175.179ZM354.868 -107.356C351.683 -106.265 348.129 -106.086 344.56 -107.043C335.043 -109.593 329.577 -119.032 332.128 -128.55C334.678 -138.066 344.12 -143.525 353.638 -140.975C363.155 -138.425 368.62 -128.985 366.07 -119.468C364.795 -114.709 361.788 -110.972 357.92 -108.738C356.952 -108.18 355.93 -107.721 354.868 -107.356ZM471.038 -261.257C475.143 -262.261 479.081 -263.833 482.718 -265.931C492.416 -271.53 500 -280.789 503.1 -292.356C509.299 -315.492 495.358 -339.632 472.221 -345.831C456.222 -350.118 439.759 -344.771 429.071 -333.419L271.332 -375.683C267.589 -376.686 264.745 -379.537 263.743 -383.28C251.312 -429.672 238.884 -476.053 226.453 -522.445C225.451 -526.187 226.48 -530.107 229.22 -532.847L331.119 -634.74C333.859 -637.48 337.768 -638.528 341.512 -637.525L506.851 -593.221C517.78 -590.306 529.006 -596.795 531.936 -607.72C534.874 -618.653 528.394 -629.894 517.46 -632.831L352.119 -677.112C334.291 -681.888 315.184 -676.768 302.133 -663.718L200.236 -561.818C187.184 -548.767 182.075 -529.66 186.852 -511.834C199.283 -465.442 211.711 -419.061 224.141 -372.669C228.918 -354.842 242.896 -340.85 260.724 -336.073L418.473 -293.827C422.056 -278.655 433.643 -265.802 449.641 -261.515C456.871 -259.579 464.192 -259.6 471.038 -261.257ZM466.703 -286.998C463.515 -285.916 459.958 -285.75 456.389 -286.706C446.872 -289.256 441.413 -298.698 443.964 -308.215C446.514 -317.732 455.957 -323.16 465.474 -320.61C474.992 -318.06 480.455 -308.628 477.905 -299.11C476.63 -294.352 473.622 -290.614 469.754 -288.38C468.787 -287.822 467.766 -287.358 466.703 -286.998ZM701.237 -353.858C698.049 -352.776 694.492 -352.609 690.923 -353.566C681.406 -356.116 675.948 -365.558 678.498 -375.075C681.048 -384.592 690.484 -390.048 700.001 -387.498C709.519 -384.948 714.984 -375.508 712.433 -365.991C711.158 -361.233 708.157 -357.474 704.288 -355.241C703.321 -354.683 702.3 -354.219 701.237 -353.858ZM307.594 -283.785C304.406 -282.703 300.849 -282.537 297.28 -283.493C287.763 -286.043 282.298 -295.483 284.848 -305C287.398 -314.517 296.848 -319.947 306.366 -317.397C315.883 -314.847 321.346 -305.414 318.796 -295.898C317.521 -291.138 314.514 -287.401 310.645 -285.167C309.678 -284.609 308.658 -284.144 307.594 -283.785ZM359.64 -491.175C356.451 -490.093 352.893 -489.933 349.323 -490.89C339.806 -493.44 334.35 -502.875 336.9 -512.392C339.451 -521.909 348.899 -527.345 358.416 -524.796C367.934 -522.246 373.356 -512.825 370.806 -503.308C369.531 -498.549 366.559 -494.791 362.691 -492.558C361.723 -491.999 360.703 -491.536 359.64 -491.175Z" stroke="#00A1FF" stroke-width="2" mask="url(#path-1-inside-1_1577_517)"/>
</g>
<defs>
<clipPath id="clip0_1577_517">
<rect width="294.509" height="640.282" fill="white" transform="translate(318.191 161.464) rotate(165)"/>
</clipPath>
</defs>
</svg>
