<svg width="252" height="273" viewBox="0 0 252 273" fill="none" xmlns="http://www.w3.org/2000/svg">
<path fill-rule="evenodd" clip-rule="evenodd" d="M228.089 8.44677C226.001 7.24497 223.603 6.59634 221.14 6.59397L177.365 6.54627C176.816 5.52833 176.124 4.59788 175.311 3.78607C173.186 1.66372 170.259 0.344073 167.049 0.340916C160.629 0.33461 155.354 5.60288 155.36 12.0163C155.366 18.4295 160.656 23.7118 167.076 23.718C171.516 23.7223 175.401 21.2019 177.376 17.527L221.152 17.5687C222.212 17.5697 223.152 18.1242 223.621 18.9621L242.009 51.5879C242.558 52.5624 242.546 53.6418 242.038 54.5217L217.93 96.2778L198.652 129.668C196.178 133.952 196.212 139.238 198.656 143.504L222.662 185.422C220.463 188.972 220.222 193.604 222.448 197.451C225.664 203.009 232.879 204.944 238.437 201.743C243.994 198.541 245.916 191.34 242.7 185.783C241.093 183.004 238.487 181.127 235.587 180.349C234.481 180.051 233.331 179.918 232.178 179.95L208.193 138.067C207.661 137.138 207.658 136.056 208.173 135.165L227.351 101.946C227.386 101.89 227.419 101.832 227.451 101.774C227.969 100.876 228.913 100.335 229.952 100.336L268.576 100.379C269.615 100.38 270.548 100.919 271.068 101.818L294.051 141.526C295.572 144.154 298.936 145.056 301.563 143.541C304.185 142.027 305.079 138.675 303.561 136.051L280.589 96.3385C278.111 92.0564 273.508 89.3987 268.561 89.3939L234.615 89.3662L251.559 60.0179C254.039 55.7224 253.969 50.4545 251.579 46.2144L233.19 13.5876C231.955 11.3981 230.178 9.64731 228.089 8.44677ZM169.708 8.11775C169.96 8.28134 170.191 8.47578 170.402 8.68739C171.25 9.53418 171.766 10.7163 171.768 12.0354C171.77 14.6735 169.71 16.7365 167.069 16.734C164.428 16.7313 162.36 14.6633 162.357 12.0252C162.354 9.38698 164.416 7.32231 167.057 7.32489C168.047 7.32592 168.957 7.61584 169.708 8.11775ZM135.325 7.10469C134.524 6.67083 133.629 6.44332 132.719 6.44124L78.9909 6.39217C75.9601 6.39338 73.5071 8.84611 73.5088 11.8735C73.5123 14.902 75.9704 17.358 79.0024 17.3643L129.535 17.4149L174.102 95.4196C174.636 96.3551 174.635 97.4321 174.122 98.3215L154.84 131.719C154.321 132.617 153.388 133.156 152.349 133.155L148.968 133.149C148.944 133.149 148.921 133.133 148.895 133.132L113.696 133.103C112.67 133.091 111.737 132.564 111.222 131.674L109.406 128.534L90.0603 95.0989L89.302 93.7884C91.4951 90.2376 91.7325 85.6084 89.5092 81.7661C87.9013 78.9875 85.2938 77.1187 82.3936 76.3399C79.4934 75.561 76.3023 75.8735 73.5237 77.4742C67.9664 80.6754 66.0363 87.8746 69.252 93.4319C71.475 97.2736 75.6111 99.3851 79.7879 99.2675L80.5448 100.573L80.5482 100.585L99.8975 134.014C100.418 134.913 100.421 136 99.9028 136.898L77.0026 176.562C76.4818 177.464 75.5394 178.006 74.5186 178.003L36.6899 177.866C35.6332 177.862 34.6984 177.321 34.1795 176.427C11.7357 137.641 34.178 176.426 10.6495 135.765C9.13041 133.142 5.77417 132.239 3.14886 133.747C0.521007 135.258 -0.379037 138.614 1.1392 141.242C24.6676 181.902 2.2263 143.116 24.6701 181.902C27.1503 186.188 31.745 188.824 36.6735 188.843L74.1553 188.975C74.4348 190.533 74.5643 192.132 75.3803 193.542L93.6634 225.147C91.4721 228.697 91.2364 233.328 93.459 237.169C96.6747 242.726 103.888 244.66 109.445 241.459C115.003 238.258 116.932 231.06 113.716 225.503C112.108 222.724 109.496 220.844 106.596 220.065C105.485 219.767 104.332 219.631 103.175 219.664L84.8897 188.061C84.3695 187.162 84.3661 186.075 84.8846 185.177L107.785 145.513C108.303 144.615 109.248 144.072 110.286 144.073L113.676 144.076C113.695 144.073 113.714 144.094 113.735 144.092L148.936 144.131C149.958 144.146 150.889 144.668 151.402 145.555C166.725 173.17 182.564 200.44 198.221 227.759C196.027 231.308 195.789 235.935 198.013 239.778C201.229 245.336 208.44 247.278 213.997 244.077C219.554 240.875 221.481 233.667 218.265 228.11C216.657 225.331 214.048 223.461 211.148 222.682C210.039 222.385 208.887 222.251 207.733 222.283C192.101 195.006 176.339 167.851 161.128 140.443C162.289 139.445 163.574 138.581 164.361 137.218L183.644 103.818C186.119 99.5324 186.083 94.2489 183.647 89.9867L137.492 9.21269C136.981 8.32186 136.229 7.59214 135.325 7.10469ZM255.333 125.59C254.363 125.002 253.317 124.556 252.229 124.264C249.329 123.485 246.139 123.801 243.36 125.401C237.803 128.602 235.874 135.8 239.09 141.357C241.312 145.198 245.447 147.306 249.624 147.188L267.917 178.795C268.437 179.695 268.439 180.781 267.92 181.679L245.02 221.343L222.793 259.842C222.242 260.795 221.279 261.315 220.494 261.286L182.657 259.878C179.626 259.767 177.084 262.132 176.977 265.159C176.869 268.188 179.237 270.736 182.269 270.851L220.11 272.252C225.307 272.445 229.878 269.561 232.315 265.34L254.543 226.841L277.443 187.177C277.92 186.345 278.171 185.402 278.169 184.443C279.367 180.75 279.414 176.755 277.425 173.318L259.14 141.709C261.333 138.16 261.57 133.534 259.347 129.691C258.342 127.955 256.946 126.572 255.333 125.59ZM110.619 45.1754C109.746 44.6963 108.893 44.3566 108.128 44.0161C106.086 43.1079 104.302 42.6147 104.302 42.6147C103.824 42.4814 103.329 42.4148 102.833 42.4142C89.958 42.4017 77.0803 42.3889 64.2055 42.3764C59.2582 42.3714 54.6707 45.0174 52.2012 49.2947L32.9233 82.685C30.4538 86.9623 30.4561 92.2581 32.934 96.5401L54.8582 134.431C52.6643 137.98 52.4281 142.608 54.652 146.451C57.8677 152.009 65.0813 153.943 70.6385 150.742C76.1957 147.541 78.1182 140.339 74.9024 134.782C73.2945 132.003 70.6909 130.128 67.7908 129.349C66.6813 129.05 65.5281 128.918 64.3723 128.952L42.4416 91.0641C41.9213 90.1649 41.9256 89.0801 42.4442 88.1819L61.7221 54.7916C62.2406 53.8936 63.1772 53.3489 64.2159 53.3499C76.7845 53.3622 89.3539 53.3771 101.923 53.3894C102.276 53.4985 102.754 53.6272 103.678 54.0384C104.892 54.5783 105.874 55.7587 105.339 54.8359L127.268 92.7199C125.071 96.2678 124.832 100.894 127.056 104.737C130.272 110.295 137.488 112.24 143.046 109.038C148.603 105.837 150.529 98.6289 147.313 93.0716C145.705 90.2929 143.096 88.4231 140.196 87.6443C139.086 87.3459 137.933 87.2118 136.777 87.2448L114.853 49.354C113.836 47.5971 112.667 46.4891 111.496 45.7067C111.202 45.5123 110.91 45.3361 110.619 45.1754ZM251.28 131.283C252.091 131.679 252.799 132.32 253.295 133.177C254.617 135.463 253.861 138.279 251.575 139.596C249.289 140.912 246.47 140.161 245.147 137.875C243.824 135.589 244.576 132.769 246.862 131.452C248.005 130.793 249.282 130.655 250.439 130.966C250.728 131.044 251.009 131.15 251.28 131.283ZM139.246 94.6624C140.056 95.062 140.761 95.7062 141.257 96.5636C142.58 98.8495 141.827 101.66 139.541 102.977C137.255 104.294 134.43 103.537 133.107 101.251C131.784 98.9649 132.543 96.1484 134.829 94.8316C135.972 94.1732 137.249 94.035 138.406 94.3457C138.695 94.4234 138.976 94.5293 139.246 94.6624ZM81.4428 83.3598C82.2541 83.7567 82.9618 84.3969 83.4578 85.2542C84.7806 87.5402 84.0242 90.356 81.7381 91.6728C79.4522 92.9896 76.6262 92.2342 75.3033 89.9482C73.9807 87.6622 74.738 84.8448 77.024 83.5279C78.167 82.8695 79.4453 82.7323 80.6022 83.0431C80.8914 83.1208 81.1723 83.2275 81.4428 83.3598ZM234.635 187.371C235.446 187.768 236.154 188.408 236.65 189.265C237.973 191.551 237.222 194.372 234.936 195.689C232.65 197.006 229.825 196.249 228.502 193.963C227.18 191.677 227.93 188.856 230.216 187.539C231.359 186.88 232.637 186.743 233.794 187.054C234.084 187.132 234.364 187.238 234.635 187.371ZM128.049 162.479C127.08 161.891 126.036 161.442 124.948 161.149C122.048 160.371 118.856 160.685 116.077 162.285C110.52 165.487 108.594 172.695 111.809 178.252C114.033 182.095 118.169 184.204 122.346 184.082L144.27 221.97C144.79 222.869 144.79 223.947 144.271 224.845C137.845 235.977 131.42 247.105 124.993 258.236C124.475 259.134 123.537 259.68 122.499 259.679L83.8715 259.641C82.8327 259.64 81.8927 259.098 81.3725 258.198L58.393 218.484C56.8716 215.861 53.5131 214.961 50.8885 216.473C48.2607 217.984 47.3616 221.338 48.8797 223.966L71.8636 263.676C74.3416 267.958 78.9362 270.611 83.8835 270.616L122.512 270.652C127.459 270.657 132.047 268.011 134.516 263.734C140.943 252.603 147.367 241.474 153.794 230.343C156.263 226.066 156.261 220.77 153.783 216.488L131.854 178.602C134.048 175.053 134.283 170.426 132.06 166.583C131.055 164.846 129.662 163.463 128.049 162.479ZM123.997 168.169C124.807 168.569 125.513 169.212 126.009 170.069C127.332 172.355 126.58 175.175 124.294 176.492C122.008 177.809 119.188 177.046 117.865 174.76C116.543 172.474 117.292 169.654 119.578 168.338C120.721 167.679 122 167.542 123.157 167.853C123.446 167.93 123.727 168.036 123.997 168.169ZM66.8399 136.368C67.6496 136.768 68.356 137.411 68.852 138.268C70.1748 140.554 69.4223 143.374 67.1364 144.691C64.8503 146.008 62.027 145.252 60.7041 142.966C59.3814 140.68 60.1322 137.859 62.4181 136.542C63.5611 135.883 64.8424 135.741 65.9991 136.052C66.2884 136.13 66.5699 136.235 66.8399 136.368ZM210.195 229.702C211.005 230.101 211.711 230.744 212.207 231.601C213.53 233.887 212.779 236.709 210.493 238.026C208.207 239.342 205.386 238.579 204.063 236.293C202.741 234.007 203.49 231.187 205.776 229.87C206.919 229.212 208.197 229.075 209.354 229.385C209.644 229.463 209.925 229.568 210.195 229.702ZM105.646 227.08C106.456 227.48 107.161 228.124 107.657 228.982C108.98 231.267 108.229 234.086 105.943 235.403C103.657 236.72 100.835 235.958 99.5119 233.672C98.189 231.386 98.9443 228.576 101.23 227.259C102.373 226.601 103.649 226.453 104.806 226.764C105.095 226.841 105.376 226.947 105.646 227.08Z" fill="url(#paint0_linear_1853_742)"/>
<defs>
<linearGradient id="paint0_linear_1853_742" x1="77.5" y1="277.5" x2="233.462" y2="36.6518" gradientUnits="userSpaceOnUse">
<stop stop-color="#00A1FF"/>
<stop offset="1" stop-color="#F7FDFD" stop-opacity="0"/>
</linearGradient>
</defs>
</svg>
