
<svg id="Layer_1" width="37" height="37" enable-background="new 0 0 512 512" viewBox="0 0 512 512" xmlns="http://www.w3.org/2000/svg">
<path fill="#00A1FF" d="m472.23 237.36c-11.59 0-21.34 8-24.03 18.77h-74.28v-50.35h94.31c3.31 0 6-2.69 6-6v-58.14c10.77-2.69 18.77-12.44 18.77-24.03 0-13.66-11.11-24.77-24.77-24.77s-24.77 11.11-24.77 24.77c0 11.59 8 21.34 18.77 24.03v52.14h-88.31v-10.17c0-17.53-13.21-32.02-30.2-34.06v-45.45h28.63c2.69 10.77 12.44 18.77 24.03 18.77 13.66 0 24.77-11.11 24.77-24.77s-11.11-24.77-24.77-24.77c-11.59 0-21.34 8-24.03 18.77h-34.63c-3.31 0-6 2.69-6 6v51.19h-60.94v-84.04c10.77-2.69 18.77-12.44 18.77-24.03 0-13.66-11.11-24.77-24.77-24.77s-24.77 11.11-24.77 24.77c0 11.59 8 21.34 18.77 24.03v84.04h-49.72v-105.83c0-3.31-2.69-6-6-6h-60.97c-2.69-10.77-12.44-18.77-24.03-18.77-13.66 0-24.77 11.11-24.77 24.77s11.11 24.77 24.77 24.77c11.59 0 21.34-8 24.03-18.77h54.97v99.83h-17.26c-13.8 0-25.72 8.19-31.16 19.97h-48.8v-30.1c10.77-2.69 18.77-12.44 18.77-24.03 0-13.66-11.11-24.77-24.77-24.77s-24.77 11.11-24.77 24.77c0 11.59 8 21.34 18.77 24.03v36.1c0 3.31 2.69 6 6 6h51.74c-.05.78-.09 1.56-.09 2.35v60.55h-81.69c-2.69-10.77-12.44-18.77-24.03-18.77-13.66 0-24.77 11.11-24.77 24.77s11.11 24.77 24.77 24.77c11.59 0 21.34-8 24.03-18.77h81.69v48.96h-104.97c-3.31 0-6 2.69-6 6v58.14c-10.77 2.69-18.77 12.44-18.77 24.03 0 13.66 11.11 24.77 24.77 24.77s24.77-11.11 24.77-24.77c0-11.59-8-21.34-18.77-24.03v-52.14h98.97v26.29c0 16.2 11.29 29.81 26.42 33.39v32.18h-28.63c-2.69-10.77-12.44-18.77-24.03-18.77-13.66 0-24.77 11.11-24.77 24.77s11.11 24.77 24.77 24.77c11.59 0 21.34-8 24.03-18.77h34.63c3.31 0 6-2.69 6-6v-37.25h62.44v68.26c-10.77 2.69-18.77 12.44-18.77 24.03 0 13.66 11.11 24.77 24.77 24.77s24.77-11.11 24.77-24.77c0-11.59-8-21.34-18.77-24.03v-68.26h48.4v93.05c0 3.31 2.69 6 6 6h60.97c2.69 10.77 12.44 18.77 24.03 18.77 13.66 0 24.77-11.11 24.77-24.77s-11.11-24.77-24.77-24.77c-11.59 0-21.34 8-24.03 18.77h-54.97v-87.05h20.87c18.93 0 34.32-15.4 34.32-34.32v-1.94h35.4v30.1c-10.77 2.69-18.77 12.44-18.77 24.03 0 13.66 11.11 24.77 24.77 24.77s24.77-11.11 24.77-24.77c0-11.59-8-21.34-18.77-24.03v-36.1c0-3.31-2.69-6-6-6h-41.4v-61.34h74.28c2.69 10.77 12.44 18.77 24.03 18.77 13.66 0 24.77-11.11 24.77-24.77s-11.13-24.77-24.79-24.77zm-16.77-119.75c0-7.04 5.73-12.77 12.77-12.77s12.77 5.73 12.77 12.77-5.73 12.77-12.77 12.77-12.77-5.73-12.77-12.77zm-59.07-32.28c7.04 0 12.77 5.73 12.77 12.77s-5.73 12.77-12.77 12.77-12.77-5.73-12.77-12.77 5.73-12.77 12.77-12.77zm-144.37-44.11c0-7.04 5.73-12.77 12.77-12.77s12.77 5.73 12.77 12.77-5.73 12.77-12.77 12.77-12.77-5.73-12.77-12.77zm-133.94 15c-7.04 0-12.77-5.73-12.77-12.77s5.73-12.77 12.77-12.77 12.77 5.73 12.77 12.77-5.73 12.77-12.77 12.77zm-37.01 58.91c0-7.04 5.73-12.77 12.77-12.77s12.77 5.73 12.77 12.77-5.73 12.77-12.77 12.77-12.77-5.73-12.77-12.77zm-41.3 147.8c-7.04 0-12.77-5.73-12.77-12.77s5.73-12.77 12.77-12.77 12.77 5.73 12.77 12.77-5.73 12.77-12.77 12.77zm13.52 130.36c0 7.04-5.73 12.77-12.77 12.77s-12.77-5.73-12.77-12.77 5.73-12.77 12.77-12.77 12.77 5.73 12.77 12.77zm65.95 34.46c-7.04 0-12.77-5.73-12.77-12.77s5.73-12.77 12.77-12.77 12.77 5.73 12.77 12.77-5.73 12.77-12.77 12.77zm145.87 42.27c0 7.04-5.73 12.77-12.77 12.77s-12.77-5.73-12.77-12.77 5.73-12.77 12.77-12.77 12.77 5.73 12.77 12.77zm132.63-12.01c7.04 0 12.77 5.73 12.77 12.77s-5.73 12.77-12.77 12.77-12.77-5.73-12.77-12.77 5.72-12.77 12.77-12.77zm-35.82-114.6c0 12.31-10.01 22.32-22.32 22.32h-159.79c-12.31 0-22.32-10.01-22.32-22.32v-159.8c0-12.31 10.01-22.32 22.32-22.32h159.79c12.31 0 22.32 10.01 22.32 22.32zm66.17 52.19c0 7.04-5.73 12.77-12.77 12.77s-12.77-5.73-12.77-12.77 5.73-12.77 12.77-12.77 12.77 5.73 12.77 12.77zm44.14-120.7c-7.04 0-12.77-5.73-12.77-12.77s5.73-12.77 12.77-12.77 12.77 5.73 12.77 12.77-5.73 12.77-12.77 12.77zm-281.66-55.83v88.88c0 3.31-2.69 6-6 6s-6-2.69-6-6v-88.88c0-3.31 2.69-6 6-6s6 2.69 6 6zm54.71 29.15c-18.12 0-32.87 14.74-32.87 32.86s14.74 32.87 32.87 32.87c18.12 0 32.86-14.74 32.86-32.87.01-18.12-14.74-32.86-32.86-32.86zm0 53.73c-11.51 0-20.87-9.36-20.87-20.87s9.36-20.86 20.87-20.86c11.5 0 20.86 9.36 20.86 20.86s-9.35 20.87-20.86 20.87zm95.56-82.88c0 3.31-2.69 6-6 6h-22.85v82.88c0 3.31-2.69 6-6 6s-6-2.69-6-6v-82.88h-22.85c-3.31 0-6-2.69-6-6s2.69-6 6-6h57.71c3.31 0 5.99 2.69 5.99 6z"/></svg>