<svg width="48" height="48" viewBox="0 0 48 48" fill="none" xmlns="http://www.w3.org/2000/svg">
<rect x="0.5" y="0.5" width="47" height="47" rx="23.5" stroke="#00A1FF" stroke-opacity="0.2"/>
<path d="M18.5712 20.807H14.9443V31.4282H18.5712V20.807Z" fill="#00A1FF"/>
<path d="M17.9615 15.8503C17.6158 15.641 17.2096 15.5293 16.794 15.5293C16.5168 15.5293 16.2422 15.579 15.9862 15.6757C15.7302 15.7723 15.4978 15.9139 15.3023 16.0924C15.1068 16.2708 14.9521 16.4826 14.8471 16.7155C14.7421 16.9484 14.6889 17.1978 14.6905 17.4495C14.6929 17.8266 14.8183 18.1946 15.0508 18.5071C15.2834 18.8197 15.6128 19.0627 15.9974 19.2055C16.382 19.3483 16.8045 19.3845 17.2118 19.3096C17.619 19.2347 17.9927 19.0521 18.2857 18.7846C18.5787 18.5172 18.7778 18.177 18.858 17.8069C18.9382 17.4369 18.8959 17.0536 18.7363 16.7054C18.5767 16.3571 18.3071 16.0596 17.9615 15.8503Z" fill="#00A1FF"/>
<path d="M24.393 20.8065H20.8991L20.887 31.4496H24.5139V26.1939C24.5139 24.8114 24.804 23.4727 26.69 23.4727C28.576 23.4727 28.576 25.0637 28.576 26.2926V31.4277H32.2028V25.6014C32.2028 22.7376 31.4654 20.5431 27.8385 20.5431C27.1472 20.5186 26.4616 20.6648 25.8548 20.9663C25.248 21.2678 24.7427 21.7131 24.393 22.2548V20.8065Z" fill="#00A1FF"/>
</svg>
