<svg width="172" height="60" viewBox="0 0 172 60" fill="none" xmlns="http://www.w3.org/2000/svg">
<path fill-rule="evenodd" clip-rule="evenodd" d="M26.4307 0C25.9516 0.000614237 25.474 0.127646 25.0495 0.372763L17.5049 4.72751C17.3092 4.60645 17.0973 4.51487 16.8766 4.45573C16.2996 4.30111 15.6643 4.365 15.111 4.68442C14.0045 5.32325 13.6199 6.75845 14.2587 7.86496C14.8975 8.97146 16.3339 9.35613 17.4404 8.71728C18.2056 8.27552 18.624 7.45327 18.5987 6.62202L26.1429 2.2661C26.3255 2.16069 26.5426 2.16274 26.7067 2.26057L33.1183 6.06008C33.3098 6.17356 33.415 6.36115 33.415 6.56368V16.1748V23.8604C33.4149 24.8465 33.9465 25.7555 34.7915 26.2484L43.0948 31.092C43.0691 31.9242 43.4883 32.7478 44.2543 33.19C45.3608 33.8288 46.796 33.4438 47.4348 32.3373C48.0737 31.2308 47.6886 29.796 46.5821 29.1571C46.0289 28.8377 45.3935 28.7734 44.8165 28.928C44.5964 28.9869 44.3851 29.0785 44.1898 29.1991L35.8935 24.3593C35.7095 24.252 35.6015 24.0654 35.6015 23.8604V16.2143C35.6017 16.2011 35.6017 16.1879 35.6015 16.1746C35.6015 15.968 35.7102 15.7806 35.8892 15.6772L42.5461 11.835C42.7252 11.7317 42.9395 11.7317 43.1185 11.835L51.0258 16.3991C51.5489 16.7012 52.2181 16.5217 52.5199 15.9984C52.821 15.4755 52.6417 14.8079 52.1192 14.5062L44.2135 9.94015C43.3609 9.4479 42.3038 9.44789 41.4511 9.94015L35.6015 13.3187V6.56353C35.6015 5.57484 35.0656 4.67238 34.2323 4.1786L27.8204 0.379118C27.3901 0.124136 26.9098 -0.00090907 26.4307 0ZM16.3423 5.76194C16.4021 5.76501 16.4611 5.77563 16.5186 5.79105C16.7487 5.85279 16.9553 6.00536 17.0867 6.23294C17.3495 6.68811 17.1997 7.2496 16.7446 7.51238C16.2894 7.77517 15.7276 7.62428 15.4648 7.16913C15.202 6.71395 15.3517 6.15207 15.8069 5.88929C15.9775 5.79076 16.1631 5.75013 16.3423 5.76194ZM10.3194 9.01394C10.1384 9.01885 9.96158 9.06878 9.80457 9.15915L0.545611 14.5056C0.0237124 14.8079 -0.154884 15.4758 0.146455 15.9982C0.448217 16.5207 1.11584 16.6997 1.63869 16.3986L10.3474 11.3709L25.7807 20.3949C25.9657 20.5031 26.0727 20.6892 26.0727 20.8939V28.581C26.0727 28.7877 25.9655 28.9739 25.7865 29.0772L25.2036 29.4131C25.1993 29.4156 25.1939 29.4149 25.1893 29.4174L19.1237 32.9206C18.9457 33.0208 18.7328 33.0229 18.5556 32.9206L17.9304 32.5595L11.2735 28.7158L11.0125 28.5651C11.0372 27.7335 10.6177 26.9108 9.8527 26.4691C9.29943 26.1496 8.66448 26.0869 8.0875 26.2415C7.51052 26.3961 6.99196 26.7681 6.67254 27.3214C6.03369 28.4279 6.41716 29.863 7.52368 30.5019C8.28859 30.9435 9.21097 30.8958 9.91869 30.4592L10.1789 30.6091L10.1807 30.6109L16.8376 34.4532C17.0167 34.5565 17.1254 34.7439 17.1254 34.9506V44.0802C17.1254 44.2878 17.017 44.4753 16.8408 44.5764L10.3115 48.3231C10.1292 48.4278 9.91432 48.4275 9.73607 48.3249C2.01337 43.8663 9.73566 48.3248 1.6397 43.6506C1.11725 43.3493 0.449348 43.5279 0.147083 44.0498C-0.155263 44.5726 0.0234501 45.2416 0.546258 45.5439C8.64221 50.2182 0.919918 45.7592 8.64263 50.2179C9.49605 50.7106 10.5496 50.7077 11.4003 50.2197L17.8694 46.5068C18.0724 46.7479 18.2537 47.011 18.5345 47.1732L24.8265 50.8068C24.8021 51.6381 25.2219 52.4609 25.9867 52.9025C27.0932 53.5413 28.528 53.1563 29.1669 52.0498C29.8057 50.9433 29.4222 49.5085 28.3157 48.8696C27.7624 48.5502 27.1256 48.4859 26.5486 48.6405C26.3275 48.6998 26.1155 48.7913 25.9195 48.9123L19.6273 45.2792C19.4483 45.1758 19.3396 44.9885 19.3396 44.7818V35.6521C19.3396 35.4454 19.4484 35.2577 19.6273 35.1543L20.2113 34.8169C20.2144 34.8144 20.2198 34.8163 20.2233 34.8138L26.2901 31.3122C26.4677 31.2128 26.6799 31.2101 26.8566 31.3122C32.2419 34.5521 37.6818 37.681 43.0952 40.8367C43.0702 41.6681 43.4894 42.4905 44.2546 42.9324C45.3611 43.5712 46.7963 43.1877 47.4352 42.0812C48.074 40.9747 47.689 39.5383 46.5825 38.8995C46.0292 38.5801 45.3939 38.5174 44.8169 38.6719C44.5963 38.731 44.3846 38.8227 44.189 38.9434C38.784 35.7925 33.3689 32.6756 28.0234 29.4604C28.124 29.1723 28.2595 28.895 28.2595 28.5813V20.8937C28.2595 19.9072 27.7279 18.9987 26.8845 18.5056L10.9023 9.16183C10.7258 9.05896 10.5237 9.00794 10.3194 9.01394ZM42.7722 17.5072C42.5468 17.5022 42.3222 17.5296 42.1058 17.5875C41.5289 17.7421 41.0107 18.1145 40.6913 18.6678C40.0524 19.7743 40.4359 21.2091 41.5424 21.8479C42.3072 22.2894 43.229 22.2412 43.9366 21.8044L50.2305 25.4377C50.4096 25.5411 50.5179 25.7284 50.5179 25.9351V35.0648V43.9261C50.5179 44.1455 50.4036 44.3313 50.2655 44.4045L43.6085 47.9325C43.0754 48.2155 42.8727 48.877 43.1554 49.4104C43.4379 49.9441 44.0991 50.1479 44.6328 49.8655L51.2898 46.3358C52.2042 45.8511 52.7048 44.8978 52.7048 43.9261V35.0648V25.9351C52.7043 25.7439 52.6537 25.5563 52.558 25.3907C52.3972 24.6339 52.0079 23.9395 51.3236 23.5444L45.0309 19.9103C45.0557 19.0791 44.6365 18.2568 43.8714 17.8151C43.5256 17.6154 43.1477 17.5158 42.7722 17.5072ZM9.84998 18.0484C9.65197 18.0527 9.47131 18.0791 9.3056 18.0966C8.86368 18.1433 8.50726 18.236 8.50726 18.236C8.41166 18.2606 8.31982 18.2984 8.23429 18.3478C6.01547 19.6289 3.79615 20.9101 1.57734 22.1912C0.724727 22.6834 0.197703 23.5974 0.197703 24.5819V32.2675C0.197703 33.252 0.724727 34.166 1.57734 34.6582L9.12154 39.0142C9.0966 39.8455 9.51613 40.668 10.2814 41.1098C11.3879 41.7486 12.8227 41.3636 13.4615 40.2571C14.1004 39.1506 13.7154 37.7158 12.6088 37.0769C12.0556 36.7575 11.4206 36.6932 10.8437 36.8478C10.6229 36.9069 10.4111 36.999 10.2154 37.12L2.67038 32.7653C2.49135 32.6619 2.38422 32.4742 2.38422 32.2675V24.5819C2.38422 24.3752 2.49137 24.1879 2.67038 24.0845C4.83642 22.8339 7.00286 21.5837 9.1689 20.3332C9.24064 20.3168 9.33569 20.2914 9.53585 20.2702C9.79857 20.2425 10.0851 20.3484 9.90124 20.2424L17.4455 24.5967C17.42 25.4281 17.8389 26.2505 18.6041 26.6923C19.7107 27.3312 21.147 26.9477 21.7858 25.8412C22.4247 24.7347 22.0397 23.2983 20.9332 22.6595C20.3799 22.3401 19.7446 22.2773 19.1676 22.432C18.9467 22.491 18.7347 22.5829 18.5389 22.7038L10.9947 18.3478C10.6449 18.1459 10.3333 18.0711 10.0539 18.0527C9.98396 18.0484 9.91601 18.0472 9.84998 18.0484ZM42.6401 18.8938C42.8193 18.8814 43.0049 18.9214 43.1756 19.02C43.6307 19.2828 43.7805 19.8442 43.5177 20.2994C43.2549 20.7546 42.6946 20.9058 42.2394 20.643C41.7842 20.3802 41.6334 19.8184 41.8961 19.3632C42.0275 19.1356 42.2337 18.9845 42.4638 18.9229C42.5214 18.9075 42.5804 18.8979 42.6401 18.8938ZM19.7019 23.7381C19.8811 23.7264 20.0666 23.7673 20.2373 23.8659C20.6925 24.1287 20.8422 24.689 20.5794 25.1442C20.3166 25.5993 19.7548 25.7502 19.2996 25.4874C18.8444 25.2246 18.6951 24.6628 18.9579 24.2076C19.0893 23.98 19.2954 23.8289 19.5256 23.7673C19.5831 23.7518 19.6421 23.7421 19.7019 23.7381ZM8.62182 27.5481C8.80102 27.5358 8.98658 27.5758 9.15726 27.6743C9.61242 27.9371 9.76216 28.4986 9.49935 28.9538C9.23657 29.4089 8.6747 29.5602 8.21952 29.2974C7.76439 29.0346 7.61466 28.4727 7.87744 28.0176C8.00885 27.79 8.21536 27.6389 8.44553 27.5772C8.50309 27.5618 8.56207 27.5522 8.62182 27.5481ZM45.3508 30.2351C45.53 30.2229 45.7156 30.2628 45.8863 30.3613C46.3414 30.6241 46.4927 31.186 46.2299 31.6412C45.9671 32.0963 45.4053 32.2472 44.9501 31.9844C44.4949 31.7216 44.3437 31.1597 44.6064 30.7046C44.7379 30.477 44.9444 30.3259 45.1745 30.2642C45.2321 30.2488 45.2911 30.2393 45.3508 30.2351ZM24.5171 36.5613C24.2918 36.5563 24.0672 36.5829 23.8508 36.6408C23.2738 36.7954 22.7553 37.1678 22.4359 37.7211C21.797 38.8276 22.182 40.2639 23.2886 40.9028C24.0537 41.3446 24.9758 41.2964 25.6832 40.859L33.227 45.2145C33.4061 45.3179 33.5132 45.5041 33.5132 45.7108C33.5132 48.2728 33.5132 50.8343 33.5132 53.3963C33.5132 53.603 33.406 53.7908 33.227 53.8941L26.5701 57.7375C26.3911 57.8408 26.1752 57.8409 25.9962 57.7375L18.0889 53.1719C17.566 52.8708 16.898 53.0501 16.5963 53.5726C16.2939 54.0954 16.4726 54.7641 16.9954 55.0664L24.9031 59.6308C25.7557 60.1231 26.8109 60.1231 27.6635 59.6308L34.3205 55.7871C35.1731 55.2948 35.7001 54.3808 35.7001 53.3963C35.7001 50.8343 35.7001 48.2728 35.7001 45.7108C35.7001 44.7263 35.1731 43.8123 34.3205 43.32L26.7759 38.9653C26.8007 38.134 26.3811 37.3118 25.616 36.87C25.2702 36.6704 24.8927 36.5704 24.5171 36.5613ZM24.3851 37.9475C24.5643 37.9358 24.7499 37.9763 24.9206 38.0748C25.3757 38.3376 25.5266 38.8995 25.2638 39.3547C25.001 39.8098 24.4396 39.9591 23.9844 39.6964C23.5292 39.4336 23.3779 38.8721 23.6407 38.4169C23.7721 38.1894 23.9787 38.0383 24.2088 37.9766C24.2664 37.9612 24.3254 37.9514 24.3851 37.9475ZM11.3779 38.1544C11.5571 38.1427 11.7427 38.1832 11.9134 38.2818C12.3686 38.5446 12.5194 39.1065 12.2567 39.5616C11.9939 40.0168 11.4324 40.1677 10.9772 39.9049C10.522 39.6421 10.3708 39.0802 10.6336 38.6251C10.765 38.3975 10.9715 38.2452 11.2016 38.1836C11.2592 38.1682 11.3182 38.1584 11.3779 38.1544ZM45.3508 39.9787C45.53 39.9669 45.7156 40.0075 45.8863 40.106C46.3414 40.3688 46.4927 40.9307 46.2299 41.3859C45.9671 41.841 45.4053 41.9903 44.9501 41.7276C44.4949 41.4648 44.3437 40.9033 44.6064 40.4481C44.7379 40.2205 44.9444 40.0695 45.1745 40.0078C45.2321 39.9924 45.2911 39.9825 45.3508 39.9787ZM27.0826 49.9463C27.2618 49.9345 27.4474 49.9754 27.6181 50.074C28.0732 50.3368 28.2241 50.8983 27.9613 51.3534C27.6985 51.8086 27.1367 51.9583 26.6815 51.6955C26.2263 51.4327 26.077 50.8724 26.3398 50.4172C26.4712 50.1897 26.6762 50.037 26.9063 49.9754C26.9639 49.96 27.0229 49.9502 27.0826 49.9463Z" fill="url(#paint0_linear_1577_1640)"/>
<path d="M165.452 31.5459C164.185 31.5459 162.706 31.7956 161.533 32.4658C160.361 33.1356 159.498 34.2517 159.531 35.9083V35.9101C159.531 35.9107 159.531 35.9108 159.531 35.912C159.532 37.361 160.292 38.2692 161.38 38.8437C162.468 39.4185 163.882 39.6928 165.269 39.9636H165.271C166.516 40.2018 167.757 40.4478 168.663 40.9009C169.57 41.354 170.134 41.9776 170.124 43.0565V43.0583C170.124 44.3431 169.437 45.0771 168.498 45.5259C167.558 45.9747 166.369 46.1053 165.452 46.1053C163.64 46.1053 161.308 45.2052 160.416 43.4422L160.344 43.3001L159.02 43.9625L159.092 44.1047C160.298 46.4941 163.047 47.4848 165.452 47.4848C166.737 47.4848 168.252 47.2805 169.469 46.6272C170.687 45.9739 171.601 44.8461 171.612 43.0815V43.0796C171.612 41.3949 170.804 40.3746 169.646 39.7466C168.488 39.1187 166.987 38.8503 165.526 38.5688H165.524C164.247 38.3308 163.098 38.0964 162.289 37.6973C161.48 37.2982 161.017 36.7723 161.017 35.8653C161.017 34.7135 161.668 34.0085 162.561 33.5597C163.453 33.1111 164.581 32.9478 165.45 32.9476C166.299 32.9583 167.153 33.0298 167.921 33.3097C168.69 33.5895 169.375 34.0725 169.91 34.9313L169.992 35.0623L171.223 34.3346L171.13 34.1953C169.605 31.9189 167.635 31.5459 165.452 31.5459ZM149.18 31.5459C146.837 31.5459 144.832 32.3348 143.419 33.7341C142.006 35.1332 141.19 37.1402 141.201 39.5479C141.201 41.651 141.878 43.6246 143.219 45.0741C144.56 46.5236 146.565 47.4404 149.18 47.4404C151.473 47.4404 153.406 46.5516 155.012 44.9459L155.059 44.9005V38.9996H148.35V40.3352H153.636V44.3368C152.374 45.4703 150.749 46.0188 149.18 46.0188C147.007 46.0188 145.383 45.2677 144.292 44.0852C143.202 42.9026 142.644 41.2797 142.644 39.5261C142.634 37.8058 143.187 36.1551 144.278 34.9372C145.37 33.7193 146.998 32.9254 149.18 32.9254C150.851 32.9254 152.655 33.5626 153.943 34.8293L154.061 34.9446L154.946 33.9747L154.838 33.8673C153.27 32.3206 151.213 31.5459 149.18 31.5459ZM125.032 31.7633V31.9224V47.2466H126.519V35.0086L136.511 47.2466H137.199V31.7633H135.734V44.021L125.764 31.7633H125.032ZM117.519 31.7633V47.2466H118.984V47.0871V31.7633H117.519ZM100.061 31.7633V47.2466H101.55V41.5047V40.0822V36.8489V33.1642H106.893C108.111 33.1642 108.993 33.6049 109.578 34.2544C110.163 34.904 110.449 35.7693 110.439 36.6208V36.6232C110.428 37.656 110.141 38.5141 109.55 39.1177C108.959 39.7213 108.055 40.0826 106.764 40.0826H104.264L105.458 41.5051L110.278 47.247H111.263H112.248L107.27 41.3848C108.79 41.3136 109.992 40.8215 110.782 39.9996C111.632 39.116 112.046 37.9148 112.035 36.6447C112.024 35.4271 111.589 34.2068 110.728 33.2894C109.867 32.3721 108.578 31.7637 106.893 31.7637L100.061 31.7633ZM83.3034 31.7633V47.2466H84.7903V42.0031H89.4602H90.1136C91.7999 42.0031 93.0832 41.3622 93.9354 40.3992C94.7877 39.4362 95.2116 38.1586 95.2116 36.8832C95.2116 35.6078 94.7877 34.3301 93.9354 33.3671C93.0832 32.4041 91.7999 31.7633 90.1136 31.7633H83.3034ZM84.7903 33.1642H88.606H90.1136C91.3348 33.1642 92.2304 33.6285 92.8328 34.3247C93.4353 35.0209 93.7404 35.956 93.7404 36.8939C93.7404 37.8318 93.4353 38.7674 92.8328 39.4636C92.2304 40.1598 91.3348 40.6241 90.1136 40.6241H84.7903V33.1642ZM72.4321 31.5459C71.1652 31.5459 69.6861 31.7956 68.5131 32.4658C67.3411 33.1356 66.4786 34.2517 66.5109 35.9083V35.9101C66.5109 35.9107 66.5109 35.9108 66.5109 35.912C66.5127 37.361 67.2744 38.2692 68.3619 38.8437C69.4502 39.4185 70.8644 39.6928 72.2511 39.9636C73.4965 40.2018 74.7375 40.4478 75.6436 40.9009C76.5497 41.354 77.116 41.9776 77.1057 43.0565V43.0583C77.1057 44.3431 76.4171 45.0771 75.4779 45.5259C74.5386 45.9747 73.349 46.1053 72.4321 46.1053C70.6206 46.1053 68.2884 45.2052 67.3965 43.4422L67.3246 43.3001L66.0018 43.9625L66.0737 44.1047C67.2795 46.4941 70.027 47.4848 72.4321 47.4848C73.7167 47.4848 75.2338 47.2805 76.4511 46.6272C77.6684 45.9739 78.5815 44.8461 78.5926 43.0815V43.0796C78.5926 41.3949 77.7858 40.3746 76.6276 39.7466C75.4694 39.1187 73.967 38.8503 72.5057 38.5688C71.2288 38.3308 70.0781 38.0964 69.2695 37.6973C68.4608 37.2982 67.9978 36.7723 67.9978 35.8653C67.9978 34.7135 68.6486 34.0085 69.541 33.5597C70.4329 33.1111 71.5618 32.9478 72.4305 32.9476C73.2789 32.9583 74.1328 33.0298 74.9018 33.3097C75.6707 33.5895 76.3559 34.0725 76.89 34.9313L76.9726 35.0623L78.2038 34.3346L78.11 34.1953C76.585 31.9189 74.6155 31.5459 72.4321 31.5459ZM159.486 8.35938L158.3 11.5878H161.604H171.516V8.35938H159.486ZM158.3 15.6485V26.0144H171.516V22.7355H161.604V18.7509H171.163V15.6485H161.604H158.3ZM155.251 8.35958H151.518L146.171 22.1052L140.85 8.35958H137.117L144.456 26.0902H147.912L155.251 8.35958ZM126.372 8.35958V26.0145H138.781L137.651 22.9375H129.701V8.35958H126.372ZM109.465 8.35938L108.28 11.5878H111.584H121.496V8.35938H109.465ZM108.28 15.6485V26.0144H121.496V22.7355H111.584V18.7509H121.143V15.6485H111.584H108.28ZM104.785 8.35958H101.052L97.0167 21.0964L92.6029 8.35958H90.4339L86.1463 21.0964L81.9847 8.35958H78.252L84.7339 26.0145H87.5587L89.7025 20.5163L91.5436 14.8919L93.41 20.4658L95.6043 26.0145H98.4291L104.785 8.35958ZM66.5636 26.0145H69.8929V11.3861H76.3384L75.2272 8.35958H60.1182V11.3861H66.5636V26.0145Z" fill="white"/>
<path d="M67.7304 51.2926V55.0154H66.9434V51.2926H67.7304Z" fill="#00DABB"/>
<path d="M72.7203 51.2926V55.0154H72.0405L70.4209 52.6723H70.3936V55.0154H69.6065V51.2926H70.2973L71.9042 53.6339H71.9369V51.2926H72.7203Z" fill="#00DABB"/>
<path d="M74.4574 51.9415V51.2926H77.5148V51.9415H76.3751V55.0154H75.5971V51.9415H74.4574Z" fill="#00DABB"/>
<path d="M79.2469 55.0154V51.2926H81.7554V51.9415H80.034V52.8286H81.6263V53.4775H80.034V54.3664H81.7626V55.0154H79.2469Z" fill="#00DABB"/>
<path d="M83.6096 55.0154V51.2926H84.3967V54.3664H85.9927V55.0154H83.6096Z" fill="#00DABB"/>
<path d="M87.7425 55.0154V51.2926H88.5296V54.3664H90.1256V55.0154H87.7425Z" fill="#00DABB"/>
<path d="M92.6624 51.2926V55.0154H91.8753V51.2926H92.6624Z" fill="#00DABB"/>
<path d="M97.007 52.496C96.9815 52.4075 96.9458 52.3293 96.8997 52.2615C96.8537 52.1924 96.7973 52.1342 96.7307 52.087C96.6653 52.0385 96.5901 52.0015 96.5053 51.9761C96.4217 51.9506 96.329 51.9379 96.2272 51.9379C96.0369 51.9379 95.8697 51.9852 95.7255 52.0797C95.5825 52.1742 95.471 52.3118 95.391 52.4923C95.311 52.6717 95.271 52.891 95.271 53.1503C95.271 53.4097 95.3104 53.6302 95.3892 53.812C95.468 53.9938 95.5794 54.1325 95.7237 54.2283C95.8679 54.3228 96.0381 54.3701 96.2344 54.3701C96.4126 54.3701 96.5647 54.3385 96.6907 54.2755C96.8179 54.2113 96.9149 54.121 96.9815 54.0047C97.0494 53.8884 97.0833 53.7508 97.0833 53.5921L97.2433 53.6157H96.2835V53.0231H97.8413V53.4921C97.8413 53.8193 97.7723 54.1004 97.6341 54.3355C97.496 54.5694 97.3057 54.75 97.0633 54.8772C96.821 55.0032 96.5435 55.0663 96.2308 55.0663C95.8818 55.0663 95.5752 54.9893 95.311 54.8354C95.0468 54.6803 94.8408 54.4603 94.693 54.1756C94.5464 53.8896 94.473 53.5502 94.473 53.1576C94.473 52.8559 94.5167 52.5868 94.6039 52.3505C94.6924 52.113 94.816 51.9118 94.9747 51.747C95.1335 51.5822 95.3183 51.4568 95.5292 51.3708C95.74 51.2847 95.9684 51.2417 96.2144 51.2417C96.4253 51.2417 96.6216 51.2726 96.8034 51.3344C96.9852 51.395 97.1463 51.481 97.2869 51.5925C97.4287 51.704 97.5444 51.8367 97.6341 51.9906C97.7238 52.1433 97.7814 52.3118 97.8068 52.496H97.007Z" fill="#00DABB"/>
<path d="M99.6611 55.0154V51.2926H102.17V51.9415H100.448V52.8286H102.041V53.4775H100.448V54.3664H102.177V55.0154H99.6611Z" fill="#00DABB"/>
<path d="M107.138 51.2926V55.0154H106.458L104.838 52.6723H104.811V55.0154H104.024V51.2926H104.715L106.321 53.6339H106.354V51.2926H107.138Z" fill="#00DABB"/>
<path d="M108.875 51.9415V51.2926H111.932V51.9415H110.792V55.0154H110.014V51.9415H108.875Z" fill="#00DABB"/>
<path d="M119.81 55.0154H118.491V51.2926H119.821C120.196 51.2926 120.518 51.3671 120.788 51.5162C121.059 51.664 121.266 51.8767 121.412 52.1542C121.558 52.4317 121.632 52.7638 121.632 53.1503C121.632 53.5381 121.558 53.8714 121.412 54.1501C121.266 54.4288 121.057 54.6427 120.785 54.7918C120.513 54.9408 120.188 55.0154 119.81 55.0154ZM119.278 54.341H119.778C120.01 54.341 120.206 54.2998 120.365 54.2174C120.525 54.1337 120.645 54.0047 120.725 53.8302C120.806 53.6545 120.846 53.4279 120.846 53.1503C120.846 52.8753 120.806 52.6505 120.725 52.476C120.645 52.3015 120.525 52.173 120.367 52.0906C120.208 52.0082 120.012 51.967 119.779 51.967H119.278V54.341Z" fill="#00DABB"/>
<path d="M123.875 55.0154H123.032L124.317 51.2926H125.331L126.614 55.0154H125.771L124.838 52.1433H124.809L123.875 55.0154ZM123.822 53.5521H125.815V54.1665H123.822V53.5521Z" fill="#00DABB"/>
<path d="M127.694 51.9415V51.2926H130.752V51.9415H129.612V55.0154H128.834V51.9415H127.694Z" fill="#00DABB"/>
<path d="M132.671 55.0154H131.827L133.112 51.2926H134.127L135.41 55.0154H134.566L133.634 52.1433H133.605L132.671 55.0154ZM132.618 53.5521H134.61V54.1665H132.618V53.5521Z" fill="#00DABB"/>
<path d="M143.932 52.3633C143.918 52.2166 143.856 52.1027 143.745 52.0215C143.635 51.9403 143.485 51.8997 143.296 51.8997C143.168 51.8997 143.059 51.9179 142.971 51.9543C142.882 51.9894 142.815 52.0385 142.767 52.1015C142.721 52.1645 142.698 52.236 142.698 52.316C142.696 52.3826 142.71 52.4408 142.74 52.4905C142.772 52.5402 142.815 52.5832 142.869 52.6196C142.924 52.6547 142.987 52.6856 143.058 52.7123C143.13 52.7377 143.206 52.7595 143.287 52.7777L143.622 52.8577C143.784 52.894 143.933 52.9425 144.069 53.0031C144.205 53.0637 144.322 53.1382 144.421 53.2267C144.521 53.3152 144.598 53.4194 144.652 53.5393C144.708 53.6593 144.737 53.7969 144.738 53.952C144.737 54.1798 144.678 54.3773 144.563 54.5446C144.449 54.7106 144.285 54.8396 144.069 54.9317C143.854 55.0226 143.596 55.0681 143.293 55.0681C142.992 55.0681 142.73 55.022 142.507 54.9299C142.286 54.8378 142.112 54.7015 141.987 54.5209C141.864 54.3392 141.799 54.1144 141.793 53.8465H142.555C142.563 53.9714 142.599 54.0756 142.662 54.1592C142.726 54.2416 142.812 54.304 142.918 54.3464C143.026 54.3876 143.148 54.4082 143.284 54.4082C143.417 54.4082 143.533 54.3888 143.631 54.3501C143.73 54.3113 143.807 54.2574 143.862 54.1883C143.916 54.1192 143.943 54.0398 143.943 53.9502C143.943 53.8665 143.919 53.7963 143.869 53.7393C143.82 53.6823 143.749 53.6339 143.654 53.5939C143.561 53.5539 143.447 53.5175 143.311 53.4848L142.905 53.383C142.592 53.3067 142.344 53.1873 142.162 53.0249C141.98 52.8625 141.89 52.6438 141.891 52.3687C141.89 52.1433 141.95 51.9464 142.071 51.7779C142.193 51.6095 142.361 51.478 142.575 51.3835C142.788 51.289 143.03 51.2417 143.302 51.2417C143.578 51.2417 143.819 51.289 144.025 51.3835C144.232 51.478 144.394 51.6095 144.509 51.7779C144.624 51.9464 144.683 52.1415 144.687 52.3633H143.932Z" fill="#00DABB"/>
<path d="M149.78 52.5959H148.984C148.97 52.4929 148.94 52.4014 148.895 52.3214C148.85 52.2403 148.793 52.1712 148.722 52.1142C148.652 52.0573 148.571 52.0136 148.479 51.9833C148.388 51.953 148.289 51.9379 148.183 51.9379C147.99 51.9379 147.822 51.9858 147.679 52.0815C147.536 52.176 147.425 52.3142 147.346 52.496C147.268 52.6765 147.228 52.8959 147.228 53.154C147.228 53.4194 147.268 53.6423 147.346 53.8229C147.426 54.0035 147.538 54.1398 147.681 54.2319C147.824 54.324 147.989 54.3701 148.177 54.3701C148.283 54.3701 148.38 54.3561 148.47 54.3282C148.561 54.3004 148.641 54.2598 148.712 54.2065C148.782 54.1519 148.84 54.0859 148.886 54.0083C148.933 53.9308 148.966 53.8423 148.984 53.7429L149.78 53.7466C149.76 53.9174 149.708 54.0822 149.626 54.241C149.545 54.3985 149.435 54.5397 149.297 54.6645C149.16 54.7881 148.996 54.8863 148.806 54.959C148.617 55.0305 148.403 55.0663 148.164 55.0663C147.832 55.0663 147.535 54.9911 147.274 54.8409C147.013 54.6906 146.807 54.4731 146.656 54.1883C146.505 53.9035 146.43 53.5587 146.43 53.154C146.43 52.748 146.507 52.4026 146.659 52.1179C146.812 51.8331 147.019 51.6162 147.281 51.4671C147.543 51.3168 147.837 51.2417 148.164 51.2417C148.38 51.2417 148.58 51.272 148.764 51.3326C148.95 51.3932 149.114 51.4816 149.257 51.598C149.4 51.7131 149.516 51.8543 149.606 52.0215C149.697 52.1887 149.755 52.3802 149.78 52.5959Z" fill="#00DABB"/>
<path d="M152.36 51.2926V55.0154H151.573V51.2926H152.36Z" fill="#00DABB"/>
<path d="M154.236 55.0154V51.2926H156.745V51.9415H155.024V52.8286H156.616V53.4775H155.024V54.3664H156.752V55.0154H154.236Z" fill="#00DABB"/>
<path d="M161.713 51.2926V55.0154H161.033L159.414 52.6723H159.386V55.0154H158.599V51.2926H159.29L160.897 53.6339H160.93V51.2926H161.713Z" fill="#00DABB"/>
<path d="M166.877 52.5959H166.08C166.066 52.4929 166.036 52.4014 165.991 52.3214C165.946 52.2403 165.889 52.1712 165.819 52.1142C165.748 52.0573 165.667 52.0136 165.575 51.9833C165.484 51.953 165.385 51.9379 165.279 51.9379C165.086 51.9379 164.918 51.9858 164.775 52.0815C164.632 52.176 164.521 52.3142 164.443 52.496C164.364 52.6765 164.324 52.8959 164.324 53.154C164.324 53.4194 164.364 53.6423 164.443 53.8229C164.523 54.0035 164.634 54.1398 164.777 54.2319C164.92 54.324 165.085 54.3701 165.273 54.3701C165.379 54.3701 165.476 54.3561 165.566 54.3282C165.657 54.3004 165.737 54.2598 165.808 54.2065C165.878 54.1519 165.936 54.0859 165.982 54.0083C166.029 53.9308 166.062 53.8423 166.08 53.7429L166.877 53.7466C166.856 53.9174 166.804 54.0822 166.722 54.241C166.641 54.3985 166.531 54.5397 166.393 54.6645C166.256 54.7881 166.092 54.8863 165.902 54.959C165.713 55.0305 165.499 55.0663 165.261 55.0663C164.929 55.0663 164.632 54.9911 164.37 54.8409C164.109 54.6906 163.903 54.4731 163.752 54.1883C163.602 53.9035 163.526 53.5587 163.526 53.154C163.526 52.748 163.603 52.4026 163.755 52.1179C163.908 51.8331 164.115 51.6162 164.377 51.4671C164.639 51.3168 164.933 51.2417 165.261 51.2417C165.476 51.2417 165.676 51.272 165.86 51.3326C166.046 51.3932 166.21 51.4816 166.353 51.598C166.496 51.7131 166.612 51.8543 166.702 52.0215C166.793 52.1887 166.851 52.3802 166.877 52.5959Z" fill="#00DABB"/>
<path d="M168.669 55.0154V51.2926H171.178V51.9415H169.457V52.8286H171.049V53.4775H169.457V54.3664H171.185V55.0154H168.669Z" fill="#00DABB"/>
<defs>
<linearGradient id="paint0_linear_1577_1640" x1="0.54562" y1="45.5437" x2="52.7511" y2="0.663539" gradientUnits="userSpaceOnUse">
<stop stop-color="#00A1FF"/>
<stop offset="1" stop-color="#00FC92"/>
</linearGradient>
</defs>
</svg>
