<svg width="147" height="46" viewBox="0 0 147 46" fill="none" xmlns="http://www.w3.org/2000/svg">
<path fill-rule="evenodd" clip-rule="evenodd" d="M20.0594 0C19.6958 0.000466172 19.3334 0.0968763 19.0112 0.282907L13.2852 3.58792C13.1367 3.49604 12.9759 3.42653 12.8084 3.38165C12.3705 3.26431 11.8883 3.31279 11.4684 3.55521C10.6287 4.04006 10.3367 5.12929 10.8216 5.96907C11.3064 6.80884 12.3965 7.10078 13.2363 6.61593C13.817 6.28066 14.1346 5.65662 14.1154 5.02574L19.841 1.71985C19.9796 1.63984 20.1443 1.6414 20.2689 1.71565L25.135 4.59926C25.2803 4.68539 25.3601 4.82776 25.3601 4.98147V12.2758V18.1087C25.3601 18.8571 25.7635 19.547 26.4048 19.9211L32.7066 23.5971C32.687 24.2287 33.0052 24.8537 33.5865 25.1894C34.4263 25.6742 35.5155 25.382 36.0004 24.5422C36.4852 23.7024 36.193 22.6135 35.3532 22.1287C34.9334 21.8862 34.4512 21.8374 34.0133 21.9548C33.8462 21.9995 33.6858 22.069 33.5376 22.1605L27.2412 18.4874C27.1015 18.4059 27.0195 18.2643 27.0195 18.1087V12.3058C27.0197 12.2958 27.0197 12.2857 27.0195 12.2757C27.0195 12.1188 27.102 11.9766 27.2379 11.8982L32.2902 8.98214C32.426 8.90371 32.5887 8.90369 32.7246 8.98214L38.7257 12.446C39.1228 12.6753 39.6307 12.5391 39.8597 12.1419C40.0882 11.7451 39.9521 11.2384 39.5556 11.0094L33.5556 7.54402C32.9085 7.17043 32.1062 7.17043 31.4591 7.54402L27.0195 10.1082V4.98136C27.0195 4.23099 26.6128 3.54608 25.9804 3.17133L21.1141 0.28773C20.7875 0.0942124 20.423 -0.000689934 20.0594 0ZM12.4029 4.37299C12.4483 4.37532 12.493 4.38338 12.5367 4.39508C12.7114 4.44194 12.8681 4.55774 12.9678 4.73046C13.1673 5.0759 13.0536 5.50205 12.7082 5.70148C12.3628 5.90092 11.9363 5.78641 11.7369 5.44097C11.5374 5.09552 11.6511 4.66908 11.9965 4.46965C12.1261 4.39487 12.2669 4.36403 12.4029 4.37299ZM7.83188 6.84108C7.69446 6.84481 7.56029 6.8827 7.44113 6.95129L0.414088 11.009C0.0179964 11.2384 -0.117548 11.7453 0.111151 12.1418C0.340172 12.5383 0.84686 12.6741 1.24367 12.4456L7.85311 8.62987L19.5661 15.4786C19.7066 15.5607 19.7877 15.7019 19.7877 15.8573V21.6914C19.7877 21.8482 19.7064 21.9896 19.5705 22.068L19.1282 22.3229C19.1249 22.3248 19.1208 22.3243 19.1173 22.3262L14.5138 24.9849C14.3788 25.061 14.2171 25.0626 14.0827 24.9849L13.6082 24.7108L8.55594 21.7937L8.35791 21.6793C8.37661 21.0482 8.05826 20.4238 7.47765 20.0885C7.05775 19.8461 6.57586 19.7985 6.13797 19.9159C5.70007 20.0332 5.30651 20.3155 5.06409 20.7354C4.57924 21.5752 4.87027 22.6644 5.71006 23.1492C6.29058 23.4844 6.99061 23.4482 7.52774 23.1169L7.72519 23.2306L7.72659 23.232L12.7788 26.148C12.9147 26.2265 12.9972 26.3687 12.9972 26.5255V33.4544C12.9972 33.612 12.9149 33.7543 12.7812 33.831L7.82589 36.6746C7.68747 36.754 7.52442 36.7538 7.38914 36.676C1.52804 33.2921 7.38883 36.6759 1.24444 33.1284C0.847931 32.8997 0.341031 33.0353 0.111627 33.4314C-0.117836 33.8281 0.0177973 34.3359 0.414579 34.5653C6.55896 38.1128 0.698167 34.7287 6.55927 38.1126C7.20698 38.4865 8.00653 38.4843 8.65221 38.114L13.5619 35.2961C13.716 35.4791 13.8536 35.6788 14.0667 35.8018L18.8419 38.5596C18.8234 39.1905 19.142 39.8149 19.7225 40.1501C20.5622 40.6349 21.6512 40.3427 22.136 39.5029C22.6209 38.6631 22.3298 37.5742 21.49 37.0893C21.0701 36.8469 20.5868 36.7981 20.1489 36.9155C19.9811 36.9604 19.8202 37.0299 19.6715 37.1217L14.8961 34.3644C14.7602 34.2859 14.6777 34.1438 14.6777 33.9869V27.058C14.6777 26.9011 14.7602 26.7586 14.8961 26.6802L15.3393 26.4241C15.3416 26.4222 15.3457 26.4236 15.3484 26.4218L19.9527 23.7642C20.0875 23.6888 20.2485 23.6868 20.3827 23.7642C24.4698 26.2231 28.5984 28.5978 32.7068 30.9928C32.6879 31.6238 33.006 32.2479 33.5868 32.5833C34.4266 33.0681 35.5158 32.7771 36.0007 31.9373C36.4855 31.0975 36.1933 30.0074 35.3535 29.5226C34.9336 29.2801 34.4514 29.2325 34.0135 29.3499C33.8461 29.3947 33.6854 29.4643 33.537 29.5559C29.4349 27.1645 25.3251 24.799 21.2682 22.3588C21.3446 22.1402 21.4474 21.9297 21.4474 21.6916V15.8571C21.4474 15.1084 21.0439 14.4189 20.4039 14.0448L8.27428 6.95332C8.14027 6.87525 7.98689 6.83653 7.83188 6.84108ZM32.4617 13.287C32.2906 13.2832 32.1202 13.304 31.956 13.3479C31.5181 13.4653 31.1248 13.7479 30.8824 14.1678C30.3976 15.0076 30.6886 16.0965 31.5284 16.5813C32.1088 16.9164 32.8084 16.8798 33.3455 16.5483L38.1222 19.3058C38.2581 19.3843 38.3403 19.5264 38.3403 19.6833V26.6122V33.3375C38.3403 33.504 38.2535 33.645 38.1487 33.7005L33.0965 36.3781C32.6918 36.5929 32.538 37.095 32.7525 37.4997C32.9669 37.9048 33.4688 38.0595 33.8739 37.8451L38.9261 35.1663C39.6201 34.7985 40 34.075 40 33.3375V26.6122V19.6833C39.9997 19.5382 39.9612 19.3958 39.8886 19.2702C39.7665 18.6957 39.4711 18.1687 38.9518 17.8689L34.1759 15.1108C34.1948 14.48 33.8767 13.8559 33.296 13.5206C33.0335 13.3691 32.7467 13.2936 32.4617 13.287ZM7.47559 13.6978C7.32531 13.701 7.1882 13.721 7.06243 13.7343C6.72704 13.7697 6.45654 13.8401 6.45654 13.8401C6.38398 13.8588 6.31428 13.8875 6.24937 13.925C4.56541 14.8972 2.88107 15.8696 1.19711 16.8419C0.550028 17.2155 0.150046 17.9091 0.150046 18.6563V24.4892C0.150046 25.2364 0.550028 25.9301 1.19711 26.3037L6.92274 29.6096C6.90382 30.2405 7.22222 30.8647 7.803 31.2C8.64277 31.6849 9.73173 31.3927 10.2166 30.5529C10.7014 29.7131 10.4092 28.6242 9.56942 28.1393C9.14952 27.8969 8.66763 27.8481 8.22973 27.9655C8.0622 28.0103 7.90143 28.0802 7.75291 28.172L2.02667 24.867C1.89079 24.7886 1.80949 24.6461 1.80949 24.4892V18.6563C1.80949 18.4995 1.89081 18.3572 2.02667 18.2788C3.67058 17.3297 5.31478 16.3809 6.95869 15.4318C7.01313 15.4193 7.08527 15.4 7.23718 15.384C7.43657 15.3629 7.65401 15.4433 7.51449 15.3628L13.2401 18.6675C13.2208 19.2985 13.5387 19.9227 14.1195 20.258C14.9593 20.7429 16.0494 20.4518 16.5343 19.612C17.0191 18.7723 16.7269 17.6822 15.8871 17.1973C15.4672 16.9549 14.985 16.9073 14.5471 17.0246C14.3795 17.0695 14.2186 17.1391 14.07 17.2309L8.34436 13.925C8.07886 13.7717 7.84242 13.715 7.63032 13.701C7.57727 13.6978 7.5257 13.6968 7.47559 13.6978ZM32.3615 14.3393C32.4975 14.3299 32.6383 14.3603 32.7679 14.4351C33.1133 14.6345 33.2269 15.0607 33.0275 15.4061C32.8281 15.7516 32.4028 15.8664 32.0574 15.6669C31.7119 15.4675 31.5974 15.0411 31.7968 14.6956C31.8966 14.5229 32.053 14.4082 32.2277 14.3614C32.2714 14.3497 32.3161 14.3424 32.3615 14.3393ZM14.9526 18.0159C15.0886 18.007 15.2295 18.0381 15.359 18.1129C15.7044 18.3123 15.8181 18.7376 15.6186 19.083C15.4192 19.4285 14.9928 19.543 14.6473 19.3435C14.3019 19.1441 14.1885 18.7177 14.388 18.3722C14.4877 18.1995 14.6441 18.0848 14.8188 18.038C14.8625 18.0263 14.9073 18.0189 14.9526 18.0159ZM6.54348 20.9075C6.67948 20.8981 6.82031 20.9285 6.94985 21.0033C7.2953 21.2027 7.40893 21.6288 7.20948 21.9743C7.01004 22.3197 6.58362 22.4345 6.23816 22.2351C5.89274 22.0356 5.7791 21.6092 5.97854 21.2638C6.07827 21.0911 6.23501 20.9764 6.40969 20.9296C6.45337 20.9179 6.49813 20.9106 6.54348 20.9075ZM34.4188 22.9468C34.5548 22.9375 34.6956 22.9678 34.8251 23.0426C35.1706 23.242 35.2854 23.6684 35.0859 24.0139C34.8865 24.3593 34.4601 24.4738 34.1146 24.2744C33.7692 24.075 33.6544 23.6485 33.8538 23.3031C33.9536 23.1304 34.1103 23.0157 34.285 22.9689C34.3286 22.9572 34.3734 22.95 34.4188 22.9468ZM18.6071 27.748C18.4361 27.7442 18.2657 27.7644 18.1014 27.8084C17.6635 27.9257 17.27 28.2083 17.0276 28.6282C16.5427 29.468 16.8349 30.5581 17.6747 31.0429C18.2554 31.3782 18.9552 31.3416 19.4921 31.0097L25.2175 34.3153C25.3533 34.3938 25.4347 34.5351 25.4347 34.6919C25.4347 36.6364 25.4347 38.5804 25.4347 40.5249C25.4347 40.6817 25.3533 40.8242 25.2175 40.9026L20.1652 43.8195C20.0294 43.898 19.8655 43.898 19.7297 43.8195L13.7284 40.3545C13.3316 40.126 12.8247 40.2621 12.5956 40.6586C12.3662 41.0554 12.5018 41.5629 12.8986 41.7923L18.9001 45.2565C19.5472 45.6301 20.348 45.6301 20.9951 45.2565L26.0473 42.3393C26.6944 41.9657 27.0944 41.272 27.0944 40.5249C27.0944 38.5804 27.0944 36.6364 27.0944 34.6919C27.0944 33.9448 26.6944 33.2511 26.0473 32.8775L20.3214 29.5725C20.3402 28.9416 20.0218 28.3176 19.4411 27.9823C19.1787 27.8308 18.8922 27.7549 18.6071 27.748ZM18.5069 28.8C18.643 28.7911 18.7838 28.8219 18.9133 28.8967C19.2588 29.0961 19.3733 29.5226 19.1738 29.868C18.9744 30.2135 18.5483 30.3268 18.2028 30.1273C17.8574 29.9279 17.7426 29.5018 17.942 29.1563C18.0417 28.9836 18.1985 28.8689 18.3731 28.8221C18.4168 28.8104 18.4616 28.803 18.5069 28.8ZM8.63523 28.9571C8.77124 28.9482 8.91208 28.979 9.04162 29.0538C9.38706 29.2532 9.50156 29.6797 9.30213 30.0251C9.10267 30.3705 8.67654 30.485 8.33109 30.2856C7.98564 30.0862 7.87085 29.6597 8.07029 29.3143C8.17001 29.1416 8.32677 29.026 8.50143 28.9792C8.54511 28.9675 8.58989 28.9601 8.63523 28.9571ZM34.4188 30.3416C34.5548 30.3327 34.6956 30.3635 34.8251 30.4383C35.1706 30.6377 35.2854 31.0641 35.0859 31.4096C34.8865 31.755 34.4601 31.8683 34.1146 31.6689C33.7692 31.4695 33.6544 31.0433 33.8538 30.6979C33.9536 30.5252 34.1103 30.4105 34.285 30.3637C34.3286 30.352 34.3734 30.3445 34.4188 30.3416ZM20.5542 37.9064C20.6902 37.8975 20.831 37.9286 20.9606 38.0034C21.306 38.2028 21.4205 38.629 21.2211 38.9744C21.0217 39.3199 20.5952 39.4335 20.2498 39.234C19.9043 39.0346 19.791 38.6093 19.9904 38.2639C20.0902 38.0912 20.2457 37.9753 20.4204 37.9285C20.4641 37.9168 20.5089 37.9094 20.5542 37.9064Z" fill="url(#paint0_linear_117_1399)"/>
<path d="M141.615 26.5765C140.507 26.5765 139.214 26.7948 138.189 27.3807C137.164 27.9662 136.41 28.9418 136.438 30.39V30.3916C136.438 30.3921 136.438 30.3921 136.438 30.3932C136.44 31.6599 137.104 32.4538 138.055 32.956C139.006 33.4585 140.243 33.6982 141.455 33.935H141.456C142.545 34.1432 143.63 34.3583 144.422 34.7543C145.214 35.1504 145.708 35.6956 145.699 36.6387V36.6403C145.699 37.7634 145.098 38.4051 144.277 38.7974C143.456 39.1897 142.416 39.3038 141.615 39.3038C140.031 39.3038 137.992 38.5171 137.213 36.9759L137.15 36.8516L135.992 37.4307L136.055 37.555C137.109 39.6437 139.512 40.5097 141.615 40.5097C142.738 40.5097 144.062 40.3312 145.127 39.7601C146.191 39.189 146.99 38.2031 147 36.6605V36.6589C147 35.1861 146.293 34.2942 145.281 33.7453C144.268 33.1964 142.956 32.9617 141.679 32.7157H141.677C140.561 32.5076 139.557 32.3027 138.85 31.9538C138.143 31.6049 137.738 31.1453 137.738 30.3524C137.738 29.3455 138.307 28.7292 139.087 28.3369C139.867 27.9448 140.854 27.802 141.613 27.8019C142.355 27.8112 143.101 27.8737 143.773 28.1183C144.446 28.363 145.045 28.7852 145.511 29.5359L145.584 29.6504L146.66 29.0143L146.578 28.8925C145.245 26.9026 143.523 26.5765 141.615 26.5765ZM127.39 26.5765C125.342 26.5765 123.59 27.2661 122.354 28.4894C121.119 29.7124 120.406 31.4669 120.415 33.5716C120.415 35.41 121.007 37.1353 122.179 38.4024C123.352 39.6695 125.104 40.4709 127.39 40.4709C129.395 40.4709 131.085 39.694 132.488 38.2904L132.529 38.2507V33.0922H126.665V34.2599H131.285V37.7579C130.183 38.7488 128.761 39.2283 127.39 39.2283C125.49 39.2283 124.071 38.5717 123.118 37.5379C122.164 36.5041 121.677 35.0855 121.677 33.5525C121.668 32.0487 122.151 30.6057 123.105 29.5411C124.059 28.4764 125.483 27.7825 127.39 27.7825C128.851 27.7825 130.428 28.3394 131.554 29.4468L131.657 29.5476L132.431 28.6997L132.337 28.6058C130.965 27.2538 129.167 26.5765 127.39 26.5765ZM106.281 26.7665V26.9056V40.3015H107.581V29.6035L116.315 40.3015H116.917V26.7665H115.636V37.4819L106.921 26.7665H106.281ZM99.7135 26.7665V40.3015H100.994V40.1621V26.7665H99.7135ZM84.4524 26.7665V40.3015H85.7536V35.2822V34.0387V31.2122V27.9912H90.4247C91.4893 27.9912 92.2603 28.3764 92.7718 28.9442C93.2833 29.5121 93.5334 30.2685 93.5243 31.0128V31.0149C93.5151 31.9178 93.2638 32.6678 92.7473 33.1955C92.2308 33.7232 91.4404 34.039 90.3113 34.039H88.1264L89.1701 35.2825L93.3834 40.3019H94.2443H95.1052L90.7538 35.1774C92.0831 35.1151 93.1335 34.6849 93.8245 33.9664C94.5674 33.194 94.9292 32.144 94.9195 31.0337C94.9097 29.9693 94.5297 28.9025 93.7769 28.1007C93.024 27.2988 91.8972 26.7669 90.4247 26.7669L84.4524 26.7665ZM69.8033 26.7665V40.3015H71.1031V35.7178H75.1853H75.7565C77.2306 35.7178 78.3524 35.1576 79.0974 34.3158C79.8424 33.474 80.213 32.3571 80.213 31.2422C80.213 30.1273 79.8424 29.0104 79.0974 28.1686C78.3524 27.3268 77.2306 26.7665 75.7565 26.7665H69.8033ZM71.1031 27.9912H74.4386H75.7565C76.824 27.9912 77.6069 28.3971 78.1336 29.0056C78.6602 29.6142 78.9269 30.4317 78.9269 31.2516C78.9269 32.0715 78.6602 32.8893 78.1336 33.4979C77.6069 34.1065 76.824 34.5123 75.7565 34.5123H71.1031V27.9912ZM60.3 26.5765C59.1925 26.5765 57.8995 26.7948 56.8741 27.3807C55.8495 27.9662 55.0956 28.9418 55.1238 30.39V30.3916C55.1238 30.3921 55.1238 30.3921 55.1238 30.3932C55.1254 31.6599 55.7913 32.4538 56.7419 32.956C57.6933 33.4585 58.9295 33.6982 60.1417 33.935C61.2304 34.1432 62.3152 34.3583 63.1073 34.7543C63.8994 35.1504 64.3944 35.6956 64.3855 36.6387V36.6403C64.3855 37.7634 63.7835 38.4051 62.9625 38.7974C62.1414 39.1897 61.1014 39.3038 60.3 39.3038C58.7164 39.3038 56.6777 38.5171 55.898 36.9759L55.8352 36.8516L54.6788 37.4307L54.7416 37.555C55.7958 39.6437 58.1975 40.5097 60.3 40.5097C61.4229 40.5097 62.7491 40.3312 63.8132 39.7601C64.8773 39.189 65.6755 38.2031 65.6853 36.6605V36.6589C65.6853 35.1861 64.98 34.2942 63.9675 33.7453C62.955 33.1964 61.6417 32.9617 60.3643 32.7157C59.2481 32.5076 58.2422 32.3027 57.5353 31.9538C56.8283 31.6049 56.4237 31.1453 56.4237 30.3524C56.4237 29.3455 56.9925 28.7292 57.7726 28.3369C58.5523 27.9448 59.5391 27.802 60.2985 27.8019C61.0402 27.8112 61.7867 27.8737 62.4589 28.1183C63.1311 28.363 63.73 28.7852 64.1969 29.5359L64.2691 29.6504L65.3454 29.0143L65.2633 28.8925C63.9303 26.9026 62.2086 26.5765 60.3 26.5765ZM136.399 6.30765L135.363 9.12982H138.251H146.916V6.30765H136.399ZM135.363 12.6796V21.7411H146.916V18.8748H138.251V15.3916H146.607V12.6796H138.251H135.363ZM132.697 6.30783H129.434L124.76 18.3238L120.108 6.30783H116.845L123.261 21.8073H126.282L132.697 6.30783ZM107.452 6.30783V21.7412H118.3L117.312 19.0514H110.362V6.30783H107.452ZM92.6729 6.30765L91.6367 9.12982H94.525H103.19V6.30765H92.6729ZM91.6367 12.6796V21.7411H103.19V18.8748H94.525V15.3916H102.881V12.6796H94.525H91.6367ZM88.5816 6.30783H85.3185L81.7909 17.4419L77.9326 6.30783H76.0365L72.2884 17.4419L68.6505 6.30783H65.3875L71.0537 21.7412H73.5231L75.3971 16.9348L77.0066 12.0182L78.6381 16.8907L80.5563 21.7412H83.0256L88.5816 6.30783ZM55.1699 21.7412H58.0802V8.95354H63.7147L62.7433 6.30783H49.5355V8.95354H55.1699V21.7412Z" fill="white"/>
<defs>
<linearGradient id="paint0_linear_117_1399" x1="0.414095" y1="34.5652" x2="40.0352" y2="0.503591" gradientUnits="userSpaceOnUse">
<stop stop-color="#00A1FF"/>
<stop offset="1" stop-color="#00FC92"/>
</linearGradient>
</defs>
</svg>
