<svg width="172" height="60" viewBox="0 0 172 60" fill="none" xmlns="http://www.w3.org/2000/svg">
<path fill-rule="evenodd" clip-rule="evenodd" d="M26.4307 0C25.9516 0.000614237 25.474 0.127646 25.0495 0.372763L17.5049 4.72751C17.3092 4.60645 17.0973 4.51487 16.8766 4.45573C16.2996 4.30111 15.6643 4.365 15.111 4.68442C14.0045 5.32325 13.6199 6.75845 14.2587 7.86496C14.8975 8.97146 16.3339 9.35613 17.4404 8.71728C18.2056 8.27552 18.624 7.45327 18.5987 6.62202L26.1429 2.2661C26.3255 2.16069 26.5426 2.16274 26.7067 2.26057L33.1183 6.06008C33.3098 6.17356 33.415 6.36115 33.415 6.56368V16.1748V23.8604C33.4149 24.8465 33.9465 25.7555 34.7915 26.2484L43.0948 31.092C43.0691 31.9242 43.4883 32.7478 44.2543 33.19C45.3608 33.8288 46.796 33.4438 47.4348 32.3373C48.0737 31.2308 47.6886 29.796 46.5821 29.1571C46.0289 28.8377 45.3935 28.7734 44.8165 28.928C44.5964 28.9869 44.3851 29.0785 44.1898 29.1991L35.8935 24.3593C35.7095 24.252 35.6015 24.0654 35.6015 23.8604V16.2143C35.6017 16.2011 35.6017 16.1879 35.6015 16.1746C35.6015 15.968 35.7102 15.7806 35.8892 15.6772L42.5461 11.835C42.7252 11.7317 42.9395 11.7317 43.1185 11.835L51.0258 16.3991C51.5489 16.7012 52.2181 16.5217 52.5199 15.9984C52.821 15.4755 52.6417 14.8079 52.1192 14.5062L44.2135 9.94015C43.3609 9.4479 42.3038 9.44789 41.4511 9.94015L35.6015 13.3187V6.56353C35.6015 5.57484 35.0656 4.67238 34.2323 4.1786L27.8204 0.379118C27.3901 0.124136 26.9098 -0.00090907 26.4307 0ZM16.3423 5.76194C16.4021 5.76501 16.4611 5.77563 16.5186 5.79105C16.7487 5.85279 16.9553 6.00536 17.0867 6.23294C17.3495 6.68811 17.1997 7.2496 16.7446 7.51238C16.2894 7.77517 15.7276 7.62428 15.4648 7.16913C15.202 6.71395 15.3517 6.15207 15.8069 5.88929C15.9775 5.79076 16.1631 5.75013 16.3423 5.76194ZM10.3194 9.01394C10.1384 9.01885 9.96158 9.06878 9.80457 9.15915L0.545611 14.5056C0.0237124 14.8079 -0.154884 15.4758 0.146455 15.9982C0.448217 16.5207 1.11584 16.6997 1.63869 16.3986L10.3474 11.3709L25.7807 20.3949C25.9657 20.5031 26.0727 20.6892 26.0727 20.8939V28.581C26.0727 28.7877 25.9655 28.9739 25.7865 29.0772L25.2036 29.4131C25.1993 29.4156 25.1939 29.4149 25.1893 29.4174L19.1237 32.9206C18.9457 33.0208 18.7328 33.0229 18.5556 32.9206L17.9304 32.5595L11.2735 28.7158L11.0125 28.5651C11.0372 27.7335 10.6177 26.9108 9.8527 26.4691C9.29943 26.1496 8.66448 26.0869 8.0875 26.2415C7.51052 26.3961 6.99196 26.7681 6.67254 27.3214C6.03369 28.4279 6.41716 29.863 7.52368 30.5019C8.28859 30.9435 9.21097 30.8958 9.91869 30.4592L10.1789 30.6091L10.1807 30.6109L16.8376 34.4532C17.0167 34.5565 17.1254 34.7439 17.1254 34.9506V44.0802C17.1254 44.2878 17.017 44.4753 16.8408 44.5764L10.3115 48.3231C10.1292 48.4278 9.91432 48.4275 9.73607 48.3249C2.01337 43.8663 9.73566 48.3248 1.6397 43.6506C1.11725 43.3493 0.449348 43.5279 0.147083 44.0498C-0.155263 44.5726 0.0234501 45.2416 0.546258 45.5439C8.64221 50.2182 0.919918 45.7592 8.64263 50.2179C9.49605 50.7106 10.5496 50.7077 11.4003 50.2197L17.8694 46.5068C18.0724 46.7479 18.2537 47.011 18.5345 47.1732L24.8265 50.8068C24.8021 51.6381 25.2219 52.4609 25.9867 52.9025C27.0932 53.5413 28.528 53.1563 29.1669 52.0498C29.8057 50.9433 29.4222 49.5085 28.3157 48.8696C27.7624 48.5502 27.1256 48.4859 26.5486 48.6405C26.3275 48.6998 26.1155 48.7913 25.9195 48.9123L19.6273 45.2792C19.4483 45.1758 19.3396 44.9885 19.3396 44.7818V35.6521C19.3396 35.4454 19.4484 35.2577 19.6273 35.1543L20.2113 34.8169C20.2144 34.8144 20.2198 34.8163 20.2233 34.8138L26.2901 31.3122C26.4677 31.2128 26.6799 31.2101 26.8566 31.3122C32.2419 34.5521 37.6818 37.681 43.0952 40.8367C43.0702 41.6681 43.4894 42.4905 44.2546 42.9324C45.3611 43.5712 46.7963 43.1877 47.4352 42.0812C48.074 40.9747 47.689 39.5383 46.5825 38.8995C46.0292 38.5801 45.3939 38.5174 44.8169 38.6719C44.5963 38.731 44.3846 38.8227 44.189 38.9434C38.784 35.7925 33.3689 32.6756 28.0234 29.4604C28.124 29.1723 28.2595 28.895 28.2595 28.5813V20.8937C28.2595 19.9072 27.7279 18.9987 26.8845 18.5056L10.9023 9.16183C10.7258 9.05896 10.5237 9.00794 10.3194 9.01394ZM42.7722 17.5072C42.5468 17.5022 42.3222 17.5296 42.1058 17.5875C41.5289 17.7421 41.0107 18.1145 40.6913 18.6678C40.0524 19.7743 40.4359 21.2091 41.5424 21.8479C42.3072 22.2894 43.229 22.2412 43.9366 21.8044L50.2305 25.4377C50.4096 25.5411 50.5179 25.7284 50.5179 25.9351V35.0648V43.9261C50.5179 44.1455 50.4036 44.3313 50.2655 44.4045L43.6085 47.9325C43.0754 48.2155 42.8727 48.877 43.1554 49.4104C43.4379 49.9441 44.0991 50.1479 44.6328 49.8655L51.2898 46.3358C52.2042 45.8511 52.7048 44.8978 52.7048 43.9261V35.0648V25.9351C52.7043 25.7439 52.6537 25.5563 52.558 25.3907C52.3972 24.6339 52.0079 23.9395 51.3236 23.5444L45.0309 19.9103C45.0557 19.0791 44.6365 18.2568 43.8714 17.8151C43.5256 17.6154 43.1477 17.5158 42.7722 17.5072ZM9.84998 18.0484C9.65197 18.0527 9.47131 18.0791 9.3056 18.0966C8.86368 18.1433 8.50726 18.236 8.50726 18.236C8.41166 18.2606 8.31982 18.2984 8.23429 18.3478C6.01547 19.6289 3.79615 20.9101 1.57734 22.1912C0.724727 22.6834 0.197703 23.5974 0.197703 24.5819V32.2675C0.197703 33.252 0.724727 34.166 1.57734 34.6582L9.12154 39.0142C9.0966 39.8455 9.51613 40.668 10.2814 41.1098C11.3879 41.7486 12.8227 41.3636 13.4615 40.2571C14.1004 39.1506 13.7154 37.7158 12.6088 37.0769C12.0556 36.7575 11.4206 36.6932 10.8437 36.8478C10.6229 36.9069 10.4111 36.999 10.2154 37.12L2.67038 32.7653C2.49135 32.6619 2.38422 32.4742 2.38422 32.2675V24.5819C2.38422 24.3752 2.49137 24.1879 2.67038 24.0845C4.83642 22.8339 7.00286 21.5837 9.1689 20.3332C9.24064 20.3168 9.33569 20.2914 9.53585 20.2702C9.79857 20.2425 10.0851 20.3484 9.90124 20.2424L17.4455 24.5967C17.42 25.4281 17.8389 26.2505 18.6041 26.6923C19.7107 27.3312 21.147 26.9477 21.7858 25.8412C22.4247 24.7347 22.0397 23.2983 20.9332 22.6595C20.3799 22.3401 19.7446 22.2773 19.1676 22.432C18.9467 22.491 18.7347 22.5829 18.5389 22.7038L10.9947 18.3478C10.6449 18.1459 10.3333 18.0711 10.0539 18.0527C9.98396 18.0484 9.91601 18.0472 9.84998 18.0484ZM42.6401 18.8938C42.8193 18.8814 43.0049 18.9214 43.1756 19.02C43.6307 19.2828 43.7805 19.8442 43.5177 20.2994C43.2549 20.7546 42.6946 20.9058 42.2394 20.643C41.7842 20.3802 41.6334 19.8184 41.8961 19.3632C42.0275 19.1356 42.2337 18.9845 42.4638 18.9229C42.5214 18.9075 42.5804 18.8979 42.6401 18.8938ZM19.7019 23.7381C19.8811 23.7264 20.0666 23.7673 20.2373 23.8659C20.6925 24.1287 20.8422 24.689 20.5794 25.1442C20.3166 25.5993 19.7548 25.7502 19.2996 25.4874C18.8444 25.2246 18.6951 24.6628 18.9579 24.2076C19.0893 23.98 19.2954 23.8289 19.5256 23.7673C19.5831 23.7518 19.6421 23.7421 19.7019 23.7381ZM8.62182 27.5481C8.80102 27.5358 8.98658 27.5758 9.15726 27.6743C9.61242 27.9371 9.76216 28.4986 9.49935 28.9538C9.23657 29.4089 8.6747 29.5602 8.21952 29.2974C7.76439 29.0346 7.61466 28.4727 7.87744 28.0176C8.00885 27.79 8.21536 27.6389 8.44553 27.5772C8.50309 27.5618 8.56207 27.5522 8.62182 27.5481ZM45.3508 30.2351C45.53 30.2229 45.7156 30.2628 45.8863 30.3613C46.3414 30.6241 46.4927 31.186 46.2299 31.6412C45.9671 32.0963 45.4053 32.2472 44.9501 31.9844C44.4949 31.7216 44.3437 31.1597 44.6064 30.7046C44.7379 30.477 44.9444 30.3259 45.1745 30.2642C45.2321 30.2488 45.2911 30.2393 45.3508 30.2351ZM24.5171 36.5613C24.2918 36.5563 24.0672 36.5829 23.8508 36.6408C23.2738 36.7954 22.7553 37.1678 22.4359 37.7211C21.797 38.8276 22.182 40.2639 23.2886 40.9028C24.0537 41.3446 24.9758 41.2964 25.6832 40.859L33.227 45.2145C33.4061 45.3179 33.5132 45.5041 33.5132 45.7108C33.5132 48.2728 33.5132 50.8343 33.5132 53.3963C33.5132 53.603 33.406 53.7908 33.227 53.8941L26.5701 57.7375C26.3911 57.8408 26.1752 57.8409 25.9962 57.7375L18.0889 53.1719C17.566 52.8708 16.898 53.0501 16.5963 53.5726C16.2939 54.0954 16.4726 54.7641 16.9954 55.0664L24.9031 59.6308C25.7557 60.1231 26.8109 60.1231 27.6635 59.6308L34.3205 55.7871C35.1731 55.2948 35.7001 54.3808 35.7001 53.3963C35.7001 50.8343 35.7001 48.2728 35.7001 45.7108C35.7001 44.7263 35.1731 43.8123 34.3205 43.32L26.7759 38.9653C26.8007 38.134 26.3811 37.3118 25.616 36.87C25.2702 36.6704 24.8927 36.5704 24.5171 36.5613ZM24.3851 37.9475C24.5643 37.9358 24.7499 37.9763 24.9206 38.0748C25.3757 38.3376 25.5266 38.8995 25.2638 39.3547C25.001 39.8098 24.4396 39.9591 23.9844 39.6964C23.5292 39.4336 23.3779 38.8721 23.6407 38.4169C23.7721 38.1894 23.9787 38.0383 24.2088 37.9766C24.2664 37.9612 24.3254 37.9514 24.3851 37.9475ZM11.3779 38.1544C11.5571 38.1427 11.7427 38.1832 11.9134 38.2818C12.3686 38.5446 12.5194 39.1065 12.2567 39.5616C11.9939 40.0168 11.4324 40.1677 10.9772 39.9049C10.522 39.6421 10.3708 39.0802 10.6336 38.6251C10.765 38.3975 10.9715 38.2452 11.2016 38.1836C11.2592 38.1682 11.3182 38.1584 11.3779 38.1544ZM45.3508 39.9787C45.53 39.9669 45.7156 40.0075 45.8863 40.106C46.3414 40.3688 46.4927 40.9307 46.2299 41.3859C45.9671 41.841 45.4053 41.9903 44.9501 41.7276C44.4949 41.4648 44.3437 40.9033 44.6064 40.4481C44.7379 40.2205 44.9444 40.0695 45.1745 40.0078C45.2321 39.9924 45.2911 39.9825 45.3508 39.9787ZM27.0826 49.9463C27.2618 49.9345 27.4474 49.9754 27.6181 50.074C28.0732 50.3368 28.2241 50.8983 27.9613 51.3534C27.6985 51.8086 27.1367 51.9583 26.6815 51.6955C26.2263 51.4327 26.077 50.8724 26.3398 50.4172C26.4712 50.1897 26.6762 50.037 26.9063 49.9754C26.9639 49.96 27.0229 49.9502 27.0826 49.9463Z" fill="url(#paint0_linear_1577_139)"/>
<path d="M165.452 31.5462C164.185 31.5462 162.706 31.7958 161.533 32.4661C160.361 33.1358 159.498 34.2519 159.531 35.9085V35.9104C159.531 35.911 159.531 35.911 159.531 35.9122C159.532 37.3613 160.292 38.2695 161.38 38.8439C162.468 39.4188 163.882 39.693 165.269 39.9638H165.271C166.516 40.2021 167.757 40.448 168.663 40.9011C169.57 41.3542 170.134 41.9778 170.124 43.0567V43.0585C170.124 44.3433 169.437 45.0774 168.498 45.5261C167.558 45.9749 166.369 46.1055 165.452 46.1055C163.64 46.1055 161.308 45.2055 160.416 43.4425L160.344 43.3003L159.02 43.9628L159.092 44.1049C160.298 46.4943 163.047 47.485 165.452 47.485C166.737 47.485 168.252 47.2808 169.469 46.6275C170.687 45.9742 171.601 44.8464 171.612 43.0817V43.0799C171.612 41.3951 170.804 40.3748 169.646 39.7469C168.488 39.1189 166.987 38.8505 165.526 38.5691H165.524C164.247 38.331 163.098 38.0966 162.289 37.6975C161.48 37.2984 161.017 36.7726 161.017 35.8655C161.017 34.7137 161.668 34.0087 162.561 33.5599C163.453 33.1114 164.581 32.9481 165.45 32.9479C166.299 32.9586 167.153 33.0301 167.921 33.3099C168.69 33.5898 169.375 34.0727 169.91 34.9315L169.992 35.0625L171.223 34.3348L171.13 34.1955C169.605 31.9191 167.635 31.5462 165.452 31.5462ZM149.18 31.5462C146.837 31.5462 144.832 32.335 143.419 33.7344C142.006 35.1334 141.19 37.1404 141.201 39.5481C141.201 41.6512 141.878 43.6248 143.219 45.0743C144.56 46.5238 146.565 47.4406 149.18 47.4406C151.473 47.4406 153.406 46.5518 155.012 44.9462L155.059 44.9008V38.9998H148.35V40.3355H153.636V44.3371C152.374 45.4706 150.749 46.0191 149.18 46.0191C147.007 46.0191 145.383 45.268 144.292 44.0854C143.202 42.9028 142.644 41.28 142.644 39.5263C142.634 37.806 143.187 36.1553 144.278 34.9374C145.37 33.7195 146.998 32.9257 149.18 32.9257C150.851 32.9257 152.655 33.5628 153.943 34.8296L154.061 34.9449L154.946 33.975L154.838 33.8675C153.27 32.3209 151.213 31.5462 149.18 31.5462ZM125.032 31.7635V31.9226V47.2468H126.519V35.0089L136.511 47.2468H137.199V31.7635H135.734V44.0213L125.764 31.7635H125.032ZM117.519 31.7635V47.2468H118.984V47.0873V31.7635H117.519ZM100.061 31.7635V47.2468H101.55V41.505V40.0825V36.8491V33.1645H106.893C108.111 33.1645 108.993 33.6051 109.578 34.2547C110.163 34.9042 110.449 35.7696 110.439 36.621V36.6235C110.428 37.6563 110.141 38.5143 109.55 39.1179C108.959 39.7216 108.055 40.0829 106.764 40.0829H104.264L105.458 41.5053L110.278 47.2472H111.263H112.248L107.27 41.3851C108.79 41.3138 109.992 40.8218 110.782 39.9998C111.632 39.1162 112.046 37.9151 112.035 36.645C112.024 35.4274 111.589 34.207 110.728 33.2897C109.867 32.3724 108.578 31.7639 106.893 31.7639L100.061 31.7635ZM83.3034 31.7635V47.2468H84.7903V42.0033H89.4602H90.1136C91.7999 42.0033 93.0832 41.3625 93.9354 40.3995C94.7877 39.4365 95.2116 38.1589 95.2116 36.8834C95.2116 35.608 94.7877 34.3304 93.9354 33.3674C93.0832 32.4044 91.7999 31.7635 90.1136 31.7635H83.3034ZM84.7903 33.1645H88.606H90.1136C91.3348 33.1645 92.2304 33.6288 92.8328 34.3249C93.4353 35.0211 93.7404 35.9563 93.7404 36.8942C93.7404 37.8321 93.4353 38.7677 92.8328 39.4639C92.2304 40.16 91.3348 40.6243 90.1136 40.6243H84.7903V33.1645ZM72.4321 31.5462C71.1652 31.5462 69.6861 31.7958 68.5131 32.4661C67.3411 33.1358 66.4786 34.2519 66.5109 35.9085V35.9104C66.5109 35.911 66.5109 35.911 66.5109 35.9122C66.5127 37.3613 67.2744 38.2695 68.3619 38.8439C69.4502 39.4188 70.8644 39.693 72.2511 39.9638C73.4965 40.2021 74.7375 40.448 75.6436 40.9011C76.5497 41.3542 77.116 41.9778 77.1057 43.0567V43.0585C77.1057 44.3433 76.4171 45.0774 75.4779 45.5261C74.5386 45.9749 73.349 46.1055 72.4321 46.1055C70.6206 46.1055 68.2884 45.2055 67.3965 43.4425L67.3246 43.3003L66.0018 43.9628L66.0737 44.1049C67.2795 46.4943 70.027 47.485 72.4321 47.485C73.7167 47.485 75.2338 47.2808 76.4511 46.6275C77.6684 45.9742 78.5815 44.8464 78.5926 43.0817V43.0799C78.5926 41.3951 77.7858 40.3748 76.6276 39.7469C75.4694 39.1189 73.967 38.8505 72.5057 38.5691C71.2288 38.331 70.0781 38.0966 69.2695 37.6975C68.4608 37.2984 67.9978 36.7726 67.9978 35.8655C67.9978 34.7137 68.6486 34.0087 69.541 33.5599C70.4329 33.1114 71.5618 32.9481 72.4305 32.9479C73.2789 32.9586 74.1328 33.0301 74.9018 33.3099C75.6707 33.5898 76.3559 34.0727 76.89 34.9315L76.9726 35.0625L78.2038 34.3348L78.11 34.1955C76.585 31.9191 74.6155 31.5462 72.4321 31.5462ZM159.486 8.35962L158.3 11.588H161.604H171.516V8.35962H159.486ZM158.3 15.6488V26.0146H171.516V22.7358H161.604V18.7511H171.163V15.6488H161.604H158.3ZM155.251 8.35983H151.518L146.171 22.1054L140.85 8.35983H137.117L144.456 26.0904H147.912L155.251 8.35983ZM126.372 8.35983V26.0147H138.781L137.651 22.9378H129.701V8.35983H126.372ZM109.465 8.35962L108.28 11.588H111.584H121.496V8.35962H109.465ZM108.28 15.6488V26.0146H121.496V22.7358H111.584V18.7511H121.143V15.6488H111.584H108.28ZM104.785 8.35983H101.052L97.0167 21.0966L92.6029 8.35983H90.4339L86.1463 21.0966L81.9847 8.35983H78.252L84.7339 26.0147H87.5587L89.7025 20.5165L91.5436 14.8921L93.41 20.4661L95.6043 26.0147H98.4291L104.785 8.35983ZM66.5636 26.0147H69.8929V11.3864H76.3384L75.2272 8.35983H60.1182V11.3864H66.5636V26.0147Z" fill="#1F1F1F"/>
<path d="M67.7304 51.2928V55.0156H66.9434V51.2928H67.7304Z" fill="#00DABB"/>
<path d="M72.7203 51.2928V55.0156H72.0405L70.4209 52.6725H70.3936V55.0156H69.6065V51.2928H70.2973L71.9042 53.6341H71.9369V51.2928H72.7203Z" fill="#00DABB"/>
<path d="M74.4574 51.9418V51.2928H77.5148V51.9418H76.3751V55.0156H75.5971V51.9418H74.4574Z" fill="#00DABB"/>
<path d="M79.2469 55.0156V51.2928H81.7554V51.9418H80.034V52.8288H81.6263V53.4778H80.034V54.3667H81.7626V55.0156H79.2469Z" fill="#00DABB"/>
<path d="M83.6096 55.0156V51.2928H84.3967V54.3667H85.9927V55.0156H83.6096Z" fill="#00DABB"/>
<path d="M87.7425 55.0156V51.2928H88.5296V54.3667H90.1256V55.0156H87.7425Z" fill="#00DABB"/>
<path d="M92.6624 51.2928V55.0156H91.8753V51.2928H92.6624Z" fill="#00DABB"/>
<path d="M97.007 52.4962C96.9815 52.4077 96.9458 52.3296 96.8997 52.2617C96.8537 52.1926 96.7973 52.1345 96.7307 52.0872C96.6653 52.0387 96.5901 52.0018 96.5053 51.9763C96.4217 51.9509 96.329 51.9381 96.2272 51.9381C96.0369 51.9381 95.8697 51.9854 95.7255 52.0799C95.5825 52.1745 95.471 52.312 95.391 52.4926C95.311 52.6719 95.271 52.8913 95.271 53.1506C95.271 53.4099 95.3104 53.6305 95.3892 53.8122C95.468 53.994 95.5794 54.1328 95.7237 54.2285C95.8679 54.323 96.0381 54.3703 96.2344 54.3703C96.4126 54.3703 96.5647 54.3388 96.6907 54.2758C96.8179 54.2115 96.9149 54.1213 96.9815 54.0049C97.0494 53.8886 97.0833 53.7511 97.0833 53.5923L97.2433 53.6159H96.2835V53.0233H97.8413V53.4923C97.8413 53.8195 97.7723 54.1007 97.6341 54.3358C97.496 54.5696 97.3057 54.7502 97.0633 54.8775C96.821 55.0035 96.5435 55.0665 96.2308 55.0665C95.8818 55.0665 95.5752 54.9895 95.311 54.8356C95.0468 54.6805 94.8408 54.4606 94.693 54.1758C94.5464 53.8898 94.473 53.5505 94.473 53.1579C94.473 52.8561 94.5167 52.5871 94.6039 52.3508C94.6924 52.1133 94.816 51.9121 94.9747 51.7473C95.1335 51.5825 95.3183 51.457 95.5292 51.371C95.74 51.285 95.9684 51.2419 96.2144 51.2419C96.4253 51.2419 96.6216 51.2728 96.8034 51.3346C96.9852 51.3952 97.1463 51.4813 97.2869 51.5928C97.4287 51.7043 97.5444 51.837 97.6341 51.9909C97.7238 52.1435 97.7814 52.312 97.8068 52.4962H97.007Z" fill="#00DABB"/>
<path d="M99.6611 55.0156V51.2928H102.17V51.9418H100.448V52.8288H102.041V53.4778H100.448V54.3667H102.177V55.0156H99.6611Z" fill="#00DABB"/>
<path d="M107.138 51.2928V55.0156H106.458L104.838 52.6725H104.811V55.0156H104.024V51.2928H104.715L106.321 53.6341H106.354V51.2928H107.138Z" fill="#00DABB"/>
<path d="M108.875 51.9418V51.2928H111.932V51.9418H110.792V55.0156H110.014V51.9418H108.875Z" fill="#00DABB"/>
<path d="M119.81 55.0156H118.491V51.2928H119.821C120.196 51.2928 120.518 51.3674 120.788 51.5164C121.059 51.6643 121.266 51.8769 121.412 52.1545C121.558 52.432 121.632 52.764 121.632 53.1506C121.632 53.5384 121.558 53.8716 121.412 54.1504C121.266 54.4291 121.057 54.643 120.785 54.792C120.513 54.9411 120.188 55.0156 119.81 55.0156ZM119.278 54.3412H119.778C120.01 54.3412 120.206 54.3 120.365 54.2176C120.525 54.134 120.645 54.0049 120.725 53.8304C120.806 53.6547 120.846 53.4281 120.846 53.1506C120.846 52.8755 120.806 52.6507 120.725 52.4762C120.645 52.3017 120.525 52.1732 120.367 52.0908C120.208 52.0084 120.012 51.9672 119.779 51.9672H119.278V54.3412Z" fill="#00DABB"/>
<path d="M123.875 55.0156H123.032L124.317 51.2928H125.331L126.614 55.0156H125.771L124.838 52.1435H124.809L123.875 55.0156ZM123.822 53.5523H125.815V54.1667H123.822V53.5523Z" fill="#00DABB"/>
<path d="M127.694 51.9418V51.2928H130.752V51.9418H129.612V55.0156H128.834V51.9418H127.694Z" fill="#00DABB"/>
<path d="M132.671 55.0156H131.827L133.112 51.2928H134.127L135.41 55.0156H134.566L133.634 52.1435H133.605L132.671 55.0156ZM132.618 53.5523H134.61V54.1667H132.618V53.5523Z" fill="#00DABB"/>
<path d="M143.932 52.3635C143.918 52.2169 143.856 52.103 143.745 52.0218C143.635 51.9406 143.485 51.9 143.296 51.9C143.168 51.9 143.059 51.9181 142.971 51.9545C142.882 51.9896 142.815 52.0387 142.767 52.1017C142.721 52.1648 142.698 52.2363 142.698 52.3162C142.696 52.3829 142.71 52.4411 142.74 52.4907C142.772 52.5404 142.815 52.5834 142.869 52.6198C142.924 52.6549 142.987 52.6858 143.058 52.7125C143.13 52.738 143.206 52.7598 143.287 52.7779L143.622 52.8579C143.784 52.8943 143.933 52.9428 144.069 53.0033C144.205 53.0639 144.322 53.1385 144.421 53.2269C144.521 53.3154 144.598 53.4196 144.652 53.5396C144.708 53.6596 144.737 53.7971 144.738 53.9522C144.737 54.18 144.678 54.3776 144.563 54.5448C144.449 54.7108 144.285 54.8399 144.069 54.932C143.854 55.0229 143.596 55.0683 143.293 55.0683C142.992 55.0683 142.73 55.0223 142.507 54.9302C142.286 54.8381 142.112 54.7017 141.987 54.5212C141.864 54.3394 141.799 54.1146 141.793 53.8468H142.555C142.563 53.9716 142.599 54.0758 142.662 54.1594C142.726 54.2418 142.812 54.3043 142.918 54.3467C143.026 54.3879 143.148 54.4085 143.284 54.4085C143.417 54.4085 143.533 54.3891 143.631 54.3503C143.73 54.3115 143.807 54.2576 143.862 54.1885C143.916 54.1194 143.943 54.0401 143.943 53.9504C143.943 53.8668 143.919 53.7965 143.869 53.7395C143.82 53.6826 143.749 53.6341 143.654 53.5941C143.561 53.5541 143.447 53.5178 143.311 53.4851L142.905 53.3833C142.592 53.3069 142.344 53.1875 142.162 53.0252C141.98 52.8628 141.89 52.644 141.891 52.369C141.89 52.1435 141.95 51.9466 142.071 51.7782C142.193 51.6097 142.361 51.4783 142.575 51.3837C142.788 51.2892 143.03 51.2419 143.302 51.2419C143.578 51.2419 143.819 51.2892 144.025 51.3837C144.232 51.4783 144.394 51.6097 144.509 51.7782C144.624 51.9466 144.683 52.1417 144.687 52.3635H143.932Z" fill="#00DABB"/>
<path d="M149.78 52.5962H148.984C148.97 52.4932 148.94 52.4017 148.895 52.3217C148.85 52.2405 148.793 52.1714 148.722 52.1145C148.652 52.0575 148.571 52.0139 148.479 51.9836C148.388 51.9533 148.289 51.9381 148.183 51.9381C147.99 51.9381 147.822 51.986 147.679 52.0817C147.536 52.1763 147.425 52.3144 147.346 52.4962C147.268 52.6768 147.228 52.8961 147.228 53.1542C147.228 53.4196 147.268 53.6426 147.346 53.8232C147.426 54.0037 147.538 54.1401 147.681 54.2322C147.824 54.3242 147.989 54.3703 148.177 54.3703C148.283 54.3703 148.38 54.3564 148.47 54.3285C148.561 54.3006 148.641 54.26 148.712 54.2067C148.782 54.1522 148.84 54.0861 148.886 54.0086C148.933 53.931 148.966 53.8425 148.984 53.7432L149.78 53.7468C149.76 53.9177 149.708 54.0825 149.626 54.2412C149.545 54.3988 149.435 54.54 149.297 54.6648C149.16 54.7884 148.996 54.8865 148.806 54.9593C148.617 55.0308 148.403 55.0665 148.164 55.0665C147.832 55.0665 147.535 54.9914 147.274 54.8411C147.013 54.6908 146.807 54.4733 146.656 54.1885C146.505 53.9037 146.43 53.559 146.43 53.1542C146.43 52.7483 146.507 52.4029 146.659 52.1181C146.812 51.8333 147.019 51.6164 147.281 51.4673C147.543 51.3171 147.837 51.2419 148.164 51.2419C148.38 51.2419 148.58 51.2722 148.764 51.3328C148.95 51.3934 149.114 51.4819 149.257 51.5982C149.4 51.7133 149.516 51.8545 149.606 52.0218C149.697 52.189 149.755 52.3805 149.78 52.5962Z" fill="#00DABB"/>
<path d="M152.36 51.2928V55.0156H151.573V51.2928H152.36Z" fill="#00DABB"/>
<path d="M154.236 55.0156V51.2928H156.745V51.9418H155.024V52.8288H156.616V53.4778H155.024V54.3667H156.752V55.0156H154.236Z" fill="#00DABB"/>
<path d="M161.713 51.2928V55.0156H161.033L159.414 52.6725H159.386V55.0156H158.599V51.2928H159.29L160.897 53.6341H160.93V51.2928H161.713Z" fill="#00DABB"/>
<path d="M166.877 52.5962H166.08C166.066 52.4932 166.036 52.4017 165.991 52.3217C165.946 52.2405 165.889 52.1714 165.819 52.1145C165.748 52.0575 165.667 52.0139 165.575 51.9836C165.484 51.9533 165.385 51.9381 165.279 51.9381C165.086 51.9381 164.918 51.986 164.775 52.0817C164.632 52.1763 164.521 52.3144 164.443 52.4962C164.364 52.6768 164.324 52.8961 164.324 53.1542C164.324 53.4196 164.364 53.6426 164.443 53.8232C164.523 54.0037 164.634 54.1401 164.777 54.2322C164.92 54.3242 165.085 54.3703 165.273 54.3703C165.379 54.3703 165.476 54.3564 165.566 54.3285C165.657 54.3006 165.737 54.26 165.808 54.2067C165.878 54.1522 165.936 54.0861 165.982 54.0086C166.029 53.931 166.062 53.8425 166.08 53.7432L166.877 53.7468C166.856 53.9177 166.804 54.0825 166.722 54.2412C166.641 54.3988 166.531 54.54 166.393 54.6648C166.256 54.7884 166.092 54.8865 165.902 54.9593C165.713 55.0308 165.499 55.0665 165.261 55.0665C164.929 55.0665 164.632 54.9914 164.37 54.8411C164.109 54.6908 163.903 54.4733 163.752 54.1885C163.602 53.9037 163.526 53.559 163.526 53.1542C163.526 52.7483 163.603 52.4029 163.755 52.1181C163.908 51.8333 164.115 51.6164 164.377 51.4673C164.639 51.3171 164.933 51.2419 165.261 51.2419C165.476 51.2419 165.676 51.2722 165.86 51.3328C166.046 51.3934 166.21 51.4819 166.353 51.5982C166.496 51.7133 166.612 51.8545 166.702 52.0218C166.793 52.189 166.851 52.3805 166.877 52.5962Z" fill="#00DABB"/>
<path d="M168.669 55.0156V51.2928H171.178V51.9418H169.457V52.8288H171.049V53.4778H169.457V54.3667H171.185V55.0156H168.669Z" fill="#00DABB"/>
<defs>
<linearGradient id="paint0_linear_1577_139" x1="0.54562" y1="45.5437" x2="52.7511" y2="0.663539" gradientUnits="userSpaceOnUse">
<stop stop-color="#00A1FF"/>
<stop offset="1" stop-color="#00FC92"/>
</linearGradient>
</defs>
</svg>
