
<svg id="Layer_1" width="37" height="37" enable-background="new 0 0 512 512" viewBox="0 0 512 512" xmlns="http://www.w3.org/2000/svg"><path fill="#00A1FF" clip-rule="evenodd" d="m498.874 163.516-19.984-7.692c-2.908-10.67-7.149-20.901-12.649-30.515l8.697-19.583c1.343-3.024.686-6.564-1.655-8.904l-27.539-27.538c-2.34-2.34-5.877-2.998-8.903-1.655l-19.589 8.7c-9.613-5.499-19.843-9.739-30.505-12.647l-7.694-19.989c-1.188-3.089-4.156-5.126-7.466-5.126h-38.945c-3.31 0-6.277 2.038-7.466 5.126l-7.695 19.99c-10.662 2.907-20.891 7.148-30.505 12.647l-19.589-8.7c-3.026-1.344-6.563-.686-8.904 1.655l-27.539 27.539c-2.34 2.34-2.997 5.879-1.654 8.904l8.7 19.586c-5.5 9.613-9.74 19.841-12.648 30.508l-19.987 7.694c-3.088 1.189-5.126 4.156-5.126 7.466v38.945c0 3.31 2.038 6.277 5.126 7.466l19.983 7.692c2.909 10.669 7.151 20.902 12.65 30.514l-8.698 19.582c-1.343 3.025-.686 6.564 1.654 8.904l27.539 27.539c2.341 2.34 5.879 2.998 8.904 1.655l19.59-8.701c9.614 5.5 19.843 9.74 30.505 12.647l7.694 19.989c1.188 3.089 4.156 5.126 7.466 5.126h38.945c3.31 0 6.277-2.038 7.466-5.126l7.692-19.984c10.669-2.908 20.9-7.149 30.515-12.649l19.582 8.697c3.023 1.344 6.562.686 8.904-1.654l27.538-27.539c2.34-2.34 2.997-5.879 1.654-8.904l-8.7-19.59c5.499-9.613 9.739-19.842 12.646-30.504l19.99-7.694c3.088-1.188 5.126-4.156 5.126-7.466v-38.945c0-3.31-2.038-6.278-5.126-7.466zm-10.874 40.918-18.719 7.205c-2.462.947-4.298 3.047-4.908 5.614-2.827 11.878-7.516 23.188-13.937 33.616-1.383 2.247-1.569 5.03-.499 7.441l8.147 18.346-19.77 19.771-18.339-8.145c-2.409-1.071-5.194-.885-7.442.499-10.427 6.421-21.739 11.111-33.624 13.939-2.566.611-4.667 2.447-5.614 4.909l-7.203 18.712h-27.959l-7.205-18.718c-.947-2.462-3.048-4.298-5.614-4.909-11.876-2.826-23.187-7.515-33.615-13.936-2.248-1.384-5.032-1.569-7.441-.5l-18.347 8.148-19.771-19.771 8.146-18.338c1.07-2.412.884-5.196-.5-7.443-6.42-10.424-11.109-21.737-13.939-33.625-.61-2.566-2.447-4.666-4.908-5.613l-18.712-7.203v-27.96l18.716-7.205c2.462-.948 4.298-3.048 4.908-5.614 2.828-11.882 7.517-23.192 13.938-33.617 1.384-2.247 1.57-5.031.5-7.443l-8.147-18.343 19.771-19.771 18.346 8.147c2.41 1.069 5.193.884 7.441-.5 10.429-6.42 21.738-11.109 33.616-13.936 2.565-.611 4.666-2.447 5.613-4.909l7.206-18.718h27.959l7.205 18.718c.947 2.462 3.048 4.298 5.613 4.909 11.878 2.827 23.188 7.516 33.616 13.936 2.248 1.384 5.032 1.569 7.441.5l18.346-8.148 19.771 19.771-8.145 18.339c-1.07 2.411-.884 5.196.5 7.442 6.421 10.425 11.11 21.738 13.938 33.624.61 2.566 2.446 4.667 4.908 5.614l18.713 7.205zm-135.887-96.339c-45.413 0-82.359 36.946-82.359 82.359s36.946 82.359 82.359 82.359c45.412 0 82.358-36.946 82.358-82.359s-36.946-82.359-82.358-82.359zm0 148.718c-36.591 0-66.359-29.769-66.359-66.359s29.769-66.359 66.359-66.359 66.358 29.769 66.358 66.359-29.768 66.359-66.358 66.359zm-320.245-84.462-4.991 11.238c-1.343 3.024-.686 6.564 1.654 8.904l17.653 17.653c2.341 2.34 5.878 2.998 8.904 1.655l11.243-4.994c5.573 3.065 11.445 5.5 17.541 7.272l4.416 11.472c1.188 3.088 4.156 5.126 7.466 5.126h24.966c3.31 0 6.277-2.038 7.466-5.126l4.414-11.467c6.1-1.774 11.976-4.209 17.548-7.275l11.237 4.991c3.022 1.344 6.563.687 8.904-1.654l17.653-17.654c2.34-2.34 2.997-5.879 1.654-8.904l-4.993-11.243c3.064-5.572 5.5-11.445 7.272-17.542l11.473-4.416c3.088-1.188 5.126-4.156 5.126-7.466v-24.965c0-3.31-2.038-6.277-5.126-7.466l-11.469-4.415c-1.772-6.098-4.209-11.973-7.274-17.547l4.991-11.238c1.343-3.024.686-6.564-1.654-8.904l-17.652-17.651c-2.341-2.34-5.878-2.997-8.904-1.655l-11.243 4.993c-5.572-3.064-11.445-5.5-17.541-7.272l-4.415-11.472c-1.188-3.088-4.156-5.126-7.466-5.126h-24.966c-3.31 0-6.277 2.038-7.466 5.126l-4.416 11.472c-6.095 1.773-11.969 4.208-17.541 7.273l-11.243-4.994c-3.026-1.342-6.563-.685-8.904 1.655l-17.654 17.654c-2.34 2.34-2.997 5.879-1.654 8.904l4.993 11.24c-3.065 5.572-5.5 11.445-7.274 17.543l-11.47 4.416c-3.088 1.189-5.126 4.157-5.126 7.466v24.965c0 3.31 2.038 6.277 5.126 7.466l11.468 4.414c1.774 6.1 4.21 11.976 7.274 17.548zm-7.868-48.9 10.157-3.91c2.462-.948 4.298-3.047 4.908-5.613 1.742-7.32 4.632-14.288 8.587-20.709 1.384-2.247 1.571-5.032.5-7.443l-4.423-9.957 9.885-9.885 9.959 4.423c2.41 1.069 5.193.884 7.441-.499 6.426-3.957 13.393-6.845 20.709-8.586 2.565-.611 4.666-2.447 5.613-4.909l3.911-10.159h13.979l3.91 10.159c.947 2.462 3.048 4.298 5.613 4.909 7.317 1.741 14.284 4.63 20.709 8.585 2.248 1.384 5.032 1.569 7.441.5l9.959-4.423 9.885 9.885-4.421 9.954c-1.07 2.411-.884 5.195.5 7.442 3.957 6.426 6.846 13.395 8.586 20.713.61 2.566 2.447 4.667 4.909 5.615l10.156 3.909v13.98l-10.159 3.91c-2.461.947-4.298 3.047-4.908 5.613-1.742 7.317-4.631 14.285-8.586 20.708-1.384 2.247-1.57 5.031-.5 7.442l4.423 9.958-9.885 9.886-9.954-4.421c-2.41-1.071-5.194-.885-7.442.5-6.422 3.956-13.391 6.845-20.713 8.587-2.566.611-4.667 2.447-5.614 4.909l-3.909 10.155h-13.979l-3.911-10.159c-.947-2.461-3.048-4.298-5.613-4.909-7.317-1.741-14.284-4.629-20.708-8.585-2.246-1.384-5.032-1.569-7.441-.5l-9.96 4.423-9.885-9.886 4.421-9.954c1.07-2.411.884-5.195-.5-7.442-3.955-6.423-6.844-13.392-8.587-20.714-.61-2.566-2.446-4.667-4.908-5.614l-10.155-3.908zm84.237 58.529c28.419 0 51.54-23.12 51.54-51.539s-23.121-51.541-51.54-51.541-51.54 23.121-51.54 51.541c0 28.419 23.121 51.539 51.54 51.539zm0-87.079c19.597 0 35.54 15.943 35.54 35.541 0 19.596-15.943 35.539-35.54 35.539s-35.54-15.943-35.54-35.539c0-19.598 15.944-35.541 35.54-35.541zm298.633 271.93-92.978 25.294c-4.093 1.113-8.095 1.672-12.088 1.672-.008 0-.017 0-.025 0 1.88-1.937 3.57-4.182 5.038-6.724 8.387-14.524 3.473-33.349-11.186-42.856-.303-.196-.618-.372-.944-.525-21.954-10.341-42.535-24.687-59.073-36.213-5.754-4.011-11.188-7.799-15.867-10.833-19.002-12.327-39.992-9.028-58.019-4.173l-68.521 18.45-2.816-10.881c-1.352-5.226-4.669-9.619-9.341-12.37-4.672-2.75-10.12-3.519-15.348-2.168l-25.988 6.725c-10.813 2.799-17.335 13.874-14.538 24.688l34.934 134.996c1.352 5.226 4.669 9.619 9.341 12.37 3.167 1.865 6.691 2.82 10.262 2.82 1.696 0 3.402-.216 5.085-.651l25.988-6.724c5.226-1.353 9.618-4.669 12.369-9.341s3.521-10.122 2.169-15.347l-3.45-13.332 14.92-3.998 95.394 55.076c10.368 5.987 21.417 9.012 32.634 9.012 6.188 0 12.429-.921 18.634-2.772l170.035-50.764c15.803-4.717 25.752-24.59 20.874-41.695-2.366-8.295-14.227-34.227-67.495-19.736zm-297.502 75.437c-.337.572-1.122 1.589-2.59 1.97l-25.989 6.725c-1.468.376-2.646-.129-3.22-.466-.572-.337-1.589-1.122-1.969-2.59l-34.933-135c-.578-2.235.822-4.612 3.057-5.19l25.988-6.725c.369-.096.72-.135 1.048-.135.975 0 1.744.349 2.173.601.572.337 1.589 1.122 1.969 2.589l34.933 135c.379 1.469-.13 2.648-.467 3.221zm339.546-29.339-170.036 50.764c-13.317 3.974-26.334 2.37-38.689-4.764l-98.265-56.733c-1.838-1.061-4.024-1.348-6.07-.799l-17.988 4.82-20.65-79.805 68.673-18.49c15.357-4.135 31.458-6.737 45.151 2.147 4.455 2.889 9.539 6.433 15.426 10.536 16.9 11.78 37.9 26.417 60.867 37.309 7.32 5.012 9.748 14.025 5.629 21.16-5.418 9.383-14.212 8.385-20.75 5.811-11.167-5.598-21.548-11.817-32.531-18.401-5.219-3.128-10.615-6.363-16.192-9.583-3.826-2.21-8.719-.899-10.929 2.928-2.209 3.827-.897 8.719 2.929 10.928 5.464 3.154 10.803 6.354 15.966 9.45 11.347 6.801 22.064 13.226 33.887 19.134.042.021.086.035.129.055.055.027.107.058.163.084l9.567 4.307c14.451 6.46 28.484 7.696 42.891 3.778l92.979-25.294c26.399-7.18 44.31-3.935 47.908 8.685 2.468 8.658-2.61 19.748-10.065 21.973zm-378.875-88.135c-.536 4.575-4.679 7.85-9.255 7.314-4.575-.536-7.849-4.68-7.313-9.255s4.679-7.85 9.254-7.314c4.576.536 7.85 4.68 7.314 9.255z" fill-rule="evenodd"/></svg>