<svg width="20" height="21" viewBox="0 0 20 21" fill="none" xmlns="http://www.w3.org/2000/svg">
<path d="M16.6663 6.33268V14.666C16.6663 17.9993 15.833 18.8327 12.4997 18.8327H7.49967C4.16634 18.8327 3.33301 17.9993 3.33301 14.666V6.33268C3.33301 2.99935 4.16634 2.16602 7.49967 2.16602H12.4997C15.833 2.16602 16.6663 2.99935 16.6663 6.33268Z" stroke="#00A1FF" stroke-linecap="round" stroke-linejoin="round"/>
<path opacity="0.4" d="M11.6663 5.08301H8.33301" stroke="#00A1FF" stroke-linecap="round" stroke-linejoin="round"/>
<path opacity="0.4" d="M9.99967 16.4163C10.713 16.4163 11.2913 15.838 11.2913 15.1247C11.2913 14.4113 10.713 13.833 9.99967 13.833C9.28631 13.833 8.70801 14.4113 8.70801 15.1247C8.70801 15.838 9.28631 16.4163 9.99967 16.4163Z" stroke="#00A1FF" stroke-linecap="round" stroke-linejoin="round"/>
</svg>
