<svg width="297" height="347" viewBox="0 0 297 347" fill="none" xmlns="http://www.w3.org/2000/svg">
<path fill-rule="evenodd" clip-rule="evenodd" d="M-57.7773 218.364C-56.2732 220.961 -54.0853 223.152 -51.4199 224.684L-34.7674 244.174C-34.814 245.616 -34.6496 247.054 -34.2805 248.437C-33.3156 252.054 -30.9776 255.3 -27.5041 257.297C-20.5572 261.29 -11.532 258.862 -7.50367 251.915C-3.47533 244.968 -5.87831 235.965 -12.8253 231.972C-17.629 229.211 -23.42 229.527 -27.8705 232.279L-44.528 212.796C-45.6743 212.137 -46.343 210.953 -46.3242 209.754L-20.5392 217.567C-20.5207 216.171 -19.8278 215.01 -18.7243 214.373L-96.7193 112.696L-54.8407 88.5172C-49.4671 85.415 -46.1788 79.6716 -46.14 73.5366L-45.7553 13.2512C-41.1404 10.7729 -37.9657 5.90743 -37.9551 0.360736C-37.94 -7.65212 -44.5334 -14.2269 -52.5638 -14.2119C-60.5942 -14.1967 -67.2063 -7.59394 -67.2215 0.418878C-67.2292 4.42527 -65.5894 8.0745 -62.9396 10.7184C-61.9291 11.7272 -60.7683 12.5857 -59.4998 13.2658L-59.8852 73.501C-59.8936 74.8369 -60.572 76.0098 -61.6894 76.6549L-103.353 100.709C-103.425 100.75 -103.497 100.791 -103.569 100.834C-104.695 101.484 -106.057 101.484 -107.18 100.838L-148.968 76.81C-150.092 76.1638 -150.763 75.0013 -150.761 73.7048L-150.659 16.4476C-150.651 12.6589 -153.725 9.59302 -157.522 9.60206C-161.314 9.61336 -164.39 12.6868 -164.398 16.4705L-35.8794 57.588C-35.891 63.7622 -32.5798 69.4974 -27.2269 72.5744L-119.131 109.819L-25.5738 202.511C-30.9611 205.622 -34.2002 211.368 -34.2807 217.442L-60.0644 209.632C-60.106 212.768 -59.2829 215.767 -57.7773 218.364ZM-25.4894 247.227C-25.6599 246.893 -25.7867 246.539 -25.8829 246.179C-26.2674 244.736 -26.0829 243.135 -25.2544 241.707C-23.5973 238.849 -20.0688 237.895 -17.2112 239.537C-14.3536 241.18 -13.4159 244.703 -15.0729 247.561C-16.73 250.418 -20.2607 251.374 -23.1183 249.731C-24.1898 249.115 -24.9924 248.236 -25.4894 247.227ZM118.48 309.37C119.074 310.337 119.899 311.139 120.884 311.706L179.018 345.118C182.3 346.999 186.499 345.866 188.402 342.588C190.303 339.307 189.187 335.122 185.909 333.233L131.235 301.803L132.066 189.685C132.076 188.34 132.755 187.175 133.87 186.531L175.757 162.347C176.883 161.697 178.234 161.693 179.358 162.339L183.014 164.444C183.04 164.46 183.054 164.491 183.082 164.509L221.17 186.395C222.273 187.045 222.952 188.193 222.949 189.477L222.94 194.004L222.847 242.212L222.843 244.102C218.235 246.584 215.065 251.448 215.055 256.988C215.047 260.995 216.694 264.637 219.344 267.281C221.993 269.925 225.645 271.568 229.66 271.56C237.69 271.545 244.309 264.95 244.325 256.937C244.335 251.397 241.186 246.543 236.59 244.077L236.592 242.194L236.596 242.179L236.681 193.976C236.684 192.679 237.364 191.5 238.49 190.85L288.238 162.128C289.369 161.475 290.73 161.473 291.833 162.111L332.7 185.747C333.842 186.407 334.513 187.573 334.513 188.863C334.407 244.787 334.513 188.865 334.402 247.493C334.397 251.275 337.462 254.337 341.252 254.335C345.048 254.33 348.134 251.256 348.144 247.469C348.255 188.841 348.146 244.764 348.252 188.84C348.264 182.66 344.948 176.953 339.624 173.873L299.13 150.458C299.808 148.598 300.674 146.786 300.677 144.753L300.769 99.1861C305.375 96.7032 308.544 91.8368 308.554 86.2986C308.57 78.2858 301.977 71.713 293.947 71.7281C285.917 71.7432 279.3 78.3377 279.284 86.3505C279.277 90.3571 280.921 94.0145 283.571 96.6584C284.586 97.6712 285.749 98.5339 287.022 99.216L286.934 144.782C286.932 146.079 286.251 147.258 285.125 147.908L235.377 176.63C234.251 177.28 232.888 177.281 231.764 176.635L228.096 174.528C228.073 174.519 228.066 174.484 228.042 174.473L189.959 152.575C188.861 151.925 188.182 150.782 188.184 149.502C188.97 110.093 188.981 70.7366 189.22 31.4399C193.828 28.9597 196.997 24.0985 197.007 18.5569C197.022 10.5441 190.437 3.96422 182.407 3.97937C174.377 3.99451 167.756 10.6022 167.741 18.6151C167.733 22.6214 169.382 26.2656 172.031 28.9096C173.044 29.9204 174.207 30.7806 175.477 31.4621C175.238 70.6981 175.216 109.882 174.439 148.997C172.554 149.358 170.619 149.495 168.909 150.482L127.019 174.667C121.644 177.771 118.359 183.513 118.314 189.639L117.46 305.742C117.452 307.024 117.807 308.28 118.48 309.37ZM-118.768 57.7394C-118.089 58.9776 -117.237 60.11 -116.243 61.1017C-113.594 63.7454 -109.942 65.3852 -105.926 65.3776C-97.8961 65.3624 -91.2791 58.7681 -91.2638 50.7552C-91.2533 45.2172 -94.4036 40.368 -99.0002 37.9027L-98.9166 -7.67342C-98.9141 -8.96989 -98.2325 -10.1469 -97.106 -10.7972L131.235 -22.6616L182.804 -18.549C184 -19.2394 185.37 -19.2036 186.201 -18.6848L171.403 -85.1512C174.615 -83.1489 178.855 -84.1307 180.876 -87.342C182.899 -90.5536 181.938 -94.7823 178.727 -96.7892L138.643 -121.801C133.138 -125.237 181.249 -33.4705 175.954 -30.4134L127.669 -2.53588L-103.956 -22.6616C-104.996 -22.0576 -105.86 -21.1925 -106.463 -20.1527C-110.083 -16.8989 -112.648 -12.6028 -112.657 -7.64711L-112.749 37.9251C-117.356 40.4055 -120.523 45.2662 -120.534 50.8071C-120.539 53.311 -119.898 55.6745 -118.768 57.7394ZM169.179 283.494C169.823 284.555 170.532 285.452 171.147 286.296C172.785 288.547 174.407 290.189 174.407 290.189C174.841 290.63 175.334 291.009 175.871 291.318C189.801 299.325 203.735 307.335 217.665 315.342C223.018 318.419 229.649 318.403 235.013 315.306L276.892 291.127C282.257 288.03 285.586 282.295 285.598 276.121L285.703 221.488C290.311 219.008 293.479 214.145 293.489 208.603C293.504 200.59 286.912 194.017 278.882 194.033C270.851 194.048 264.239 200.651 264.224 208.663C264.216 212.67 265.855 216.317 268.505 218.961C269.518 219.972 270.683 220.832 271.956 221.513L271.86 276.146C271.857 277.443 271.17 278.614 270.043 279.265L228.165 303.443C227.039 304.094 225.682 304.102 224.558 303.456C210.959 295.639 197.361 287.818 183.762 280.001C183.448 279.664 183.012 279.228 182.27 278.209C181.295 276.871 180.975 274.983 180.973 276.314L181.07 221.686C185.679 219.209 188.849 214.349 188.859 208.807C188.875 200.794 182.286 194.208 174.256 194.224C166.225 194.239 159.605 200.846 159.589 208.859C159.582 212.866 161.23 216.51 163.88 219.154C164.894 220.166 166.058 221.027 167.33 221.709L167.225 276.342C167.22 278.875 167.789 280.801 168.564 282.375C168.759 282.767 168.966 283.14 169.179 283.494ZM-110.799 54.0936C-111.428 53.1602 -111.791 52.0277 -111.789 50.7916C-111.783 47.4955 -109.192 44.9168 -105.889 44.9105C-102.585 44.9042 -100.006 47.4682 -100.012 50.7643C-100.019 54.0605 -102.608 56.6465 -105.911 56.6529C-107.563 56.6559 -109.032 56.013 -110.088 54.9583C-110.353 54.6946 -110.59 54.4047 -110.799 54.0936ZM169.324 212.146C168.698 211.21 168.34 210.075 168.343 208.839C168.349 205.543 170.933 202.968 174.236 202.962C177.54 202.955 180.122 205.529 180.115 208.825C180.109 212.121 177.515 214.699 174.212 214.705C172.56 214.708 171.092 214.065 170.034 213.011C169.77 212.747 169.532 212.458 169.324 212.146ZM224.79 260.271C224.161 259.338 223.798 258.206 223.8 256.97C223.807 253.673 226.397 251.095 229.7 251.089C233.004 251.082 235.588 253.655 235.582 256.951C235.575 260.247 232.983 262.827 229.679 262.833C228.028 262.836 226.558 262.191 225.501 261.136C225.236 260.873 224.999 260.583 224.79 260.271ZM-57.4908 3.70758C-58.1187 2.77382 -58.4829 1.64165 -58.4803 0.405643C-58.4741 -2.8905 -55.8863 -5.47884 -52.5829 -5.48504C-49.2797 -5.49129 -46.6976 -2.91769 -46.7038 0.378389C-46.71 3.67443 -49.2979 6.26284 -52.6013 6.26925C-54.2529 6.27215 -55.723 5.62703 -56.78 4.57242C-57.0443 4.30869 -57.2809 4.01862 -57.4908 3.70758ZM224.114 145.681C224.793 146.919 225.642 148.053 226.635 149.045C229.285 151.689 232.938 153.331 236.953 153.323C244.983 153.308 251.604 146.7 251.619 138.688C251.63 133.147 248.479 128.296 243.88 125.834L243.984 71.2045C243.987 69.9079 244.665 68.741 245.792 68.0907C259.752 60.0306 273.71 51.9723 287.67 43.9121C288.797 43.2618 290.156 43.2526 291.279 43.8987L333.073 67.9229C334.197 68.5689 334.873 69.74 334.871 71.0364L334.76 128.299C334.757 132.082 337.827 135.142 341.619 135.136C345.415 135.131 348.499 132.058 348.508 128.271L348.611 71.0102C348.623 64.836 345.318 59.1114 339.965 56.0344L298.169 32.0113C292.816 28.9341 286.185 28.9504 280.821 32.0477C266.86 40.1079 252.903 48.1661 238.942 56.2263C233.577 59.3235 230.248 65.0582 230.236 71.2324L230.139 125.864C225.532 128.344 222.365 133.207 222.355 138.748C222.35 141.251 222.987 143.614 224.114 145.681ZM232.081 142.036C231.456 141.1 231.096 139.966 231.098 138.73C231.104 135.434 233.693 132.848 236.997 132.842C240.3 132.835 242.872 135.412 242.866 138.708C242.86 142.004 240.274 144.591 236.971 144.597C235.319 144.6 233.849 143.955 232.792 142.901C232.528 142.637 232.289 142.348 232.081 142.036ZM273.951 211.952C273.325 211.016 272.965 209.882 272.968 208.646C272.974 205.35 275.563 202.764 278.866 202.757C282.17 202.751 284.75 205.323 284.744 208.619C284.738 211.915 282.15 214.503 278.847 214.509C277.195 214.513 275.718 213.871 274.662 212.816C274.397 212.553 274.159 212.263 273.951 211.952ZM177.479 21.902C176.854 20.9667 176.494 19.8322 176.496 18.5963C176.502 15.3002 179.09 12.7119 182.393 12.7057C185.697 12.6994 188.27 15.2779 188.264 18.574C188.258 21.8701 185.672 24.4572 182.369 24.4635C180.717 24.4665 179.247 23.8213 178.19 22.7668C177.926 22.503 177.687 22.2142 177.479 21.902ZM289.013 89.6533C288.388 88.718 288.03 87.5825 288.032 86.3463C288.038 83.0504 290.625 80.4653 293.929 80.4591C297.232 80.4529 299.808 83.0302 299.801 86.3263C299.795 89.6224 297.21 92.1953 293.906 92.2015C292.255 92.2046 290.781 91.5728 289.724 90.518C289.46 90.2543 289.222 89.9651 289.013 89.6533Z" fill="#232323"/>
</svg>
