
<svg width="37" height="37" viewBox="0 0 60 60"  xmlns="http://www.w3.org/2000/svg"><g id="Page-1" fill="none" fill-rule="evenodd"><g id="023---QA-Testing-Laptop" fill="rgb(0,0,0)" fill-rule="nonzero"><path fill="#00A1FF" id="Shape" d="m58 48v-36c-.0033061-2.76005315-2.2399468-4.99669388-5-5h-10.273c.019423-.55178617-.1901244-1.08705486-.579-1.479l-1.669-1.668c-.6732507-.67479811-1.7291675-.78068276-2.523-.253l-2.566 1.687c-.5313575-.26688314-1.082287-.49287122-1.648-.676l-.6-3c-.1856842-.93644266-1.0073255-1.61109306-1.962-1.611h-2.36c-.9530648.00000365-1.7737228.67251629-1.961 1.607l-.624 3.009c-.5647019.18557872-1.1143179.41425107-1.644.684l-2.546-1.7c-.7931224-.5292743-1.8495891-.42505076-2.524.249l-1.668 1.672c-.3898569.39137488-.5998835.92694262-.58 1.479h-10.273c-2.76005315.00330612-4.99669388 2.23994685-5 5v36c-1.1045695 0-2 .8954305-2 2v3c.00440864 3.8641657 3.13583434 6.9955914 7 7h46c3.8641657-.0044086 6.9955914-3.1358343 7-7v-3c0-1.1045695-.8954305-2-2-2zm-37.065-42.734 2.547 1.7c.6071743.39713717 1.3804148.43909891 2.027.11.4363822-.21916261.888263-.40599792 1.352-.559.6930421-.22387965 1.2119084-.80349692 1.358-1.517l.6-3h2.36l.6 3c.1477096.71159608.6662961 1.28899136 1.358 1.512.4639956.15317786.9161962.34000721 1.353.559.6461421.32955253 1.4193365.28757257 2.026-.11l2.547-1.7 1.669 1.669-1.7 2.547c-.3975461.6070402-.4395199 1.3805038-.11 2.027.2191626.4363822.4059979.888263.559 1.352.2227178.6955167.8035065 1.2166589 1.519 1.363l3 .6v2.36l-3 .6c-.7115961.1477096-1.2889914.6662961-1.512 1.358-.1531779.4639956-.3400072.9161962-.559 1.353-.3295525.6461421-.2875726 1.4193365.11 2.026l1.7 2.547-1.669 1.669-2.547-1.7c-.6075075-.3961192-1.3801936-.4380509-2.027-.11-.4363822.2191626-.888263.4059979-1.352.559-.6955167.2227178-1.2166589.8035065-1.363 1.519l-.6 3h-2.361l-.6-3c-.1477096-.7115961-.6662961-1.2889914-1.358-1.512-.4639956-.1531779-.9161962-.3400072-1.353-.559-.2870234-.1442854-.6037516-.2196153-.925-.22-.3911727-.0007885-.7738586.1140173-1.1.33l-2.547 1.7-1.669-1.669 1.7-2.547c.3975461-.6070402.4395199-1.3805038.11-2.027-.2191626-.4363822-.4059979-.888263-.559-1.352-.2227178-.6955167-.8035065-1.2166589-1.519-1.363l-3-.6v-2.361l3-.6c.7115961-.1477096 1.2889914-.6662961 1.512-1.358.1531779-.4639956.3400072-.9161962.559-1.353.3295525-.6461421.2875726-1.4193365-.11-2.026l-1.7-2.547zm-16.935 6.734c0-1.6568542 1.34314575-3 3-3h11.229l1.058 1.61c-.2668831.5313575-.4928712 1.082287-.676 1.648l-3 .6c-.9364427.1856842-1.6110931 1.0073255-1.611 1.962v2.36c.0000036.9530648.6725163 1.7737228 1.607 1.961l3.009.624c.1855787.5647019.4142511 1.1143179.684 1.644l-1.7 2.546c-.5292743.7931224-.4250508 1.8495891.249 2.524l1.669 1.668c.6737552.6741579 1.7296284.7792011 2.523.251l2.566-1.685c.5313575.2668831 1.082287.4928712 1.648.676l.6 3c.1859026.9375504 1.0091976 1.6125266 1.965 1.611h2.36c.9530648-.0000036 1.7737228-.6725163 1.961-1.607l.624-3.009c.5647019-.1855787 1.1143179-.4142511 1.644-.684l2.546 1.7c.7931224.5292743 1.8495891.4250508 2.524-.249l1.668-1.669c.6741579-.6737552.7792011-1.7296284.251-2.523l-1.685-2.569c.2668831-.5313575.4928712-1.082287.676-1.648l3-.6c.9364427-.1856842 1.6110931-1.0073255 1.611-1.962v-2.36c-.0000036-.9530648-.6725163-1.7737228-1.607-1.961l-3.009-.624c-.1855787-.5647019-.4142511-1.1143179-.684-1.644l1.061-1.591h11.239c1.6568542 0 3 1.3431458 3 3v36h-52zm17 38h18v1c0 1.1045695-.8954305 2-2 2h-14c-1.1045695 0-2-.8954305-2-2zm37 3c-.0033061 2.7600532-2.2399468 4.9966939-5 5h-46c-2.76005315-.0033061-4.99669388-2.2399468-5-5v-3h17v1c0 2.209139 1.790861 4 4 4h14c2.209139 0 4-1.790861 4-4v-1h17z"/><path fill="#00A1FF" id="Shape" d="m15 52h-3c-.5522847 0-1 .4477153-1 1s.4477153 1 1 1h3c.5522847 0 1-.4477153 1-1s-.4477153-1-1-1z"/><circle id="Oval" cx="6" cy="53" r="1"/><circle id="Oval" cx="9" cy="53" r="1"/><path fill="#00A1FF" id="Shape" d="m30 24c4.418278 0 8-3.581722 8-8s-3.581722-8-8-8-8 3.581722-8 8c.0049599 4.4162219 3.5837781 7.9950401 8 8zm0-14c3.3137085 0 6 2.6862915 6 6s-2.6862915 6-6 6-6-2.6862915-6-6c.0033074-3.3123376 2.6876624-5.9966926 6-6z"/><path fill="#00A1FF" id="Shape" d="m24 37c0-4.9705627-4.0294373-9-9-9s-9 4.0294373-9 9 4.0294373 9 9 9c4.9680501-.006061 8.993939-4.0319499 9-9zm-9 7c-3.8659932 0-7-3.1340068-7-7s3.1340068-7 7-7 7 3.1340068 7 7c-.0044086 3.8641657-3.1358343 6.9955914-7 7z"/><path fill="#00A1FF" id="Shape" d="m45 46c4.9705627 0 9-4.0294373 9-9s-4.0294373-9-9-9-9 4.0294373-9 9c.006061 4.9680501 4.0319499 8.993939 9 9zm0-16c3.8659932 0 7 3.1340068 7 7s-3.1340068 7-7 7-7-3.1340068-7-7c.0044086-3.8641657 3.1358343-6.9955914 7-7z"/><path fill="#00A1FF" id="Shape" d="m19.707 33.293c-.3904999-.3903819-1.0235001-.3903819-1.414 0l-5.293 5.293-1.293-1.293c-.3923789-.3789722-1.0160848-.3735524-1.4018186.0121814-.38573377.3857338-.39115361 1.0094397-.0121814 1.4018186l2 2c.3904999.3903819 1.0235001.3903819 1.414 0l6-6c.3903819-.3904999.3903819-1.0235001 0-1.414z"/><path fill="#00A1FF" id="Shape" d="m41.293 40.707c.3904999.3903819 1.0235001.3903819 1.414 0l2.293-2.293 2.293 2.293c.3923789.3789722 1.0160848.3735524 1.4018186-.0121814s.3911536-1.0094397.0121814-1.4018186l-2.293-2.293 2.293-2.293c.3789722-.3923789.3735524-1.0160848-.0121814-1.4018186s-1.0094397-.3911536-1.4018186-.0121814l-2.293 2.293-2.293-2.293c-.3923789-.3789722-1.0160848-.3735524-1.4018186.0121814s-.3911536 1.0094397-.0121814 1.4018186l2.293 2.293-2.293 2.293c-.3903819.3904999-.3903819 1.0235001 0 1.414z"/></g></g></svg>