<svg width="1004" height="600" viewBox="0 0 1004 600" fill="none" xmlns="http://www.w3.org/2000/svg">
<rect width="480" height="600" transform="translate(524)" fill="url(#paint0_linear_1577_1513)"/>
<g opacity="0.25" clip-path="url(#clip0_1577_1513)">
<path d="M985.944 132.028L713.19 82.6515L713.271 82.2079L986.024 131.585L985.944 132.028Z" fill="#E9E9E9"/>
<path d="M1012 159.605L1011.66 159.323L1178.85 -38.0127L1179.19 -37.7331L1012 159.605Z" fill="#E9E9E9"/>
<path d="M588.994 188.037L588.898 188.146L550.99 232.89L570.832 288.228L570.976 288.251L628.679 298.712L666.682 253.858L646.84 198.52L646.697 198.497L588.994 188.037ZM551.566 232.998L589.191 188.587L646.462 198.97L666.108 253.757L628.482 298.162L571.212 287.785L551.566 232.998Z" fill="#E9E9E9"/>
<path d="M759.997 64.5811L759.901 64.6902L721.993 109.435L741.836 164.772L741.979 164.795L799.682 175.255L799.777 175.147L837.686 130.402L817.843 75.0648L817.7 75.0412L759.997 64.5811ZM722.567 109.535L760.192 65.1243L817.464 75.5071L837.11 130.295L799.485 174.706L742.213 164.323L722.567 109.535Z" fill="#E9E9E9"/>
<path d="M712.25 81.5081L711.998 81.8072L673.931 126.736L693.938 182.531L694.322 182.602L752.265 193.103L790.583 147.876L770.576 92.081L770.192 92.0098L712.25 81.5081ZM675.466 127.015L712.777 82.9781L769.568 93.2727L789.05 147.603L751.74 191.639L694.948 181.346L675.466 127.015Z" fill="#FF75F9"/>
<path d="M885.087 113.278L884.992 113.387L847.083 158.131L866.926 213.468L867.069 213.492L924.772 223.953L962.776 179.099L942.933 123.761L942.791 123.738L885.087 113.278ZM847.658 158.231L885.282 113.821L942.554 124.204L962.199 178.991L924.575 223.403L867.303 213.019L847.658 158.231Z" fill="#E9E9E9"/>
<path d="M827.525 102.836L827.43 102.945L789.522 147.689L809.365 203.026L809.507 203.05L867.211 213.51L905.215 168.657L885.372 113.319L885.229 113.296L827.525 102.836ZM790.105 147.794L827.729 103.383L885.002 113.766L904.647 168.554L867.023 212.964L809.75 202.582L790.105 147.794Z" fill="#E9E9E9"/>
<path d="M579.065 160.349L578.813 160.649L540.747 205.577L560.753 261.371L619.08 271.944L657.399 226.717L637.392 170.922L637.007 170.851L579.065 160.349ZM542.282 205.856L579.592 161.82L636.384 172.114L655.865 226.444L618.553 270.474L561.761 260.18L542.282 205.856Z" fill="#00A1FF"/>
<path d="M521.669 150.37L521.574 150.478L483.665 195.223L503.507 250.561L503.651 250.584L561.354 261.044L599.358 216.191L579.516 160.853L579.372 160.83L521.669 150.37ZM484.239 195.324L521.864 150.913L579.136 161.296L598.782 216.083L561.157 260.494L503.885 250.111L484.239 195.324Z" fill="#E9E9E9"/>
<path d="M674.602 126.607L674.506 126.716L636.598 171.46L656.441 226.798L656.584 226.821L714.288 237.282L752.291 192.428L732.448 137.09L732.305 137.067L674.602 126.607ZM637.175 171.567L674.802 127.163L732.071 137.54L751.716 192.327L714.093 236.739L656.82 226.355L637.175 171.567Z" fill="#E9E9E9"/>
<path d="M694.347 181.673L694.251 181.782L656.343 226.526L676.186 281.864L676.329 281.887L734.033 292.347L772.036 247.494L752.193 192.156L752.051 192.133L694.347 181.673ZM656.918 226.626L694.542 182.216L751.814 192.599L771.459 247.386L733.836 291.797L676.563 281.414L656.918 226.626Z" fill="#E9E9E9"/>
<path d="M597.298 61.1105L597.203 61.2205L559.295 105.965L579.137 161.302L579.281 161.326L636.984 171.786L637.079 171.677L674.987 126.933L655.145 71.595L655.002 71.5715L597.298 61.1105ZM559.871 106.072L597.498 61.6673L654.768 72.0442L674.414 126.832L636.789 171.242L579.517 160.86L559.871 106.072Z" fill="#E9E9E9"/>
<path d="M768.295 -62.3431L768.2 -62.2343L730.298 -17.4913L750.141 37.8463L750.285 37.8696L807.988 48.3297L808.083 48.2209L845.991 3.47661L826.148 -51.861L826.006 -51.8846L768.295 -62.3431ZM730.875 -17.3839L768.5 -61.7955L825.772 -51.4119L845.418 3.37574L807.791 47.7797L750.521 37.4037L730.875 -17.3839Z" fill="#E9E9E9"/>
<path d="M835.623 -24.6666L835.528 -24.5578L797.62 20.1864L817.463 75.524L817.605 75.5476L875.308 86.0077L875.404 85.8986L913.312 41.1544L893.47 -14.1832L893.327 -14.2068L835.623 -24.6666ZM798.194 20.287L835.817 -24.1243L893.09 -13.7406L912.736 41.047L875.109 85.4518L817.84 75.0746L798.194 20.287Z" fill="#E9E9E9"/>
<path d="M873.265 -69.78L873.014 -69.4812L834.947 -24.5525L854.954 31.2425L855.338 31.3134L913.281 41.8151L913.533 41.516L951.599 -3.4124L931.592 -59.2074L931.208 -59.2783L873.265 -69.78ZM836.483 -24.2729L873.792 -68.31L930.585 -58.0157L950.066 -3.68555L912.756 40.351L855.964 30.0572L836.483 -24.2729Z" fill="#E9E9E9"/>
<path d="M998.528 -20.6212L998.433 -20.5124L960.525 24.2319L980.368 79.5694L980.51 79.593L1038.21 90.0531L1076.22 45.1998L1056.37 -10.1378L1056.23 -10.1611L998.528 -20.6212ZM961.099 24.3324L998.725 -20.072L1056 -9.69517L1075.64 45.0924L1038.02 89.5031L980.745 79.12L961.099 24.3324Z" fill="#E9E9E9"/>
<path d="M940.965 -31.0662L940.869 -30.9571L902.962 13.788L922.804 69.1256L922.948 69.1489L980.651 79.6089L980.746 79.5001L1018.65 34.7559L998.812 -20.5817L998.669 -20.6053L940.965 -31.0662ZM903.538 13.8954L941.165 -30.5094L998.434 -20.1322L1018.08 34.6553L980.456 79.0657L923.184 68.683L903.538 13.8954Z" fill="#E9E9E9"/>
<path d="M903.155 13.5777L903.059 13.6868L865.151 58.4311L884.994 113.769L885.137 113.792L942.841 124.252L980.844 79.3989L961.001 24.0614L960.859 24.0378L903.155 13.5777ZM865.725 58.5317L903.352 14.1269L960.622 24.504L980.267 79.2916L942.643 123.702L885.371 113.319L865.725 58.5317Z" fill="#E9E9E9"/>
<path d="M423.047 -124.667L422.952 -124.558L385.043 -79.8136L404.885 -24.476L405.029 -24.4527L462.732 -13.9926L462.828 -14.1017L500.736 -58.846L480.893 -114.184L480.75 -114.207L423.047 -124.667ZM385.619 -79.7062L423.244 -124.117L480.516 -113.734L500.162 -58.9465L462.535 -14.5418L405.265 -24.9186L385.619 -79.7062Z" fill="#E9E9E9"/>
<path d="M548.143 -75.9726L548.047 -75.8635L510.139 -31.1192L529.982 24.2183L530.125 24.2416L587.829 34.7017L587.924 34.5929L625.832 -10.1514L605.989 -65.4889L605.847 -65.5125L548.143 -75.9726ZM510.716 -31.0119L548.341 -75.4227L605.613 -65.0398L625.259 -10.2522L587.632 34.1526L530.362 23.7757L510.716 -31.0119Z" fill="#E9E9E9"/>
<path d="M490.583 -86.4105L490.487 -86.3014L452.579 -41.5563L472.422 13.7813L472.565 13.8046L530.268 24.2647L530.363 24.1559L568.272 -20.5884L548.429 -75.926L548.286 -75.9496L490.583 -86.4105ZM453.153 -41.4557L490.777 -85.8673L548.049 -75.4833L567.695 -20.6957L530.069 23.7079L472.799 13.3319L453.153 -41.4557Z" fill="#E9E9E9"/>
<path d="M605.606 -65.8086L605.51 -65.6995L567.602 -20.9552L587.445 34.3824L587.588 34.4057L645.292 44.8658L645.387 44.757L683.295 0.0127358L663.452 -55.3249L663.31 -55.3485L605.606 -65.8086ZM568.176 -20.8546L605.803 -65.2586L663.073 -54.8822L682.718 -0.0946319L645.092 44.3099L587.822 33.933L568.176 -20.8546Z" fill="#E9E9E9"/>
<path d="M710.948 -72.206L710.852 -72.0969L672.944 -27.3526L692.787 27.985L692.93 28.0083L750.633 38.4683L750.729 38.3595L788.637 -6.38474L768.794 -61.7223L768.651 -61.7459L710.948 -72.206ZM673.518 -27.252L711.143 -71.6628L768.415 -61.28L788.061 -6.49241L750.437 37.9192L693.164 27.5355L673.518 -27.252Z" fill="#E9E9E9"/>
<path d="M154.839 -122.227L154.588 -121.927L116.521 -76.9988L136.528 -21.2046L136.912 -21.1328L194.855 -10.6311L195.106 -10.931L233.173 -55.8594L213.166 -111.654L212.781 -111.725L154.839 -122.227ZM118.056 -76.7199L155.366 -120.756L212.157 -110.462L231.639 -56.1314L194.33 -12.0952L137.538 -22.3889L118.056 -76.7199Z" fill="#E9E9E9"/>
<path d="M327.678 -90.4559L327.582 -90.3467L289.674 -45.6017L309.517 9.73593L309.661 9.75923L367.364 20.2193L367.459 20.1105L405.367 -24.6338L385.524 -79.9714L385.382 -79.995L327.678 -90.4559ZM290.256 -45.5035L327.882 -89.9083L385.152 -79.5311L404.797 -24.7435L367.173 19.6669L309.901 9.28407L290.256 -45.5035Z" fill="#E9E9E9"/>
<path d="M270.121 -100.902L270.026 -100.794L232.118 -56.0484L251.96 -0.711684L252.103 -0.688086L309.806 9.77282L309.902 9.66371L347.81 -35.0814L327.968 -90.4181L327.824 -90.4414L270.121 -100.902ZM232.692 -55.9479L270.318 -100.352L327.588 -89.9755L347.236 -35.1819L309.612 9.22961L252.34 -1.15433L232.692 -55.9479Z" fill="#E9E9E9"/>
<path d="M117.029 -77.5832L116.778 -77.2842L78.7085 -32.3626L98.7154 23.4325L99.0997 23.5035L157.042 34.0051L157.294 33.7061L195.36 -11.2223L175.354 -67.0173L174.969 -67.0883L117.029 -77.5832ZM80.2442 -32.0827L117.554 -76.12L174.346 -65.8254L193.827 -11.4954L156.517 32.541L99.7258 22.2473L80.2442 -32.0827Z" fill="#E9E9E9"/>
<path d="M232.312 -56.2594L232.217 -56.1506L194.308 -11.4054L214.151 43.9322L214.294 43.9557L271.997 54.4157L272.093 54.3066L310.001 9.56237L290.159 -45.7752L290.015 -45.7985L232.312 -56.2594ZM194.882 -11.3048L232.509 -55.7094L289.779 -45.3326L309.425 9.45502L271.8 53.8657L214.528 43.4828L194.882 -11.3048Z" fill="#E9E9E9"/>
<path d="M252.054 -1.20136L251.959 -1.09172L214.05 43.6527L233.893 98.9903L234.036 99.0138L291.739 109.474L291.835 109.365L329.744 64.6205L309.901 9.28284L309.757 9.25955L252.054 -1.20136ZM214.627 43.7601L252.253 -0.644576L309.524 9.73227L329.169 64.5199L291.542 108.924L234.273 98.5477L214.627 43.7601Z" fill="#E9E9E9"/>
<path d="M329.36 64.3026L329.265 64.4114L291.357 109.156L311.2 164.493L311.342 164.517L369.046 174.977L369.142 174.868L407.05 130.124L387.207 74.786L387.064 74.7627L329.36 64.3026ZM291.934 109.263L329.56 64.8585L386.83 75.2354L406.475 130.023L368.851 174.434L311.579 164.051L291.934 109.263Z" fill="#E9E9E9"/>
<path d="M422.882 -125.124L422.63 -124.825L384.564 -79.8968L404.571 -24.1017L404.955 -24.0308L462.898 -13.5291L463.15 -13.8282L501.216 -58.7566L481.209 -114.552L480.825 -114.623L422.882 -125.124ZM386.098 -79.6239L423.407 -123.66L480.198 -113.366L499.68 -59.0362L462.371 -14.9991L405.579 -25.2938L386.098 -79.6239Z" fill="#E9E9E9"/>
<path d="M385.235 -80.0263L385.14 -79.9175L347.232 -35.1733L367.075 20.1643L367.217 20.1879L424.921 30.6488L425.017 30.5397L462.925 -14.2054L443.082 -69.543L442.938 -69.5663L385.235 -80.0263ZM347.806 -35.0728L385.43 -79.4832L442.702 -69.1004L462.348 -14.3128L424.723 30.0988L367.452 19.7148L347.806 -35.0728Z" fill="#E9E9E9"/>
<path opacity="0.34" d="M404.815 -25.4242L404.564 -25.1245L366.498 19.8039L386.504 75.5981L386.888 75.6702L444.831 86.1719L445.082 85.8719L483.149 40.9435L463.142 -14.8507L462.758 -14.9227L404.815 -25.4242ZM368.03 20.0762L405.34 -23.9601L462.132 -13.6666L481.614 40.6644L444.303 84.701L387.512 74.4072L368.03 20.0762Z" fill="#FFAB0A"/>
<path d="M386.909 74.7276L386.813 74.8367L348.905 119.581L368.748 174.919L368.891 174.942L426.594 185.402L426.689 185.293L464.598 140.549L444.755 85.2113L444.612 85.1877L386.909 74.7276ZM349.482 119.688L387.108 75.2835L444.378 85.6607L464.023 140.448L426.4 184.859L369.127 174.476L349.482 119.688Z" fill="#FFAB0A"/>
<path d="M424.718 30.086L424.623 30.1948L386.715 74.9399L406.558 130.277L406.701 130.301L464.404 140.761L464.5 140.652L502.408 95.9069L482.565 40.5702L482.422 40.5469L424.718 30.086ZM387.29 75.0404L424.916 30.636L482.186 41.0128L501.831 95.8004L464.207 140.211L406.935 129.828L387.29 75.0404Z" fill="#E9E9E9"/>
<path d="M587.537 33.8865L587.441 33.9956L549.533 78.7407L569.375 134.077L569.519 134.102L627.222 144.562L627.317 144.453L665.225 99.7077L645.383 44.371L645.24 44.3474L587.537 33.8865ZM550.107 78.8412L587.734 34.4364L645.004 44.8133L664.65 99.6009L627.023 144.005L569.753 133.629L550.107 78.8412Z" fill="#E9E9E9"/>
<path d="M529.974 23.443L529.878 23.5521L491.97 68.2972L511.813 123.634L511.956 123.657L569.66 134.118L569.755 134.009L607.663 89.2643L587.82 33.9276L587.677 33.9031L529.974 23.443ZM492.547 68.4037L530.171 23.993L587.443 34.3761L607.088 89.1637L569.465 133.575L512.192 123.191L492.547 68.4037Z" fill="#E9E9E9"/>
<path d="M984.723 128.245C986.695 127.538 988.867 128.563 989.574 130.535C990.281 132.507 989.255 134.679 987.284 135.386C985.312 136.093 983.14 135.068 982.433 133.095C981.726 131.124 982.751 128.952 984.723 128.245Z" fill="#00A1FF"/>
<path d="M582.9 159.806C582.192 157.832 580.023 156.808 578.048 157.515C576.074 158.223 575.051 160.392 575.759 162.366C576.467 164.34 578.635 165.364 580.609 164.656C582.583 163.948 583.605 161.773 582.9 159.806Z" fill="#00A1FF"/>
<path d="M250.874 -4.49248C252.846 -5.19947 255.017 -4.17354 255.724 -2.20192C256.431 -0.230292 255.407 1.94184 253.435 2.64883C251.462 3.35612 249.291 2.33014 248.584 0.358517C247.877 -1.61311 248.902 -3.78519 250.874 -4.49248Z" fill="#00A1FF"/>
</g>
<path d="M729.286 99.383L729.033 99.6839L690.726 144.885L710.862 201.023L711.249 201.094L769.562 211.662L808.121 166.16L787.985 110.023L787.598 109.951L729.286 99.383ZM692.271 145.167L729.817 100.862L786.971 111.222L806.579 165.885L769.033 210.189L711.879 199.83L692.271 145.167Z" fill="white" fill-opacity="0.5"/>
<path d="M903.227 131.355L903.131 131.465L864.983 176.481L884.955 232.158L885.098 232.181L943.17 242.708L981.414 197.582L961.442 141.905L961.299 141.881L903.227 131.355ZM865.561 176.582L903.423 131.902L961.06 142.35L980.834 197.474L942.971 242.155L885.334 231.706L865.561 176.582Z" fill="#E9E9E9"/>
<path d="M595.257 178.7L595.004 179.002L556.697 224.204L576.833 280.34L635.532 290.98L674.093 245.477L653.956 189.341L653.569 189.269L595.257 178.7ZM558.241 224.485L595.788 180.18L652.941 190.539L672.549 245.203L635.002 289.501L577.847 279.142L558.241 224.485Z" fill="#00A1FF"/>
<path d="M556.7 373C556.7 371.627 557.007 370.4 557.62 369.32C558.247 368.227 559.093 367.38 560.16 366.78C561.24 366.167 562.447 365.86 563.78 365.86C565.34 365.86 566.707 366.26 567.88 367.06C569.053 367.86 569.873 368.967 570.34 370.38H567.12C566.8 369.713 566.347 369.213 565.76 368.88C565.187 368.547 564.52 368.38 563.76 368.38C562.947 368.38 562.22 368.573 561.58 368.96C560.953 369.333 560.46 369.867 560.1 370.56C559.753 371.253 559.58 372.067 559.58 373C559.58 373.92 559.753 374.733 560.1 375.44C560.46 376.133 560.953 376.673 561.58 377.06C562.22 377.433 562.947 377.62 563.76 377.62C564.52 377.62 565.187 377.453 565.76 377.12C566.347 376.773 566.8 376.267 567.12 375.6H570.34C569.873 377.027 569.053 378.14 567.88 378.94C566.72 379.727 565.353 380.12 563.78 380.12C562.447 380.12 561.24 379.82 560.16 379.22C559.093 378.607 558.247 377.76 557.62 376.68C557.007 375.6 556.7 374.373 556.7 373ZM580.812 380.14C579.505 380.14 578.305 379.833 577.212 379.22C576.118 378.607 575.252 377.76 574.612 376.68C573.972 375.587 573.652 374.353 573.652 372.98C573.652 371.62 573.972 370.4 574.612 369.32C575.252 368.227 576.118 367.373 577.212 366.76C578.305 366.147 579.505 365.84 580.812 365.84C582.132 365.84 583.332 366.147 584.412 366.76C585.505 367.373 586.365 368.227 586.992 369.32C587.632 370.4 587.952 371.62 587.952 372.98C587.952 374.353 587.632 375.587 586.992 376.68C586.365 377.76 585.505 378.607 584.412 379.22C583.318 379.833 582.118 380.14 580.812 380.14ZM580.812 377.64C581.652 377.64 582.392 377.453 583.032 377.08C583.672 376.693 584.172 376.147 584.532 375.44C584.892 374.733 585.072 373.913 585.072 372.98C585.072 372.047 584.892 371.233 584.532 370.54C584.172 369.833 583.672 369.293 583.032 368.92C582.392 368.547 581.652 368.36 580.812 368.36C579.972 368.36 579.225 368.547 578.572 368.92C577.932 369.293 577.432 369.833 577.072 370.54C576.712 371.233 576.532 372.047 576.532 372.98C576.532 373.913 576.712 374.733 577.072 375.44C577.432 376.147 577.932 376.693 578.572 377.08C579.225 377.453 579.972 377.64 580.812 377.64ZM603.575 380H600.775L594.435 370.42V380H591.635V366.02H594.435L600.775 375.62V366.02H603.575V380ZM617.442 366.04V368.3H613.722V380H610.922V368.3H607.202V366.04H617.442ZM629.645 377.34H624.085L623.165 380H620.225L625.245 366.02H628.505L633.525 380H630.565L629.645 377.34ZM628.885 375.1L626.865 369.26L624.845 375.1H628.885ZM636.321 373C636.321 371.627 636.628 370.4 637.241 369.32C637.868 368.227 638.714 367.38 639.781 366.78C640.861 366.167 642.068 365.86 643.401 365.86C644.961 365.86 646.328 366.26 647.501 367.06C648.674 367.86 649.494 368.967 649.961 370.38H646.741C646.421 369.713 645.968 369.213 645.381 368.88C644.808 368.547 644.141 368.38 643.381 368.38C642.568 368.38 641.841 368.573 641.201 368.96C640.574 369.333 640.081 369.867 639.721 370.56C639.374 371.253 639.201 372.067 639.201 373C639.201 373.92 639.374 374.733 639.721 375.44C640.081 376.133 640.574 376.673 641.201 377.06C641.841 377.433 642.568 377.62 643.381 377.62C644.141 377.62 644.808 377.453 645.381 377.12C645.968 376.773 646.421 376.267 646.741 375.6H649.961C649.494 377.027 648.674 378.14 647.501 378.94C646.341 379.727 644.974 380.12 643.401 380.12C642.068 380.12 640.861 379.82 639.781 379.22C638.714 378.607 637.868 377.76 637.241 376.68C636.628 375.6 636.321 374.373 636.321 373ZM663.453 366.04V368.3H659.733V380H656.933V368.3H653.213V366.04H663.453ZM676.221 366.04V374.68C676.221 375.627 676.468 376.353 676.961 376.86C677.455 377.353 678.148 377.6 679.041 377.6C679.948 377.6 680.648 377.353 681.141 376.86C681.635 376.353 681.881 375.627 681.881 374.68V366.04H684.701V374.66C684.701 375.847 684.441 376.853 683.921 377.68C683.415 378.493 682.728 379.107 681.861 379.52C681.008 379.933 680.055 380.14 679.001 380.14C677.961 380.14 677.015 379.933 676.161 379.52C675.321 379.107 674.655 378.493 674.161 377.68C673.668 376.853 673.421 375.847 673.421 374.66V366.04H676.221ZM693.827 380.14C692.853 380.14 691.973 379.973 691.187 379.64C690.413 379.307 689.8 378.827 689.347 378.2C688.893 377.573 688.66 376.833 688.647 375.98H691.647C691.687 376.553 691.887 377.007 692.247 377.34C692.62 377.673 693.127 377.84 693.767 377.84C694.42 377.84 694.933 377.687 695.307 377.38C695.68 377.06 695.867 376.647 695.867 376.14C695.867 375.727 695.74 375.387 695.487 375.12C695.233 374.853 694.913 374.647 694.527 374.5C694.153 374.34 693.633 374.167 692.967 373.98C692.06 373.713 691.32 373.453 690.747 373.2C690.187 372.933 689.7 372.54 689.287 372.02C688.887 371.487 688.687 370.78 688.687 369.9C688.687 369.073 688.893 368.353 689.307 367.74C689.72 367.127 690.3 366.66 691.047 366.34C691.793 366.007 692.647 365.84 693.607 365.84C695.047 365.84 696.213 366.193 697.107 366.9C698.013 367.593 698.513 368.567 698.607 369.82H695.527C695.5 369.34 695.293 368.947 694.907 368.64C694.533 368.32 694.033 368.16 693.407 368.16C692.86 368.16 692.42 368.3 692.087 368.58C691.767 368.86 691.607 369.267 691.607 369.8C691.607 370.173 691.727 370.487 691.967 370.74C692.22 370.98 692.527 371.18 692.887 371.34C693.26 371.487 693.78 371.66 694.447 371.86C695.353 372.127 696.093 372.393 696.667 372.66C697.24 372.927 697.733 373.327 698.147 373.86C698.56 374.393 698.767 375.093 698.767 375.96C698.767 376.707 698.573 377.4 698.187 378.04C697.8 378.68 697.233 379.193 696.487 379.58C695.74 379.953 694.853 380.14 693.827 380.14Z" fill="white"/>
<path d="M579.28 413.92V442H577.48V428.4H561.08V442H559.28V413.92H561.08V426.88H577.48V413.92H579.28ZM584.762 431.12C584.762 428.88 585.202 426.92 586.082 425.24C586.988 423.56 588.228 422.267 589.802 421.36C591.402 420.453 593.215 420 595.242 420C597.535 420 599.482 420.56 601.082 421.68C602.682 422.8 603.802 424.227 604.442 425.96V420.28H606.242V442H604.442V436.28C603.802 438.04 602.668 439.493 601.042 440.64C599.442 441.76 597.508 442.32 595.242 442.32C593.215 442.32 591.402 441.867 589.802 440.96C588.228 440.027 586.988 438.72 586.082 437.04C585.202 435.333 584.762 433.36 584.762 431.12ZM604.442 431.12C604.442 429.227 604.042 427.56 603.242 426.12C602.468 424.653 601.402 423.533 600.042 422.76C598.682 421.96 597.162 421.56 595.482 421.56C593.722 421.56 592.175 421.947 590.842 422.72C589.508 423.467 588.468 424.56 587.722 426C586.975 427.44 586.602 429.147 586.602 431.12C586.602 433.093 586.975 434.8 587.722 436.24C588.468 437.68 589.508 438.787 590.842 439.56C592.202 440.333 593.748 440.72 595.482 440.72C597.162 440.72 598.682 440.333 600.042 439.56C601.428 438.76 602.508 437.64 603.282 436.2C604.055 434.733 604.442 433.04 604.442 431.12ZM620.156 440.04L628.156 420.28H630.076L621.076 442H619.196L610.196 420.28H612.156L620.156 440.04ZM653.606 429.68C653.606 430.64 653.579 431.36 653.526 431.84H634.766C634.819 433.787 635.246 435.427 636.046 436.76C636.846 438.093 637.899 439.093 639.206 439.76C640.512 440.427 641.939 440.76 643.486 440.76C645.619 440.76 647.406 440.24 648.846 439.2C650.286 438.133 651.192 436.693 651.566 434.88H653.446C653.019 437.093 651.926 438.893 650.166 440.28C648.406 441.64 646.179 442.32 643.486 442.32C641.459 442.32 639.646 441.867 638.046 440.96C636.446 440.053 635.192 438.76 634.286 437.08C633.379 435.373 632.926 433.387 632.926 431.12C632.926 428.853 633.366 426.88 634.246 425.2C635.152 423.52 636.406 422.24 638.006 421.36C639.606 420.453 641.432 420 643.486 420C645.566 420 647.366 420.453 648.886 421.36C650.432 422.24 651.606 423.427 652.406 424.92C653.206 426.387 653.606 427.973 653.606 429.68ZM651.806 430.36C651.886 428.44 651.539 426.813 650.766 425.48C650.019 424.147 648.992 423.16 647.686 422.52C646.379 421.853 644.966 421.52 643.446 421.52C641.926 421.52 640.512 421.853 639.206 422.52C637.926 423.16 636.872 424.147 636.046 425.48C635.246 426.813 634.819 428.44 634.766 430.36H651.806ZM669.215 431.12C669.215 428.88 669.655 426.92 670.535 425.24C671.441 423.56 672.681 422.267 674.255 421.36C675.855 420.453 677.668 420 679.695 420C681.988 420 683.935 420.56 685.535 421.68C687.161 422.8 688.281 424.227 688.895 425.96V420.28H690.695V452.24H688.895V436.32C688.281 438.053 687.161 439.493 685.535 440.64C683.908 441.76 681.948 442.32 679.655 442.32C677.655 442.32 675.855 441.867 674.255 440.96C672.681 440.027 671.441 438.72 670.535 437.04C669.655 435.333 669.215 433.36 669.215 431.12ZM688.895 431.12C688.895 429.227 688.495 427.56 687.695 426.12C686.921 424.653 685.855 423.533 684.495 422.76C683.135 421.96 681.615 421.56 679.935 421.56C678.175 421.56 676.628 421.947 675.295 422.72C673.961 423.467 672.921 424.56 672.175 426C671.428 427.44 671.055 429.147 671.055 431.12C671.055 433.093 671.428 434.8 672.175 436.24C672.921 437.68 673.961 438.787 675.295 439.56C676.655 440.333 678.201 440.72 679.935 440.72C681.615 440.72 683.135 440.333 684.495 439.56C685.881 438.76 686.961 437.64 687.735 436.2C688.508 434.733 688.895 433.04 688.895 431.12ZM715.609 420.28V442H713.809V437.28C713.195 438.933 712.169 440.2 710.729 441.08C709.315 441.933 707.689 442.36 705.849 442.36C703.262 442.36 701.142 441.573 699.489 440C697.862 438.4 697.049 436.04 697.049 432.92V420.28H698.809V432.8C698.809 435.387 699.462 437.373 700.769 438.76C702.075 440.12 703.849 440.8 706.089 440.8C708.435 440.8 710.302 440.053 711.689 438.56C713.102 437.067 713.809 434.853 713.809 431.92V420.28H715.609ZM741.731 429.68C741.731 430.64 741.704 431.36 741.651 431.84H722.891C722.944 433.787 723.371 435.427 724.171 436.76C724.971 438.093 726.024 439.093 727.331 439.76C728.637 440.427 730.064 440.76 731.611 440.76C733.744 440.76 735.531 440.24 736.971 439.2C738.411 438.133 739.317 436.693 739.691 434.88H741.571C741.144 437.093 740.051 438.893 738.291 440.28C736.531 441.64 734.304 442.32 731.611 442.32C729.584 442.32 727.771 441.867 726.171 440.96C724.571 440.053 723.317 438.76 722.411 437.08C721.504 435.373 721.051 433.387 721.051 431.12C721.051 428.853 721.491 426.88 722.371 425.2C723.277 423.52 724.531 422.24 726.131 421.36C727.731 420.453 729.557 420 731.611 420C733.691 420 735.491 420.453 737.011 421.36C738.557 422.24 739.731 423.427 740.531 424.92C741.331 426.387 741.731 427.973 741.731 429.68ZM739.931 430.36C740.011 428.44 739.664 426.813 738.891 425.48C738.144 424.147 737.117 423.16 735.811 422.52C734.504 421.853 733.091 421.52 731.571 421.52C730.051 421.52 728.637 421.853 727.331 422.52C726.051 423.16 724.997 424.147 724.171 425.48C723.371 426.813 722.944 428.44 722.891 430.36H739.931ZM754.411 442.32C751.984 442.32 749.997 441.787 748.451 440.72C746.931 439.653 746.077 438.133 745.891 436.16H747.731C747.864 437.573 748.504 438.693 749.651 439.52C750.824 440.347 752.411 440.76 754.411 440.76C756.064 440.76 757.371 440.347 758.331 439.52C759.317 438.667 759.811 437.627 759.811 436.4C759.811 435.547 759.544 434.853 759.011 434.32C758.504 433.76 757.864 433.333 757.091 433.04C756.317 432.747 755.264 432.427 753.931 432.08C752.331 431.653 751.037 431.24 750.051 430.84C749.064 430.413 748.224 429.787 747.531 428.96C746.837 428.133 746.491 427.027 746.491 425.64C746.491 424.627 746.797 423.693 747.411 422.84C748.024 421.96 748.877 421.267 749.971 420.76C751.064 420.253 752.304 420 753.691 420C755.957 420 757.784 420.573 759.171 421.72C760.584 422.84 761.344 424.4 761.451 426.4H759.651C759.571 424.96 759.011 423.787 757.971 422.88C756.931 421.973 755.491 421.52 753.651 421.52C752.104 421.52 750.824 421.92 749.811 422.72C748.797 423.52 748.291 424.493 748.291 425.64C748.291 426.653 748.571 427.48 749.131 428.12C749.717 428.733 750.424 429.213 751.251 429.56C752.104 429.88 753.224 430.227 754.611 430.6C756.131 431 757.344 431.4 758.251 431.8C759.184 432.173 759.971 432.733 760.611 433.48C761.251 434.2 761.571 435.173 761.571 436.4C761.571 437.52 761.264 438.533 760.651 439.44C760.037 440.347 759.184 441.053 758.091 441.56C756.997 442.067 755.771 442.32 754.411 442.32ZM769.733 421.84V436.2C769.733 437.8 770.027 438.907 770.613 439.52C771.2 440.107 772.24 440.4 773.733 440.4H776.173V442H773.453C771.56 442 770.16 441.56 769.253 440.68C768.373 439.773 767.933 438.28 767.933 436.2V421.84H764.653V420.28H767.933V414.76H769.733V420.28H776.173V421.84H769.733ZM781.841 415.44C781.414 415.44 781.054 415.307 780.761 415.04C780.467 414.747 780.321 414.36 780.321 413.88C780.321 413.427 780.467 413.053 780.761 412.76C781.054 412.467 781.414 412.32 781.841 412.32C782.267 412.32 782.627 412.467 782.921 412.76C783.214 413.053 783.361 413.427 783.361 413.88C783.361 414.36 783.214 414.747 782.921 415.04C782.627 415.307 782.267 415.44 781.841 415.44ZM782.721 420.28V442H780.921V420.28H782.721ZM798.879 442.32C796.852 442.32 795.026 441.867 793.399 440.96C791.772 440.053 790.492 438.76 789.559 437.08C788.652 435.373 788.199 433.387 788.199 431.12C788.199 428.88 788.666 426.92 789.599 425.24C790.532 423.533 791.812 422.24 793.439 421.36C795.092 420.453 796.932 420 798.959 420C800.986 420 802.812 420.453 804.439 421.36C806.066 422.24 807.332 423.52 808.239 425.2C809.172 426.88 809.639 428.853 809.639 431.12C809.639 433.387 809.172 435.373 808.239 437.08C807.306 438.76 806.012 440.053 804.359 440.96C802.732 441.867 800.906 442.32 798.879 442.32ZM798.879 440.72C800.452 440.72 801.919 440.373 803.279 439.68C804.666 438.96 805.772 437.88 806.599 436.44C807.426 435 807.839 433.227 807.839 431.12C807.839 429.04 807.426 427.28 806.599 425.84C805.772 424.4 804.679 423.333 803.319 422.64C801.959 421.92 800.492 421.56 798.919 421.56C797.346 421.56 795.879 421.92 794.519 422.64C793.186 423.333 792.106 424.4 791.279 425.84C790.452 427.28 790.039 429.04 790.039 431.12C790.039 433.227 790.439 435 791.239 436.44C792.066 437.88 793.146 438.96 794.479 439.68C795.839 440.373 797.306 440.72 798.879 440.72ZM824.9 419.84C827.487 419.84 829.594 420.64 831.22 422.24C832.847 423.813 833.66 426.16 833.66 429.28V442H831.9V429.4C831.9 426.813 831.247 424.84 829.94 423.48C828.634 422.093 826.86 421.4 824.62 421.4C822.274 421.4 820.394 422.147 818.98 423.64C817.594 425.133 816.9 427.347 816.9 430.28V442H815.1V420.28H816.9V424.88C817.514 423.253 818.527 422.013 819.94 421.16C821.38 420.28 823.034 419.84 824.9 419.84ZM847.262 442.32C844.836 442.32 842.849 441.787 841.302 440.72C839.782 439.653 838.929 438.133 838.742 436.16H840.582C840.716 437.573 841.356 438.693 842.502 439.52C843.676 440.347 845.262 440.76 847.262 440.76C848.916 440.76 850.222 440.347 851.182 439.52C852.169 438.667 852.662 437.627 852.662 436.4C852.662 435.547 852.396 434.853 851.862 434.32C851.356 433.76 850.716 433.333 849.942 433.04C849.169 432.747 848.116 432.427 846.782 432.08C845.182 431.653 843.889 431.24 842.902 430.84C841.916 430.413 841.076 429.787 840.382 428.96C839.689 428.133 839.342 427.027 839.342 425.64C839.342 424.627 839.649 423.693 840.262 422.84C840.876 421.96 841.729 421.267 842.822 420.76C843.916 420.253 845.156 420 846.542 420C848.809 420 850.636 420.573 852.022 421.72C853.436 422.84 854.196 424.4 854.302 426.4H852.502C852.422 424.96 851.862 423.787 850.822 422.88C849.782 421.973 848.342 421.52 846.502 421.52C844.956 421.52 843.676 421.92 842.662 422.72C841.649 423.52 841.142 424.493 841.142 425.64C841.142 426.653 841.422 427.48 841.982 428.12C842.569 428.733 843.276 429.213 844.102 429.56C844.956 429.88 846.076 430.227 847.462 430.6C848.982 431 850.196 431.4 851.102 431.8C852.036 432.173 852.822 432.733 853.462 433.48C854.102 434.2 854.422 435.173 854.422 436.4C854.422 437.52 854.116 438.533 853.502 439.44C852.889 440.347 852.036 441.053 850.942 441.56C849.849 442.067 848.622 442.32 847.262 442.32ZM866.265 413.64C867.918 413.64 869.385 413.973 870.665 414.64C871.972 415.307 872.985 416.24 873.705 417.44C874.452 418.64 874.825 420.04 874.825 421.64C874.825 427.267 871.425 430.107 864.625 430.16L864.545 435.28H863.025L862.905 428.8H863.705C866.558 428.8 868.838 428.307 870.545 427.32C872.252 426.333 873.105 424.44 873.105 421.64C873.105 419.667 872.478 418.093 871.225 416.92C869.972 415.747 868.332 415.16 866.305 415.16C864.252 415.16 862.612 415.72 861.385 416.84C860.185 417.96 859.585 419.467 859.585 421.36H857.865C857.865 419.787 858.225 418.413 858.945 417.24C859.665 416.067 860.665 415.173 861.945 414.56C863.225 413.947 864.665 413.64 866.265 413.64ZM863.785 442.12C863.332 442.12 862.958 441.973 862.665 441.68C862.372 441.387 862.225 441.013 862.225 440.56C862.225 440.107 862.372 439.733 862.665 439.44C862.958 439.147 863.332 439 863.785 439C864.212 439 864.572 439.147 864.865 439.44C865.158 439.733 865.305 440.107 865.305 440.56C865.305 441.013 865.158 441.387 864.865 441.68C864.572 441.973 864.212 442.12 863.785 442.12ZM579.12 478.2C578.4 476.813 577.4 475.773 576.12 475.08C574.84 474.36 573.36 474 571.68 474C569.84 474 568.2 474.413 566.76 475.24C565.32 476.067 564.187 477.24 563.36 478.76C562.56 480.28 562.16 482.04 562.16 484.04C562.16 486.04 562.56 487.813 563.36 489.36C564.187 490.88 565.32 492.053 566.76 492.88C568.2 493.707 569.84 494.12 571.68 494.12C574.16 494.12 576.173 493.427 577.72 492.04C579.267 490.653 580.213 488.773 580.56 486.4H570.12V482.76H585.44V486.32C585.147 488.48 584.373 490.467 583.12 492.28C581.893 494.093 580.28 495.547 578.28 496.64C576.307 497.707 574.107 498.24 571.68 498.24C569.067 498.24 566.68 497.64 564.52 496.44C562.36 495.213 560.64 493.52 559.36 491.36C558.107 489.2 557.48 486.76 557.48 484.04C557.48 481.32 558.107 478.88 559.36 476.72C560.64 474.56 562.36 472.88 564.52 471.68C566.707 470.453 569.093 469.84 571.68 469.84C574.64 469.84 577.267 470.573 579.56 472.04C581.88 473.48 583.56 475.533 584.6 478.2H579.12ZM610.138 486.44C610.138 487.267 610.084 488.013 609.978 488.68H593.138C593.271 490.44 593.924 491.853 595.098 492.92C596.271 493.987 597.711 494.52 599.418 494.52C601.871 494.52 603.604 493.493 604.618 491.44H609.537C608.871 493.467 607.658 495.133 605.898 496.44C604.164 497.72 602.004 498.36 599.418 498.36C597.311 498.36 595.418 497.893 593.738 496.96C592.084 496 590.778 494.667 589.818 492.96C588.884 491.227 588.418 489.227 588.418 486.96C588.418 484.693 588.871 482.707 589.778 481C590.711 479.267 592.004 477.933 593.658 477C595.338 476.067 597.258 475.6 599.418 475.6C601.498 475.6 603.351 476.053 604.978 476.96C606.604 477.867 607.871 479.147 608.778 480.8C609.684 482.427 610.138 484.307 610.138 486.44ZM605.378 485C605.351 483.32 604.751 481.973 603.578 480.96C602.404 479.947 600.951 479.44 599.218 479.44C597.644 479.44 596.298 479.947 595.178 480.96C594.058 481.947 593.391 483.293 593.178 485H605.378ZM619.945 479.68V491.88C619.945 492.707 620.132 493.307 620.505 493.68C620.905 494.027 621.572 494.2 622.505 494.2H625.305V498H621.705C619.652 498 618.078 497.52 616.985 496.56C615.892 495.6 615.345 494.04 615.345 491.88V479.68H612.745V475.96H615.345V470.48H619.945V475.96H625.305V479.68H619.945ZM642.218 473.04C641.392 473.04 640.698 472.76 640.138 472.2C639.578 471.64 639.298 470.947 639.298 470.12C639.298 469.293 639.578 468.6 640.138 468.04C640.698 467.48 641.392 467.2 642.218 467.2C643.018 467.2 643.698 467.48 644.258 468.04C644.818 468.6 645.098 469.293 645.098 470.12C645.098 470.947 644.818 471.64 644.258 472.2C643.698 472.76 643.018 473.04 642.218 473.04ZM644.458 475.96V498H639.898V475.96H644.458ZM661.565 475.6C663.299 475.6 664.845 475.96 666.205 476.68C667.592 477.4 668.672 478.467 669.445 479.88C670.219 481.293 670.605 483 670.605 485V498H666.085V485.68C666.085 483.707 665.592 482.2 664.605 481.16C663.619 480.093 662.272 479.56 660.565 479.56C658.859 479.56 657.499 480.093 656.485 481.16C655.499 482.2 655.005 483.707 655.005 485.68V498H650.445V475.96H655.005V478.48C655.752 477.573 656.699 476.867 657.845 476.36C659.019 475.853 660.259 475.6 661.565 475.6ZM692.133 479.68V491.88C692.133 492.707 692.319 493.307 692.693 493.68C693.093 494.027 693.759 494.2 694.693 494.2H697.493V498H693.893C691.839 498 690.266 497.52 689.173 496.56C688.079 495.6 687.533 494.04 687.533 491.88V479.68H684.933V475.96H687.533V470.48H692.133V475.96H697.493V479.68H692.133ZM711.255 498.36C709.175 498.36 707.295 497.893 705.615 496.96C703.935 496 702.615 494.667 701.655 492.96C700.695 491.227 700.215 489.227 700.215 486.96C700.215 484.72 700.709 482.733 701.695 481C702.682 479.267 704.029 477.933 705.735 477C707.442 476.067 709.349 475.6 711.455 475.6C713.562 475.6 715.469 476.067 717.175 477C718.882 477.933 720.229 479.267 721.215 481C722.202 482.733 722.695 484.72 722.695 486.96C722.695 489.2 722.189 491.187 721.175 492.92C720.162 494.653 718.775 496 717.015 496.96C715.282 497.893 713.362 498.36 711.255 498.36ZM711.255 494.4C712.429 494.4 713.522 494.12 714.535 493.56C715.575 493 716.415 492.16 717.055 491.04C717.695 489.92 718.015 488.56 718.015 486.96C718.015 485.36 717.709 484.013 717.095 482.92C716.482 481.8 715.669 480.96 714.655 480.4C713.642 479.84 712.549 479.56 711.375 479.56C710.202 479.56 709.109 479.84 708.095 480.4C707.109 480.96 706.322 481.8 705.735 482.92C705.149 484.013 704.855 485.36 704.855 486.96C704.855 489.333 705.455 491.173 706.655 492.48C707.882 493.76 709.415 494.4 711.255 494.4ZM747.163 475.96V498H742.603V495.4C741.883 496.307 740.936 497.027 739.763 497.56C738.616 498.067 737.39 498.32 736.083 498.32C734.35 498.32 732.79 497.96 731.403 497.24C730.043 496.52 728.963 495.453 728.163 494.04C727.39 492.627 727.003 490.92 727.003 488.92V475.96H731.523V488.24C731.523 490.213 732.016 491.733 733.003 492.8C733.99 493.84 735.336 494.36 737.043 494.36C738.75 494.36 740.096 493.84 741.083 492.8C742.096 491.733 742.603 490.213 742.603 488.24V475.96H747.163ZM751.66 486.96C751.66 484.693 752.113 482.707 753.02 481C753.953 479.267 755.233 477.933 756.86 477C758.486 476.067 760.353 475.6 762.46 475.6C765.126 475.6 767.326 476.24 769.06 477.52C770.82 478.773 772.006 480.573 772.62 482.92H767.7C767.3 481.827 766.66 480.973 765.78 480.36C764.9 479.747 763.793 479.44 762.46 479.44C760.593 479.44 759.1 480.107 757.98 481.44C756.886 482.747 756.34 484.587 756.34 486.96C756.34 489.333 756.886 491.187 757.98 492.52C759.1 493.853 760.593 494.52 762.46 494.52C765.1 494.52 766.846 493.36 767.7 491.04H772.62C771.98 493.28 770.78 495.067 769.02 496.4C767.26 497.707 765.073 498.36 762.46 498.36C760.353 498.36 758.486 497.893 756.86 496.96C755.233 496 753.953 494.667 753.02 492.96C752.113 491.227 751.66 489.227 751.66 486.96ZM788.564 475.6C790.244 475.6 791.737 475.96 793.044 476.68C794.377 477.4 795.417 478.467 796.164 479.88C796.937 481.293 797.324 483 797.324 485V498H792.804V485.68C792.804 483.707 792.311 482.2 791.324 481.16C790.337 480.093 788.991 479.56 787.284 479.56C785.577 479.56 784.217 480.093 783.204 481.16C782.217 482.2 781.724 483.707 781.724 485.68V498H777.164V468.4H781.724V478.52C782.497 477.587 783.471 476.867 784.644 476.36C785.844 475.853 787.151 475.6 788.564 475.6ZM843.131 475.96L836.291 498H831.491L827.051 481.72L822.611 498H817.811L810.931 475.96H815.571L820.171 493.68L824.851 475.96H829.611L834.091 493.6L838.651 475.96H843.131ZM848.859 473.04C848.032 473.04 847.339 472.76 846.779 472.2C846.219 471.64 845.939 470.947 845.939 470.12C845.939 469.293 846.219 468.6 846.779 468.04C847.339 467.48 848.032 467.2 848.859 467.2C849.659 467.2 850.339 467.48 850.899 468.04C851.459 468.6 851.739 469.293 851.739 470.12C851.739 470.947 851.459 471.64 850.899 472.2C850.339 472.76 849.659 473.04 848.859 473.04ZM851.099 475.96V498H846.539V475.96H851.099ZM862.406 479.68V491.88C862.406 492.707 862.593 493.307 862.966 493.68C863.366 494.027 864.033 494.2 864.966 494.2H867.766V498H864.166C862.113 498 860.539 497.52 859.446 496.56C858.353 495.6 857.806 494.04 857.806 491.88V479.68H855.206V475.96H857.806V470.48H862.406V475.96H867.766V479.68H862.406ZM883.369 475.6C885.049 475.6 886.542 475.96 887.849 476.68C889.182 477.4 890.222 478.467 890.969 479.88C891.742 481.293 892.129 483 892.129 485V498H887.609V485.68C887.609 483.707 887.115 482.2 886.129 481.16C885.142 480.093 883.795 479.56 882.089 479.56C880.382 479.56 879.022 480.093 878.009 481.16C877.022 482.2 876.529 483.707 876.529 485.68V498H871.969V468.4H876.529V478.52C877.302 477.587 878.275 476.867 879.449 476.36C880.649 475.853 881.955 475.6 883.369 475.6ZM578.96 531.96V554H574.4V551.4C573.68 552.307 572.733 553.027 571.56 553.56C570.413 554.067 569.187 554.32 567.88 554.32C566.147 554.32 564.587 553.96 563.2 553.24C561.84 552.52 560.76 551.453 559.96 550.04C559.187 548.627 558.8 546.92 558.8 544.92V531.96H563.32V544.24C563.32 546.213 563.813 547.733 564.8 548.8C565.787 549.84 567.133 550.36 568.84 550.36C570.547 550.36 571.893 549.84 572.88 548.8C573.893 547.733 574.4 546.213 574.4 544.24V531.96H578.96ZM592.977 554.36C591.243 554.36 589.683 554.053 588.297 553.44C586.937 552.8 585.857 551.947 585.057 550.88C584.257 549.787 583.83 548.573 583.777 547.24H588.497C588.577 548.173 589.017 548.96 589.817 549.6C590.643 550.213 591.67 550.52 592.897 550.52C594.177 550.52 595.163 550.28 595.857 549.8C596.577 549.293 596.937 548.653 596.937 547.88C596.937 547.053 596.537 546.44 595.737 546.04C594.963 545.64 593.723 545.2 592.017 544.72C590.363 544.267 589.017 543.827 587.977 543.4C586.937 542.973 586.03 542.32 585.257 541.44C584.51 540.56 584.137 539.4 584.137 537.96C584.137 536.787 584.483 535.72 585.177 534.76C585.87 533.773 586.857 533 588.137 532.44C589.443 531.88 590.937 531.6 592.617 531.6C595.123 531.6 597.137 532.24 598.657 533.52C600.203 534.773 601.03 536.493 601.137 538.68H596.577C596.497 537.693 596.097 536.907 595.377 536.32C594.657 535.733 593.683 535.44 592.457 535.44C591.257 535.44 590.337 535.667 589.697 536.12C589.057 536.573 588.737 537.173 588.737 537.92C588.737 538.507 588.95 539 589.377 539.4C589.803 539.8 590.323 540.12 590.937 540.36C591.55 540.573 592.457 540.853 593.657 541.2C595.257 541.627 596.563 542.067 597.577 542.52C598.617 542.947 599.51 543.587 600.257 544.44C601.003 545.293 601.39 546.427 601.417 547.84C601.417 549.093 601.07 550.213 600.377 551.2C599.683 552.187 598.697 552.96 597.417 553.52C596.163 554.08 594.683 554.36 592.977 554.36ZM622.054 535.68V547.88C622.054 548.707 622.241 549.307 622.614 549.68C623.014 550.027 623.681 550.2 624.614 550.2H627.414V554H623.814C621.761 554 620.188 553.52 619.094 552.56C618.001 551.6 617.454 550.04 617.454 547.88V535.68H614.854V531.96H617.454V526.48H622.054V531.96H627.414V535.68H622.054ZM641.177 554.36C639.097 554.36 637.217 553.893 635.537 552.96C633.857 552 632.537 550.667 631.577 548.96C630.617 547.227 630.137 545.227 630.137 542.96C630.137 540.72 630.631 538.733 631.617 537C632.604 535.267 633.951 533.933 635.657 533C637.364 532.067 639.271 531.6 641.377 531.6C643.484 531.6 645.391 532.067 647.097 533C648.804 533.933 650.151 535.267 651.137 537C652.124 538.733 652.617 540.72 652.617 542.96C652.617 545.2 652.111 547.187 651.097 548.92C650.084 550.653 648.697 552 646.937 552.96C645.204 553.893 643.284 554.36 641.177 554.36ZM641.177 550.4C642.351 550.4 643.444 550.12 644.457 549.56C645.497 549 646.337 548.16 646.977 547.04C647.617 545.92 647.937 544.56 647.937 542.96C647.937 541.36 647.631 540.013 647.017 538.92C646.404 537.8 645.591 536.96 644.577 536.4C643.564 535.84 642.471 535.56 641.297 535.56C640.124 535.56 639.031 535.84 638.017 536.4C637.031 536.96 636.244 537.8 635.657 538.92C635.071 540.013 634.777 541.36 634.777 542.96C634.777 545.333 635.377 547.173 636.577 548.48C637.804 549.76 639.337 550.4 641.177 550.4ZM655.605 542.88C655.605 540.667 656.058 538.707 656.965 537C657.898 535.293 659.152 533.973 660.725 533.04C662.325 532.08 664.098 531.6 666.045 531.6C667.485 531.6 668.898 531.92 670.285 532.56C671.698 533.173 672.818 534 673.645 535.04V524.4H678.245V554H673.645V550.68C672.898 551.747 671.858 552.627 670.525 553.32C669.218 554.013 667.712 554.36 666.005 554.36C664.085 554.36 662.325 553.88 660.725 552.92C659.152 551.933 657.898 550.573 656.965 548.84C656.058 547.08 655.605 545.093 655.605 542.88ZM673.645 542.96C673.645 541.44 673.325 540.12 672.685 539C672.072 537.88 671.258 537.027 670.245 536.44C669.232 535.853 668.138 535.56 666.965 535.56C665.792 535.56 664.698 535.853 663.685 536.44C662.672 537 661.845 537.84 661.205 538.96C660.592 540.053 660.285 541.36 660.285 542.88C660.285 544.4 660.592 545.733 661.205 546.88C661.845 548.027 662.672 548.907 663.685 549.52C664.725 550.107 665.818 550.4 666.965 550.4C668.138 550.4 669.232 550.107 670.245 549.52C671.258 548.933 672.072 548.08 672.685 546.96C673.325 545.813 673.645 544.48 673.645 542.96ZM682.714 542.88C682.714 540.667 683.168 538.707 684.074 537C685.008 535.293 686.261 533.973 687.834 533.04C689.434 532.08 691.194 531.6 693.114 531.6C694.848 531.6 696.354 531.947 697.634 532.64C698.941 533.307 699.981 534.147 700.754 535.16V531.96H705.354V554H700.754V550.72C699.981 551.76 698.928 552.627 697.594 553.32C696.261 554.013 694.741 554.36 693.034 554.36C691.141 554.36 689.408 553.88 687.834 552.92C686.261 551.933 685.008 550.573 684.074 548.84C683.168 547.08 682.714 545.093 682.714 542.88ZM700.754 542.96C700.754 541.44 700.434 540.12 699.794 539C699.181 537.88 698.368 537.027 697.354 536.44C696.341 535.853 695.248 535.56 694.074 535.56C692.901 535.56 691.808 535.853 690.794 536.44C689.781 537 688.954 537.84 688.314 538.96C687.701 540.053 687.394 541.36 687.394 542.88C687.394 544.4 687.701 545.733 688.314 546.88C688.954 548.027 689.781 548.907 690.794 549.52C691.834 550.107 692.928 550.4 694.074 550.4C695.248 550.4 696.341 550.107 697.354 549.52C698.368 548.933 699.181 548.08 699.794 546.96C700.434 545.813 700.754 544.48 700.754 542.96ZM731.184 531.96L717.664 564.36H712.944L717.424 553.64L708.744 531.96H713.824L720.024 548.76L726.464 531.96H731.184ZM740.345 526.2L739.825 545.6H736.025L735.505 526.2H740.345ZM738.065 554.28C737.238 554.28 736.545 554 735.985 553.44C735.425 552.88 735.145 552.187 735.145 551.36C735.145 550.533 735.425 549.84 735.985 549.28C736.545 548.72 737.238 548.44 738.065 548.44C738.865 548.44 739.545 548.72 740.105 549.28C740.665 549.84 740.945 550.533 740.945 551.36C740.945 552.187 740.665 552.88 740.105 553.44C739.545 554 738.865 554.28 738.065 554.28Z" fill="white"/>
<defs>
<linearGradient id="paint0_linear_1577_1513" x1="240.39" y1="1062.1" x2="410.086" y2="-293.389" gradientUnits="userSpaceOnUse">
<stop stop-color="#00FC92" stop-opacity="0.25"/>
<stop offset="0.5" stop-color="#00A1FF"/>
</linearGradient>
<clipPath id="clip0_1577_1513">
<rect width="1298.4" height="728.545" fill="white" transform="matrix(0.941313 -0.337534 -0.337534 -0.941313 335.89 528.523)"/>
</clipPath>
</defs>
</svg>
