<svg width="196" height="135" viewBox="0 0 196 135" fill="none" xmlns="http://www.w3.org/2000/svg">
<g opacity="0.5">
<mask id="path-1-inside-1_1577_1512" fill="white">
<path fill-rule="evenodd" clip-rule="evenodd" d="M3.43076 303.326C5.82822 303.965 8.38836 303.966 10.8427 303.301L54.4583 291.486C55.274 292.358 56.21 293.103 57.2343 293.697C59.9121 295.249 63.1764 295.779 66.3749 294.912C72.7719 293.178 76.6323 286.468 74.9294 280.04C73.2267 273.612 66.5606 269.75 60.1636 271.484C55.7402 272.682 52.5378 276.262 51.5425 280.481L7.9274 292.302C6.87189 292.588 5.78889 292.287 5.09959 291.574L-21.8467 263.849C-22.6516 263.021 -22.9245 261.935 -22.6513 260.916L-9.68426 212.522L0.684822 173.824C2.01546 168.859 0.582969 163.569 -2.97909 159.955L-37.9799 124.437C-36.7285 120.282 -37.7144 115.573 -40.9493 112.32C-45.6225 107.62 -53.3211 107.635 -58.0098 112.35C-62.6983 117.065 -62.7079 124.806 -58.0348 129.505C-55.6983 131.855 -52.6068 133.031 -49.5119 133.025C-48.3314 133.024 -47.1507 132.846 -46.0113 132.501L-11.0402 167.99C-10.2645 168.777 -9.97603 169.861 -10.2527 170.893L-20.5685 209.392C-20.5875 209.459 -20.6053 209.525 -20.622 209.592C-20.9009 210.633 -21.6974 211.431 -22.7324 211.711L-61.2161 222.135C-62.2511 222.415 -63.3231 222.128 -64.0792 221.367L-97.476 187.788C-99.6854 185.566 -103.275 185.572 -105.491 187.803C-107.702 190.032 -107.706 193.634 -105.5 195.854L-72.1133 229.441C-68.5123 233.062 -63.2243 234.479 -58.2952 233.143L-24.4751 223.972L-33.589 257.986C-34.9229 262.964 -33.4599 268.226 -29.9578 271.829L-3.00946 299.555C-1.20104 301.415 1.03289 302.689 3.43076 303.326ZM61.6693 287.836C61.3745 287.74 61.0938 287.608 60.8268 287.453C59.7589 286.834 58.9316 285.789 58.5813 284.467C57.8809 281.823 59.3874 279.196 62.0187 278.483C64.6502 277.77 67.2572 279.283 67.9576 281.927C68.6582 284.571 67.151 287.199 64.5197 287.913C63.5329 288.18 62.55 288.136 61.6693 287.836ZM96.1851 279.535C97.0974 279.753 98.0491 279.738 98.9565 279.493L152.486 264.984C155.504 264.161 157.299 261.038 156.496 258.003C155.692 254.968 152.593 253.172 149.572 253.987L99.225 267.63L34.1984 201.506C33.4186 200.713 33.1346 199.633 33.4109 198.602L43.7821 159.896C44.0608 158.856 44.8482 158.062 45.8831 157.781L49.2518 156.871C49.2766 156.865 49.3031 156.875 49.3295 156.869L84.3978 147.36C85.423 147.094 86.4911 147.369 87.2395 148.121L89.8795 150.778L117.994 179.054L119.096 180.162C117.851 184.316 118.839 189.022 122.07 192.271C124.406 194.621 127.498 195.788 130.593 195.783C133.687 195.778 136.783 194.6 139.128 192.242C143.816 187.527 143.834 179.787 139.161 175.087C135.931 171.838 131.252 170.842 127.123 172.091L126.024 170.988L126.017 170.976L97.9008 142.707C97.1447 141.947 96.8537 140.858 97.1326 139.817L109.45 93.8481C109.73 92.8026 110.525 92.004 111.543 91.731L149.259 81.6174C150.313 81.3348 151.387 81.6241 152.14 82.3795C184.756 115.181 152.142 82.3806 186.334 116.767C188.541 118.985 192.123 118.981 194.339 116.758C196.557 114.531 196.566 110.923 194.358 108.7C160.166 74.313 192.78 107.115 160.164 74.3138C156.56 70.689 151.286 69.2915 146.372 70.6082L109.002 80.6323C108.312 79.1463 107.76 77.5785 106.574 76.3858L80.0023 49.6562C81.2458 45.5033 80.2557 40.7975 77.0258 37.5491C72.3526 32.8494 64.6558 32.865 59.9673 37.5801C55.2787 42.2952 55.2613 50.0337 59.9345 54.7335C62.2711 57.0835 65.3703 58.2607 68.4651 58.2555C69.6506 58.2536 70.8351 58.0771 71.9784 57.7302L98.552 84.4575C99.308 85.2179 99.599 86.3069 99.3201 87.3477L87.0027 133.317C86.7238 134.358 85.9267 135.157 84.8919 135.438L81.5153 136.354C81.4966 136.362 81.4721 136.346 81.4513 136.353L46.3794 145.853C45.3566 146.116 44.2918 145.844 43.5454 145.094C20.9777 121.562 -2.01274 98.5161 -24.8345 75.3706C-23.5881 71.218 -24.5751 66.5152 -27.8069 63.2647C-32.4802 58.5651 -40.1768 58.5722 -44.8654 63.2873C-49.5539 68.0025 -49.5656 75.7508 -44.8925 80.4507C-42.556 82.8005 -39.4624 83.9679 -36.3676 83.9629C-35.1844 83.961 -34.0018 83.7832 -32.8606 83.4379C-10.0742 106.548 12.8087 129.5 35.2101 152.854C34.3183 154.169 33.2665 155.384 32.8432 156.964L22.4713 195.672C21.1404 200.639 22.5741 205.926 26.1275 209.539L93.4687 278.009C94.2131 278.763 95.1552 279.291 96.1851 279.535ZM-54.6941 193.272C-53.5733 193.598 -52.413 193.762 -51.2524 193.76C-48.1577 193.755 -45.0632 192.575 -42.719 190.217C-38.0304 185.502 -38.0129 177.763 -42.6861 173.064C-45.9159 169.815 -50.5922 168.823 -54.7215 170.073L-81.3034 143.343C-82.0596 142.583 -82.3486 141.494 -82.0697 140.453L-69.7523 94.4842L-57.7969 49.8661C-57.5009 48.7611 -56.6785 47.9792 -55.889 47.7956L-17.829 38.954C-14.7801 38.2437 -12.874 35.1845 -13.5683 32.1202C-14.2614 29.0542 -17.2942 27.1417 -20.345 27.8485L-58.4072 36.6979C-63.6352 37.913 -67.4253 42.042 -68.7364 46.9349L-80.6918 91.553L-93.0092 137.522C-93.2649 138.485 -93.2647 139.498 -93.0094 140.46C-93.226 144.487 -92.2158 148.505 -89.3256 151.411L-62.7506 178.144C-63.9962 182.296 -63.0089 186.998 -59.7774 190.248C-58.3171 191.717 -56.5611 192.724 -54.6941 193.272ZM110.722 234.674C111.719 234.917 112.658 235.027 113.511 235.161C115.784 235.518 117.692 235.529 117.692 235.529C118.204 235.533 118.714 235.466 119.208 235.332C132.036 231.856 144.866 228.379 157.694 224.903C162.623 223.567 166.492 219.671 167.821 214.714L178.19 176.016C179.518 171.059 178.115 165.751 174.514 162.129L142.653 130.084C143.899 125.932 142.91 121.228 139.678 117.978C135.005 113.278 127.308 113.294 122.62 118.009C117.931 122.724 117.921 130.465 122.594 135.164C124.931 137.514 128.02 138.689 131.115 138.684C132.299 138.682 133.483 138.503 134.625 138.155L166.492 170.195C167.248 170.956 167.531 172.044 167.252 173.085L156.883 211.783C156.604 212.824 155.815 213.624 154.781 213.904C142.258 217.298 129.734 220.689 117.212 224.083C116.831 224.069 116.321 224.069 115.291 223.908C113.94 223.695 112.649 222.778 113.426 223.558L81.5623 191.521C82.8111 187.37 81.8255 182.667 78.5936 179.417C73.9204 174.717 66.218 174.722 61.5295 179.438C56.8409 184.153 56.8291 191.901 61.5023 196.601C63.8389 198.951 66.9324 200.118 70.0273 200.113C71.2117 200.112 72.3962 199.933 73.5386 199.587L105.4 231.632C106.878 233.118 108.335 233.912 109.708 234.379C110.052 234.494 110.39 234.591 110.722 234.674ZM-52.1628 186.467C-53.0758 186.289 -53.9502 185.839 -54.6711 185.114C-56.5933 183.18 -56.5848 180.153 -54.6562 178.213C-52.7276 176.273 -49.7206 176.263 -47.7983 178.196C-45.8759 180.129 -45.8793 183.161 -47.8078 185.1C-48.7722 186.07 -50.0072 186.554 -51.2417 186.557C-51.5504 186.557 -51.8584 186.526 -52.1628 186.467ZM69.1168 192.82C68.2045 192.639 67.3315 192.184 66.6106 191.459C64.6884 189.526 64.6954 186.504 66.624 184.564C68.5527 182.625 71.5669 182.618 73.4892 184.551C75.4116 186.485 75.4004 189.514 73.4718 191.453C72.5075 192.423 71.2725 192.908 70.0379 192.91C69.7292 192.91 69.421 192.88 69.1168 192.82ZM129.683 188.487C128.77 188.309 127.895 187.859 127.175 187.134C125.252 185.201 125.261 182.173 127.189 180.234C129.118 178.294 132.133 178.286 134.055 180.219C135.977 182.152 135.968 185.182 134.04 187.122C133.075 188.091 131.838 188.575 130.604 188.577C130.295 188.578 129.987 188.547 129.683 188.487ZM-50.4212 125.728C-51.3341 125.549 -52.2086 125.1 -52.9294 124.375C-54.8517 122.441 -54.8504 119.41 -52.9217 117.47C-50.9931 115.53 -47.9789 115.524 -46.0565 117.457C-44.1343 119.39 -44.1356 122.422 -46.0642 124.362C-47.0286 125.332 -48.2655 125.816 -49.5 125.818C-49.8087 125.818 -50.1166 125.787 -50.4212 125.728ZM62.33 121.799C63.4508 122.126 64.61 122.293 65.7705 122.292C68.8654 122.287 71.9617 121.107 74.3059 118.749C78.9944 114.034 79.0063 106.286 74.3331 101.586C71.1015 98.336 66.4241 97.3428 62.2954 98.5968L30.4353 66.5546C29.6791 65.7942 29.3944 64.7131 29.6733 63.6724C33.1299 50.772 36.5857 37.8747 40.0424 24.9744C40.3213 23.9336 41.1107 23.1319 42.1455 22.8516L80.6308 12.4223C81.6657 12.1418 82.7456 12.431 83.5016 13.1915L116.896 46.7786C119.106 48.9955 122.689 48.9877 124.904 46.7615C127.121 44.5345 127.13 40.928 124.922 38.7051L91.5239 5.12339C87.923 1.502 82.6447 0.0876792 77.7155 1.42345L39.2297 11.8546C34.3005 13.1903 30.4311 17.086 29.1029 22.0431C25.6463 34.9435 22.1904 47.8408 18.7338 60.7412C17.4056 65.6982 18.8088 71.0067 22.4096 74.6281L54.2746 106.668C53.029 110.82 54.0183 115.522 57.2496 118.772C58.7099 120.241 60.4634 121.25 62.33 121.799ZM64.8607 114.997C63.9483 114.815 63.0749 114.363 62.3539 113.638C60.4317 111.704 60.4349 108.673 62.3636 106.733C64.2922 104.794 67.3023 104.795 69.2247 106.728C71.1471 108.661 71.1463 111.691 69.2176 113.631C68.2533 114.6 67.0161 115.084 65.7818 115.086C65.4731 115.087 65.1646 115.057 64.8607 114.997ZM130.205 131.389C129.293 131.208 128.42 130.755 127.699 130.03C125.776 128.097 125.78 125.065 127.708 123.126C129.637 121.186 132.649 121.179 134.572 123.112C136.494 125.045 136.493 128.077 134.564 130.017C133.6 130.987 132.361 131.476 131.127 131.478C130.818 131.479 130.51 131.449 130.205 131.389ZM-37.2755 76.6677C-38.1878 76.4866 -39.0614 76.0336 -39.7821 75.3087C-41.7045 73.3754 -41.7032 70.3436 -39.7745 68.404C-37.8459 66.4644 -34.8337 66.4656 -32.9114 68.3989C-30.9892 70.3322 -30.99 73.3621 -32.9185 75.3016C-33.883 76.2715 -35.1199 76.7553 -36.3544 76.7574C-36.6631 76.7579 -36.9715 76.7286 -37.2755 76.6677ZM67.5553 50.9653C66.643 50.7842 65.7699 50.3295 65.049 49.6043C63.1268 47.6711 63.1296 44.6417 65.0583 42.7021C66.9869 40.7625 69.9995 40.7619 71.9218 42.6951C73.8442 44.6284 73.8352 47.6498 71.9065 49.5895C70.9422 50.5592 69.7109 51.053 68.4764 51.0549C68.1677 51.0554 67.8595 51.0256 67.5553 50.9653Z"/>
</mask>
<path fill-rule="evenodd" clip-rule="evenodd" d="M3.43076 303.326C5.82822 303.965 8.38836 303.966 10.8427 303.301L54.4583 291.486C55.274 292.358 56.21 293.103 57.2343 293.697C59.9121 295.249 63.1764 295.779 66.3749 294.912C72.7719 293.178 76.6323 286.468 74.9294 280.04C73.2267 273.612 66.5606 269.75 60.1636 271.484C55.7402 272.682 52.5378 276.262 51.5425 280.481L7.9274 292.302C6.87189 292.588 5.78889 292.287 5.09959 291.574L-21.8467 263.849C-22.6516 263.021 -22.9245 261.935 -22.6513 260.916L-9.68426 212.522L0.684822 173.824C2.01546 168.859 0.582969 163.569 -2.97909 159.955L-37.9799 124.437C-36.7285 120.282 -37.7144 115.573 -40.9493 112.32C-45.6225 107.62 -53.3211 107.635 -58.0098 112.35C-62.6983 117.065 -62.7079 124.806 -58.0348 129.505C-55.6983 131.855 -52.6068 133.031 -49.5119 133.025C-48.3314 133.024 -47.1507 132.846 -46.0113 132.501L-11.0402 167.99C-10.2645 168.777 -9.97603 169.861 -10.2527 170.893L-20.5685 209.392C-20.5875 209.459 -20.6053 209.525 -20.622 209.592C-20.9009 210.633 -21.6974 211.431 -22.7324 211.711L-61.2161 222.135C-62.2511 222.415 -63.3231 222.128 -64.0792 221.367L-97.476 187.788C-99.6854 185.566 -103.275 185.572 -105.491 187.803C-107.702 190.032 -107.706 193.634 -105.5 195.854L-72.1133 229.441C-68.5123 233.062 -63.2243 234.479 -58.2952 233.143L-24.4751 223.972L-33.589 257.986C-34.9229 262.964 -33.4599 268.226 -29.9578 271.829L-3.00946 299.555C-1.20104 301.415 1.03289 302.689 3.43076 303.326ZM61.6693 287.836C61.3745 287.74 61.0938 287.608 60.8268 287.453C59.7589 286.834 58.9316 285.789 58.5813 284.467C57.8809 281.823 59.3874 279.196 62.0187 278.483C64.6502 277.77 67.2572 279.283 67.9576 281.927C68.6582 284.571 67.151 287.199 64.5197 287.913C63.5329 288.18 62.55 288.136 61.6693 287.836ZM96.1851 279.535C97.0974 279.753 98.0491 279.738 98.9565 279.493L152.486 264.984C155.504 264.161 157.299 261.038 156.496 258.003C155.692 254.968 152.593 253.172 149.572 253.987L99.225 267.63L34.1984 201.506C33.4186 200.713 33.1346 199.633 33.4109 198.602L43.7821 159.896C44.0608 158.856 44.8482 158.062 45.8831 157.781L49.2518 156.871C49.2766 156.865 49.3031 156.875 49.3295 156.869L84.3978 147.36C85.423 147.094 86.4911 147.369 87.2395 148.121L89.8795 150.778L117.994 179.054L119.096 180.162C117.851 184.316 118.839 189.022 122.07 192.271C124.406 194.621 127.498 195.788 130.593 195.783C133.687 195.778 136.783 194.6 139.128 192.242C143.816 187.527 143.834 179.787 139.161 175.087C135.931 171.838 131.252 170.842 127.123 172.091L126.024 170.988L126.017 170.976L97.9008 142.707C97.1447 141.947 96.8537 140.858 97.1326 139.817L109.45 93.8481C109.73 92.8026 110.525 92.004 111.543 91.731L149.259 81.6174C150.313 81.3348 151.387 81.6241 152.14 82.3795C184.756 115.181 152.142 82.3806 186.334 116.767C188.541 118.985 192.123 118.981 194.339 116.758C196.557 114.531 196.566 110.923 194.358 108.7C160.166 74.313 192.78 107.115 160.164 74.3138C156.56 70.689 151.286 69.2915 146.372 70.6082L109.002 80.6323C108.312 79.1463 107.76 77.5785 106.574 76.3858L80.0023 49.6562C81.2458 45.5033 80.2557 40.7975 77.0258 37.5491C72.3526 32.8494 64.6558 32.865 59.9673 37.5801C55.2787 42.2952 55.2613 50.0337 59.9345 54.7335C62.2711 57.0835 65.3703 58.2607 68.4651 58.2555C69.6506 58.2536 70.8351 58.0771 71.9784 57.7302L98.552 84.4575C99.308 85.2179 99.599 86.3069 99.3201 87.3477L87.0027 133.317C86.7238 134.358 85.9267 135.157 84.8919 135.438L81.5153 136.354C81.4966 136.362 81.4721 136.346 81.4513 136.353L46.3794 145.853C45.3566 146.116 44.2918 145.844 43.5454 145.094C20.9777 121.562 -2.01274 98.5161 -24.8345 75.3706C-23.5881 71.218 -24.5751 66.5152 -27.8069 63.2647C-32.4802 58.5651 -40.1768 58.5722 -44.8654 63.2873C-49.5539 68.0025 -49.5656 75.7508 -44.8925 80.4507C-42.556 82.8005 -39.4624 83.9679 -36.3676 83.9629C-35.1844 83.961 -34.0018 83.7832 -32.8606 83.4379C-10.0742 106.548 12.8087 129.5 35.2101 152.854C34.3183 154.169 33.2665 155.384 32.8432 156.964L22.4713 195.672C21.1404 200.639 22.5741 205.926 26.1275 209.539L93.4687 278.009C94.2131 278.763 95.1552 279.291 96.1851 279.535ZM-54.6941 193.272C-53.5733 193.598 -52.413 193.762 -51.2524 193.76C-48.1577 193.755 -45.0632 192.575 -42.719 190.217C-38.0304 185.502 -38.0129 177.763 -42.6861 173.064C-45.9159 169.815 -50.5922 168.823 -54.7215 170.073L-81.3034 143.343C-82.0596 142.583 -82.3486 141.494 -82.0697 140.453L-69.7523 94.4842L-57.7969 49.8661C-57.5009 48.7611 -56.6785 47.9792 -55.889 47.7956L-17.829 38.954C-14.7801 38.2437 -12.874 35.1845 -13.5683 32.1202C-14.2614 29.0542 -17.2942 27.1417 -20.345 27.8485L-58.4072 36.6979C-63.6352 37.913 -67.4253 42.042 -68.7364 46.9349L-80.6918 91.553L-93.0092 137.522C-93.2649 138.485 -93.2647 139.498 -93.0094 140.46C-93.226 144.487 -92.2158 148.505 -89.3256 151.411L-62.7506 178.144C-63.9962 182.296 -63.0089 186.998 -59.7774 190.248C-58.3171 191.717 -56.5611 192.724 -54.6941 193.272ZM110.722 234.674C111.719 234.917 112.658 235.027 113.511 235.161C115.784 235.518 117.692 235.529 117.692 235.529C118.204 235.533 118.714 235.466 119.208 235.332C132.036 231.856 144.866 228.379 157.694 224.903C162.623 223.567 166.492 219.671 167.821 214.714L178.19 176.016C179.518 171.059 178.115 165.751 174.514 162.129L142.653 130.084C143.899 125.932 142.91 121.228 139.678 117.978C135.005 113.278 127.308 113.294 122.62 118.009C117.931 122.724 117.921 130.465 122.594 135.164C124.931 137.514 128.02 138.689 131.115 138.684C132.299 138.682 133.483 138.503 134.625 138.155L166.492 170.195C167.248 170.956 167.531 172.044 167.252 173.085L156.883 211.783C156.604 212.824 155.815 213.624 154.781 213.904C142.258 217.298 129.734 220.689 117.212 224.083C116.831 224.069 116.321 224.069 115.291 223.908C113.94 223.695 112.649 222.778 113.426 223.558L81.5623 191.521C82.8111 187.37 81.8255 182.667 78.5936 179.417C73.9204 174.717 66.218 174.722 61.5295 179.438C56.8409 184.153 56.8291 191.901 61.5023 196.601C63.8389 198.951 66.9324 200.118 70.0273 200.113C71.2117 200.112 72.3962 199.933 73.5386 199.587L105.4 231.632C106.878 233.118 108.335 233.912 109.708 234.379C110.052 234.494 110.39 234.591 110.722 234.674ZM-52.1628 186.467C-53.0758 186.289 -53.9502 185.839 -54.6711 185.114C-56.5933 183.18 -56.5848 180.153 -54.6562 178.213C-52.7276 176.273 -49.7206 176.263 -47.7983 178.196C-45.8759 180.129 -45.8793 183.161 -47.8078 185.1C-48.7722 186.07 -50.0072 186.554 -51.2417 186.557C-51.5504 186.557 -51.8584 186.526 -52.1628 186.467ZM69.1168 192.82C68.2045 192.639 67.3315 192.184 66.6106 191.459C64.6884 189.526 64.6954 186.504 66.624 184.564C68.5527 182.625 71.5669 182.618 73.4892 184.551C75.4116 186.485 75.4004 189.514 73.4718 191.453C72.5075 192.423 71.2725 192.908 70.0379 192.91C69.7292 192.91 69.421 192.88 69.1168 192.82ZM129.683 188.487C128.77 188.309 127.895 187.859 127.175 187.134C125.252 185.201 125.261 182.173 127.189 180.234C129.118 178.294 132.133 178.286 134.055 180.219C135.977 182.152 135.968 185.182 134.04 187.122C133.075 188.091 131.838 188.575 130.604 188.577C130.295 188.578 129.987 188.547 129.683 188.487ZM-50.4212 125.728C-51.3341 125.549 -52.2086 125.1 -52.9294 124.375C-54.8517 122.441 -54.8504 119.41 -52.9217 117.47C-50.9931 115.53 -47.9789 115.524 -46.0565 117.457C-44.1343 119.39 -44.1356 122.422 -46.0642 124.362C-47.0286 125.332 -48.2655 125.816 -49.5 125.818C-49.8087 125.818 -50.1166 125.787 -50.4212 125.728ZM62.33 121.799C63.4508 122.126 64.61 122.293 65.7705 122.292C68.8654 122.287 71.9617 121.107 74.3059 118.749C78.9944 114.034 79.0063 106.286 74.3331 101.586C71.1015 98.336 66.4241 97.3428 62.2954 98.5968L30.4353 66.5546C29.6791 65.7942 29.3944 64.7131 29.6733 63.6724C33.1299 50.772 36.5857 37.8747 40.0424 24.9744C40.3213 23.9336 41.1107 23.1319 42.1455 22.8516L80.6308 12.4223C81.6657 12.1418 82.7456 12.431 83.5016 13.1915L116.896 46.7786C119.106 48.9955 122.689 48.9877 124.904 46.7615C127.121 44.5345 127.13 40.928 124.922 38.7051L91.5239 5.12339C87.923 1.502 82.6447 0.0876792 77.7155 1.42345L39.2297 11.8546C34.3005 13.1903 30.4311 17.086 29.1029 22.0431C25.6463 34.9435 22.1904 47.8408 18.7338 60.7412C17.4056 65.6982 18.8088 71.0067 22.4096 74.6281L54.2746 106.668C53.029 110.82 54.0183 115.522 57.2496 118.772C58.7099 120.241 60.4634 121.25 62.33 121.799ZM64.8607 114.997C63.9483 114.815 63.0749 114.363 62.3539 113.638C60.4317 111.704 60.4349 108.673 62.3636 106.733C64.2922 104.794 67.3023 104.795 69.2247 106.728C71.1471 108.661 71.1463 111.691 69.2176 113.631C68.2533 114.6 67.0161 115.084 65.7818 115.086C65.4731 115.087 65.1646 115.057 64.8607 114.997ZM130.205 131.389C129.293 131.208 128.42 130.755 127.699 130.03C125.776 128.097 125.78 125.065 127.708 123.126C129.637 121.186 132.649 121.179 134.572 123.112C136.494 125.045 136.493 128.077 134.564 130.017C133.6 130.987 132.361 131.476 131.127 131.478C130.818 131.479 130.51 131.449 130.205 131.389ZM-37.2755 76.6677C-38.1878 76.4866 -39.0614 76.0336 -39.7821 75.3087C-41.7045 73.3754 -41.7032 70.3436 -39.7745 68.404C-37.8459 66.4644 -34.8337 66.4656 -32.9114 68.3989C-30.9892 70.3322 -30.99 73.3621 -32.9185 75.3016C-33.883 76.2715 -35.1199 76.7553 -36.3544 76.7574C-36.6631 76.7579 -36.9715 76.7286 -37.2755 76.6677ZM67.5553 50.9653C66.643 50.7842 65.7699 50.3295 65.049 49.6043C63.1268 47.6711 63.1296 44.6417 65.0583 42.7021C66.9869 40.7625 69.9995 40.7619 71.9218 42.6951C73.8442 44.6284 73.8352 47.6498 71.9065 49.5895C70.9422 50.5592 69.7109 51.053 68.4764 51.0549C68.1677 51.0554 67.8595 51.0256 67.5553 50.9653Z" stroke="url(#paint0_linear_1577_1512)" stroke-width="2" mask="url(#path-1-inside-1_1577_1512)"/>
</g>
<defs>
<linearGradient id="paint0_linear_1577_1512" x1="194.361" y1="108.702" x2="-128.333" y2="262.617" gradientUnits="userSpaceOnUse">
<stop stop-color="#00A1FF"/>
<stop offset="1" stop-color="#00FC92"/>
</linearGradient>
</defs>
</svg>
