
<svg width="206" height="247" viewBox="0 0 206 247" fill="none" xmlns="http://www.w3.org/2000/svg">
<path fill-rule="evenodd" clip-rule="evenodd" d="M-58.5532 18.4075C-59.755 20.4953 -60.4037 22.8933 -60.406 25.3567L-60.4537 69.132C-61.4717 69.6805 -62.4021 70.3732 -63.2139 71.1859C-65.3363 73.3106 -66.6559 76.2373 -66.6591 79.4476C-66.6654 85.8682 -61.3971 91.1431 -54.9837 91.1367C-48.5705 91.1305 -43.2882 85.8409 -43.282 79.4203C-43.2777 74.9805 -45.7981 71.0961 -49.473 69.121L-49.4313 25.3445C-49.4303 24.2851 -48.8758 23.3451 -48.0379 22.8756L-15.4121 4.48766C-14.4376 3.93838 -13.3582 3.95106 -12.4783 4.45906L29.2778 28.567L62.6682 47.8449C66.9525 50.3186 72.238 50.2842 76.5037 47.841L118.422 23.8345C121.972 26.0339 126.604 26.2742 130.451 24.0483C136.009 20.8325 137.944 13.6174 134.743 8.06004C131.541 2.50279 124.34 0.580531 118.783 3.79624C116.004 5.40399 114.127 8.00933 113.349 10.9096C113.051 12.0158 112.918 13.1657 112.95 14.3183L71.067 38.3041C70.1381 38.8362 69.056 38.8384 68.165 38.324L34.9464 19.1452C34.8896 19.1111 34.8322 19.078 34.774 19.0457C33.876 18.5273 33.3352 17.5839 33.3363 16.5452L33.3792 -22.0792C33.3803 -23.118 33.919 -24.0512 34.8181 -24.5715L74.5259 -47.5547C77.1536 -49.0749 78.0562 -52.4391 76.5412 -55.066C75.0267 -57.6885 71.6753 -58.5821 69.0508 -57.0641L29.3385 -34.0926C25.0564 -31.6147 22.3987 -27.0116 22.3939 -22.0642L22.3662 11.8821L-6.98213 -5.06215C-11.2776 -7.54212 -16.5455 -7.4724 -20.7856 -5.0826L-53.4124 13.3072C-55.6019 14.5412 -57.3527 16.319 -58.5532 18.4075ZM-58.8823 76.7889C-58.7187 76.5363 -58.5242 76.3061 -58.3126 76.0943C-57.4658 75.247 -56.2837 74.7304 -54.9646 74.7291C-52.3265 74.7265 -50.2635 76.7869 -50.266 79.4279C-50.2687 82.0691 -52.3367 84.1372 -54.9748 84.1397C-57.613 84.1424 -59.6777 82.081 -59.6751 79.4399C-59.6741 78.4495 -59.3842 77.5397 -58.8823 76.7889ZM-59.8953 111.172C-60.3292 111.973 -60.5567 112.868 -60.5588 113.778L-60.6078 167.506C-60.6066 170.537 -58.1539 172.99 -55.1265 172.988C-52.098 172.984 -49.642 170.526 -49.6357 167.494L-49.5851 116.962L28.4196 72.3951C29.355 71.8606 30.4321 71.8616 31.3215 72.3752L64.7186 91.657C65.6165 92.1754 66.1561 93.1092 66.1552 94.1479L66.1491 97.5283C66.149 97.5532 66.1325 97.5754 66.1316 97.6017L66.1026 132.801C66.0907 133.827 65.5644 134.759 64.6744 135.274L61.5338 137.091L28.0989 156.436L26.7884 157.195C23.2376 155.002 18.6084 154.764 14.7661 156.987C11.9875 158.595 10.1187 161.203 9.33992 164.103C8.56103 167.003 8.87351 170.194 10.4742 172.973C13.6754 178.53 20.8746 180.46 26.4319 177.245C30.2736 175.022 32.3851 170.886 32.2675 166.709L33.5728 165.952L33.5854 165.948L67.0137 146.599C67.9129 146.079 69 146.075 69.8981 146.594L109.562 169.494C110.464 170.015 111.006 170.957 111.003 171.978L110.866 209.807C110.862 210.863 110.321 211.798 109.427 212.317C70.6414 234.761 109.426 212.319 68.7651 235.847C66.1425 237.366 65.2392 240.723 66.7468 243.348C68.258 245.976 71.6141 246.876 74.2418 245.357C114.902 221.829 76.1164 244.27 114.902 221.827C119.188 219.346 121.824 214.752 121.843 209.823L121.975 172.341C123.533 172.062 125.132 171.932 126.542 171.116L158.147 152.833C161.697 155.025 166.328 155.26 170.169 153.038C175.726 149.822 177.66 142.609 174.459 137.051C171.258 131.494 164.06 129.565 158.503 132.781C155.724 134.389 153.844 137.001 153.065 139.901C152.767 141.012 152.631 142.165 152.664 143.322L121.061 161.607C120.162 162.127 119.075 162.131 118.177 161.612L78.5127 138.712C77.6145 138.193 77.0723 137.249 77.0733 136.21L77.0756 132.821C77.0726 132.802 77.0942 132.783 77.0923 132.761L77.131 97.5611C77.1457 96.5382 77.6676 95.6078 78.5553 95.0942C106.17 79.7713 133.44 63.9323 160.759 48.2759C164.308 50.4699 168.935 50.7077 172.778 48.4839C178.336 45.268 180.278 38.0568 177.077 32.4995C173.875 26.9422 166.667 25.0161 161.11 28.2318C158.331 29.8396 156.461 32.4488 155.682 35.349C155.385 36.4577 155.251 37.6095 155.283 38.7638C128.006 54.3959 100.851 70.1573 73.4435 85.3684C72.445 84.2078 71.5807 82.9223 70.2176 82.1354L36.8183 62.8523C32.5324 60.3778 27.2489 60.414 22.9867 62.8495L-57.7873 109.005C-58.6781 109.515 -59.4079 110.267 -59.8953 111.172ZM58.5902 -8.83582C58.0023 -7.86675 57.5565 -6.82034 57.2642 -5.73276C56.4854 -2.83262 56.8006 0.357802 58.4012 3.13635C61.6024 8.69367 68.8 10.6227 74.3573 7.40705C78.1982 5.18454 80.306 1.04955 80.1875 -3.12753L111.795 -21.42C112.695 -21.9403 113.781 -21.942 114.679 -21.4235L154.343 1.47665L192.842 23.7038C193.795 24.2543 194.315 25.2178 194.286 26.0028L192.878 63.8392C192.767 66.8707 195.132 69.4124 198.159 69.5194C201.188 69.628 203.736 67.2599 203.851 64.2275L205.252 26.387C205.445 21.1895 202.561 16.6187 198.34 14.1812L159.841 -8.0459L120.177 -30.9461C119.345 -31.4237 118.402 -31.6738 117.443 -31.6725C113.75 -32.8706 109.755 -32.9175 106.318 -30.9287L74.7093 -12.6433C71.1603 -14.8363 66.5343 -15.0737 62.6915 -12.8501C60.9549 -11.8451 59.5722 -10.4495 58.5902 -8.83582ZM-21.8246 135.878C-22.3037 136.751 -22.6434 137.603 -22.9839 138.369C-23.8921 140.41 -24.3853 142.195 -24.3853 142.195C-24.5186 142.673 -24.5852 143.168 -24.5858 143.664C-24.5983 156.539 -24.6111 169.416 -24.6236 182.291C-24.6286 187.239 -21.9826 191.826 -17.7053 194.295L15.685 213.573C19.9623 216.043 25.2581 216.041 29.5401 213.563L67.431 191.639C70.9801 193.832 75.6081 194.069 79.4514 191.845C85.0086 188.629 86.943 181.415 83.7416 175.858C80.5406 170.301 73.3389 168.379 67.7817 171.594C65.003 173.202 63.1275 175.806 62.3487 178.706C62.0504 179.815 61.9177 180.969 61.9517 182.124L24.0641 204.055C23.1649 204.575 22.0801 204.571 21.1819 204.052L-12.2084 184.775C-13.1064 184.256 -13.6511 183.32 -13.6501 182.281C-13.6378 169.712 -13.6229 157.143 -13.6106 144.574C-13.5015 144.221 -13.3728 143.743 -12.9616 142.818C-12.4217 141.605 -11.2413 140.623 -12.1641 141.157L25.7199 119.229C29.2678 121.425 33.8941 121.664 37.7374 119.44C43.2947 116.225 45.2396 109.008 42.0383 103.451C38.8371 97.8939 31.6289 95.9676 26.0716 99.1833C23.2929 100.791 21.4231 103.4 20.6443 106.301C20.3459 107.41 20.2118 108.564 20.2448 109.72L-17.646 131.644C-19.4029 132.661 -20.5109 133.83 -21.2933 135.001C-21.4877 135.294 -21.6639 135.587 -21.8246 135.878ZM64.2825 -4.7828C64.6794 -5.59406 65.3196 -6.30183 66.1769 -6.79787C68.4629 -8.1206 71.2786 -7.36421 72.5955 -5.07823C73.9124 -2.79226 73.1609 0.026942 70.8749 1.3498C68.5889 2.67264 65.7686 1.92023 64.4517 -0.365688C63.7933 -1.50869 63.6551 -2.78529 63.9658 -3.9422C64.0435 -4.23148 64.1502 -4.51234 64.2825 -4.7828ZM27.6624 107.25C28.062 106.441 28.7062 105.735 29.5636 105.239C31.8495 103.916 34.6603 104.67 35.9771 106.956C37.294 109.242 36.5369 112.067 34.2509 113.39C31.9649 114.713 29.1484 113.954 27.8316 111.668C27.1732 110.525 27.035 109.248 27.3457 108.091C27.4234 107.802 27.5293 107.52 27.6624 107.25ZM16.3598 165.054C16.7567 164.243 17.3969 163.535 18.2542 163.039C20.5401 161.716 23.356 162.473 24.6728 164.759C25.9896 167.045 25.2342 169.871 22.9482 171.193C20.6622 172.516 17.8448 171.759 16.5279 169.473C15.8695 168.33 15.7323 167.051 16.0431 165.895C16.1208 165.605 16.2275 165.324 16.3598 165.054ZM120.371 11.8617C120.768 11.0507 121.408 10.3426 122.265 9.84666C124.551 8.52386 127.372 9.27449 128.689 11.5606C130.006 13.8465 129.249 16.6716 126.963 17.9944C124.677 19.3171 121.856 18.5665 120.539 16.2805C119.88 15.1374 119.743 13.8592 120.054 12.7023C120.132 12.413 120.238 12.1324 120.371 11.8617ZM95.4788 118.448C94.8908 119.417 94.4418 120.461 94.1493 121.549C93.3705 124.449 93.6848 127.641 95.2853 130.419C98.4866 135.977 105.695 137.903 111.252 134.687C115.095 132.464 117.204 128.328 117.082 124.15L154.97 102.227C155.869 101.706 156.947 101.707 157.845 102.225C168.977 108.652 180.105 115.077 191.236 121.503C192.134 122.022 192.68 122.959 192.679 123.998L192.641 162.625C192.64 163.664 192.098 164.604 191.198 165.124L151.484 188.104C148.861 189.625 147.961 192.984 149.473 195.608C150.984 198.236 154.338 199.135 156.966 197.617L196.676 174.633C200.958 172.155 203.611 167.56 203.616 162.613L203.652 123.985C203.657 119.037 201.011 114.45 196.734 111.981C185.603 105.554 174.474 99.1292 163.343 92.7027C159.066 90.2333 153.77 90.2356 149.488 92.7134L111.602 114.642C108.053 112.449 103.426 112.214 99.5827 114.437C97.8462 115.442 96.4627 116.835 95.4788 118.448ZM101.169 122.5C101.569 121.69 102.212 120.983 103.069 120.487C105.355 119.165 108.175 119.917 109.492 122.203C110.809 124.489 110.046 127.308 107.76 128.631C105.474 129.954 102.654 129.204 101.338 126.918C100.679 125.775 100.542 124.497 100.853 123.34C100.93 123.051 101.036 122.769 101.169 122.5ZM69.3685 179.657C69.768 178.847 70.4107 178.141 71.268 177.645C73.5539 176.322 76.3744 177.074 77.6913 179.36C79.0081 181.646 78.252 184.47 75.966 185.793C73.6799 187.115 70.8586 186.365 69.5418 184.079C68.8833 182.936 68.7412 181.654 69.0519 180.498C69.1296 180.208 69.2354 179.927 69.3685 179.657ZM162.702 36.3017C163.101 35.492 163.744 34.7856 164.601 34.2896C166.887 32.9668 169.709 33.7174 171.026 36.0035C172.342 38.2894 171.579 41.1106 169.293 42.4334C167.007 43.7561 164.187 43.0065 162.87 40.7206C162.212 39.5774 162.075 38.2993 162.385 37.1423C162.463 36.8531 162.568 36.5714 162.702 36.3017ZM160.08 140.85C160.48 140.041 161.124 139.335 161.982 138.839C164.267 137.517 167.086 138.268 168.403 140.554C169.72 142.84 168.958 145.662 166.672 146.985C164.386 148.308 161.576 147.552 160.259 145.266C159.601 144.123 159.453 142.848 159.764 141.691C159.841 141.402 159.947 141.121 160.08 140.85Z" fill="url(#paint0_linear_1853_574)"/>
<defs>
<linearGradient id="paint0_linear_1853_574" x1="304.5" y1="245" x2="-30.5174" y2="13.2447" gradientUnits="userSpaceOnUse">
<stop stop-color="#00A1FF"/>
<stop offset="0.829135" stop-color="#1F1F1F" stop-opacity="0"/>
</linearGradient>
</defs>
</svg>
