<svg width="277" height="376" viewBox="0 0 277 376" fill="none" xmlns="http://www.w3.org/2000/svg">
<g clip-path="url(#clip0_1577_732)">
<path fill-rule="evenodd" clip-rule="evenodd" d="M-128.317 282.391C-125.417 283.164 -122.321 283.167 -119.353 282.365L-93.7966 284.371C-92.8095 285.424 -91.6768 286.324 -90.4376 287.042C-87.1978 288.917 -83.2494 289.559 -79.3815 288.515C-71.6456 286.426 -66.9808 278.327 -69.0447 270.567C-71.1083 262.806 -79.1734 258.139 -86.9093 260.228C-92.2586 261.672 -96.1294 265.991 -97.3304 271.084L-122.886 269.085C-124.163 269.43 -125.473 269.066 -126.307 268.205L-102.55 255.496C-103.524 254.496 -103.855 253.186 -103.525 251.955L-230.572 235.209L-218.056 188.499C-216.45 182.506 -218.186 176.12 -222.497 171.754L-264.853 128.854C-263.342 123.838 -264.538 118.153 -268.453 114.223C-274.108 108.547 -283.419 108.56 -289.087 114.249C-294.754 119.938 -294.761 129.282 -289.106 134.959C-286.278 137.797 -282.538 139.218 -278.795 139.214C-277.367 139.213 -275.94 138.999 -274.562 138.583L-232.241 181.448C-231.303 182.399 -230.953 183.708 -231.287 184.954L-243.738 231.424C-243.761 231.504 -243.783 231.584 -243.803 231.665C-244.14 232.921 -245.103 233.883 -246.354 234.221L-292.893 246.779C-294.144 247.117 -295.441 246.77 -296.356 245.851L-336.771 205.292C-339.445 202.608 -343.786 202.614 -346.465 205.305C-349.138 207.994 -349.14 212.343 -346.47 215.024L-226.519 153.221C-222.161 157.596 -215.765 159.31 -209.804 157.7L-248.454 249.022L-116.756 248.411C-118.366 254.419 -116.593 260.773 -112.355 265.125L-136.109 277.834C-133.921 280.081 -131.218 281.62 -128.317 282.391ZM-85.0774 279.969C-85.434 279.854 -85.7736 279.694 -86.0966 279.507C-87.3887 278.758 -88.39 277.496 -88.8145 275.9C-89.6634 272.708 -87.843 269.538 -84.661 268.679C-81.4787 267.82 -78.3246 269.648 -77.4757 272.84C-76.6267 276.032 -78.4478 279.205 -81.6299 280.064C-82.8232 280.386 -84.0121 280.332 -85.0774 279.969ZM60.6659 222.11C61.7696 222.373 62.9206 222.357 64.0178 222.062L128.751 204.581C132.401 203.59 134.57 199.82 133.597 196.156C132.622 192.492 128.873 190.322 125.219 191.304L64.3348 207.74L-14.3571 127.873C-15.3009 126.915 -15.645 125.611 -15.3115 124.367L-2.79322 77.6478C-2.45677 76.3917 -1.50493 75.4337 -0.253497 75.0957L3.82033 73.9995C3.85034 73.9915 3.88243 74.0042 3.9143 73.9967L46.3225 62.5403C47.5623 62.2197 48.8543 62.5522 49.76 63.4613L52.9548 66.6698L86.977 100.824L88.3105 102.162C86.8073 107.176 88.0056 112.857 91.9154 116.782C94.7431 119.62 98.4831 121.031 102.226 121.027C105.969 121.023 109.713 119.603 112.547 116.758C118.214 111.069 118.231 101.725 112.576 96.0482C108.667 92.1239 103.007 90.9184 98.014 92.4243L96.6838 91.0916L96.6756 91.0774L62.6511 56.9327C61.7361 56.0142 61.3834 54.6994 61.72 53.4432L76.5874 -2.0428C76.9256 -3.30483 77.8869 -4.26841 79.1177 -4.59726L124.728 -16.7816C126.002 -17.1221 127.301 -16.7722 128.213 -15.8597C167.683 23.7595 128.215 -15.8584 169.593 25.6759C172.263 28.3544 176.596 28.3519 179.275 25.6701C181.955 22.983 181.964 18.627 179.292 15.9421C137.915 -25.5924 177.382 14.0279 137.912 -25.5914C133.55 -29.9696 127.171 -31.6602 121.228 -30.0739L76.0373 -17.9972C75.2012 -19.7917 74.5326 -21.6846 73.0975 -23.1252L40.942 -55.4108C42.4432 -60.4235 41.2426 -66.105 37.3339 -70.0285C31.6788 -75.7051 22.3697 -75.6914 16.7021 -70.0023C11.0344 -64.3133 11.0184 -54.9713 16.6736 -49.2947C19.5013 -46.4562 23.2504 -45.0331 26.9936 -45.0372C28.4275 -45.0388 29.8599 -45.2512 31.2426 -45.6691L63.4004 -13.3864C64.3153 -12.4679 64.6679 -11.1531 64.3313 -9.89677L49.4639 45.5893C49.1272 46.8457 48.1636 47.8103 46.9122 48.1482L42.8289 49.2519C42.8063 49.2619 42.7767 49.2419 42.7515 49.2512L0.3389 60.6962C-0.897894 61.0124 -2.18599 60.6844 -3.08915 59.7777C-30.3999 31.355 -58.2215 3.51905 -85.8392 -24.4372C-84.3345 -29.4495 -85.5314 -35.1274 -89.4423 -39.0534C-95.0977 -44.73 -104.407 -44.7264 -110.074 -39.0374C-115.742 -33.3483 -115.751 -23.9945 -110.096 -18.3178C-107.268 -15.4795 -103.526 -14.0682 -99.7827 -14.0722C-98.3517 -14.0737 -96.9214 -14.2875 -95.5414 -14.7037C-67.9664 13.2095 -40.2749 40.9323 -13.1654 69.1402C-14.2433 70.7277 -15.5146 72.1934 -16.0255 74.1003L-28.5447 120.822C-30.1512 126.818 -28.4136 133.201 -24.1135 137.565L57.3795 220.266C58.2804 221.177 59.4202 221.815 60.6659 222.11ZM-285.023 211.94C-283.668 212.335 -282.264 212.533 -280.86 212.532C-277.117 212.528 -273.375 211.105 -270.542 208.26C-264.874 202.571 -264.858 193.229 -270.513 187.553C-274.422 183.629 -280.078 182.428 -285.072 183.935L-317.24 151.649C-318.155 150.73 -318.505 149.416 -318.168 148.16L-140.154 -1.39277L-125.723 -55.248C-125.366 -56.5818 -124.372 -57.5252 -123.417 -57.7463L-180.88 -94.2814C-177.193 -95.1369 -174.889 -98.8287 -175.731 -102.528C-176.571 -106.23 -180.241 -108.541 -183.93 -107.69L-229.96 -97.0316C-236.282 -95.5682 -137.374 -64.6997 -138.956 -58.7938L-153.387 -4.93854L-331.401 144.614C-331.71 145.777 -331.709 146.999 -331.4 148.16C-331.659 153.021 -330.435 157.872 -326.937 161.383L-294.778 193.672C-296.281 198.684 -295.084 204.361 -291.174 208.286C-289.406 210.06 -287.282 211.278 -285.023 211.94ZM78.219 167.963C79.4242 168.258 80.5603 168.391 81.5916 168.553C84.3417 168.986 86.6494 169 86.6494 169C87.268 169.006 87.8853 168.925 88.4832 168.763C103.996 164.575 119.511 160.386 135.024 156.198C140.984 154.589 145.662 149.889 147.265 143.905L159.781 97.1959C161.384 91.2124 159.684 84.8032 155.326 80.4291L116.769 41.7236C118.274 36.7115 117.075 31.0327 113.164 27.1068C107.508 21.4301 98.1991 21.4437 92.5317 27.133C86.864 32.8218 86.8573 42.1663 92.5125 47.8429C95.3402 50.6813 99.0776 52.1014 102.821 52.0973C104.253 52.0961 105.684 51.8803 107.066 51.4617L145.629 90.1613C146.544 91.0799 146.887 92.3943 146.55 93.6508L134.034 140.36C133.698 141.616 132.744 142.581 131.493 142.919C116.349 147.008 101.204 151.093 86.0609 155.182C85.6002 155.165 84.9837 155.165 83.738 154.969C82.1031 154.712 80.5419 153.604 81.4816 154.546L42.922 115.85C44.4297 110.839 43.2346 105.161 39.3236 101.235C33.6683 95.5587 24.3524 95.5605 18.6848 101.25C13.0172 106.939 13.008 116.292 18.6632 121.969C21.4908 124.807 25.2331 126.219 28.9763 126.215C30.4089 126.214 31.8413 125.999 33.2229 125.582L71.78 164.287C73.5678 166.082 75.3313 167.042 76.9924 167.606C77.4084 167.746 77.8175 167.864 78.219 167.963ZM-281.966 203.727C-283.071 203.511 -284.129 202.968 -285.001 202.092C-287.327 199.757 -287.319 196.102 -284.987 193.761C-282.656 191.421 -279.019 191.41 -276.693 193.745C-274.367 196.08 -274.369 199.74 -276.7 202.08C-277.866 203.25 -279.359 203.834 -280.852 203.836C-281.226 203.836 -281.598 203.799 -281.966 203.727ZM27.8703 117.41C26.7668 117.191 25.7106 116.641 24.8382 115.765C22.512 113.43 22.5185 109.782 24.8499 107.442C27.1814 105.102 30.8269 105.096 33.1532 107.431C35.4795 109.766 35.4681 113.423 33.1367 115.763C31.971 116.933 30.4776 117.517 28.9845 117.519C28.6111 117.519 28.2383 117.483 27.8703 117.41ZM101.121 112.219C100.016 112.004 98.9586 111.46 98.0863 110.584C95.76 108.249 95.7684 104.594 98.0999 102.254C100.431 99.9135 104.077 99.9052 106.404 102.24C108.73 104.576 108.721 108.233 106.39 110.573C105.224 111.743 103.728 112.327 102.235 112.328C101.862 112.329 101.489 112.291 101.121 112.219ZM-279.9 130.404C-281.004 130.188 -282.062 129.645 -282.934 128.769C-285.261 126.434 -285.261 122.774 -282.93 120.433C-280.598 118.093 -276.953 118.087 -274.626 120.422C-272.3 122.757 -272.3 126.417 -274.631 128.758C-275.797 129.928 -277.293 130.511 -278.786 130.513C-279.159 130.513 -279.531 130.475 -279.9 130.404ZM19.615 31.6692C20.9708 32.0645 22.373 32.2669 23.7766 32.2659C27.5198 32.2618 31.264 30.8393 34.0978 27.9949C39.7652 22.3058 39.7745 12.952 34.1194 7.27532C30.2087 3.34974 24.5507 2.14768 19.558 3.65885L-18.9972 -35.0436C-19.9123 -35.9621 -20.2574 -37.2673 -19.9208 -38.5235C-15.7486 -54.0946 -11.5773 -69.662 -7.40502 -85.2331C-7.06842 -86.4894 -6.11413 -87.4566 -4.86271 -87.7944L41.6776 -100.359C42.9291 -100.697 44.2354 -100.347 45.1503 -99.4288L85.5629 -58.8604C88.2363 -56.1828 92.5704 -56.1898 95.2473 -58.8758C97.9281 -61.5628 97.9357 -65.9165 95.2645 -68.6015L54.8479 -109.163C50.4902 -113.538 44.1053 -115.248 38.1445 -113.639L-8.39654 -101.072C-14.3575 -99.4627 -19.0348 -94.7623 -20.6381 -88.7789C-24.8103 -73.2078 -28.9816 -57.6404 -33.1539 -42.0693C-34.7571 -36.086 -33.0564 -29.6767 -28.6989 -25.3025L9.86224 13.3965C8.35846 18.4081 9.55808 24.0857 13.4685 28.0111C15.2357 29.7849 17.3571 31.0047 19.615 31.6692ZM22.6714 23.4583C21.5678 23.239 20.5111 22.6919 19.6386 21.8162C17.3125 19.4811 17.3144 15.8216 19.6458 13.4813C21.9772 11.1412 25.6178 11.1441 27.9442 13.4792C30.2705 15.8143 30.2716 19.4719 27.9401 21.8121C26.7744 22.9822 25.2784 23.5657 23.7855 23.5674C23.4121 23.5678 23.0391 23.5317 22.6714 23.4583ZM101.715 43.2901C100.612 43.0708 99.5551 42.5235 98.6828 41.6478C96.3565 39.3128 96.3586 35.6531 98.6899 33.313C101.021 30.9728 104.665 30.9662 106.991 33.3013C109.317 35.6365 109.317 39.2966 106.986 41.6367C105.82 42.8069 104.323 43.3973 102.83 43.3988C102.456 43.3992 102.083 43.3631 101.715 43.2901ZM-100.886 -22.8795C-101.989 -23.0988 -103.046 -23.6462 -103.918 -24.5218C-106.245 -26.857 -106.245 -30.5169 -103.913 -32.8572C-101.582 -35.1973 -97.939 -35.194 -95.6128 -32.8588C-93.2866 -30.5237 -93.2855 -26.866 -95.6168 -24.5259C-96.7826 -23.3557 -98.2783 -22.7724 -99.7715 -22.7706C-100.145 -22.7703 -100.518 -22.8058 -100.886 -22.8795ZM25.8884 -53.8386C24.7849 -54.0579 23.7286 -54.6074 22.8562 -55.4833C20.5301 -57.8183 20.5315 -61.4755 22.8629 -63.8157C25.1942 -66.1559 28.8378 -66.1546 31.1642 -63.8196C33.4905 -61.4845 33.4816 -57.837 31.1502 -55.4968C29.9845 -54.3267 28.4956 -53.7313 27.0025 -53.7299C26.6292 -53.7295 26.2563 -53.7656 25.8884 -53.8386Z" fill="url(#paint0_linear_1577_732)"/>
</g>
<defs>
<linearGradient id="paint0_linear_1577_732" x1="179.296" y1="15.9446" x2="-210.495" y2="202.377" gradientUnits="userSpaceOnUse">
<stop stop-color="#00A1FF"/>
<stop offset="1" stop-color="#00FC92"/>
</linearGradient>
<clipPath id="clip0_1577_732">
<rect width="307" height="324" fill="white" transform="translate(47 376) rotate(-135)"/>
</clipPath>
</defs>
</svg>
