<svg width="48" height="48" viewBox="0 0 48 48" fill="none" xmlns="http://www.w3.org/2000/svg">
<rect x="0.5" y="0.5" width="47" height="47" rx="23.5" stroke="#00A1FF" stroke-opacity="0.2"/>
<path d="M30.6605 21.1117C30.6824 21.1992 30.6934 21.3414 30.6934 21.5383C30.6934 22.6977 30.4746 23.857 30.0371 25.0164C29.5996 26.1539 28.9762 27.2039 28.1668 28.1664C27.3793 29.107 26.3512 29.8727 25.0824 30.4633C23.8137 31.0539 22.4137 31.3492 20.8824 31.3492C18.9574 31.3492 17.1965 30.8352 15.5996 29.807C15.8402 29.8289 16.1137 29.8398 16.4199 29.8398C18.0168 29.8398 19.4496 29.3477 20.7184 28.3633C19.9527 28.3633 19.2746 28.1445 18.684 27.707C18.1152 27.2477 17.7215 26.6789 17.5027 26.0008C17.7215 26.0227 17.9293 26.0336 18.1262 26.0336C18.4324 26.0336 18.7387 26.0008 19.0449 25.9352C18.5199 25.8258 18.0496 25.607 17.634 25.2789C17.2184 24.9508 16.8902 24.557 16.6496 24.0977C16.409 23.6164 16.2887 23.1023 16.2887 22.5555V22.4898C16.7699 22.7742 17.284 22.9273 17.8309 22.9492C16.8027 22.2492 16.2887 21.2867 16.2887 20.0617C16.2887 19.4492 16.4527 18.8695 16.7809 18.3227C17.634 19.3945 18.673 20.2477 19.898 20.882C21.1449 21.5164 22.4684 21.8664 23.8684 21.932C23.8246 21.6695 23.8027 21.407 23.8027 21.1445C23.8027 20.2039 24.1309 19.3945 24.7871 18.7164C25.4652 18.0383 26.2746 17.6992 27.2152 17.6992C28.2215 17.6992 29.0637 18.0602 29.7418 18.782C30.5293 18.6289 31.2621 18.3555 31.9402 17.9617C31.6777 18.7711 31.1746 19.4055 30.4309 19.8648C31.0871 19.7773 31.7434 19.5914 32.3996 19.307C31.9184 20.007 31.3387 20.6086 30.6605 21.1117Z" fill="#00A1FF"/>
</svg>
