
<svg id="Layer_1" enable-background="new 0 0 66 66" width="37" height="37" viewBox="0 0 66 66" xmlns="http://www.w3.org/2000/svg"><g><g><g><path fill="#00A1FF" d="m60 51.8h-54c-2.8 0-5-2.2-5-5v-30.9c0-2.8 2.2-5 5-5h.4c.6 0 1 .4 1 1s-.4 1-1 1h-.4c-1.7 0-3 1.3-3 3v30.9c0 1.7 1.3 3 3 3h54c1.7 0 3-1.3 3-3v-30.9c0-1.7-1.3-3-3-3h-30.8c-.6 0-1-.4-1-1s.4-1 1-1h30.8c2.8 0 5 2.2 5 5v30.9c0 2.8-2.2 5-5 5z"/></g><g><path fill="#00A1FF" d="m64 45.7h-62c-.6 0-1-.4-1-1s.4-1 1-1h62c.6 0 1 .4 1 1s-.4 1-1 1z"/></g><g><path fill="#00A1FF" d="m39.9 58.3h-13.8c-.6 0-1-.4-1-1v-6.5c0-.6.4-1 1-1h13.8c.6 0 1 .4 1 1v6.5c0 .6-.4 1-1 1zm-12.8-2h11.8v-4.5h-11.8z"/></g><g><path fill="#00A1FF" d="m44.2 64.9h-22.4c-1.4 0-2.5-1.1-2.5-2.5v-3.6c0-1.4 1.1-2.5 2.5-2.5h22.4c1.4 0 2.5 1.1 2.5 2.5v3.6c0 1.4-1.1 2.5-2.5 2.5zm-22.4-6.6c-.2 0-.5.3-.5.5v3.6c0 .2.1.5.5.5h22.4c.2 0 .5-.1.5-.5v-3.6c0-.2-.1-.5-.5-.5z"/></g><g><path fill="#00A1FF" d="m34.5 48.8h-3c-.6 0-1-.4-1-1s.4-1 1-1h3c.6 0 1 .4 1 1s-.4 1-1 1z"/></g></g><g><path fill="#00A1FF" d="m17.8 25.5c-1 0-1.9-.1-2.8-.3-.5-.1-.8-.6-.7-1.1.2-1.1-.1-1.7-.4-1.9-.2-.1-.8.2-1.4 1-.3.4-.9.5-1.3.3-1.5-1-2.7-2.3-3.6-3.8-.3-.4-.1-1 .3-1.3.9-.7 1.1-1.3 1.1-1.5-.1-.2-.7-.5-1.8-.5-.5 0-1-.3-1.1-.8-.3-1.8-.3-3.6.1-5.2.1-.5.6-.8 1.1-.7.9 0 1.6-.3 1.7-.5s-.2-.9-1-1.5c-.4-.3-.5-.9-.2-1.3 1-1.5 2.3-2.7 3.8-3.6.4-.3 1-.1 1.3.3.6.9 1.3 1.1 1.5 1.1.2-.2.6-.9.5-2 0-.5.3-1 .8-1.1 1.8-.3 3.6-.3 5.2.1.5.1.8.6.7 1.1-.2 1.1.1 1.7.4 1.9.2.1.8-.2 1.4-1 .3-.4.9-.5 1.3-.3 1.5 1 2.7 2.3 3.6 3.8.3.4.1 1-.3 1.3-.9.7-1.1 1.3-1.1 1.5.1.2.7.5 1.7.4.5-.1 1 .3 1.1.8.3 1.8.3 3.6-.1 5.2-.1.5-.6.8-1.1.7-1.1-.2-1.7.1-1.9.4-.2.5.4 1.2 1 1.6.4.3.5.9.3 1.3-1 1.5-2.3 2.7-3.8 3.6-.4.3-1 .1-1.3-.3-.5-.8-1.2-1.2-1.6-1-.2.1-.5.7-.4 1.8 0 .5-.3 1-.8 1.1-.6.3-1.4.4-2.2.4zm-1.5-2.1c.9.1 1.8.2 2.7 0 .1-1.4.8-2.5 1.7-2.9 1.1-.4 2.3 0 3.3 1 .8-.5 1.4-1.1 2-1.8-1-1-1.3-2.3-.9-3.4.5-1 1.6-1.6 3-1.6.1-.9.2-1.8.1-2.7-1.4 0-2.5-.7-2.9-1.7s0-2.2 1-3.2c-.5-.8-1.1-1.4-1.8-2-1 1-2.3 1.4-3.3.9s-1.5-1.6-1.5-3c-.9-.1-1.8-.2-2.7 0-.1 1.5-.7 2.6-1.8 3-1 .4-2.2 0-3.2-1-.8.5-1.4 1.1-2 1.8 1 1 1.4 2.3.9 3.3s-1.6 1.5-3 1.5c-.1.9-.2 1.8 0 2.7 1.4.1 2.5.7 2.9 1.7s0 2.2-1 3.2c.5.8 1.1 1.4 1.8 2 1-1 2.3-1.4 3.3-.9.8.6 1.4 1.7 1.4 3.1z"/></g><g><path fill="#00A1FF" d="m17.9 20c-3.7 0-6.7-3-6.7-6.7s3-6.7 6.7-6.7 6.7 3 6.7 6.7-3 6.7-6.7 6.7zm0-11.4c-2.6 0-4.7 2.1-4.7 4.7s2.1 4.7 4.7 4.7 4.7-2.1 4.7-4.7-2.1-4.7-4.7-4.7z"/></g><g><path fill="#00A1FF" d="m57.2 41.2h-21.1c-2 0-3.5-1.5-3.5-3.5v-18.1c0-2 1.5-3.5 3.5-3.5h21.2c2 0 3.5 1.5 3.5 3.5v18.2c-.1 1.9-1.7 3.4-3.6 3.4zm-21.1-23.1c-.8 0-1.5.7-1.5 1.5v18.1c0 .8.7 1.5 1.5 1.5h21.1c.8 0 1.5-.6 1.6-1.5v-18.1c0-.8-.7-1.5-1.5-1.5z"/></g><g><path fill="#00A1FF" d="m59.7 24.8h-26.1c-.6 0-1-.4-1-1s.4-1 1-1h26.1c.6 0 1 .4 1 1s-.4 1-1 1z"/></g><g><g><path fill="#00A1FF" d="m47.8 21.5h-10.8c-.6 0-1-.4-1-1s.4-1 1-1h10.8c.6 0 1 .4 1 1s-.4 1-1 1z"/></g><g><path fill="#00A1FF" d="m52 21.5h-1.1c-.6 0-1-.4-1-1s.4-1 1-1h1.1c.6 0 1 .4 1 1s-.4 1-1 1z"/></g><g><path fill="#00A1FF" d="m56.3 21.5h-1.1c-.6 0-1-.4-1-1s.4-1 1-1h1.1c.6 0 1 .4 1 1s-.4 1-1 1z"/></g></g><g><g><path fill="#00A1FF" d="m43 35.7c-.3 0-.5-.1-.7-.3l-2.9-2.9c-.2-.2-.3-.4-.3-.7s.1-.5.3-.7l3-2.9c.4-.4 1-.4 1.4 0s.4 1 0 1.4l-2.3 2.2 2.2 2.2c.4.4.4 1 0 1.4-.2.2-.4.3-.7.3z"/></g><g><path fill="#00A1FF" d="m50.3 35.7c-.3 0-.5-.1-.7-.3-.4-.4-.4-1 0-1.4l2.9-2.9c.4-.4 1-.4 1.4 0s.4 1 0 1.4l-2.9 2.9c-.2.2-.4.3-.7.3z"/></g><g><path fill="#00A1FF" d="m53.2 32.8c-.2 0-.5-.1-.7-.3l-3-2.9c-.4-.4-.4-1 0-1.4s1-.4 1.4 0l3 2.9c.4.4.4 1 0 1.4-.2.2-.4.3-.7.3z"/></g><g><path fill="#00A1FF" d="m45.6 36.7c-.1 0-.2 0-.3 0-.5-.1-.8-.7-.7-1.2l2.1-7.8c.1-.5.7-.8 1.2-.7s.8.7.7 1.2l-2 7.8c-.2.4-.6.7-1 .7z"/></g></g><g><path fill="#00A1FF" d="m25.9 41.2h-16c-2.4 0-4.3-1.9-4.3-4.3s1.9-4.3 4.3-4.3h16c2.4 0 4.3 1.9 4.3 4.3s-1.9 4.3-4.3 4.3zm-16-6.6c-1.2 0-2.3 1.1-2.3 2.3s1.1 2.3 2.3 2.3h16c1.2 0 2.3-1.1 2.3-2.3s-1.1-2.3-2.3-2.3z"/></g><g><path fill="#00A1FF" d="m20.2 37.9h-8.9c-.6 0-1-.4-1-1s.4-1 1-1h8.9c.6 0 1 .4 1 1s-.4 1-1 1z"/></g></g></svg>